M48
INCH,LZ
;FILE_FORMAT=2:4
;TYPE=PLATED
;Layer: PTH_Through
;EasyEDA v6.5.40, 2024-12-13 02:27:43
;cafc711810e44acb902ef42d95588454,10
;Gerber Generator version 0.2
;Holesize 1 = 0.0120 inch
T01C0.0120
;Holesize 2 = 0.0280 inch
T02C0.0280
;Holesize 3 = 0.0320 inch
T03C0.0320
;Holesize 4 = 0.0320 inch
T04C0.0320
;Holesize 5 = 0.0350 inch
T05C0.0350
;Holesize 6 = 0.0390 inch
T06C0.0390
%
G05
G90
T01
X001000Y-016600
X004000Y-016600
X004000Y-021000
X002000Y-016100
X001000Y-018506
X004700Y-015750
X011900Y-020250
X011900Y-020750
X015350Y-003100
X005550Y-000500
X000500Y-021500
X011500Y-006500
X005700Y-006195
X005700Y-004500
T02
X007200Y-006165
X007200Y-004235
T03
X014545Y-008500
X013955Y-008500
X015200Y-000955
X015200Y-001545
X005455Y-021000
X006045Y-021000
X008295Y-018200
X007705Y-018200
X005455Y-018500
X006045Y-018500
T04
X012999Y-012000G85X013001Y-012000
X011999Y-011000G85X012001Y-011000
X011999Y-012000G85X012001Y-012000
X010999Y-011000G85X011001Y-011000
X009999Y-012000G85X010001Y-012000
X010999Y-012000G85X011001Y-012000
X009999Y-013000G85X010001Y-013000
X010999Y-013000G85X011001Y-013000
X009999Y-014000G85X010001Y-014000
X010999Y-014000G85X011001Y-014000
X009999Y-015000G85X010001Y-015000
X010999Y-016000G85X011001Y-016000
X010999Y-015000G85X011001Y-015000
X011999Y-016000G85X012001Y-016000
X011999Y-015000G85X012001Y-015000
X012999Y-016000G85X013001Y-016000
X012999Y-015000G85X013001Y-015000
X013999Y-016000G85X014001Y-016000
X014999Y-015000G85X015001Y-015000
X013999Y-015000G85X014001Y-015000
X014999Y-014000G85X015001Y-014000
X013999Y-014000G85X014001Y-014000
X014999Y-013000G85X015001Y-013000
X013999Y-013000G85X014001Y-013000
X014999Y-012000G85X015001Y-012000
X013999Y-011000G85X014001Y-011000
X013999Y-012000G85X014001Y-012000
X012999Y-011000G85X013001Y-011000
T05
X002500Y-014550
X001500Y-014550
X001500Y-013550
X002500Y-013550
X001500Y-012550
X002500Y-012550
X001500Y-010550
X001500Y-011550
X002500Y-011550
X002500Y-010550
X001500Y-009550
X002500Y-009550
X001500Y-008550
X002500Y-008550
X001500Y-007550
X002500Y-007550
X001500Y-006550
X002500Y-006550
X001500Y-005550
X002500Y-005550
X001500Y-004550
X002500Y-004550
X001500Y-003550
X002500Y-003550
X001500Y-002550
X002500Y-002550
T06
X013000Y-008000
X013000Y-007000
X013000Y-006000
X013000Y-005000
X013000Y-004000
X013000Y-003000
X013000Y-002000
X010000Y-008000
X010000Y-007000
X010000Y-006000
X010000Y-005000
X010000Y-004000
X010000Y-003000
X010000Y-002000
X005000Y-002000
X005000Y-008000
X008000Y-008000
X008000Y-002000
M30
