G04 Layer: TopSolderMaskLayer*
G04 EasyEDA v6.5.40, 2024-12-13 02:27:43*
G04 cafc711810e44acb902ef42d95588454,10*
G04 Gerber Generator version 0.2*
G04 Scale: 100 percent, Rotated: No, Reflected: No *
G04 Dimensions in inches *
G04 leading zeros omitted , absolute positions ,3 integer and 6 decimal *
%FSLAX36Y36*%
%MOIN*%

%AMMACRO1*1,1,$1,$2,$3*1,1,$1,$4,$5*1,1,$1,0-$2,0-$3*1,1,$1,0-$4,0-$5*20,1,$1,$2,$3,$4,$5,0*20,1,$1,$4,$5,0-$2,0-$3,0*20,1,$1,0-$2,0-$3,0-$4,0-$5,0*20,1,$1,0-$4,0-$5,$2,$3,0*4,1,4,$2,$3,$4,$5,0-$2,0-$3,0-$4,0-$5,$2,$3,0*%
%ADD10C,0.0670*%
%ADD11MACRO1,0.008X0.0177X0.0157X0.0177X-0.0157*%
%ADD12R,0.0435X0.0395*%
%ADD13R,0.0434X0.0395*%
%ADD14C,0.0512*%
%ADD15R,0.0473X0.1024*%
%ADD16R,0.1457X0.0961*%
%ADD17R,0.0670X0.0237*%
%ADD18O,0.08274000000000001X0.063055*%
%ADD19MACRO1,0.004X-0.0394X0.0295X0.0394X0.0295*%
%ADD20C,0.0827*%
%ADD21MACRO1,0.004X-0.0275X0.0275X0.0275X0.0275*%
%ADD22C,0.0590*%
%ADD23MACRO1,0.008X0.0157X-0.0177X-0.0157X-0.0177*%
%ADD24MACRO1,0.008X-0.0157X0.0177X0.0157X0.0177*%
%ADD25C,0.0700*%
%ADD26R,0.0700X0.0700*%

%LPD*%
D10*
G01*
X720000Y-616460D03*
G01*
X720000Y-423539D03*
D11*
G01*
X570000Y-572558D03*
G01*
X570000Y-517441D03*
D12*
G01*
X460000Y-572559D03*
D13*
G01*
X460000Y-517440D03*
D12*
G01*
X570000Y-722559D03*
D13*
G01*
X570000Y-667440D03*
D14*
G01*
X1454530Y-850000D03*
G01*
X1395469Y-850000D03*
G01*
X1520000Y-95470D03*
G01*
X1520000Y-154529D03*
G01*
X545470Y-2100000D03*
G01*
X604529Y-2100000D03*
G01*
X829530Y-1820000D03*
G01*
X770469Y-1820000D03*
G01*
X545470Y-1850000D03*
G01*
X604529Y-1850000D03*
D15*
G01*
X1625550Y-388069D03*
G01*
X1535000Y-388069D03*
G01*
X1444449Y-388069D03*
D16*
G01*
X1535000Y-621930D03*
D17*
G01*
X1097640Y-2175000D03*
G01*
X1097640Y-2125000D03*
G01*
X1097640Y-2075000D03*
G01*
X1097640Y-2025000D03*
G01*
X802359Y-2025000D03*
G01*
X802359Y-2075000D03*
G01*
X802359Y-2125000D03*
G01*
X802359Y-2175000D03*
D18*
G01*
X1300000Y-800000D03*
G01*
X1300000Y-700000D03*
G01*
X1300000Y-600000D03*
G01*
X1300000Y-500000D03*
G01*
X1300000Y-400000D03*
G01*
X1300000Y-300000D03*
G01*
X1300000Y-200000D03*
G01*
X1000000Y-800000D03*
G01*
X1000000Y-700000D03*
G01*
X1000000Y-600000D03*
G01*
X1000000Y-500000D03*
G01*
X1000000Y-400000D03*
G01*
X1000000Y-300000D03*
D19*
G01*
X1000000Y-200000D03*
D20*
G01*
X500000Y-200000D03*
G01*
X500000Y-800000D03*
G01*
X800000Y-800000D03*
G01*
X800000Y-200000D03*
D21*
G01*
X1300000Y-1200000D03*
D22*
G01*
X1200000Y-1100000D03*
G01*
X1200000Y-1200000D03*
G01*
X1100000Y-1100000D03*
G01*
X1000000Y-1200000D03*
G01*
X1100000Y-1200000D03*
G01*
X1000000Y-1300000D03*
G01*
X1100000Y-1300000D03*
G01*
X1000000Y-1400000D03*
G01*
X1100000Y-1400000D03*
G01*
X1000000Y-1500000D03*
G01*
X1100000Y-1600000D03*
G01*
X1100000Y-1500000D03*
G01*
X1200000Y-1600000D03*
G01*
X1200000Y-1500000D03*
G01*
X1300000Y-1600000D03*
G01*
X1300000Y-1500000D03*
G01*
X1400000Y-1600000D03*
G01*
X1500000Y-1500000D03*
G01*
X1400000Y-1500000D03*
G01*
X1500000Y-1400000D03*
G01*
X1400000Y-1400000D03*
G01*
X1500000Y-1300000D03*
G01*
X1400000Y-1300000D03*
G01*
X1500000Y-1200000D03*
G01*
X1400000Y-1100000D03*
G01*
X1400000Y-1200000D03*
G01*
X1300000Y-1100000D03*
D11*
G01*
X100000Y-1777558D03*
G01*
X100000Y-1722441D03*
G01*
X200000Y-1777558D03*
G01*
X200000Y-1722441D03*
G01*
X300000Y-1777558D03*
G01*
X300000Y-1722441D03*
G01*
X400000Y-1777558D03*
G01*
X400000Y-1722441D03*
D12*
G01*
X100000Y-1977559D03*
D13*
G01*
X100000Y-1922440D03*
D12*
G01*
X200000Y-1977559D03*
D13*
G01*
X200000Y-1922440D03*
D23*
G01*
X1577559Y-1805000D03*
G01*
X1522440Y-1805000D03*
D11*
G01*
X1400000Y-1792441D03*
G01*
X1400000Y-1847558D03*
G01*
X1650000Y-877558D03*
G01*
X1650000Y-822441D03*
G01*
X1300000Y-2077558D03*
G01*
X1300000Y-2022441D03*
D24*
G01*
X527558Y-1500000D03*
G01*
X472441Y-1500000D03*
G01*
X727558Y-1500000D03*
G01*
X672441Y-1500000D03*
D23*
G01*
X1127559Y-1925000D03*
G01*
X1072440Y-1925000D03*
G01*
X777559Y-50000D03*
G01*
X722441Y-50000D03*
D11*
G01*
X845000Y-1342441D03*
G01*
X845000Y-1397558D03*
D25*
G01*
X250000Y-1455000D03*
G01*
X150000Y-1455000D03*
G01*
X150000Y-1355000D03*
G01*
X250000Y-1355000D03*
G01*
X150000Y-1255000D03*
G01*
X250000Y-1255000D03*
G01*
X150000Y-1055000D03*
G01*
X150000Y-1155000D03*
G01*
X250000Y-1155000D03*
G01*
X250000Y-1055000D03*
G01*
X150000Y-955000D03*
G01*
X250000Y-955000D03*
G01*
X150000Y-855000D03*
G01*
X250000Y-855000D03*
G01*
X150000Y-755000D03*
G01*
X250000Y-755000D03*
G01*
X150000Y-655000D03*
G01*
X250000Y-655000D03*
G01*
X150000Y-555000D03*
G01*
X250000Y-555000D03*
G01*
X150000Y-455000D03*
G01*
X250000Y-455000D03*
G01*
X150000Y-355000D03*
G01*
X250000Y-355000D03*
D26*
G01*
X150000Y-255000D03*
D25*
G01*
X250000Y-255000D03*
M02*
