G04 Layer: TopSilkscreenLayer*
G04 EasyEDA v6.5.40, 2024-12-13 02:27:43*
G04 cafc711810e44acb902ef42d95588454,10*
G04 Gerber Generator version 0.2*
G04 Scale: 100 percent, Rotated: No, Reflected: No *
G04 Dimensions in inches *
G04 leading zeros omitted , absolute positions ,3 integer and 6 decimal *
%FSLAX36Y36*%
%MOIN*%

%ADD10C,0.0060*%
%ADD11C,0.0050*%
%ADD12C,0.0030*%
%ADD13C,0.0100*%
%ADD14C,0.0059*%
%ADD15C,0.0094*%
%ADD16C,0.0179*%

%LPD*%
G36*
X1097700Y-939599D02*
G01*
X1097700Y-988700D01*
X1095240Y-985759D01*
X1092440Y-982780D01*
X1089440Y-979940D01*
X1086300Y-977400D01*
X1084600Y-979500D01*
X1086680Y-981120D01*
X1088720Y-982900D01*
X1090700Y-984820D01*
X1092580Y-986820D01*
X1094380Y-988900D01*
X1096060Y-991000D01*
X1099000Y-995200D01*
X1101940Y-991000D01*
X1103620Y-988900D01*
X1105420Y-986820D01*
X1107300Y-984820D01*
X1109280Y-982900D01*
X1111320Y-981120D01*
X1113400Y-979500D01*
X1111700Y-977400D01*
X1108560Y-979940D01*
X1105540Y-982780D01*
X1102760Y-985759D01*
X1100300Y-988700D01*
X1100300Y-939599D01*
G37*
G36*
X1057300Y-945400D02*
G01*
X1038320Y-972500D01*
X1041200Y-972500D01*
X1055700Y-951500D01*
X1055700Y-972500D01*
X1038320Y-972500D01*
X1037900Y-973100D01*
X1037900Y-976300D01*
X1055700Y-976300D01*
X1055700Y-990000D01*
X1061000Y-990000D01*
X1061000Y-976300D01*
X1067900Y-976300D01*
X1067900Y-972500D01*
X1061000Y-972500D01*
X1061000Y-945400D01*
G37*
G36*
X912900Y-946000D02*
G01*
X912900Y-948300D01*
X919100Y-949000D01*
X919200Y-969800D01*
X925200Y-969800D01*
X925300Y-948600D01*
X929500Y-948600D01*
X932260Y-948780D01*
X934620Y-949300D01*
X936580Y-950160D01*
X938160Y-951320D01*
X939380Y-952800D01*
X940220Y-954599D01*
X940740Y-956660D01*
X940900Y-959000D01*
X940740Y-961300D01*
X940260Y-963379D01*
X939419Y-965220D01*
X938220Y-966800D01*
X936640Y-968080D01*
X934659Y-969020D01*
X932240Y-969599D01*
X929400Y-969800D01*
X919200Y-969800D01*
X919100Y-987099D01*
X912900Y-987700D01*
X912900Y-990000D01*
X931500Y-990000D01*
X931500Y-987700D01*
X925300Y-987000D01*
X925200Y-972400D01*
X928700Y-972400D01*
X931840Y-972280D01*
X934640Y-971919D01*
X937140Y-971340D01*
X939340Y-970580D01*
X941240Y-969599D01*
X942840Y-968480D01*
X944180Y-967180D01*
X945260Y-965759D01*
X946080Y-964220D01*
X946660Y-962560D01*
X947000Y-960819D01*
X947099Y-959000D01*
X946979Y-957099D01*
X946640Y-955320D01*
X946060Y-953680D01*
X945260Y-952159D01*
X944240Y-950800D01*
X942980Y-949580D01*
X941480Y-948520D01*
X939760Y-947640D01*
X937820Y-946940D01*
X935639Y-946420D01*
X933240Y-946100D01*
X930600Y-946000D01*
G37*
G36*
X951000Y-946000D02*
G01*
X951000Y-948300D01*
X957200Y-949000D01*
X957300Y-959800D01*
X957200Y-987099D01*
X951000Y-987700D01*
X951000Y-990000D01*
X969500Y-990000D01*
X969500Y-987700D01*
X963400Y-987000D01*
X963319Y-978319D01*
X963319Y-955460D01*
X963400Y-949000D01*
X969500Y-948300D01*
X969500Y-946000D01*
G37*
G36*
X975300Y-946000D02*
G01*
X975300Y-948300D01*
X980000Y-948900D01*
X980600Y-949700D01*
X980500Y-986900D01*
X975000Y-987700D01*
X975000Y-990000D01*
X990500Y-990000D01*
X990500Y-987700D01*
X983500Y-986800D01*
X983400Y-953600D01*
X1010200Y-990400D01*
X1012500Y-990400D01*
X1012600Y-949100D01*
X1018100Y-948300D01*
X1018100Y-946000D01*
X1002600Y-946000D01*
X1002600Y-948300D01*
X1009599Y-949100D01*
X1009700Y-979599D01*
X985400Y-946000D01*
G37*
G36*
X541600Y-1053300D02*
G01*
X529700Y-1056500D01*
X529700Y-1058800D01*
X536000Y-1059400D01*
X535980Y-1097100D01*
X535800Y-1106800D01*
X529700Y-1107600D01*
X529700Y-1110000D01*
X548600Y-1110000D01*
X548600Y-1107600D01*
X542400Y-1106800D01*
X542320Y-1100340D01*
X542300Y-1064800D01*
X542600Y-1053900D01*
G37*
G36*
X611800Y-1053300D02*
G01*
X600000Y-1056500D01*
X600000Y-1058800D01*
X606200Y-1059400D01*
X606180Y-1100340D01*
X606100Y-1106800D01*
X600000Y-1107600D01*
X600000Y-1110000D01*
X618800Y-1110000D01*
X618800Y-1107600D01*
X612700Y-1106800D01*
X612500Y-1093900D01*
X612500Y-1064800D01*
X612900Y-1053900D01*
G37*
G36*
X339700Y-1057500D02*
G01*
X337500Y-1057580D01*
X335360Y-1057820D01*
X333280Y-1058220D01*
X331280Y-1058780D01*
X329360Y-1059480D01*
X327520Y-1060320D01*
X325760Y-1061300D01*
X324120Y-1062420D01*
X322560Y-1063660D01*
X321120Y-1065020D01*
X319780Y-1066500D01*
X318560Y-1068080D01*
X317460Y-1069780D01*
X316500Y-1071580D01*
X315660Y-1073480D01*
X314980Y-1075480D01*
X314420Y-1077560D01*
X314020Y-1079740D01*
X313780Y-1081980D01*
X313700Y-1084300D01*
X313780Y-1086660D01*
X314020Y-1088940D01*
X314400Y-1091140D01*
X314920Y-1093240D01*
X315600Y-1095240D01*
X316400Y-1097140D01*
X317340Y-1098940D01*
X318420Y-1100640D01*
X319620Y-1102240D01*
X320920Y-1103700D01*
X322360Y-1105040D01*
X323900Y-1106280D01*
X325540Y-1107380D01*
X327299Y-1108340D01*
X329140Y-1109160D01*
X331079Y-1109840D01*
X333120Y-1110380D01*
X335220Y-1110780D01*
X337420Y-1111020D01*
X339700Y-1111100D01*
X341740Y-1111040D01*
X343760Y-1110880D01*
X345720Y-1110620D01*
X347660Y-1110220D01*
X349560Y-1109720D01*
X351440Y-1109080D01*
X353280Y-1108300D01*
X355100Y-1107400D01*
X355200Y-1096100D01*
X351000Y-1096100D01*
X349099Y-1105900D01*
X346900Y-1106780D01*
X344700Y-1107380D01*
X342500Y-1107700D01*
X340300Y-1107800D01*
X338280Y-1107700D01*
X336340Y-1107420D01*
X334480Y-1106940D01*
X332740Y-1106280D01*
X331079Y-1105440D01*
X329540Y-1104400D01*
X328120Y-1103180D01*
X326820Y-1101780D01*
X325660Y-1100220D01*
X324620Y-1098460D01*
X323720Y-1096540D01*
X322980Y-1094420D01*
X322380Y-1092160D01*
X321960Y-1089700D01*
X321680Y-1087080D01*
X321599Y-1084300D01*
X321700Y-1081540D01*
X321980Y-1078940D01*
X322440Y-1076500D01*
X323080Y-1074240D01*
X323880Y-1072140D01*
X324820Y-1070220D01*
X325900Y-1068480D01*
X327120Y-1066900D01*
X328459Y-1065500D01*
X329940Y-1064300D01*
X331500Y-1063260D01*
X333160Y-1062420D01*
X334920Y-1061760D01*
X336740Y-1061280D01*
X338640Y-1061000D01*
X340600Y-1060900D01*
X342560Y-1061000D01*
X344500Y-1061320D01*
X346460Y-1061920D01*
X348400Y-1062800D01*
X350300Y-1072600D01*
X354500Y-1072600D01*
X354400Y-1061300D01*
X352480Y-1060280D01*
X350580Y-1059440D01*
X348700Y-1058780D01*
X346820Y-1058280D01*
X344980Y-1057920D01*
X341420Y-1057540D01*
G37*
G36*
X836700Y-1057500D02*
G01*
X834500Y-1057580D01*
X832360Y-1057820D01*
X830280Y-1058220D01*
X828280Y-1058780D01*
X826360Y-1059480D01*
X824520Y-1060320D01*
X822760Y-1061300D01*
X821120Y-1062420D01*
X819560Y-1063660D01*
X818120Y-1065020D01*
X816780Y-1066500D01*
X815560Y-1068080D01*
X814460Y-1069780D01*
X813500Y-1071580D01*
X812660Y-1073480D01*
X811979Y-1075480D01*
X811420Y-1077560D01*
X811020Y-1079740D01*
X810780Y-1081980D01*
X810699Y-1084300D01*
X810780Y-1086660D01*
X811020Y-1088940D01*
X811400Y-1091140D01*
X811919Y-1093240D01*
X812600Y-1095240D01*
X813400Y-1097140D01*
X814340Y-1098940D01*
X815420Y-1100640D01*
X816620Y-1102240D01*
X817920Y-1103700D01*
X819360Y-1105040D01*
X820900Y-1106280D01*
X822540Y-1107380D01*
X824300Y-1108340D01*
X826140Y-1109160D01*
X828080Y-1109840D01*
X830120Y-1110380D01*
X832220Y-1110780D01*
X834419Y-1111020D01*
X836700Y-1111100D01*
X838740Y-1111040D01*
X840759Y-1110880D01*
X842720Y-1110620D01*
X844659Y-1110220D01*
X846560Y-1109720D01*
X848439Y-1109080D01*
X850280Y-1108300D01*
X852099Y-1107400D01*
X852200Y-1096100D01*
X848000Y-1096100D01*
X846100Y-1105900D01*
X843900Y-1106780D01*
X841700Y-1107380D01*
X839500Y-1107700D01*
X837300Y-1107800D01*
X835280Y-1107700D01*
X833340Y-1107420D01*
X831480Y-1106940D01*
X829740Y-1106280D01*
X828080Y-1105440D01*
X826540Y-1104400D01*
X825120Y-1103180D01*
X823820Y-1101780D01*
X822660Y-1100220D01*
X821620Y-1098460D01*
X820720Y-1096540D01*
X819980Y-1094420D01*
X819380Y-1092160D01*
X818960Y-1089700D01*
X818680Y-1087080D01*
X818600Y-1084300D01*
X818700Y-1081540D01*
X818980Y-1078940D01*
X819440Y-1076500D01*
X820080Y-1074240D01*
X820879Y-1072140D01*
X821820Y-1070220D01*
X822900Y-1068480D01*
X824120Y-1066900D01*
X825460Y-1065500D01*
X826940Y-1064300D01*
X828500Y-1063260D01*
X830160Y-1062420D01*
X831919Y-1061760D01*
X833740Y-1061280D01*
X835639Y-1061000D01*
X837600Y-1060900D01*
X839539Y-1061000D01*
X841500Y-1061320D01*
X843460Y-1061920D01*
X845400Y-1062800D01*
X847300Y-1072600D01*
X851500Y-1072600D01*
X851400Y-1061300D01*
X849479Y-1060280D01*
X847580Y-1059440D01*
X845699Y-1058780D01*
X843820Y-1058280D01*
X841979Y-1057920D01*
X838420Y-1057540D01*
G37*
G36*
X874300Y-1057600D02*
G01*
X871460Y-1057780D01*
X868780Y-1058320D01*
X866300Y-1059240D01*
X864080Y-1060520D01*
X862180Y-1062140D01*
X860639Y-1064140D01*
X859539Y-1066500D01*
X858900Y-1069200D01*
X859539Y-1070200D01*
X860420Y-1070960D01*
X861440Y-1071440D01*
X862600Y-1071600D01*
X863940Y-1071340D01*
X865080Y-1070500D01*
X866040Y-1068980D01*
X866800Y-1066700D01*
X868300Y-1061100D01*
X870540Y-1060780D01*
X872400Y-1060700D01*
X874460Y-1060900D01*
X876320Y-1061480D01*
X877920Y-1062400D01*
X879280Y-1063680D01*
X880360Y-1065260D01*
X881140Y-1067120D01*
X881640Y-1069240D01*
X881800Y-1071600D01*
X881640Y-1073880D01*
X881140Y-1076160D01*
X880300Y-1078500D01*
X879120Y-1080920D01*
X877580Y-1083440D01*
X875680Y-1086120D01*
X873420Y-1089000D01*
X866780Y-1096680D01*
X859200Y-1105200D01*
X859200Y-1110000D01*
X890699Y-1110000D01*
X890699Y-1104100D01*
X864100Y-1104100D01*
X878240Y-1089300D01*
X882200Y-1084800D01*
X883780Y-1082840D01*
X885120Y-1081000D01*
X886200Y-1079280D01*
X887060Y-1077620D01*
X887720Y-1076020D01*
X888160Y-1074440D01*
X888420Y-1072840D01*
X888500Y-1071200D01*
X888300Y-1068320D01*
X887660Y-1065700D01*
X886600Y-1063380D01*
X885080Y-1061400D01*
X883100Y-1059800D01*
X880660Y-1058600D01*
X877720Y-1057860D01*
G37*
G36*
X554100Y-1058700D02*
G01*
X554100Y-1061400D01*
X561200Y-1062100D01*
X561360Y-1069680D01*
X561400Y-1081900D01*
X568400Y-1081900D01*
X568500Y-1061700D01*
X573900Y-1061700D01*
X576720Y-1061840D01*
X579140Y-1062260D01*
X581220Y-1062980D01*
X582900Y-1064000D01*
X584220Y-1065340D01*
X585160Y-1067020D01*
X585720Y-1069040D01*
X585900Y-1071400D01*
X585700Y-1073920D01*
X585100Y-1076080D01*
X584080Y-1077880D01*
X582640Y-1079340D01*
X580760Y-1080480D01*
X578440Y-1081280D01*
X575660Y-1081740D01*
X572400Y-1081900D01*
X561400Y-1081900D01*
X561400Y-1085000D01*
X572800Y-1085000D01*
X576500Y-1085180D01*
X579640Y-1085700D01*
X582260Y-1086560D01*
X584380Y-1087780D01*
X585980Y-1089340D01*
X587120Y-1091240D01*
X587780Y-1093500D01*
X588000Y-1096100D01*
X587780Y-1098580D01*
X587080Y-1100740D01*
X585940Y-1102600D01*
X584340Y-1104120D01*
X582300Y-1105320D01*
X579820Y-1106200D01*
X576880Y-1106720D01*
X573500Y-1106900D01*
X568500Y-1106900D01*
X568400Y-1085000D01*
X561400Y-1085000D01*
X561360Y-1098920D01*
X561200Y-1106600D01*
X554100Y-1107300D01*
X554100Y-1110000D01*
X575000Y-1110000D01*
X578460Y-1109860D01*
X581580Y-1109440D01*
X584340Y-1108800D01*
X586760Y-1107920D01*
X588840Y-1106860D01*
X590620Y-1105620D01*
X592100Y-1104240D01*
X593280Y-1102740D01*
X594180Y-1101140D01*
X594820Y-1099460D01*
X595180Y-1097740D01*
X595300Y-1096000D01*
X595100Y-1093700D01*
X594460Y-1091560D01*
X593380Y-1089580D01*
X591840Y-1087800D01*
X589800Y-1086240D01*
X587240Y-1084940D01*
X584160Y-1083920D01*
X580500Y-1083200D01*
X583520Y-1082380D01*
X586080Y-1081300D01*
X588180Y-1080000D01*
X589860Y-1078500D01*
X591140Y-1076820D01*
X592020Y-1075020D01*
X592540Y-1073100D01*
X592700Y-1071100D01*
X592580Y-1069340D01*
X592220Y-1067680D01*
X591620Y-1066120D01*
X590800Y-1064680D01*
X589720Y-1063380D01*
X588440Y-1062200D01*
X586920Y-1061180D01*
X585180Y-1060320D01*
X583200Y-1059620D01*
X581020Y-1059120D01*
X578620Y-1058800D01*
X576000Y-1058700D01*
G37*
G36*
X473100Y-1063100D02*
G01*
X471100Y-1073500D01*
X464200Y-1074300D01*
X464200Y-1077000D01*
X470700Y-1077000D01*
X470600Y-1102000D01*
X470760Y-1104160D01*
X471200Y-1106020D01*
X471920Y-1107580D01*
X472920Y-1108820D01*
X474180Y-1109780D01*
X475660Y-1110460D01*
X477380Y-1110860D01*
X479300Y-1111000D01*
X482060Y-1110720D01*
X484500Y-1109940D01*
X486560Y-1108720D01*
X488200Y-1107100D01*
X486700Y-1105300D01*
X485240Y-1106280D01*
X483940Y-1106960D01*
X482700Y-1107360D01*
X481400Y-1107500D01*
X479580Y-1107180D01*
X478180Y-1106140D01*
X477299Y-1104340D01*
X477000Y-1101700D01*
X477000Y-1077000D01*
X487400Y-1077000D01*
X487400Y-1073700D01*
X477100Y-1073700D01*
X477500Y-1063100D01*
G37*
G36*
X702300Y-1063100D02*
G01*
X700200Y-1073500D01*
X693400Y-1074300D01*
X693400Y-1077000D01*
X699900Y-1077000D01*
X699800Y-1102000D01*
X699940Y-1104160D01*
X700380Y-1106020D01*
X701100Y-1107580D01*
X702080Y-1108820D01*
X703340Y-1109780D01*
X704820Y-1110460D01*
X706540Y-1110860D01*
X708500Y-1111000D01*
X711260Y-1110720D01*
X713660Y-1109940D01*
X715720Y-1108720D01*
X717400Y-1107100D01*
X715900Y-1105300D01*
X714440Y-1106280D01*
X713139Y-1106960D01*
X711900Y-1107360D01*
X710600Y-1107500D01*
X708780Y-1107180D01*
X707380Y-1106140D01*
X706500Y-1104340D01*
X706200Y-1101700D01*
X706200Y-1077000D01*
X716600Y-1077000D01*
X716600Y-1073700D01*
X706300Y-1073700D01*
X706700Y-1063100D01*
G37*
G36*
X384799Y-1072600D02*
G01*
X383220Y-1072780D01*
X381640Y-1073280D01*
X380100Y-1074100D01*
X378600Y-1075240D01*
X377180Y-1076660D01*
X375860Y-1078380D01*
X374660Y-1080360D01*
X373600Y-1082600D01*
X372900Y-1073400D01*
X371800Y-1072700D01*
X361000Y-1076900D01*
X361000Y-1079200D01*
X367100Y-1079800D01*
X367280Y-1084400D01*
X367200Y-1106800D01*
X361599Y-1107600D01*
X361599Y-1110000D01*
X380200Y-1110000D01*
X380200Y-1107600D01*
X373800Y-1106700D01*
X373700Y-1087900D01*
X374920Y-1084640D01*
X376400Y-1081900D01*
X378180Y-1079600D01*
X380300Y-1077700D01*
X382380Y-1079480D01*
X383500Y-1080140D01*
X384700Y-1080560D01*
X386000Y-1080700D01*
X388000Y-1080340D01*
X389360Y-1079300D01*
X390140Y-1077660D01*
X390400Y-1075500D01*
X389480Y-1074280D01*
X388160Y-1073380D01*
X386560Y-1072800D01*
G37*
G36*
X447700Y-1072600D02*
G01*
X444660Y-1072840D01*
X441980Y-1073480D01*
X439680Y-1074500D01*
X437780Y-1075860D01*
X436280Y-1077460D01*
X435180Y-1079260D01*
X434520Y-1081240D01*
X434300Y-1083300D01*
X434480Y-1085180D01*
X434960Y-1086860D01*
X435780Y-1088360D01*
X436860Y-1089700D01*
X438220Y-1090880D01*
X439820Y-1091940D01*
X441659Y-1092860D01*
X443700Y-1093700D01*
X447299Y-1094900D01*
X450520Y-1096320D01*
X452720Y-1097840D01*
X454000Y-1099640D01*
X454400Y-1101900D01*
X453860Y-1104380D01*
X452239Y-1106300D01*
X449500Y-1107560D01*
X445600Y-1108000D01*
X443820Y-1107920D01*
X442180Y-1107700D01*
X440700Y-1107320D01*
X439300Y-1106800D01*
X437600Y-1099700D01*
X434000Y-1099700D01*
X434099Y-1108100D01*
X436900Y-1109360D01*
X439680Y-1110260D01*
X442560Y-1110820D01*
X445700Y-1111000D01*
X449120Y-1110760D01*
X452100Y-1110120D01*
X454640Y-1109080D01*
X456740Y-1107720D01*
X458380Y-1106100D01*
X459560Y-1104260D01*
X460260Y-1102240D01*
X460500Y-1100100D01*
X460360Y-1098320D01*
X459920Y-1096680D01*
X459180Y-1095140D01*
X458100Y-1093720D01*
X456659Y-1092400D01*
X454840Y-1091180D01*
X452640Y-1090060D01*
X447299Y-1088000D01*
X444040Y-1086620D01*
X441840Y-1085200D01*
X440600Y-1083480D01*
X440200Y-1081200D01*
X440680Y-1078940D01*
X442120Y-1077160D01*
X444460Y-1076020D01*
X447700Y-1075600D01*
X449099Y-1075700D01*
X450480Y-1075960D01*
X451840Y-1076400D01*
X453200Y-1077000D01*
X454700Y-1083500D01*
X458100Y-1083500D01*
X458400Y-1075800D01*
X455880Y-1074420D01*
X453320Y-1073420D01*
X450620Y-1072800D01*
G37*
G36*
X508000Y-1072600D02*
G01*
X505120Y-1072760D01*
X502480Y-1073260D01*
X500120Y-1074060D01*
X498040Y-1075140D01*
X496280Y-1076500D01*
X494860Y-1078120D01*
X493780Y-1080000D01*
X493100Y-1082100D01*
X493420Y-1083360D01*
X494080Y-1084260D01*
X495120Y-1084820D01*
X496500Y-1085000D01*
X497860Y-1084780D01*
X498980Y-1084100D01*
X499820Y-1082980D01*
X500400Y-1081400D01*
X501900Y-1076200D01*
X504159Y-1075760D01*
X506200Y-1075600D01*
X508020Y-1075700D01*
X509540Y-1076020D01*
X510820Y-1076600D01*
X511860Y-1077500D01*
X512620Y-1078760D01*
X513180Y-1080400D01*
X513500Y-1082500D01*
X513600Y-1087500D01*
X508920Y-1088680D01*
X506700Y-1089320D01*
X504700Y-1090000D01*
X501280Y-1091340D01*
X498519Y-1092680D01*
X496320Y-1094020D01*
X494660Y-1095380D01*
X493440Y-1096820D01*
X492660Y-1098320D01*
X492239Y-1099900D01*
X492190Y-1100500D01*
X498600Y-1100500D01*
X498900Y-1098420D01*
X500040Y-1096280D01*
X502440Y-1094180D01*
X506500Y-1092200D01*
X509640Y-1091040D01*
X513600Y-1089800D01*
X513600Y-1102000D01*
X510800Y-1104140D01*
X508600Y-1105520D01*
X506700Y-1106280D01*
X504799Y-1106500D01*
X502320Y-1106160D01*
X500340Y-1105080D01*
X499060Y-1103200D01*
X498600Y-1100500D01*
X492190Y-1100500D01*
X492100Y-1101600D01*
X492299Y-1103780D01*
X492900Y-1105680D01*
X493820Y-1107300D01*
X495060Y-1108620D01*
X496540Y-1109660D01*
X498260Y-1110400D01*
X500160Y-1110860D01*
X502200Y-1111000D01*
X505340Y-1110600D01*
X508100Y-1109440D01*
X510780Y-1107500D01*
X513700Y-1104800D01*
X514500Y-1107300D01*
X515940Y-1109180D01*
X518000Y-1110380D01*
X520600Y-1110800D01*
X522480Y-1110600D01*
X524180Y-1109940D01*
X525740Y-1108740D01*
X527100Y-1106900D01*
X525700Y-1105500D01*
X525020Y-1106240D01*
X524320Y-1106820D01*
X523540Y-1107180D01*
X522700Y-1107300D01*
X521500Y-1107060D01*
X520620Y-1106240D01*
X520080Y-1104720D01*
X519900Y-1102400D01*
X519900Y-1085800D01*
X519720Y-1082500D01*
X519159Y-1079720D01*
X518240Y-1077440D01*
X516940Y-1075640D01*
X515280Y-1074280D01*
X513240Y-1073320D01*
X510800Y-1072780D01*
G37*
G36*
X639700Y-1072600D02*
G01*
X636840Y-1072760D01*
X634240Y-1073260D01*
X631880Y-1074060D01*
X629820Y-1075140D01*
X628080Y-1076500D01*
X626640Y-1078120D01*
X625580Y-1080000D01*
X624900Y-1082100D01*
X625220Y-1083360D01*
X625880Y-1084260D01*
X626920Y-1084820D01*
X628300Y-1085000D01*
X629620Y-1084780D01*
X630680Y-1084100D01*
X631520Y-1082980D01*
X632100Y-1081400D01*
X633600Y-1076200D01*
X635860Y-1075760D01*
X637900Y-1075600D01*
X639720Y-1075700D01*
X641260Y-1076020D01*
X642520Y-1076600D01*
X643560Y-1077500D01*
X644320Y-1078760D01*
X644880Y-1080400D01*
X645200Y-1082500D01*
X645300Y-1087500D01*
X640639Y-1088680D01*
X638460Y-1089320D01*
X636500Y-1090000D01*
X633080Y-1091340D01*
X630300Y-1092680D01*
X628080Y-1094020D01*
X626400Y-1095380D01*
X625180Y-1096820D01*
X624380Y-1098320D01*
X623940Y-1099900D01*
X623890Y-1100500D01*
X630300Y-1100500D01*
X630600Y-1098420D01*
X631740Y-1096280D01*
X634140Y-1094180D01*
X638200Y-1092200D01*
X641380Y-1091040D01*
X645300Y-1089800D01*
X645300Y-1102000D01*
X642500Y-1104140D01*
X640340Y-1105520D01*
X638460Y-1106280D01*
X636500Y-1106500D01*
X634060Y-1106160D01*
X632080Y-1105080D01*
X630780Y-1103200D01*
X630300Y-1100500D01*
X623890Y-1100500D01*
X623800Y-1101600D01*
X624000Y-1103780D01*
X624600Y-1105680D01*
X625560Y-1107300D01*
X626800Y-1108620D01*
X628320Y-1109660D01*
X630040Y-1110400D01*
X631960Y-1110860D01*
X634000Y-1111000D01*
X637140Y-1110600D01*
X639860Y-1109440D01*
X642500Y-1107500D01*
X645400Y-1104800D01*
X646240Y-1107300D01*
X647680Y-1109180D01*
X649720Y-1110380D01*
X652300Y-1110800D01*
X654220Y-1110600D01*
X655939Y-1109940D01*
X657480Y-1108740D01*
X658900Y-1106900D01*
X657500Y-1105500D01*
X656780Y-1106240D01*
X656060Y-1106820D01*
X655300Y-1107180D01*
X654400Y-1107300D01*
X653199Y-1107060D01*
X652320Y-1106240D01*
X651780Y-1104720D01*
X651600Y-1102400D01*
X651600Y-1085800D01*
X651420Y-1082500D01*
X650860Y-1079720D01*
X649940Y-1077440D01*
X648640Y-1075640D01*
X646979Y-1074280D01*
X644940Y-1073320D01*
X642500Y-1072780D01*
G37*
G36*
X676900Y-1072600D02*
G01*
X673860Y-1072840D01*
X671180Y-1073480D01*
X668880Y-1074500D01*
X666979Y-1075860D01*
X665480Y-1077460D01*
X664380Y-1079260D01*
X663720Y-1081240D01*
X663500Y-1083300D01*
X663680Y-1085180D01*
X664160Y-1086860D01*
X664980Y-1088360D01*
X666060Y-1089700D01*
X667420Y-1090880D01*
X669020Y-1091940D01*
X670860Y-1092860D01*
X672900Y-1093700D01*
X676400Y-1094900D01*
X679680Y-1096320D01*
X681919Y-1097840D01*
X683199Y-1099640D01*
X683600Y-1101900D01*
X683060Y-1104380D01*
X681440Y-1106300D01*
X678700Y-1107560D01*
X674800Y-1108000D01*
X673020Y-1107920D01*
X671380Y-1107700D01*
X669900Y-1107320D01*
X668500Y-1106800D01*
X666800Y-1099700D01*
X663100Y-1099700D01*
X663300Y-1108100D01*
X666080Y-1109360D01*
X668820Y-1110260D01*
X671680Y-1110820D01*
X674800Y-1111000D01*
X678259Y-1110760D01*
X681260Y-1110120D01*
X683820Y-1109080D01*
X685920Y-1107720D01*
X687560Y-1106100D01*
X688760Y-1104260D01*
X689460Y-1102240D01*
X689700Y-1100100D01*
X689560Y-1098320D01*
X689120Y-1096680D01*
X688360Y-1095140D01*
X687260Y-1093720D01*
X685819Y-1092400D01*
X684000Y-1091180D01*
X681800Y-1090060D01*
X676500Y-1088000D01*
X673199Y-1086620D01*
X671000Y-1085200D01*
X669780Y-1083480D01*
X669400Y-1081200D01*
X669880Y-1078940D01*
X671320Y-1077160D01*
X673660Y-1076020D01*
X676900Y-1075600D01*
X678300Y-1075700D01*
X679680Y-1075960D01*
X681040Y-1076400D01*
X682400Y-1077000D01*
X683900Y-1083500D01*
X687300Y-1083500D01*
X687600Y-1075800D01*
X685080Y-1074420D01*
X682520Y-1073420D01*
X679820Y-1072800D01*
G37*
G36*
X738700Y-1072600D02*
G01*
X736380Y-1072760D01*
X734140Y-1073220D01*
X732000Y-1073980D01*
X729980Y-1075040D01*
X728120Y-1076360D01*
X726420Y-1077920D01*
X724920Y-1079740D01*
X723640Y-1081800D01*
X722620Y-1084080D01*
X721840Y-1086560D01*
X721474Y-1088600D01*
X728000Y-1088600D01*
X728460Y-1085420D01*
X729260Y-1082720D01*
X730360Y-1080480D01*
X731700Y-1078680D01*
X733220Y-1077320D01*
X734900Y-1076360D01*
X736640Y-1075780D01*
X738400Y-1075600D01*
X740200Y-1075780D01*
X741840Y-1076320D01*
X743280Y-1077160D01*
X744520Y-1078260D01*
X745520Y-1079580D01*
X746280Y-1081080D01*
X746740Y-1082740D01*
X746900Y-1084500D01*
X746720Y-1086220D01*
X746080Y-1087540D01*
X744800Y-1088400D01*
X742700Y-1088700D01*
X721474Y-1088600D01*
X721360Y-1089240D01*
X721200Y-1092100D01*
X721340Y-1095000D01*
X721760Y-1097660D01*
X722460Y-1100120D01*
X723400Y-1102340D01*
X724580Y-1104320D01*
X725980Y-1106040D01*
X727620Y-1107540D01*
X729440Y-1108760D01*
X731460Y-1109740D01*
X733640Y-1110440D01*
X736000Y-1110860D01*
X738500Y-1111000D01*
X740960Y-1110840D01*
X743240Y-1110380D01*
X745340Y-1109640D01*
X747240Y-1108620D01*
X748980Y-1107360D01*
X750500Y-1105860D01*
X751860Y-1104120D01*
X753000Y-1102200D01*
X751400Y-1101200D01*
X749300Y-1103460D01*
X746900Y-1105180D01*
X744060Y-1106300D01*
X740600Y-1106700D01*
X737900Y-1106460D01*
X735460Y-1105740D01*
X733319Y-1104540D01*
X731480Y-1102880D01*
X729980Y-1100720D01*
X728880Y-1098100D01*
X728160Y-1094980D01*
X727900Y-1091400D01*
X752500Y-1091500D01*
X752960Y-1089660D01*
X753100Y-1087200D01*
X752980Y-1085020D01*
X752600Y-1083000D01*
X752020Y-1081120D01*
X751220Y-1079420D01*
X750200Y-1077880D01*
X749020Y-1076520D01*
X747640Y-1075360D01*
X746120Y-1074380D01*
X744460Y-1073620D01*
X742640Y-1073060D01*
X740720Y-1072720D01*
G37*
G36*
X783100Y-1072600D02*
G01*
X781480Y-1072780D01*
X779880Y-1073280D01*
X778319Y-1074100D01*
X776820Y-1075240D01*
X775400Y-1076660D01*
X774100Y-1078380D01*
X772920Y-1080360D01*
X771900Y-1082600D01*
X771100Y-1073400D01*
X770000Y-1072700D01*
X759300Y-1076900D01*
X759300Y-1079200D01*
X765300Y-1079800D01*
X765520Y-1084400D01*
X765600Y-1089900D01*
X765400Y-1106800D01*
X759800Y-1107600D01*
X759800Y-1110000D01*
X778400Y-1110000D01*
X778400Y-1107600D01*
X772099Y-1106700D01*
X771900Y-1093900D01*
X771900Y-1087900D01*
X773120Y-1084640D01*
X774620Y-1081900D01*
X776420Y-1079600D01*
X778600Y-1077700D01*
X779500Y-1078600D01*
X780620Y-1079480D01*
X781740Y-1080140D01*
X782920Y-1080560D01*
X784200Y-1080700D01*
X786200Y-1080340D01*
X787560Y-1079300D01*
X788340Y-1077660D01*
X788600Y-1075500D01*
X787680Y-1074280D01*
X786380Y-1073380D01*
X784800Y-1072800D01*
G37*
G36*
X391800Y-1073700D02*
G01*
X391800Y-1076100D01*
X396100Y-1076600D01*
X410400Y-1112200D01*
X408600Y-1116440D01*
X406940Y-1119520D01*
X404960Y-1122220D01*
X402600Y-1124500D01*
X400600Y-1122660D01*
X399280Y-1121780D01*
X397920Y-1121280D01*
X396400Y-1121100D01*
X394780Y-1121300D01*
X393320Y-1121880D01*
X392160Y-1122880D01*
X391500Y-1124300D01*
X392080Y-1126280D01*
X393600Y-1127780D01*
X395800Y-1128760D01*
X398400Y-1129100D01*
X399780Y-1129000D01*
X401140Y-1128660D01*
X402460Y-1128080D01*
X403780Y-1127260D01*
X405060Y-1126200D01*
X406320Y-1124860D01*
X407580Y-1123260D01*
X408820Y-1121360D01*
X410080Y-1119180D01*
X411320Y-1116700D01*
X412560Y-1113920D01*
X426700Y-1076800D01*
X431000Y-1076100D01*
X431000Y-1073700D01*
X416100Y-1073700D01*
X416100Y-1076100D01*
X423000Y-1076800D01*
X413400Y-1104100D01*
X403300Y-1076800D01*
X410000Y-1076100D01*
X410000Y-1073700D01*
G37*
G36*
X709800Y-1256100D02*
G01*
X695100Y-1303800D01*
X698100Y-1303800D01*
X712700Y-1256100D01*
G37*
G36*
X782700Y-1256100D02*
G01*
X768000Y-1303800D01*
X771000Y-1303800D01*
X785600Y-1256100D01*
G37*
G36*
X653400Y-1257600D02*
G01*
X651400Y-1257720D01*
X649520Y-1258100D01*
X647760Y-1258740D01*
X646180Y-1259660D01*
X644800Y-1260820D01*
X643700Y-1262240D01*
X642880Y-1263940D01*
X642400Y-1265900D01*
X642900Y-1266580D01*
X643520Y-1267120D01*
X644260Y-1267480D01*
X645100Y-1267600D01*
X646060Y-1267400D01*
X646860Y-1266780D01*
X647540Y-1265700D01*
X648100Y-1264100D01*
X649200Y-1260100D01*
X650819Y-1259820D01*
X652200Y-1259700D01*
X654980Y-1260260D01*
X657080Y-1261860D01*
X658420Y-1264340D01*
X658900Y-1267600D01*
X658780Y-1269240D01*
X658420Y-1270880D01*
X657820Y-1272540D01*
X656979Y-1274260D01*
X655879Y-1276060D01*
X654520Y-1277960D01*
X651000Y-1282200D01*
X642700Y-1291600D01*
X642700Y-1295000D01*
X665200Y-1295000D01*
X665200Y-1290700D01*
X646200Y-1290700D01*
X649840Y-1287020D01*
X657820Y-1278500D01*
X659720Y-1276240D01*
X661220Y-1274240D01*
X662300Y-1272420D01*
X663040Y-1270700D01*
X663460Y-1269020D01*
X663600Y-1267300D01*
X663460Y-1265240D01*
X663000Y-1263380D01*
X662240Y-1261720D01*
X661160Y-1260320D01*
X659740Y-1259160D01*
X657980Y-1258320D01*
X655879Y-1257780D01*
G37*
G36*
X753800Y-1257600D02*
G01*
X751800Y-1257720D01*
X749920Y-1258100D01*
X748160Y-1258740D01*
X746580Y-1259660D01*
X745200Y-1260820D01*
X744100Y-1262240D01*
X743280Y-1263940D01*
X742800Y-1265900D01*
X743300Y-1266580D01*
X743920Y-1267120D01*
X744659Y-1267480D01*
X745500Y-1267600D01*
X746420Y-1267400D01*
X747220Y-1266780D01*
X747880Y-1265700D01*
X748400Y-1264100D01*
X749500Y-1260100D01*
X751140Y-1259820D01*
X752500Y-1259700D01*
X755280Y-1260260D01*
X757380Y-1261860D01*
X758720Y-1264340D01*
X759200Y-1267600D01*
X759080Y-1269240D01*
X758720Y-1270880D01*
X758120Y-1272540D01*
X757280Y-1274260D01*
X756180Y-1276060D01*
X754820Y-1277960D01*
X751300Y-1282200D01*
X743000Y-1291600D01*
X743000Y-1295000D01*
X765500Y-1295000D01*
X765500Y-1290700D01*
X746500Y-1290700D01*
X753000Y-1284100D01*
X758180Y-1278500D01*
X760080Y-1276240D01*
X761580Y-1274240D01*
X762680Y-1272420D01*
X763439Y-1270700D01*
X763860Y-1269020D01*
X764000Y-1267300D01*
X763860Y-1265240D01*
X763400Y-1263380D01*
X762640Y-1261720D01*
X761560Y-1260320D01*
X760140Y-1259160D01*
X758379Y-1258320D01*
X756280Y-1257780D01*
G37*
G36*
X826900Y-1257600D02*
G01*
X823280Y-1258040D01*
X820220Y-1259360D01*
X817920Y-1261560D01*
X816600Y-1264700D01*
X817039Y-1265580D01*
X817640Y-1266180D01*
X818360Y-1266500D01*
X819200Y-1266600D01*
X820320Y-1266400D01*
X821160Y-1265760D01*
X821800Y-1264700D01*
X823199Y-1260100D01*
X824620Y-1259780D01*
X825900Y-1259700D01*
X828720Y-1260160D01*
X830819Y-1261520D01*
X832140Y-1263740D01*
X832600Y-1266800D01*
X832039Y-1270080D01*
X830440Y-1272480D01*
X827920Y-1273980D01*
X824599Y-1274500D01*
X822500Y-1274500D01*
X822500Y-1276900D01*
X825100Y-1276900D01*
X827080Y-1277040D01*
X828800Y-1277480D01*
X830260Y-1278180D01*
X831440Y-1279140D01*
X832380Y-1280340D01*
X833060Y-1281759D01*
X833460Y-1283380D01*
X833600Y-1285200D01*
X833040Y-1288580D01*
X831440Y-1291240D01*
X828840Y-1292980D01*
X825300Y-1293600D01*
X823780Y-1293520D01*
X822200Y-1293200D01*
X821300Y-1289900D01*
X820780Y-1288300D01*
X820180Y-1287220D01*
X819380Y-1286600D01*
X818300Y-1286399D01*
X817480Y-1286500D01*
X816760Y-1286800D01*
X816140Y-1287320D01*
X815600Y-1288100D01*
X816120Y-1289940D01*
X816900Y-1291519D01*
X817940Y-1292840D01*
X819200Y-1293880D01*
X820660Y-1294700D01*
X822320Y-1295260D01*
X824140Y-1295600D01*
X826100Y-1295700D01*
X828720Y-1295500D01*
X831100Y-1294920D01*
X833199Y-1294000D01*
X834980Y-1292740D01*
X836440Y-1291220D01*
X837500Y-1289460D01*
X838180Y-1287460D01*
X838400Y-1285300D01*
X838259Y-1283520D01*
X837860Y-1281879D01*
X837200Y-1280400D01*
X836240Y-1279080D01*
X835000Y-1277920D01*
X833460Y-1276980D01*
X831640Y-1276220D01*
X829500Y-1275700D01*
X832820Y-1274180D01*
X835220Y-1272080D01*
X836700Y-1269520D01*
X837200Y-1266600D01*
X837020Y-1264660D01*
X836480Y-1262920D01*
X835600Y-1261380D01*
X834419Y-1260080D01*
X832920Y-1259020D01*
X831160Y-1258240D01*
X829160Y-1257760D01*
G37*
G36*
X685100Y-1257800D02*
G01*
X669250Y-1280400D01*
X671700Y-1280400D01*
X683800Y-1263000D01*
X683800Y-1280400D01*
X669250Y-1280400D01*
X668900Y-1280900D01*
X668900Y-1283600D01*
X683800Y-1283600D01*
X683800Y-1295000D01*
X688199Y-1295000D01*
X688199Y-1283600D01*
X694000Y-1283600D01*
X694000Y-1280400D01*
X688199Y-1280400D01*
X688199Y-1257800D01*
G37*
G36*
X728800Y-1257800D02*
G01*
X717600Y-1260700D01*
X717600Y-1262600D01*
X724900Y-1262000D01*
X724880Y-1287840D01*
X724800Y-1292200D01*
X717000Y-1293300D01*
X717000Y-1295000D01*
X737200Y-1295000D01*
X737200Y-1293300D01*
X729500Y-1292200D01*
X729400Y-1283400D01*
X729400Y-1266300D01*
X729599Y-1258400D01*
G37*
G36*
X801700Y-1257800D02*
G01*
X790500Y-1260700D01*
X790500Y-1262600D01*
X797800Y-1262000D01*
X797780Y-1287840D01*
X797700Y-1292200D01*
X789900Y-1293300D01*
X789900Y-1295000D01*
X810100Y-1295000D01*
X810100Y-1293300D01*
X802400Y-1292200D01*
X802300Y-1283400D01*
X802300Y-1266300D01*
X802500Y-1258400D01*
G37*
G36*
X785500Y-1123300D02*
G01*
X773600Y-1126500D01*
X773600Y-1128800D01*
X779900Y-1129400D01*
X779880Y-1167100D01*
X779700Y-1176800D01*
X773600Y-1177600D01*
X773600Y-1180000D01*
X792500Y-1180000D01*
X792500Y-1177600D01*
X786300Y-1176800D01*
X786220Y-1170340D01*
X786200Y-1134800D01*
X786500Y-1123900D01*
G37*
G36*
X806300Y-1124400D02*
G01*
X804360Y-1124740D01*
X802800Y-1125700D01*
X801780Y-1127180D01*
X801400Y-1129100D01*
X801780Y-1130980D01*
X802800Y-1132520D01*
X804360Y-1133520D01*
X806300Y-1133900D01*
X808199Y-1133520D01*
X809760Y-1132520D01*
X810819Y-1130980D01*
X811200Y-1129100D01*
X810819Y-1127180D01*
X809760Y-1125700D01*
X808199Y-1124740D01*
G37*
G36*
X643400Y-1128700D02*
G01*
X643400Y-1131400D01*
X650600Y-1132100D01*
X650699Y-1153100D01*
X657700Y-1153100D01*
X657800Y-1131700D01*
X664500Y-1131700D01*
X667320Y-1131880D01*
X669740Y-1132400D01*
X671760Y-1133260D01*
X673379Y-1134420D01*
X674640Y-1135900D01*
X675520Y-1137700D01*
X676020Y-1139760D01*
X676200Y-1142100D01*
X676000Y-1144380D01*
X675440Y-1146480D01*
X674479Y-1148340D01*
X673120Y-1149960D01*
X671400Y-1151280D01*
X669280Y-1152260D01*
X666780Y-1152880D01*
X663900Y-1153100D01*
X650699Y-1153100D01*
X650600Y-1176600D01*
X643400Y-1177300D01*
X643400Y-1180000D01*
X665000Y-1180000D01*
X665000Y-1177300D01*
X657800Y-1176500D01*
X657700Y-1156100D01*
X661800Y-1156100D01*
X664000Y-1156180D01*
X665879Y-1156420D01*
X667460Y-1156860D01*
X668800Y-1157580D01*
X669920Y-1158580D01*
X670819Y-1159900D01*
X671580Y-1161600D01*
X672200Y-1163700D01*
X675300Y-1175900D01*
X676240Y-1178140D01*
X677780Y-1179660D01*
X680020Y-1180520D01*
X683100Y-1180800D01*
X684820Y-1180740D01*
X686380Y-1180580D01*
X687740Y-1180340D01*
X688900Y-1180000D01*
X688900Y-1177300D01*
X683000Y-1176800D01*
X679400Y-1164700D01*
X677940Y-1160900D01*
X676000Y-1158100D01*
X673460Y-1156200D01*
X670200Y-1155100D01*
X673300Y-1154340D01*
X675980Y-1153260D01*
X678240Y-1151900D01*
X680100Y-1150280D01*
X681540Y-1148480D01*
X682580Y-1146480D01*
X683199Y-1144340D01*
X683400Y-1142100D01*
X683259Y-1140080D01*
X682840Y-1138200D01*
X682140Y-1136460D01*
X681180Y-1134900D01*
X679960Y-1133480D01*
X678500Y-1132240D01*
X676800Y-1131180D01*
X674860Y-1130300D01*
X672680Y-1129620D01*
X670300Y-1129100D01*
X667700Y-1128800D01*
X664900Y-1128700D01*
G37*
G36*
X710100Y-1142600D02*
G01*
X707780Y-1142760D01*
X705540Y-1143220D01*
X703400Y-1143980D01*
X701380Y-1145040D01*
X699520Y-1146360D01*
X697820Y-1147920D01*
X696320Y-1149740D01*
X695040Y-1151800D01*
X694020Y-1154080D01*
X693240Y-1156560D01*
X692874Y-1158600D01*
X699400Y-1158600D01*
X699860Y-1155420D01*
X700660Y-1152720D01*
X701760Y-1150480D01*
X703100Y-1148680D01*
X704620Y-1147320D01*
X706300Y-1146360D01*
X708040Y-1145780D01*
X709800Y-1145600D01*
X711600Y-1145780D01*
X713240Y-1146320D01*
X714680Y-1147160D01*
X715920Y-1148260D01*
X716919Y-1149580D01*
X717680Y-1151080D01*
X718139Y-1152740D01*
X718300Y-1154500D01*
X718120Y-1156220D01*
X717480Y-1157540D01*
X716200Y-1158400D01*
X714100Y-1158700D01*
X692874Y-1158600D01*
X692760Y-1159240D01*
X692600Y-1162100D01*
X692740Y-1165000D01*
X693160Y-1167660D01*
X693860Y-1170120D01*
X694800Y-1172340D01*
X695980Y-1174320D01*
X697380Y-1176040D01*
X699020Y-1177540D01*
X700840Y-1178760D01*
X702860Y-1179740D01*
X705040Y-1180440D01*
X707400Y-1180860D01*
X709900Y-1181000D01*
X712360Y-1180840D01*
X714640Y-1180380D01*
X716740Y-1179640D01*
X718640Y-1178620D01*
X720380Y-1177360D01*
X721900Y-1175860D01*
X723259Y-1174120D01*
X724400Y-1172200D01*
X722800Y-1171200D01*
X720699Y-1173460D01*
X718300Y-1175180D01*
X715460Y-1176300D01*
X712000Y-1176700D01*
X709300Y-1176460D01*
X706860Y-1175740D01*
X704720Y-1174540D01*
X702880Y-1172880D01*
X701380Y-1170720D01*
X700280Y-1168100D01*
X699560Y-1164980D01*
X699300Y-1161400D01*
X723900Y-1161500D01*
X724160Y-1160660D01*
X724460Y-1158500D01*
X724500Y-1157200D01*
X724380Y-1155020D01*
X724000Y-1153000D01*
X723420Y-1151120D01*
X722620Y-1149420D01*
X721600Y-1147880D01*
X720420Y-1146520D01*
X719040Y-1145360D01*
X717520Y-1144380D01*
X715860Y-1143620D01*
X714040Y-1143060D01*
X712120Y-1142720D01*
G37*
G36*
X754100Y-1142600D02*
G01*
X751060Y-1142920D01*
X748100Y-1143960D01*
X745220Y-1145720D01*
X742400Y-1148300D01*
X741900Y-1143400D01*
X740900Y-1142700D01*
X730100Y-1146900D01*
X730100Y-1149200D01*
X736300Y-1149800D01*
X736500Y-1159900D01*
X736500Y-1173300D01*
X742800Y-1173300D01*
X742800Y-1150700D01*
X745660Y-1148560D01*
X748120Y-1147280D01*
X750260Y-1146660D01*
X752099Y-1146500D01*
X754220Y-1146760D01*
X756140Y-1147500D01*
X757820Y-1148760D01*
X759260Y-1150480D01*
X760420Y-1152700D01*
X761280Y-1155400D01*
X761820Y-1158560D01*
X762000Y-1162200D01*
X761780Y-1165860D01*
X761160Y-1168960D01*
X760180Y-1171520D01*
X758880Y-1173580D01*
X757300Y-1175160D01*
X755500Y-1176240D01*
X753520Y-1176900D01*
X751400Y-1177100D01*
X749200Y-1176880D01*
X747060Y-1176220D01*
X744940Y-1175040D01*
X742800Y-1173300D01*
X736500Y-1173300D01*
X736480Y-1185320D01*
X736300Y-1195100D01*
X730100Y-1196000D01*
X730100Y-1198300D01*
X749700Y-1198300D01*
X749700Y-1196000D01*
X742700Y-1195000D01*
X742600Y-1175900D01*
X745080Y-1178380D01*
X747680Y-1179940D01*
X750340Y-1180760D01*
X753000Y-1181000D01*
X755180Y-1180840D01*
X757260Y-1180380D01*
X759200Y-1179640D01*
X761020Y-1178620D01*
X762700Y-1177320D01*
X764180Y-1175760D01*
X765500Y-1173960D01*
X766600Y-1171920D01*
X767500Y-1169660D01*
X768160Y-1167160D01*
X768560Y-1164480D01*
X768700Y-1161600D01*
X768560Y-1158740D01*
X768180Y-1156100D01*
X767580Y-1153660D01*
X766740Y-1151420D01*
X765699Y-1149440D01*
X764479Y-1147680D01*
X763080Y-1146160D01*
X761520Y-1144900D01*
X759840Y-1143900D01*
X758020Y-1143180D01*
X756100Y-1142740D01*
G37*
G36*
X838700Y-1142600D02*
G01*
X836400Y-1142740D01*
X834140Y-1143180D01*
X831979Y-1143920D01*
X829920Y-1144920D01*
X828020Y-1146180D01*
X826260Y-1147720D01*
X824700Y-1149500D01*
X823379Y-1151520D01*
X822280Y-1153780D01*
X821480Y-1156260D01*
X820980Y-1158980D01*
X820800Y-1161900D01*
X820939Y-1164740D01*
X821360Y-1167380D01*
X822039Y-1169820D01*
X822980Y-1172060D01*
X824140Y-1174060D01*
X825560Y-1175840D01*
X827159Y-1177380D01*
X829000Y-1178640D01*
X831000Y-1179660D01*
X833199Y-1180400D01*
X835580Y-1180840D01*
X838100Y-1181000D01*
X840660Y-1180840D01*
X843000Y-1180380D01*
X845140Y-1179600D01*
X847039Y-1178560D01*
X848720Y-1177220D01*
X850160Y-1175600D01*
X851340Y-1173720D01*
X852300Y-1171600D01*
X850800Y-1170900D01*
X848700Y-1173320D01*
X846160Y-1175140D01*
X843280Y-1176300D01*
X840100Y-1176700D01*
X838300Y-1176580D01*
X836580Y-1176240D01*
X835000Y-1175680D01*
X833520Y-1174880D01*
X832180Y-1173880D01*
X830980Y-1172660D01*
X829920Y-1171240D01*
X829040Y-1169620D01*
X828340Y-1167800D01*
X827820Y-1165780D01*
X827500Y-1163580D01*
X827400Y-1161200D01*
X827620Y-1157680D01*
X828259Y-1154580D01*
X829280Y-1151920D01*
X830660Y-1149680D01*
X832360Y-1147920D01*
X834360Y-1146640D01*
X836620Y-1145860D01*
X839100Y-1145600D01*
X841080Y-1145760D01*
X843300Y-1146300D01*
X845260Y-1153100D01*
X846060Y-1154220D01*
X847220Y-1154940D01*
X848800Y-1155200D01*
X850040Y-1155020D01*
X851020Y-1154520D01*
X851760Y-1153640D01*
X852200Y-1152400D01*
X851580Y-1150380D01*
X850580Y-1148500D01*
X849240Y-1146840D01*
X847580Y-1145400D01*
X845660Y-1144220D01*
X843520Y-1143340D01*
X841180Y-1142800D01*
G37*
G36*
X874400Y-1142600D02*
G01*
X871540Y-1142760D01*
X868940Y-1143260D01*
X866580Y-1144060D01*
X864520Y-1145140D01*
X862780Y-1146500D01*
X861360Y-1148120D01*
X860280Y-1150000D01*
X859599Y-1152100D01*
X859920Y-1153360D01*
X860580Y-1154260D01*
X861620Y-1154820D01*
X863000Y-1155000D01*
X864360Y-1154780D01*
X865440Y-1154100D01*
X866280Y-1152980D01*
X866900Y-1151400D01*
X868300Y-1146200D01*
X870620Y-1145760D01*
X872700Y-1145600D01*
X874500Y-1145700D01*
X876040Y-1146020D01*
X877300Y-1146600D01*
X878300Y-1147500D01*
X879060Y-1148760D01*
X879599Y-1150400D01*
X879900Y-1152500D01*
X880000Y-1157500D01*
X875380Y-1158680D01*
X871200Y-1160000D01*
X867780Y-1161340D01*
X865000Y-1162680D01*
X862780Y-1164020D01*
X861100Y-1165380D01*
X859880Y-1166820D01*
X859080Y-1168320D01*
X858640Y-1169900D01*
X858590Y-1170500D01*
X865100Y-1170500D01*
X865380Y-1168420D01*
X866500Y-1166280D01*
X868900Y-1164180D01*
X873000Y-1162200D01*
X876080Y-1161040D01*
X880000Y-1159800D01*
X880000Y-1172000D01*
X877240Y-1174140D01*
X875080Y-1175520D01*
X873199Y-1176280D01*
X871300Y-1176500D01*
X868820Y-1176160D01*
X866860Y-1175080D01*
X865560Y-1173200D01*
X865100Y-1170500D01*
X858590Y-1170500D01*
X858500Y-1171600D01*
X858700Y-1173780D01*
X859300Y-1175680D01*
X860260Y-1177300D01*
X861500Y-1178620D01*
X863020Y-1179660D01*
X864740Y-1180400D01*
X866660Y-1180860D01*
X868700Y-1181000D01*
X871840Y-1180600D01*
X874599Y-1179440D01*
X877280Y-1177500D01*
X880200Y-1174800D01*
X880980Y-1177300D01*
X882400Y-1179180D01*
X884419Y-1180380D01*
X887000Y-1180800D01*
X888940Y-1180600D01*
X890680Y-1179940D01*
X892240Y-1178740D01*
X893600Y-1176900D01*
X892200Y-1175500D01*
X891480Y-1176240D01*
X890759Y-1176820D01*
X890000Y-1177180D01*
X889100Y-1177300D01*
X887940Y-1177060D01*
X887060Y-1176240D01*
X886500Y-1174720D01*
X886300Y-1172400D01*
X886300Y-1155800D01*
X886120Y-1152500D01*
X885580Y-1149720D01*
X884680Y-1147440D01*
X883379Y-1145640D01*
X881720Y-1144280D01*
X879680Y-1143320D01*
X877240Y-1142780D01*
G37*
G36*
X808600Y-1142700D02*
G01*
X796900Y-1146800D01*
X796900Y-1149100D01*
X803100Y-1149700D01*
X803300Y-1159800D01*
X803199Y-1176800D01*
X797300Y-1177600D01*
X797300Y-1180000D01*
X814900Y-1180000D01*
X814900Y-1177600D01*
X809700Y-1176800D01*
X809500Y-1163900D01*
X809500Y-1153600D01*
X809700Y-1143400D01*
G37*
G36*
X649800Y-1199500D02*
G01*
X641500Y-1201800D01*
X641500Y-1203400D01*
X645900Y-1203900D01*
X645900Y-1234900D01*
X650500Y-1234900D01*
X650500Y-1219200D01*
X652540Y-1217540D01*
X654300Y-1216600D01*
X655840Y-1216200D01*
X657200Y-1216100D01*
X658720Y-1216280D01*
X660120Y-1216800D01*
X661360Y-1217660D01*
X662420Y-1218880D01*
X663300Y-1220440D01*
X663940Y-1222340D01*
X664360Y-1224600D01*
X664500Y-1227200D01*
X664340Y-1229840D01*
X663880Y-1232080D01*
X663160Y-1233920D01*
X662220Y-1235400D01*
X661080Y-1236520D01*
X659820Y-1237300D01*
X658439Y-1237760D01*
X657000Y-1237900D01*
X655400Y-1237720D01*
X653780Y-1237180D01*
X652140Y-1236260D01*
X650500Y-1234900D01*
X645900Y-1234900D01*
X645900Y-1237700D01*
X641800Y-1238300D01*
X641800Y-1240000D01*
X649900Y-1240500D01*
X650300Y-1236800D01*
X652200Y-1238720D01*
X654160Y-1239920D01*
X656100Y-1240520D01*
X658000Y-1240700D01*
X660400Y-1240440D01*
X662600Y-1239680D01*
X664520Y-1238460D01*
X666160Y-1236820D01*
X667500Y-1234800D01*
X668480Y-1232440D01*
X669080Y-1229760D01*
X669300Y-1226800D01*
X669100Y-1223780D01*
X668480Y-1221100D01*
X667540Y-1218800D01*
X666260Y-1216860D01*
X664720Y-1215340D01*
X662920Y-1214220D01*
X660939Y-1213540D01*
X658800Y-1213300D01*
X656620Y-1213540D01*
X654479Y-1214260D01*
X652360Y-1215540D01*
X650300Y-1217400D01*
X650300Y-1207700D01*
X650500Y-1199900D01*
G37*
G36*
X787800Y-1199500D02*
G01*
X779300Y-1201800D01*
X779300Y-1203400D01*
X783800Y-1203900D01*
X783700Y-1237700D01*
X779400Y-1238300D01*
X779400Y-1240000D01*
X792700Y-1240000D01*
X792700Y-1238300D01*
X788400Y-1237700D01*
X788300Y-1229700D01*
X791900Y-1226100D01*
X800400Y-1240000D01*
X807900Y-1240000D01*
X807900Y-1238300D01*
X804300Y-1237800D01*
X795100Y-1222900D01*
X801400Y-1216600D01*
X806400Y-1215900D01*
X806400Y-1214100D01*
X793900Y-1214100D01*
X793900Y-1215900D01*
X798199Y-1216800D01*
X788300Y-1227000D01*
X788300Y-1207700D01*
X788500Y-1199900D01*
G37*
G36*
X769800Y-1200300D02*
G01*
X768400Y-1200540D01*
X767260Y-1201200D01*
X766480Y-1202240D01*
X766200Y-1203600D01*
X766480Y-1204980D01*
X767260Y-1206060D01*
X768400Y-1206740D01*
X769800Y-1207000D01*
X771140Y-1206740D01*
X772260Y-1206060D01*
X773020Y-1204980D01*
X773300Y-1203600D01*
X773020Y-1202240D01*
X772260Y-1201200D01*
X771140Y-1200540D01*
G37*
G36*
X714100Y-1203400D02*
G01*
X714100Y-1205300D01*
X719100Y-1205900D01*
X719100Y-1237400D01*
X714100Y-1238100D01*
X714100Y-1240000D01*
X726400Y-1240000D01*
X726400Y-1238100D01*
X721600Y-1237400D01*
X721560Y-1218860D01*
X721300Y-1208600D01*
X734100Y-1240000D01*
X736500Y-1240000D01*
X748800Y-1208500D01*
X748700Y-1237600D01*
X743900Y-1238100D01*
X743900Y-1240000D01*
X758800Y-1240000D01*
X758800Y-1238100D01*
X753800Y-1237600D01*
X753700Y-1216680D01*
X753800Y-1205800D01*
X758900Y-1205300D01*
X758900Y-1203400D01*
X748300Y-1203400D01*
X736500Y-1233800D01*
X724100Y-1203400D01*
G37*
G36*
X821700Y-1213300D02*
G01*
X817820Y-1213780D01*
X814680Y-1215120D01*
X812400Y-1217260D01*
X811100Y-1220100D01*
X811360Y-1220980D01*
X811860Y-1221640D01*
X812600Y-1222060D01*
X813600Y-1222200D01*
X814560Y-1222040D01*
X815320Y-1221540D01*
X815900Y-1220720D01*
X817400Y-1215900D01*
X818980Y-1215500D01*
X820500Y-1215400D01*
X822880Y-1215700D01*
X824479Y-1216780D01*
X825400Y-1218860D01*
X825699Y-1222200D01*
X825699Y-1223900D01*
X822400Y-1224760D01*
X819400Y-1225700D01*
X815000Y-1227580D01*
X812240Y-1229560D01*
X810800Y-1231660D01*
X810536Y-1233200D01*
X815000Y-1233200D01*
X815220Y-1231720D01*
X816040Y-1230200D01*
X817780Y-1228680D01*
X820699Y-1227200D01*
X825699Y-1225600D01*
X825699Y-1234300D01*
X823740Y-1235820D01*
X822180Y-1236800D01*
X820840Y-1237340D01*
X819500Y-1237500D01*
X817700Y-1237240D01*
X816280Y-1236480D01*
X815340Y-1235140D01*
X815000Y-1233200D01*
X810536Y-1233200D01*
X810400Y-1234000D01*
X810960Y-1236900D01*
X812500Y-1239000D01*
X814780Y-1240280D01*
X817600Y-1240700D01*
X819860Y-1240440D01*
X821820Y-1239620D01*
X823720Y-1238260D01*
X825800Y-1236300D01*
X826400Y-1238060D01*
X827420Y-1239420D01*
X828860Y-1240300D01*
X830699Y-1240600D01*
X832060Y-1240460D01*
X833319Y-1239980D01*
X834419Y-1239120D01*
X835400Y-1237800D01*
X834400Y-1236800D01*
X833379Y-1237760D01*
X832820Y-1238000D01*
X832200Y-1238100D01*
X831380Y-1237920D01*
X830759Y-1237320D01*
X830340Y-1236240D01*
X830200Y-1234600D01*
X830200Y-1222700D01*
X830080Y-1220340D01*
X829680Y-1218360D01*
X829040Y-1216740D01*
X828120Y-1215460D01*
X826940Y-1214480D01*
X825480Y-1213820D01*
X823740Y-1213420D01*
G37*
G36*
X848300Y-1213300D02*
G01*
X846100Y-1213460D01*
X844180Y-1213920D01*
X842540Y-1214640D01*
X841180Y-1215600D01*
X840100Y-1216740D01*
X839320Y-1218020D01*
X838860Y-1219420D01*
X838700Y-1220900D01*
X839180Y-1223440D01*
X840560Y-1225480D01*
X842660Y-1227080D01*
X845400Y-1228400D01*
X848000Y-1229200D01*
X850320Y-1230200D01*
X851900Y-1231280D01*
X852800Y-1232580D01*
X853100Y-1234200D01*
X852720Y-1235980D01*
X851560Y-1237380D01*
X849599Y-1238280D01*
X846800Y-1238600D01*
X845520Y-1238540D01*
X844360Y-1238380D01*
X843300Y-1238100D01*
X842300Y-1237700D01*
X841100Y-1232600D01*
X838500Y-1232600D01*
X838600Y-1238600D01*
X840580Y-1239520D01*
X842560Y-1240180D01*
X844599Y-1240560D01*
X846800Y-1240700D01*
X849260Y-1240540D01*
X851400Y-1240080D01*
X853240Y-1239340D01*
X854720Y-1238380D01*
X855900Y-1237220D01*
X856720Y-1235900D01*
X857240Y-1234440D01*
X857400Y-1232900D01*
X856979Y-1230500D01*
X855680Y-1228380D01*
X853360Y-1226560D01*
X849900Y-1225000D01*
X845639Y-1223340D01*
X844060Y-1222320D01*
X843180Y-1221080D01*
X842900Y-1219500D01*
X843259Y-1217820D01*
X844280Y-1216560D01*
X845980Y-1215780D01*
X848300Y-1215500D01*
X849280Y-1215560D01*
X850240Y-1215720D01*
X851220Y-1216000D01*
X852200Y-1216400D01*
X853300Y-1221100D01*
X855699Y-1221100D01*
X855900Y-1215500D01*
X854100Y-1214560D01*
X852280Y-1213880D01*
X850380Y-1213440D01*
G37*
G36*
X874599Y-1213300D02*
G01*
X872159Y-1213540D01*
X869820Y-1214240D01*
X867640Y-1215380D01*
X865720Y-1216940D01*
X864100Y-1218920D01*
X862880Y-1221280D01*
X862080Y-1224000D01*
X861800Y-1227100D01*
X862020Y-1230100D01*
X862700Y-1232760D01*
X863760Y-1235100D01*
X865220Y-1237040D01*
X867000Y-1238620D01*
X869100Y-1239760D01*
X871480Y-1240460D01*
X874100Y-1240700D01*
X877660Y-1240240D01*
X880560Y-1238920D01*
X882760Y-1236820D01*
X884300Y-1234000D01*
X883199Y-1233500D01*
X881740Y-1235240D01*
X879920Y-1236520D01*
X877860Y-1237320D01*
X875600Y-1237600D01*
X873680Y-1237420D01*
X871940Y-1236860D01*
X870400Y-1235960D01*
X869060Y-1234720D01*
X867980Y-1233160D01*
X867180Y-1231280D01*
X866680Y-1229080D01*
X866500Y-1226600D01*
X866660Y-1224080D01*
X867099Y-1221860D01*
X867840Y-1219940D01*
X868820Y-1218340D01*
X870040Y-1217080D01*
X871480Y-1216160D01*
X873100Y-1215600D01*
X874900Y-1215400D01*
X876320Y-1215500D01*
X877800Y-1215900D01*
X879240Y-1220780D01*
X879820Y-1221600D01*
X880680Y-1222120D01*
X881800Y-1222300D01*
X882680Y-1222180D01*
X883379Y-1221780D01*
X883880Y-1221160D01*
X884200Y-1220300D01*
X883100Y-1217520D01*
X880980Y-1215300D01*
X878060Y-1213840D01*
G37*
G36*
X771400Y-1213400D02*
G01*
X763000Y-1216300D01*
X763000Y-1218000D01*
X767500Y-1218400D01*
X767580Y-1221740D01*
X767500Y-1237700D01*
X763300Y-1238300D01*
X763300Y-1240000D01*
X775900Y-1240000D01*
X775900Y-1238300D01*
X772200Y-1237700D01*
X772120Y-1233020D01*
X772099Y-1221100D01*
X772200Y-1213900D01*
G37*
G36*
X671300Y-1214100D02*
G01*
X671300Y-1215700D01*
X674300Y-1216100D01*
X684500Y-1241600D01*
X683259Y-1244600D01*
X682060Y-1246780D01*
X680660Y-1248700D01*
X679000Y-1250300D01*
X677560Y-1249060D01*
X676600Y-1248460D01*
X675639Y-1248120D01*
X674599Y-1248000D01*
X673420Y-1248120D01*
X672360Y-1248500D01*
X671540Y-1249180D01*
X671100Y-1250200D01*
X671500Y-1251580D01*
X672580Y-1252660D01*
X674140Y-1253360D01*
X676000Y-1253600D01*
X677480Y-1253420D01*
X678900Y-1252880D01*
X680280Y-1251940D01*
X681660Y-1250580D01*
X683000Y-1248780D01*
X684320Y-1246520D01*
X685660Y-1243760D01*
X687000Y-1240500D01*
X696200Y-1216300D01*
X699200Y-1215700D01*
X699200Y-1214100D01*
X688600Y-1214100D01*
X688600Y-1215700D01*
X693600Y-1216300D01*
X686700Y-1235700D01*
X679500Y-1216300D01*
X684200Y-1215700D01*
X684200Y-1214100D01*
G37*
D10*
X314600Y-304499D02*
G01*
X347300Y-304499D01*
X353499Y-306599D01*
X355500Y-308600D01*
X357500Y-312699D01*
X357500Y-316799D01*
X355500Y-320900D01*
X353499Y-323000D01*
X347300Y-325000D01*
X343200Y-325000D01*
X322800Y-290999D02*
G01*
X320700Y-286999D01*
X314600Y-280799D01*
X357500Y-280799D01*
D11*
X917299Y-2233699D02*
G01*
X915500Y-2230100D01*
X911800Y-2226500D01*
X908199Y-2224600D01*
X900900Y-2224600D01*
X897299Y-2226500D01*
X893599Y-2230100D01*
X891800Y-2233699D01*
X890000Y-2239200D01*
X890000Y-2248299D01*
X891800Y-2253699D01*
X893599Y-2257399D01*
X897299Y-2260999D01*
X900900Y-2262800D01*
X908199Y-2262800D01*
X911800Y-2260999D01*
X915500Y-2257399D01*
X917299Y-2253699D01*
X954700Y-2230100D02*
G01*
X951099Y-2226500D01*
X945600Y-2224600D01*
X938400Y-2224600D01*
X932899Y-2226500D01*
X929300Y-2230100D01*
X929300Y-2233699D01*
X931099Y-2237399D01*
X932899Y-2239200D01*
X936499Y-2240999D01*
X947500Y-2244600D01*
X951099Y-2246500D01*
X952899Y-2248299D01*
X954700Y-2251900D01*
X954700Y-2257399D01*
X951099Y-2260999D01*
X945600Y-2262800D01*
X938400Y-2262800D01*
X932899Y-2260999D01*
X929300Y-2257399D01*
X984899Y-2224600D02*
G01*
X966700Y-2250100D01*
X993999Y-2250100D01*
X984899Y-2224600D02*
G01*
X984899Y-2262800D01*
X1009600Y-2224600D02*
G01*
X1029600Y-2224600D01*
X1018699Y-2239200D01*
X1024200Y-2239200D01*
X1027799Y-2240999D01*
X1029600Y-2242800D01*
X1031499Y-2248299D01*
X1031499Y-2251900D01*
X1029600Y-2257399D01*
X1026000Y-2260999D01*
X1020500Y-2262800D01*
X1015100Y-2262800D01*
X1009600Y-2260999D01*
X1007799Y-2259200D01*
X1006000Y-2255500D01*
X1047100Y-2224600D02*
G01*
X1067100Y-2224600D01*
X1056199Y-2239200D01*
X1061599Y-2239200D01*
X1065299Y-2240999D01*
X1067100Y-2242800D01*
X1068900Y-2248299D01*
X1068900Y-2251900D01*
X1067100Y-2257399D01*
X1063500Y-2260999D01*
X1058000Y-2262800D01*
X1052500Y-2262800D01*
X1047100Y-2260999D01*
X1045299Y-2259200D01*
X1043500Y-2255500D01*
X1084499Y-2224600D02*
G01*
X1104499Y-2224600D01*
X1093599Y-2239200D01*
X1099099Y-2239200D01*
X1102700Y-2240999D01*
X1104499Y-2242800D01*
X1106400Y-2248299D01*
X1106400Y-2251900D01*
X1104499Y-2257399D01*
X1100900Y-2260999D01*
X1095500Y-2262800D01*
X1090000Y-2262800D01*
X1084499Y-2260999D01*
X1082700Y-2259200D01*
X1080900Y-2255500D01*
X1432299Y-958699D02*
G01*
X1430500Y-955100D01*
X1426800Y-951500D01*
X1423199Y-949600D01*
X1415900Y-949600D01*
X1412299Y-951500D01*
X1408599Y-955100D01*
X1406800Y-958699D01*
X1405000Y-964200D01*
X1405000Y-973299D01*
X1406800Y-978699D01*
X1408599Y-982399D01*
X1412299Y-985999D01*
X1415900Y-987800D01*
X1423199Y-987800D01*
X1426800Y-985999D01*
X1430500Y-982399D01*
X1432299Y-978699D01*
X1469700Y-955100D02*
G01*
X1466099Y-951500D01*
X1460600Y-949600D01*
X1453400Y-949600D01*
X1447899Y-951500D01*
X1444300Y-955100D01*
X1444300Y-958699D01*
X1446099Y-962399D01*
X1447899Y-964200D01*
X1451499Y-965999D01*
X1462500Y-969600D01*
X1466099Y-971500D01*
X1467899Y-973299D01*
X1469700Y-976900D01*
X1469700Y-982399D01*
X1466099Y-985999D01*
X1460600Y-987800D01*
X1453400Y-987800D01*
X1447899Y-985999D01*
X1444300Y-982399D01*
X1505399Y-962399D02*
G01*
X1503500Y-967800D01*
X1499899Y-971500D01*
X1494499Y-973299D01*
X1492600Y-973299D01*
X1487200Y-971500D01*
X1483500Y-967800D01*
X1481700Y-962399D01*
X1481700Y-960500D01*
X1483500Y-955100D01*
X1487200Y-951500D01*
X1492600Y-949600D01*
X1494499Y-949600D01*
X1499899Y-951500D01*
X1503500Y-955100D01*
X1505399Y-962399D01*
X1505399Y-971500D01*
X1503500Y-980500D01*
X1499899Y-985999D01*
X1494499Y-987800D01*
X1490799Y-987800D01*
X1485399Y-985999D01*
X1483500Y-982399D01*
X1519200Y-958699D02*
G01*
X1519200Y-956900D01*
X1521000Y-953299D01*
X1522799Y-951500D01*
X1526499Y-949600D01*
X1533699Y-949600D01*
X1537399Y-951500D01*
X1539200Y-953299D01*
X1541000Y-956900D01*
X1541000Y-960500D01*
X1539200Y-964200D01*
X1535500Y-969600D01*
X1517399Y-987800D01*
X1542799Y-987800D01*
X1558500Y-949600D02*
G01*
X1578500Y-949600D01*
X1567500Y-964200D01*
X1573000Y-964200D01*
X1576599Y-965999D01*
X1578500Y-967800D01*
X1580299Y-973299D01*
X1580299Y-976900D01*
X1578500Y-982399D01*
X1574799Y-985999D01*
X1569399Y-987800D01*
X1563900Y-987800D01*
X1558500Y-985999D01*
X1556599Y-984200D01*
X1554799Y-980500D01*
X1614099Y-955100D02*
G01*
X1612299Y-951500D01*
X1606800Y-949600D01*
X1603199Y-949600D01*
X1597700Y-951500D01*
X1594099Y-956900D01*
X1592299Y-965999D01*
X1592299Y-975100D01*
X1594099Y-982399D01*
X1597700Y-985999D01*
X1603199Y-987800D01*
X1605000Y-987800D01*
X1610500Y-985999D01*
X1614099Y-982399D01*
X1615900Y-976900D01*
X1615900Y-975100D01*
X1614099Y-969600D01*
X1610500Y-965999D01*
X1605000Y-964200D01*
X1603199Y-964200D01*
X1597700Y-965999D01*
X1594099Y-969600D01*
X1592299Y-975100D01*
X1170399Y-420500D02*
G01*
X1132200Y-402300D01*
X1170399Y-395000D02*
G01*
X1170399Y-420500D01*
X1170399Y-450599D02*
G01*
X1144899Y-432500D01*
X1144899Y-459699D01*
X1170399Y-450599D02*
G01*
X1132200Y-450599D01*
X1170399Y-471700D02*
G01*
X1132200Y-471700D01*
X1132200Y-471700D02*
G01*
X1132200Y-493499D01*
X1164899Y-530999D02*
G01*
X1168500Y-527399D01*
X1170399Y-521900D01*
X1170399Y-514600D01*
X1168500Y-509200D01*
X1164899Y-505500D01*
X1161300Y-505500D01*
X1157600Y-507399D01*
X1155799Y-509200D01*
X1153999Y-512800D01*
X1150399Y-523699D01*
X1148500Y-527399D01*
X1146700Y-529200D01*
X1143100Y-530999D01*
X1137600Y-530999D01*
X1133999Y-527399D01*
X1132200Y-521900D01*
X1132200Y-514600D01*
X1133999Y-509200D01*
X1137600Y-505500D01*
X1170399Y-553899D02*
G01*
X1168500Y-548499D01*
X1163100Y-544800D01*
X1153999Y-543000D01*
X1148500Y-543000D01*
X1139499Y-544800D01*
X1133999Y-548499D01*
X1132200Y-553899D01*
X1132200Y-557500D01*
X1133999Y-563000D01*
X1139499Y-566599D01*
X1148500Y-568499D01*
X1153999Y-568499D01*
X1163100Y-566599D01*
X1168500Y-563000D01*
X1170399Y-557500D01*
X1170399Y-553899D01*
X1170399Y-598600D02*
G01*
X1144899Y-580500D01*
X1144899Y-607699D01*
X1170399Y-598600D02*
G01*
X1132200Y-598600D01*
X1455000Y-489600D02*
G01*
X1455000Y-527800D01*
X1455000Y-527800D02*
G01*
X1476800Y-527800D01*
X1488800Y-489600D02*
G01*
X1488800Y-527800D01*
X1488800Y-489600D02*
G01*
X1503400Y-527800D01*
X1517899Y-489600D02*
G01*
X1503400Y-527800D01*
X1517899Y-489600D02*
G01*
X1517899Y-527800D01*
X1529899Y-496900D02*
G01*
X1533500Y-495100D01*
X1538999Y-489600D01*
X1538999Y-527800D01*
X1551000Y-496900D02*
G01*
X1554600Y-495100D01*
X1560100Y-489600D01*
X1560100Y-527800D01*
X1572100Y-496900D02*
G01*
X1575699Y-495100D01*
X1581199Y-489600D01*
X1581199Y-527800D01*
X1618599Y-489600D02*
G01*
X1600500Y-527800D01*
X1593199Y-489600D02*
G01*
X1618599Y-489600D01*
X410000Y-926900D02*
G01*
X413600Y-925100D01*
X419099Y-919600D01*
X419099Y-957800D01*
X452899Y-925100D02*
G01*
X451100Y-921500D01*
X445599Y-919600D01*
X441999Y-919600D01*
X436500Y-921500D01*
X432899Y-926900D01*
X431100Y-935999D01*
X431100Y-945100D01*
X432899Y-952399D01*
X436500Y-955999D01*
X441999Y-957800D01*
X443800Y-957800D01*
X449299Y-955999D01*
X452899Y-952399D01*
X454699Y-946900D01*
X454699Y-945100D01*
X452899Y-939600D01*
X449299Y-935999D01*
X443800Y-934200D01*
X441999Y-934200D01*
X436500Y-935999D01*
X432899Y-939600D01*
X431100Y-945100D01*
X468499Y-948699D02*
G01*
X466700Y-950500D01*
X468499Y-952399D01*
X470399Y-950500D01*
X468499Y-948699D01*
X505999Y-932399D02*
G01*
X504200Y-937800D01*
X500500Y-941500D01*
X495100Y-943299D01*
X493299Y-943299D01*
X487800Y-941500D01*
X484200Y-937800D01*
X482399Y-932399D01*
X482399Y-930500D01*
X484200Y-925100D01*
X487800Y-921500D01*
X493299Y-919600D01*
X495100Y-919600D01*
X500500Y-921500D01*
X504200Y-925100D01*
X505999Y-932399D01*
X505999Y-941500D01*
X504200Y-950500D01*
X500500Y-955999D01*
X495100Y-957800D01*
X491500Y-957800D01*
X485999Y-955999D01*
X484200Y-952399D01*
X521599Y-919600D02*
G01*
X541599Y-919600D01*
X530700Y-934200D01*
X536199Y-934200D01*
X539800Y-935999D01*
X541599Y-937800D01*
X543499Y-943299D01*
X543499Y-946900D01*
X541599Y-952399D01*
X538000Y-955999D01*
X532500Y-957800D01*
X527100Y-957800D01*
X521599Y-955999D01*
X519800Y-954200D01*
X518000Y-950500D01*
X573600Y-919600D02*
G01*
X555500Y-945100D01*
X582699Y-945100D01*
X573600Y-919600D02*
G01*
X573600Y-957800D01*
X612899Y-919600D02*
G01*
X594699Y-945100D01*
X621999Y-945100D01*
X612899Y-919600D02*
G01*
X612899Y-957800D01*
X634000Y-919600D02*
G01*
X634000Y-957800D01*
X634000Y-919600D02*
G01*
X648499Y-957800D01*
X663099Y-919600D02*
G01*
X648499Y-957800D01*
X663099Y-919600D02*
G01*
X663099Y-957800D01*
X675100Y-919600D02*
G01*
X675100Y-957800D01*
X700500Y-919600D02*
G01*
X700500Y-957800D01*
X675100Y-937800D02*
G01*
X700500Y-937800D01*
X732500Y-932399D02*
G01*
X712500Y-957800D01*
X712500Y-932399D02*
G01*
X732500Y-932399D01*
X712500Y-957800D02*
G01*
X732500Y-957800D01*
X116799Y-1528699D02*
G01*
X116799Y-1526900D01*
X118600Y-1523299D01*
X120500Y-1521500D01*
X124099Y-1519600D01*
X131399Y-1519600D01*
X135000Y-1521500D01*
X136799Y-1523299D01*
X138600Y-1526900D01*
X138600Y-1530500D01*
X136799Y-1534200D01*
X133200Y-1539600D01*
X115000Y-1557800D01*
X140500Y-1557800D01*
X174299Y-1519600D02*
G01*
X156100Y-1519600D01*
X154299Y-1535999D01*
X156100Y-1534200D01*
X161500Y-1532399D01*
X166999Y-1532399D01*
X172500Y-1534200D01*
X176100Y-1537800D01*
X177899Y-1543299D01*
X177899Y-1546900D01*
X176100Y-1552399D01*
X172500Y-1555999D01*
X166999Y-1557800D01*
X161500Y-1557800D01*
X156100Y-1555999D01*
X154299Y-1554200D01*
X152500Y-1550500D01*
X221799Y-1528699D02*
G01*
X221799Y-1526900D01*
X223600Y-1523299D01*
X225500Y-1521500D01*
X229099Y-1519600D01*
X236399Y-1519600D01*
X240000Y-1521500D01*
X241799Y-1523299D01*
X243600Y-1526900D01*
X243600Y-1530500D01*
X241799Y-1534200D01*
X238200Y-1539600D01*
X220000Y-1557800D01*
X245500Y-1557800D01*
X279299Y-1525100D02*
G01*
X277500Y-1521500D01*
X271999Y-1519600D01*
X268400Y-1519600D01*
X262899Y-1521500D01*
X259299Y-1526900D01*
X257500Y-1535999D01*
X257500Y-1545100D01*
X259299Y-1552399D01*
X262899Y-1555999D01*
X268400Y-1557800D01*
X270199Y-1557800D01*
X275599Y-1555999D01*
X279299Y-1552399D01*
X281100Y-1546900D01*
X281100Y-1545100D01*
X279299Y-1539600D01*
X275599Y-1535999D01*
X270199Y-1534200D01*
X268400Y-1534200D01*
X262899Y-1535999D01*
X259299Y-1539600D01*
X257500Y-1545100D01*
X135900Y-144600D02*
G01*
X130500Y-146500D01*
X126799Y-151900D01*
X125000Y-160999D01*
X125000Y-166500D01*
X126799Y-175500D01*
X130500Y-180999D01*
X135900Y-182800D01*
X139499Y-182800D01*
X145000Y-180999D01*
X148600Y-175500D01*
X150500Y-166500D01*
X150500Y-160999D01*
X148600Y-151900D01*
X145000Y-146500D01*
X139499Y-144600D01*
X135900Y-144600D01*
X162500Y-151900D02*
G01*
X166100Y-150100D01*
X171500Y-144600D01*
X171500Y-182800D01*
X225900Y-144600D02*
G01*
X220500Y-146500D01*
X216799Y-151900D01*
X215000Y-160999D01*
X215000Y-166500D01*
X216799Y-175500D01*
X220500Y-180999D01*
X225900Y-182800D01*
X229499Y-182800D01*
X235000Y-180999D01*
X238600Y-175500D01*
X240500Y-166500D01*
X240500Y-160999D01*
X238600Y-151900D01*
X235000Y-146500D01*
X229499Y-144600D01*
X225900Y-144600D01*
X254299Y-153699D02*
G01*
X254299Y-151900D01*
X256100Y-148299D01*
X257899Y-146500D01*
X261500Y-144600D01*
X268800Y-144600D01*
X272500Y-146500D01*
X274299Y-148299D01*
X276100Y-151900D01*
X276100Y-155500D01*
X274299Y-159200D01*
X270599Y-164600D01*
X252500Y-182800D01*
X277899Y-182800D01*
D12*
X380599Y-428600D02*
G01*
X382500Y-427699D01*
X384299Y-425900D01*
X385199Y-424099D01*
X385199Y-420500D01*
X384299Y-418600D01*
X382500Y-416799D01*
X380599Y-415900D01*
X377899Y-415000D01*
X373400Y-415000D01*
X370599Y-415900D01*
X368800Y-416799D01*
X366999Y-418600D01*
X366100Y-420500D01*
X366100Y-424099D01*
X366999Y-425900D01*
X368800Y-427699D01*
X370599Y-428600D01*
X381500Y-434600D02*
G01*
X382500Y-436500D01*
X385199Y-439200D01*
X366100Y-439200D01*
X385199Y-446999D02*
G01*
X385199Y-456999D01*
X377899Y-451500D01*
X377899Y-454299D01*
X376999Y-456100D01*
X376100Y-456999D01*
X373400Y-457899D01*
X371500Y-457899D01*
X368800Y-456999D01*
X366999Y-455199D01*
X366100Y-452500D01*
X366100Y-449699D01*
X366999Y-446999D01*
X367899Y-446100D01*
X369699Y-445199D01*
X380599Y-491500D02*
G01*
X382500Y-490599D01*
X384299Y-488800D01*
X385199Y-486999D01*
X385199Y-483400D01*
X384299Y-481500D01*
X382500Y-479699D01*
X380599Y-478800D01*
X377899Y-477899D01*
X373400Y-477899D01*
X370599Y-478800D01*
X368800Y-479699D01*
X366999Y-481500D01*
X366100Y-483400D01*
X366100Y-486999D01*
X366999Y-488800D01*
X368800Y-490599D01*
X370599Y-491500D01*
X381500Y-497500D02*
G01*
X382500Y-499400D01*
X385199Y-502100D01*
X366100Y-502100D01*
X385199Y-517199D02*
G01*
X372500Y-508099D01*
X372500Y-521700D01*
X385199Y-517199D02*
G01*
X366100Y-517199D01*
X385199Y-541700D02*
G01*
X366100Y-541700D01*
X385199Y-541700D02*
G01*
X385199Y-549899D01*
X384299Y-552600D01*
X383400Y-553499D01*
X381500Y-554499D01*
X379699Y-554499D01*
X377899Y-553499D01*
X376999Y-552600D01*
X376100Y-549899D01*
X376100Y-541700D01*
X376100Y-548099D02*
G01*
X366100Y-554499D01*
X378800Y-572300D02*
G01*
X376100Y-571399D01*
X374299Y-569499D01*
X373400Y-566799D01*
X373400Y-565900D01*
X374299Y-563200D01*
X376100Y-561399D01*
X378800Y-560500D01*
X379699Y-560500D01*
X382500Y-561399D01*
X384299Y-563200D01*
X385199Y-565900D01*
X385199Y-566799D01*
X384299Y-569499D01*
X382500Y-571399D01*
X378800Y-572300D01*
X374299Y-572300D01*
X369699Y-571399D01*
X366999Y-569499D01*
X366100Y-566799D01*
X366100Y-565000D01*
X366999Y-562300D01*
X368800Y-561399D01*
X378800Y-605900D02*
G01*
X366100Y-605900D01*
X376100Y-605900D02*
G01*
X377899Y-604099D01*
X378800Y-602300D01*
X378800Y-599499D01*
X377899Y-597699D01*
X376100Y-595900D01*
X373400Y-595000D01*
X371500Y-595000D01*
X368800Y-595900D01*
X366999Y-597699D01*
X366100Y-599499D01*
X366100Y-602300D01*
X366999Y-604099D01*
X368800Y-605900D01*
X378800Y-611900D02*
G01*
X366100Y-611900D01*
X373400Y-611900D02*
G01*
X376100Y-612800D01*
X377899Y-614600D01*
X378800Y-616500D01*
X378800Y-619200D01*
X373400Y-625199D02*
G01*
X373400Y-636100D01*
X375199Y-636100D01*
X376999Y-635199D01*
X377899Y-634299D01*
X378800Y-632500D01*
X378800Y-629699D01*
X377899Y-627899D01*
X376100Y-626100D01*
X373400Y-625199D01*
X371500Y-625199D01*
X368800Y-626100D01*
X366999Y-627899D01*
X366100Y-629699D01*
X366100Y-632500D01*
X366999Y-634299D01*
X368800Y-636100D01*
X385199Y-663400D02*
G01*
X385199Y-661500D01*
X384299Y-659699D01*
X381500Y-658800D01*
X366100Y-658800D01*
X378800Y-656100D02*
G01*
X378800Y-662500D01*
X378800Y-673899D02*
G01*
X377899Y-672100D01*
X376100Y-670300D01*
X373400Y-669400D01*
X371500Y-669400D01*
X368800Y-670300D01*
X366999Y-672100D01*
X366100Y-673899D01*
X366100Y-676599D01*
X366999Y-678499D01*
X368800Y-680300D01*
X371500Y-681199D01*
X373400Y-681199D01*
X376100Y-680300D01*
X377899Y-678499D01*
X378800Y-676599D01*
X378800Y-673899D01*
X378800Y-687199D02*
G01*
X366100Y-687199D01*
X373400Y-687199D02*
G01*
X376100Y-688099D01*
X377899Y-689899D01*
X378800Y-691700D01*
X378800Y-694499D01*
X385199Y-714499D02*
G01*
X366100Y-727199D01*
X385199Y-727199D02*
G01*
X366100Y-714499D01*
X385199Y-739499D02*
G01*
X366100Y-739499D01*
X385199Y-733200D02*
G01*
X385199Y-745900D01*
X385199Y-751900D02*
G01*
X366100Y-751900D01*
X366100Y-751900D02*
G01*
X366100Y-762800D01*
X380599Y-769699D02*
G01*
X381500Y-769699D01*
X383400Y-770599D01*
X384299Y-771500D01*
X385199Y-773400D01*
X385199Y-776999D01*
X384299Y-778800D01*
X383400Y-779699D01*
X381500Y-780599D01*
X379699Y-780599D01*
X377899Y-779699D01*
X375199Y-777899D01*
X366100Y-768800D01*
X366100Y-781500D01*
D10*
X710000Y-259600D02*
G01*
X738600Y-302500D01*
X738600Y-259600D02*
G01*
X710000Y-302500D01*
X766499Y-259600D02*
G01*
X766499Y-302500D01*
X752100Y-259600D02*
G01*
X780799Y-259600D01*
X794300Y-259600D02*
G01*
X794300Y-302500D01*
X794300Y-302500D02*
G01*
X818800Y-302500D01*
X834399Y-269800D02*
G01*
X834399Y-267800D01*
X836400Y-263699D01*
X838500Y-261599D01*
X842500Y-259600D01*
X850699Y-259600D01*
X854799Y-261599D01*
X856899Y-263699D01*
X858900Y-267800D01*
X858900Y-271900D01*
X856899Y-275999D01*
X852799Y-282100D01*
X832299Y-302500D01*
X861000Y-302500D01*
X595399Y-410000D02*
G01*
X552500Y-410000D01*
X595399Y-410000D02*
G01*
X595399Y-428400D01*
X593400Y-434499D01*
X591300Y-436599D01*
X587199Y-438600D01*
X583099Y-438600D01*
X579000Y-436599D01*
X576999Y-434499D01*
X575000Y-428400D01*
X575000Y-410000D01*
X575000Y-424299D02*
G01*
X552500Y-438600D01*
X581100Y-478699D02*
G01*
X575000Y-476700D01*
X570900Y-472600D01*
X568800Y-466500D01*
X568800Y-464400D01*
X570900Y-458299D01*
X575000Y-454200D01*
X581100Y-452100D01*
X583099Y-452100D01*
X589299Y-454200D01*
X593400Y-458299D01*
X595399Y-464400D01*
X595399Y-466500D01*
X593400Y-472600D01*
X589299Y-476700D01*
X581100Y-478699D01*
X570900Y-478699D01*
X560599Y-476700D01*
X554499Y-472600D01*
X552500Y-466500D01*
X552500Y-462399D01*
X554499Y-456199D01*
X558600Y-454200D01*
X470199Y-410700D02*
G01*
X474299Y-408600D01*
X478400Y-404499D01*
X480399Y-400500D01*
X480399Y-392300D01*
X478400Y-388200D01*
X474299Y-384099D01*
X470199Y-381999D01*
X464000Y-380000D01*
X453800Y-380000D01*
X447699Y-381999D01*
X443600Y-384099D01*
X439499Y-388200D01*
X437500Y-392300D01*
X437500Y-400500D01*
X439499Y-404499D01*
X443600Y-408600D01*
X447699Y-410700D01*
X472199Y-424200D02*
G01*
X474299Y-428299D01*
X480399Y-434400D01*
X437500Y-434400D01*
X480399Y-451999D02*
G01*
X480399Y-474499D01*
X464000Y-462199D01*
X464000Y-468400D01*
X461999Y-472500D01*
X460000Y-474499D01*
X453800Y-476500D01*
X449699Y-476500D01*
X443600Y-474499D01*
X439499Y-470399D01*
X437500Y-464299D01*
X437500Y-458099D01*
X439499Y-451999D01*
X441500Y-450000D01*
X445599Y-447899D01*
X580199Y-790700D02*
G01*
X584299Y-788600D01*
X588400Y-784499D01*
X590399Y-780500D01*
X590399Y-772300D01*
X588400Y-768200D01*
X584299Y-764099D01*
X580199Y-761999D01*
X574000Y-760000D01*
X563800Y-760000D01*
X557699Y-761999D01*
X553600Y-764099D01*
X549499Y-768200D01*
X547500Y-772300D01*
X547500Y-780500D01*
X549499Y-784499D01*
X553600Y-788600D01*
X557699Y-790700D01*
X582199Y-804200D02*
G01*
X584299Y-808299D01*
X590399Y-814400D01*
X547500Y-814400D01*
X590399Y-848400D02*
G01*
X561799Y-827899D01*
X561799Y-858600D01*
X590399Y-848400D02*
G01*
X547500Y-848400D01*
X1455200Y-734800D02*
G01*
X1453199Y-730700D01*
X1449099Y-726599D01*
X1445000Y-724600D01*
X1436800Y-724600D01*
X1432700Y-726599D01*
X1428599Y-730700D01*
X1426599Y-734800D01*
X1424600Y-740999D01*
X1424600Y-751199D01*
X1426599Y-757300D01*
X1428599Y-761399D01*
X1432700Y-765500D01*
X1436800Y-767500D01*
X1445000Y-767500D01*
X1449099Y-765500D01*
X1453199Y-761399D01*
X1455200Y-757300D01*
X1495299Y-738899D02*
G01*
X1493299Y-745000D01*
X1489200Y-749099D01*
X1483100Y-751199D01*
X1481000Y-751199D01*
X1474899Y-749099D01*
X1470799Y-745000D01*
X1468699Y-738899D01*
X1468699Y-736900D01*
X1470799Y-730700D01*
X1474899Y-726599D01*
X1481000Y-724600D01*
X1483100Y-724600D01*
X1489200Y-726599D01*
X1493299Y-730700D01*
X1495299Y-738899D01*
X1495299Y-749099D01*
X1493299Y-759400D01*
X1489200Y-765500D01*
X1483100Y-767500D01*
X1478999Y-767500D01*
X1472799Y-765500D01*
X1470799Y-761399D01*
X1619849Y-174299D02*
G01*
X1615749Y-176399D01*
X1611649Y-180500D01*
X1609549Y-184499D01*
X1609549Y-192699D01*
X1611649Y-196799D01*
X1615749Y-200900D01*
X1619849Y-203000D01*
X1625950Y-205000D01*
X1636149Y-205000D01*
X1642349Y-203000D01*
X1646450Y-200900D01*
X1650550Y-196799D01*
X1652550Y-192699D01*
X1652550Y-184499D01*
X1650550Y-180500D01*
X1646450Y-176399D01*
X1642349Y-174299D01*
X1609549Y-150599D02*
G01*
X1611649Y-156700D01*
X1615749Y-158800D01*
X1619849Y-158800D01*
X1623950Y-156700D01*
X1625950Y-152600D01*
X1628050Y-144499D01*
X1630050Y-138299D01*
X1634149Y-134200D01*
X1638249Y-132199D01*
X1644350Y-132199D01*
X1648450Y-134200D01*
X1650550Y-136300D01*
X1652550Y-142399D01*
X1652550Y-150599D01*
X1650550Y-156700D01*
X1648450Y-158800D01*
X1644350Y-160799D01*
X1638249Y-160799D01*
X1634149Y-158800D01*
X1630050Y-154699D01*
X1628050Y-148499D01*
X1625950Y-140399D01*
X1623950Y-136300D01*
X1619849Y-134200D01*
X1615749Y-134200D01*
X1611649Y-136300D01*
X1609549Y-142399D01*
X1609549Y-150599D01*
X544800Y-2215200D02*
G01*
X546799Y-2219299D01*
X550900Y-2223400D01*
X555000Y-2225399D01*
X563200Y-2225399D01*
X567300Y-2223400D01*
X571399Y-2219299D01*
X573400Y-2215200D01*
X575399Y-2209000D01*
X575399Y-2198800D01*
X573400Y-2192700D01*
X571399Y-2188600D01*
X567300Y-2184499D01*
X563200Y-2182500D01*
X555000Y-2182500D01*
X550900Y-2184499D01*
X546799Y-2188600D01*
X544800Y-2192700D01*
X531300Y-2217199D02*
G01*
X527199Y-2219299D01*
X520999Y-2225399D01*
X520999Y-2182500D01*
X495300Y-2225399D02*
G01*
X501399Y-2223400D01*
X505500Y-2217199D01*
X507500Y-2206999D01*
X507500Y-2200900D01*
X505500Y-2190599D01*
X501399Y-2184499D01*
X495300Y-2182500D01*
X491199Y-2182500D01*
X485000Y-2184499D01*
X480900Y-2190599D01*
X478899Y-2200900D01*
X478899Y-2206999D01*
X480900Y-2217199D01*
X485000Y-2223400D01*
X491199Y-2225399D01*
X495300Y-2225399D01*
X830200Y-1704800D02*
G01*
X828199Y-1700700D01*
X824099Y-1696599D01*
X820000Y-1694600D01*
X811800Y-1694600D01*
X807700Y-1696599D01*
X803599Y-1700700D01*
X801599Y-1704800D01*
X799600Y-1710999D01*
X799600Y-1721199D01*
X801599Y-1727300D01*
X803599Y-1731399D01*
X807700Y-1735500D01*
X811800Y-1737500D01*
X820000Y-1737500D01*
X824099Y-1735500D01*
X828199Y-1731399D01*
X830200Y-1727300D01*
X864200Y-1694600D02*
G01*
X843699Y-1723200D01*
X874399Y-1723200D01*
X864200Y-1694600D02*
G01*
X864200Y-1737500D01*
X544800Y-1965199D02*
G01*
X546799Y-1969299D01*
X550900Y-1973400D01*
X555000Y-1975399D01*
X563200Y-1975399D01*
X567300Y-1973400D01*
X571399Y-1969299D01*
X573400Y-1965199D01*
X575399Y-1959000D01*
X575399Y-1948800D01*
X573400Y-1942699D01*
X571399Y-1938600D01*
X567300Y-1934499D01*
X563200Y-1932500D01*
X555000Y-1932500D01*
X550900Y-1934499D01*
X546799Y-1938600D01*
X544800Y-1942699D01*
X531300Y-1967199D02*
G01*
X527199Y-1969299D01*
X520999Y-1975399D01*
X520999Y-1932500D01*
X507500Y-1967199D02*
G01*
X503400Y-1969299D01*
X497300Y-1975399D01*
X497300Y-1932500D01*
X1670361Y-590000D02*
G01*
X1639762Y-590000D01*
X1633562Y-591999D01*
X1629462Y-596100D01*
X1627461Y-602300D01*
X1627461Y-606399D01*
X1629462Y-612500D01*
X1633562Y-616599D01*
X1639762Y-618600D01*
X1670361Y-618600D01*
X1670361Y-636199D02*
G01*
X1670361Y-658699D01*
X1654062Y-646500D01*
X1654062Y-652600D01*
X1651962Y-656700D01*
X1649961Y-658699D01*
X1643861Y-660799D01*
X1639762Y-660799D01*
X1633562Y-658699D01*
X1629462Y-654600D01*
X1627461Y-648499D01*
X1627461Y-642399D01*
X1629462Y-636199D01*
X1631562Y-634200D01*
X1635662Y-632100D01*
X799961Y-2224600D02*
G01*
X799961Y-2255300D01*
X802061Y-2261399D01*
X806162Y-2265500D01*
X812262Y-2267500D01*
X816361Y-2267500D01*
X822461Y-2265500D01*
X826562Y-2261399D01*
X828662Y-2255300D01*
X828662Y-2224600D01*
X844161Y-2234800D02*
G01*
X844161Y-2232800D01*
X846261Y-2228699D01*
X848262Y-2226599D01*
X852362Y-2224600D01*
X860561Y-2224600D01*
X864661Y-2226599D01*
X866661Y-2228699D01*
X868761Y-2232800D01*
X868761Y-2236900D01*
X866661Y-2240999D01*
X862561Y-2247100D01*
X842161Y-2267500D01*
X870762Y-2267500D01*
X1135000Y-899600D02*
G01*
X1135000Y-930300D01*
X1136999Y-936399D01*
X1141099Y-940500D01*
X1147299Y-942500D01*
X1151400Y-942500D01*
X1157500Y-940500D01*
X1161599Y-936399D01*
X1163599Y-930300D01*
X1163599Y-899600D01*
X1197600Y-899600D02*
G01*
X1177100Y-928200D01*
X1207799Y-928200D01*
X1197600Y-899600D02*
G01*
X1197600Y-942500D01*
X760000Y-919600D02*
G01*
X788599Y-962500D01*
X788599Y-919600D02*
G01*
X760000Y-962500D01*
X816499Y-919600D02*
G01*
X816499Y-962500D01*
X802100Y-919600D02*
G01*
X830799Y-919600D01*
X844300Y-919600D02*
G01*
X844300Y-962500D01*
X844300Y-962500D02*
G01*
X868800Y-962500D01*
X882299Y-927800D02*
G01*
X886400Y-925700D01*
X892500Y-919600D01*
X892500Y-962500D01*
X1290000Y-944600D02*
G01*
X1290000Y-975300D01*
X1291999Y-981399D01*
X1296099Y-985500D01*
X1302299Y-987500D01*
X1306400Y-987500D01*
X1312500Y-985500D01*
X1316599Y-981399D01*
X1318599Y-975300D01*
X1318599Y-944600D01*
X1332100Y-952800D02*
G01*
X1336199Y-950700D01*
X1342399Y-944600D01*
X1342399Y-987500D01*
X125399Y-1590000D02*
G01*
X82500Y-1590000D01*
X125399Y-1590000D02*
G01*
X125399Y-1608400D01*
X123400Y-1614499D01*
X121300Y-1616599D01*
X117199Y-1618600D01*
X113099Y-1618600D01*
X109000Y-1616599D01*
X106999Y-1614499D01*
X105000Y-1608400D01*
X105000Y-1590000D01*
X105000Y-1604299D02*
G01*
X82500Y-1618600D01*
X125399Y-1652600D02*
G01*
X96799Y-1632100D01*
X96799Y-1662800D01*
X125399Y-1652600D02*
G01*
X82500Y-1652600D01*
X225399Y-1590000D02*
G01*
X182500Y-1590000D01*
X225399Y-1590000D02*
G01*
X225399Y-1608400D01*
X223400Y-1614499D01*
X221300Y-1616599D01*
X217199Y-1618600D01*
X213099Y-1618600D01*
X209000Y-1616599D01*
X206999Y-1614499D01*
X205000Y-1608400D01*
X205000Y-1590000D01*
X205000Y-1604299D02*
G01*
X182500Y-1618600D01*
X225399Y-1656700D02*
G01*
X225399Y-1636199D01*
X206999Y-1634200D01*
X209000Y-1636199D01*
X211100Y-1642399D01*
X211100Y-1648499D01*
X209000Y-1654600D01*
X205000Y-1658699D01*
X198800Y-1660799D01*
X194699Y-1660799D01*
X188600Y-1658699D01*
X184499Y-1654600D01*
X182500Y-1648499D01*
X182500Y-1642399D01*
X184499Y-1636199D01*
X186500Y-1634200D01*
X190599Y-1632100D01*
X325399Y-1590000D02*
G01*
X282500Y-1590000D01*
X325399Y-1590000D02*
G01*
X325399Y-1608400D01*
X323400Y-1614499D01*
X321300Y-1616599D01*
X317199Y-1618600D01*
X313099Y-1618600D01*
X309000Y-1616599D01*
X306999Y-1614499D01*
X305000Y-1608400D01*
X305000Y-1590000D01*
X305000Y-1604299D02*
G01*
X282500Y-1618600D01*
X325399Y-1642399D02*
G01*
X323400Y-1636199D01*
X319299Y-1634200D01*
X315199Y-1634200D01*
X311100Y-1636199D01*
X309000Y-1640300D01*
X306999Y-1648499D01*
X305000Y-1654600D01*
X300900Y-1658699D01*
X296799Y-1660799D01*
X290599Y-1660799D01*
X286500Y-1658699D01*
X284499Y-1656700D01*
X282500Y-1650500D01*
X282500Y-1642399D01*
X284499Y-1636199D01*
X286500Y-1634200D01*
X290599Y-1632100D01*
X296799Y-1632100D01*
X300900Y-1634200D01*
X305000Y-1638299D01*
X306999Y-1644400D01*
X309000Y-1652600D01*
X311100Y-1656700D01*
X315199Y-1658699D01*
X319299Y-1658699D01*
X323400Y-1656700D01*
X325399Y-1650500D01*
X325399Y-1642399D01*
X425399Y-1590000D02*
G01*
X382500Y-1590000D01*
X425399Y-1590000D02*
G01*
X425399Y-1608400D01*
X423400Y-1614499D01*
X421300Y-1616599D01*
X417199Y-1618600D01*
X413099Y-1618600D01*
X409000Y-1616599D01*
X406999Y-1614499D01*
X405000Y-1608400D01*
X405000Y-1590000D01*
X405000Y-1604299D02*
G01*
X382500Y-1618600D01*
X415199Y-1634200D02*
G01*
X417199Y-1634200D01*
X421300Y-1636199D01*
X423400Y-1638299D01*
X425399Y-1642399D01*
X425399Y-1650500D01*
X423400Y-1654600D01*
X421300Y-1656700D01*
X417199Y-1658699D01*
X413099Y-1658699D01*
X409000Y-1656700D01*
X402899Y-1652600D01*
X382500Y-1632100D01*
X382500Y-1660799D01*
X110199Y-2045700D02*
G01*
X114299Y-2043600D01*
X118400Y-2039499D01*
X120399Y-2035500D01*
X120399Y-2027300D01*
X118400Y-2023200D01*
X114299Y-2019099D01*
X110199Y-2016999D01*
X104000Y-2015000D01*
X93800Y-2015000D01*
X87699Y-2016999D01*
X83600Y-2019099D01*
X79499Y-2023200D01*
X77500Y-2027300D01*
X77500Y-2035500D01*
X79499Y-2039499D01*
X83600Y-2043600D01*
X87699Y-2045700D01*
X120399Y-2083699D02*
G01*
X120399Y-2063299D01*
X101999Y-2061199D01*
X104000Y-2063299D01*
X106100Y-2069400D01*
X106100Y-2075500D01*
X104000Y-2081700D01*
X100000Y-2085799D01*
X93800Y-2087800D01*
X89699Y-2087800D01*
X83600Y-2085799D01*
X79499Y-2081700D01*
X77500Y-2075500D01*
X77500Y-2069400D01*
X79499Y-2063299D01*
X81500Y-2061199D01*
X85599Y-2059200D01*
X210199Y-2045700D02*
G01*
X214299Y-2043600D01*
X218400Y-2039499D01*
X220399Y-2035500D01*
X220399Y-2027300D01*
X218400Y-2023200D01*
X214299Y-2019099D01*
X210199Y-2016999D01*
X204000Y-2015000D01*
X193800Y-2015000D01*
X187699Y-2016999D01*
X183600Y-2019099D01*
X179499Y-2023200D01*
X177500Y-2027300D01*
X177500Y-2035500D01*
X179499Y-2039499D01*
X183600Y-2043600D01*
X187699Y-2045700D01*
X214299Y-2083699D02*
G01*
X218400Y-2081700D01*
X220399Y-2075500D01*
X220399Y-2071500D01*
X218400Y-2065300D01*
X212199Y-2061199D01*
X201999Y-2059200D01*
X191799Y-2059200D01*
X183600Y-2061199D01*
X179499Y-2065300D01*
X177500Y-2071500D01*
X177500Y-2073499D01*
X179499Y-2079600D01*
X183600Y-2083699D01*
X189699Y-2085799D01*
X191799Y-2085799D01*
X197899Y-2083699D01*
X201999Y-2079600D01*
X204000Y-2073499D01*
X204000Y-2071500D01*
X201999Y-2065300D01*
X197899Y-2061199D01*
X191799Y-2059200D01*
X1645699Y-1794800D02*
G01*
X1643599Y-1790700D01*
X1639499Y-1786599D01*
X1635500Y-1784600D01*
X1627299Y-1784600D01*
X1623199Y-1786599D01*
X1619099Y-1790700D01*
X1616999Y-1794800D01*
X1615000Y-1800999D01*
X1615000Y-1811199D01*
X1616999Y-1817300D01*
X1619099Y-1821399D01*
X1623199Y-1825500D01*
X1627299Y-1827500D01*
X1635500Y-1827500D01*
X1639499Y-1825500D01*
X1643599Y-1821399D01*
X1645699Y-1817300D01*
X1687799Y-1784600D02*
G01*
X1667399Y-1827500D01*
X1659200Y-1784600D02*
G01*
X1687799Y-1784600D01*
X1389799Y-1929299D02*
G01*
X1385699Y-1931399D01*
X1381599Y-1935500D01*
X1379600Y-1939499D01*
X1379600Y-1947699D01*
X1381599Y-1951799D01*
X1385699Y-1955900D01*
X1389799Y-1958000D01*
X1396000Y-1960000D01*
X1406199Y-1960000D01*
X1412299Y-1958000D01*
X1416400Y-1955900D01*
X1420500Y-1951799D01*
X1422500Y-1947699D01*
X1422500Y-1939499D01*
X1420500Y-1935500D01*
X1416400Y-1931399D01*
X1412299Y-1929299D01*
X1389799Y-1913800D02*
G01*
X1387799Y-1913800D01*
X1383699Y-1911700D01*
X1381599Y-1909699D01*
X1379600Y-1905599D01*
X1379600Y-1897399D01*
X1381599Y-1893299D01*
X1383699Y-1891300D01*
X1387799Y-1889200D01*
X1391899Y-1889200D01*
X1396000Y-1891300D01*
X1402100Y-1895399D01*
X1422500Y-1915799D01*
X1422500Y-1887199D01*
X1675399Y-715000D02*
G01*
X1632500Y-715000D01*
X1675399Y-715000D02*
G01*
X1675399Y-733400D01*
X1673400Y-739499D01*
X1671300Y-741599D01*
X1667200Y-743600D01*
X1663100Y-743600D01*
X1658999Y-741599D01*
X1656999Y-739499D01*
X1655000Y-733400D01*
X1655000Y-715000D01*
X1655000Y-729299D02*
G01*
X1632500Y-743600D01*
X1667200Y-757100D02*
G01*
X1669300Y-761199D01*
X1675399Y-767399D01*
X1632500Y-767399D01*
X1325399Y-2120000D02*
G01*
X1282500Y-2120000D01*
X1325399Y-2120000D02*
G01*
X1325399Y-2138400D01*
X1323400Y-2144499D01*
X1321300Y-2146599D01*
X1317200Y-2148600D01*
X1313100Y-2148600D01*
X1308999Y-2146599D01*
X1306999Y-2144499D01*
X1305000Y-2138400D01*
X1305000Y-2120000D01*
X1305000Y-2134299D02*
G01*
X1282500Y-2148600D01*
X1325399Y-2166199D02*
G01*
X1325399Y-2188699D01*
X1308999Y-2176500D01*
X1308999Y-2182600D01*
X1306999Y-2186700D01*
X1305000Y-2188699D01*
X1298800Y-2190799D01*
X1294700Y-2190799D01*
X1288599Y-2188699D01*
X1284499Y-2184600D01*
X1282500Y-2178499D01*
X1282500Y-2172399D01*
X1284499Y-2166199D01*
X1286499Y-2164200D01*
X1290600Y-2162100D01*
X360000Y-1474600D02*
G01*
X360000Y-1517500D01*
X360000Y-1474600D02*
G01*
X378400Y-1474600D01*
X384499Y-1476599D01*
X386599Y-1478699D01*
X388600Y-1482800D01*
X388600Y-1486900D01*
X386599Y-1490999D01*
X384499Y-1493000D01*
X378400Y-1495000D01*
X360000Y-1495000D01*
X374299Y-1495000D02*
G01*
X388600Y-1517500D01*
X430799Y-1474600D02*
G01*
X410300Y-1517500D01*
X402100Y-1474600D02*
G01*
X430799Y-1474600D01*
X775000Y-1474600D02*
G01*
X775000Y-1517500D01*
X775000Y-1474600D02*
G01*
X793400Y-1474600D01*
X799499Y-1476599D01*
X801599Y-1478699D01*
X803599Y-1482800D01*
X803599Y-1486900D01*
X801599Y-1490999D01*
X799499Y-1493000D01*
X793400Y-1495000D01*
X775000Y-1495000D01*
X789300Y-1495000D02*
G01*
X803599Y-1517500D01*
X841700Y-1480700D02*
G01*
X839600Y-1476599D01*
X833500Y-1474600D01*
X829399Y-1474600D01*
X823299Y-1476599D01*
X819200Y-1482800D01*
X817100Y-1493000D01*
X817100Y-1503200D01*
X819200Y-1511399D01*
X823299Y-1515500D01*
X829399Y-1517500D01*
X831499Y-1517500D01*
X837600Y-1515500D01*
X841700Y-1511399D01*
X843699Y-1505300D01*
X843699Y-1503200D01*
X841700Y-1497100D01*
X837600Y-1493000D01*
X831499Y-1490999D01*
X829399Y-1490999D01*
X823299Y-1493000D01*
X819200Y-1497100D01*
X817100Y-1503200D01*
X1200699Y-1914800D02*
G01*
X1198599Y-1910700D01*
X1194499Y-1906599D01*
X1190500Y-1904600D01*
X1182299Y-1904600D01*
X1178199Y-1906599D01*
X1174099Y-1910700D01*
X1171999Y-1914800D01*
X1170000Y-1920999D01*
X1170000Y-1931199D01*
X1171999Y-1937300D01*
X1174099Y-1941399D01*
X1178199Y-1945500D01*
X1182299Y-1947500D01*
X1190500Y-1947500D01*
X1194499Y-1945500D01*
X1198599Y-1941399D01*
X1200699Y-1937300D01*
X1218299Y-1904600D02*
G01*
X1240799Y-1904600D01*
X1228500Y-1920999D01*
X1234600Y-1920999D01*
X1238699Y-1923000D01*
X1240799Y-1925000D01*
X1242799Y-1931199D01*
X1242799Y-1935300D01*
X1240799Y-1941399D01*
X1236700Y-1945500D01*
X1230500Y-1947500D01*
X1224399Y-1947500D01*
X1218299Y-1945500D01*
X1216199Y-1943499D01*
X1214200Y-1939400D01*
X620700Y-39800D02*
G01*
X618600Y-35700D01*
X614499Y-31599D01*
X610500Y-29600D01*
X602300Y-29600D01*
X598200Y-31599D01*
X594099Y-35700D01*
X591999Y-39800D01*
X590000Y-45999D01*
X590000Y-56199D01*
X591999Y-62300D01*
X594099Y-66399D01*
X598200Y-70500D01*
X602300Y-72500D01*
X610500Y-72500D01*
X614499Y-70500D01*
X618600Y-66399D01*
X620700Y-62300D01*
X634200Y-37800D02*
G01*
X638299Y-35700D01*
X644400Y-29600D01*
X644400Y-72500D01*
X660000Y-39800D02*
G01*
X660000Y-37800D01*
X661999Y-33699D01*
X664000Y-31599D01*
X668099Y-29600D01*
X676300Y-29600D01*
X680399Y-31599D01*
X682500Y-33699D01*
X684499Y-37800D01*
X684499Y-41900D01*
X682500Y-45999D01*
X678400Y-52100D01*
X657899Y-72500D01*
X686500Y-72500D01*
X854799Y-1464299D02*
G01*
X850699Y-1466399D01*
X846599Y-1470500D01*
X844600Y-1474499D01*
X844600Y-1482699D01*
X846599Y-1486799D01*
X850699Y-1490900D01*
X854799Y-1493000D01*
X861000Y-1495000D01*
X871199Y-1495000D01*
X877299Y-1493000D01*
X881400Y-1490900D01*
X885500Y-1486799D01*
X887500Y-1482699D01*
X887500Y-1474499D01*
X885500Y-1470500D01*
X881400Y-1466399D01*
X877299Y-1464299D01*
X852799Y-1450799D02*
G01*
X850699Y-1446700D01*
X844600Y-1440599D01*
X887500Y-1440599D01*
G36*
X1488000Y-802760D02*
G01*
X1487980Y-897240D01*
X1491080Y-893560D01*
X1493899Y-889659D01*
X1496459Y-885580D01*
X1498740Y-881340D01*
X1499780Y-879180D01*
X1501600Y-874720D01*
X1503140Y-870160D01*
X1504340Y-865500D01*
X1504840Y-863160D01*
X1505560Y-858400D01*
X1505980Y-853600D01*
X1506060Y-848800D01*
X1505820Y-844000D01*
X1505240Y-839220D01*
X1504840Y-836840D01*
X1503779Y-832140D01*
X1502400Y-827540D01*
X1500720Y-823040D01*
X1499780Y-820819D01*
X1497640Y-816500D01*
X1495220Y-812360D01*
X1492520Y-808360D01*
X1489560Y-804580D01*
G37*
G36*
X1518800Y-43940D02*
G01*
X1514000Y-44180D01*
X1509220Y-44760D01*
X1506840Y-45160D01*
X1502140Y-46220D01*
X1497540Y-47600D01*
X1493040Y-49280D01*
X1490820Y-50220D01*
X1486500Y-52360D01*
X1482360Y-54780D01*
X1478360Y-57480D01*
X1474580Y-60439D01*
X1472760Y-62000D01*
X1567240Y-62000D01*
X1563560Y-58920D01*
X1559660Y-56100D01*
X1555580Y-53540D01*
X1551339Y-51260D01*
X1549180Y-50220D01*
X1544720Y-48400D01*
X1540160Y-46860D01*
X1535500Y-45660D01*
X1533160Y-45160D01*
X1528400Y-44440D01*
X1523600Y-44020D01*
G37*
G36*
X512000Y-2052760D02*
G01*
X508920Y-2056440D01*
X506100Y-2060340D01*
X503540Y-2064420D01*
X501260Y-2068660D01*
X500220Y-2070820D01*
X498400Y-2075280D01*
X496860Y-2079840D01*
X495660Y-2084500D01*
X495160Y-2086840D01*
X494440Y-2091600D01*
X494020Y-2096399D01*
X493940Y-2101200D01*
X494180Y-2106000D01*
X494760Y-2110780D01*
X495160Y-2113160D01*
X496220Y-2117860D01*
X497600Y-2122460D01*
X499280Y-2126960D01*
X500220Y-2129180D01*
X502360Y-2133500D01*
X504780Y-2137640D01*
X507480Y-2141640D01*
X510439Y-2145420D01*
X512000Y-2147240D01*
G37*
G36*
X863000Y-1772760D02*
G01*
X862980Y-1867240D01*
X866080Y-1863560D01*
X868900Y-1859660D01*
X871460Y-1855580D01*
X873740Y-1851339D01*
X874780Y-1849180D01*
X876600Y-1844720D01*
X878139Y-1840160D01*
X879340Y-1835500D01*
X879840Y-1833160D01*
X880560Y-1828400D01*
X880980Y-1823600D01*
X881060Y-1818800D01*
X880819Y-1814000D01*
X880240Y-1809220D01*
X879840Y-1806840D01*
X878780Y-1802140D01*
X877400Y-1797540D01*
X875720Y-1793040D01*
X874780Y-1790820D01*
X872640Y-1786500D01*
X870220Y-1782360D01*
X867520Y-1778360D01*
X864560Y-1774580D01*
G37*
G36*
X512000Y-1802760D02*
G01*
X508920Y-1806440D01*
X506100Y-1810340D01*
X503540Y-1814420D01*
X501260Y-1818660D01*
X500220Y-1820820D01*
X498400Y-1825280D01*
X496860Y-1829840D01*
X495660Y-1834500D01*
X495160Y-1836840D01*
X494440Y-1841600D01*
X494020Y-1846399D01*
X493940Y-1851200D01*
X494180Y-1856000D01*
X494760Y-1860780D01*
X495160Y-1863160D01*
X496220Y-1867860D01*
X497600Y-1872460D01*
X499280Y-1876960D01*
X500220Y-1879180D01*
X502360Y-1883500D01*
X504780Y-1887640D01*
X507480Y-1891639D01*
X510439Y-1895420D01*
X512000Y-1897240D01*
G37*
D13*
X300000Y-1505000D02*
G01*
X300000Y-205000D01*
X100000Y-205000D01*
X100000Y-1505000D01*
X300000Y-1505000D01*
X808500Y-644000D02*
G01*
X808500Y-395999D01*
X631500Y-644000D02*
G01*
X631500Y-395999D01*
X540471Y-533191D02*
G01*
X540471Y-489843D01*
X599528Y-533191D02*
G01*
X599528Y-489843D01*
X540673Y-556837D02*
G01*
X540673Y-600156D01*
X599729Y-556837D02*
G01*
X599729Y-600156D01*
X599528Y-600156D02*
G01*
X540471Y-600142D01*
X599528Y-489882D02*
G01*
X540471Y-489882D01*
X487480Y-556365D02*
G01*
X487480Y-587862D01*
X443787Y-600059D02*
G01*
X475282Y-600059D01*
X431588Y-556365D02*
G01*
X431588Y-587862D01*
X487710Y-533692D02*
G01*
X487710Y-502197D01*
X431819Y-533692D02*
G01*
X431819Y-502197D01*
X444016Y-490000D02*
G01*
X475513Y-490000D01*
X597480Y-706365D02*
G01*
X597480Y-737862D01*
X553787Y-750059D02*
G01*
X585282Y-750059D01*
X541588Y-706365D02*
G01*
X541588Y-737862D01*
X597710Y-683692D02*
G01*
X597710Y-652197D01*
X541819Y-683692D02*
G01*
X541819Y-652197D01*
X554016Y-640000D02*
G01*
X585513Y-640000D01*
X1417125Y-802755D02*
G01*
X1384125Y-802755D01*
X1401126Y-817755D02*
G01*
X1401126Y-786756D01*
X1472755Y-132874D02*
G01*
X1472755Y-165873D01*
X1487755Y-148874D02*
G01*
X1456755Y-148874D01*
X582874Y-2147244D02*
G01*
X615873Y-2147244D01*
X598874Y-2132244D02*
G01*
X598874Y-2163243D01*
X792125Y-1772755D02*
G01*
X759126Y-1772755D01*
X776126Y-1787755D02*
G01*
X776126Y-1756756D01*
X582874Y-1897244D02*
G01*
X615873Y-1897244D01*
X598874Y-1882244D02*
G01*
X598874Y-1913243D01*
D10*
X1665952Y-566867D02*
G01*
X1404047Y-566867D01*
X1404047Y-451008D01*
X1665952Y-451008D01*
X1665952Y-566867D01*
D13*
X925012Y-2205264D02*
G01*
X850000Y-2205264D01*
X850000Y-2000000D01*
X1050000Y-2000000D01*
X1050000Y-2205000D01*
X975006Y-2205000D01*
X1024016Y-835925D02*
G01*
X1024016Y-881889D01*
X1024016Y-735925D02*
G01*
X1024016Y-764074D01*
X1024016Y-635925D02*
G01*
X1024016Y-664074D01*
X1024016Y-535925D02*
G01*
X1024016Y-564074D01*
X1024016Y-435925D02*
G01*
X1024016Y-464074D01*
X1024016Y-335925D02*
G01*
X1024016Y-364074D01*
X1024016Y-238627D02*
G01*
X1024016Y-264074D01*
X1024016Y-118110D02*
G01*
X1024016Y-161372D01*
X1024016Y-881889D02*
G01*
X1275983Y-881889D01*
X1275983Y-118110D02*
G01*
X1275983Y-164074D01*
X1275983Y-118110D02*
G01*
X1185000Y-118110D01*
X1275983Y-835925D02*
G01*
X1275983Y-881889D01*
X1275983Y-735925D02*
G01*
X1275983Y-764074D01*
X1275983Y-635925D02*
G01*
X1275983Y-664074D01*
X1275983Y-535925D02*
G01*
X1275983Y-564074D01*
X1275983Y-435925D02*
G01*
X1275983Y-464074D01*
X1275983Y-335925D02*
G01*
X1275983Y-364074D01*
X1275983Y-235925D02*
G01*
X1275983Y-264074D01*
X1024016Y-118110D02*
G01*
X1115000Y-118110D01*
X650000Y-100000D02*
G01*
X860000Y-100000D01*
X900000Y-140000D02*
G01*
X900000Y-860000D01*
X860000Y-900000D02*
G01*
X450000Y-900000D01*
X430000Y-900000D01*
X400000Y-870000D02*
G01*
X400000Y-100000D01*
X650000Y-100000D01*
D14*
X1000001Y-1000000D02*
G01*
X900001Y-1100000D01*
X900001Y-1699998D01*
X1599998Y-1699998D01*
X1599998Y-1000000D01*
X1000001Y-1000000D01*
D13*
X70471Y-1738191D02*
G01*
X70471Y-1694843D01*
X129528Y-1738191D02*
G01*
X129528Y-1694843D01*
X70673Y-1761837D02*
G01*
X70673Y-1805156D01*
X129729Y-1761837D02*
G01*
X129729Y-1805156D01*
X129528Y-1805156D02*
G01*
X70471Y-1805142D01*
X129528Y-1694882D02*
G01*
X70471Y-1694882D01*
X170471Y-1738191D02*
G01*
X170471Y-1694843D01*
X229528Y-1738191D02*
G01*
X229528Y-1694843D01*
X170673Y-1761837D02*
G01*
X170673Y-1805156D01*
X229729Y-1761837D02*
G01*
X229729Y-1805156D01*
X229528Y-1805156D02*
G01*
X170471Y-1805142D01*
X229528Y-1694882D02*
G01*
X170471Y-1694882D01*
X270471Y-1738191D02*
G01*
X270471Y-1694843D01*
X329528Y-1738191D02*
G01*
X329528Y-1694843D01*
X270673Y-1761837D02*
G01*
X270673Y-1805156D01*
X329729Y-1761837D02*
G01*
X329729Y-1805156D01*
X329528Y-1805156D02*
G01*
X270471Y-1805142D01*
X329528Y-1694882D02*
G01*
X270471Y-1694882D01*
X370471Y-1738191D02*
G01*
X370471Y-1694843D01*
X429528Y-1738191D02*
G01*
X429528Y-1694843D01*
X370673Y-1761837D02*
G01*
X370673Y-1805156D01*
X429729Y-1761837D02*
G01*
X429729Y-1805156D01*
X429528Y-1805156D02*
G01*
X370471Y-1805142D01*
X429528Y-1694882D02*
G01*
X370471Y-1694882D01*
X127480Y-1961365D02*
G01*
X127480Y-1992862D01*
X83787Y-2005059D02*
G01*
X115282Y-2005059D01*
X71588Y-1961365D02*
G01*
X71588Y-1992862D01*
X127710Y-1938692D02*
G01*
X127710Y-1907197D01*
X71819Y-1938692D02*
G01*
X71819Y-1907197D01*
X84016Y-1895000D02*
G01*
X115513Y-1895000D01*
X227480Y-1961365D02*
G01*
X227480Y-1992862D01*
X183787Y-2005059D02*
G01*
X215282Y-2005059D01*
X171588Y-1961365D02*
G01*
X171588Y-1992862D01*
X227710Y-1938692D02*
G01*
X227710Y-1907197D01*
X171819Y-1938692D02*
G01*
X171819Y-1907197D01*
X184016Y-1895000D02*
G01*
X215513Y-1895000D01*
X1561364Y-1777519D02*
G01*
X1592861Y-1777519D01*
X1605059Y-1821212D02*
G01*
X1605059Y-1789717D01*
X1561364Y-1833411D02*
G01*
X1592861Y-1833411D01*
X1538692Y-1777289D02*
G01*
X1507197Y-1777289D01*
X1538692Y-1833180D02*
G01*
X1507197Y-1833180D01*
X1495000Y-1820983D02*
G01*
X1495000Y-1789486D01*
X1372520Y-1808634D02*
G01*
X1372520Y-1777138D01*
X1416212Y-1764940D02*
G01*
X1384717Y-1764940D01*
X1428410Y-1808634D02*
G01*
X1428410Y-1777138D01*
X1372290Y-1831307D02*
G01*
X1372290Y-1862802D01*
X1428181Y-1831307D02*
G01*
X1428181Y-1862802D01*
X1415983Y-1875000D02*
G01*
X1384486Y-1875000D01*
X1620471Y-838191D02*
G01*
X1620471Y-794843D01*
X1679528Y-838191D02*
G01*
X1679528Y-794843D01*
X1620672Y-861837D02*
G01*
X1620672Y-905156D01*
X1679728Y-861837D02*
G01*
X1679728Y-905156D01*
X1679528Y-905156D02*
G01*
X1620471Y-905142D01*
X1679528Y-794882D02*
G01*
X1620471Y-794882D01*
X1270471Y-2038191D02*
G01*
X1270471Y-1994843D01*
X1329528Y-2038191D02*
G01*
X1329528Y-1994843D01*
X1270672Y-2061837D02*
G01*
X1270672Y-2105156D01*
X1329728Y-2061837D02*
G01*
X1329728Y-2105156D01*
X1329528Y-2105156D02*
G01*
X1270471Y-2105142D01*
X1329528Y-1994882D02*
G01*
X1270471Y-1994882D01*
X488191Y-1529528D02*
G01*
X444843Y-1529528D01*
X488191Y-1470471D02*
G01*
X444843Y-1470471D01*
X511837Y-1529326D02*
G01*
X555156Y-1529326D01*
X511837Y-1470270D02*
G01*
X555156Y-1470270D01*
X555156Y-1470471D02*
G01*
X555142Y-1529528D01*
X444882Y-1470471D02*
G01*
X444882Y-1529528D01*
X688191Y-1529528D02*
G01*
X644843Y-1529528D01*
X688191Y-1470471D02*
G01*
X644843Y-1470471D01*
X711837Y-1529326D02*
G01*
X755156Y-1529326D01*
X711837Y-1470270D02*
G01*
X755156Y-1470270D01*
X755156Y-1470471D02*
G01*
X755142Y-1529528D01*
X644882Y-1470471D02*
G01*
X644882Y-1529528D01*
X1111364Y-1897519D02*
G01*
X1142861Y-1897519D01*
X1155059Y-1941212D02*
G01*
X1155059Y-1909717D01*
X1111364Y-1953411D02*
G01*
X1142861Y-1953411D01*
X1088692Y-1897289D02*
G01*
X1057197Y-1897289D01*
X1088692Y-1953180D02*
G01*
X1057197Y-1953180D01*
X1045000Y-1940983D02*
G01*
X1045000Y-1909486D01*
X761364Y-22519D02*
G01*
X792861Y-22519D01*
X805059Y-66212D02*
G01*
X805059Y-34717D01*
X761364Y-78411D02*
G01*
X792861Y-78411D01*
X738692Y-22289D02*
G01*
X707197Y-22289D01*
X738692Y-78180D02*
G01*
X707197Y-78180D01*
X695000Y-65983D02*
G01*
X695000Y-34486D01*
X817520Y-1358634D02*
G01*
X817520Y-1327138D01*
X861212Y-1314940D02*
G01*
X829717Y-1314940D01*
X873410Y-1358634D02*
G01*
X873410Y-1327138D01*
X817290Y-1381307D02*
G01*
X817290Y-1412802D01*
X873181Y-1381307D02*
G01*
X873181Y-1412802D01*
X860983Y-1425000D02*
G01*
X829486Y-1425000D01*
G75*
G01*
X631500Y-644000D02*
G03*
X808500Y-644000I88500J0D01*
G75*
G01*
X808500Y-396000D02*
G03*
X631500Y-396000I-88500J0D01*
G75*
G01*
X443787Y-600060D02*
G02*
X431589Y-587862I0J12198D01*
G75*
G01*
X487481Y-587862D02*
G02*
X475283Y-600060I-12198J0D01*
G75*
G01*
X431818Y-502198D02*
G02*
X444016Y-490000I12198J0D01*
G75*
G01*
X475512Y-490000D02*
G02*
X487710Y-502198I0J-12198D01*
G75*
G01*
X553787Y-750060D02*
G02*
X541589Y-737862I0J12198D01*
G75*
G01*
X597481Y-737862D02*
G02*
X585283Y-750060I-12198J0D01*
G75*
G01*
X541818Y-652198D02*
G02*
X554016Y-640000I12198J0D01*
G75*
G01*
X585512Y-640000D02*
G02*
X597710Y-652198I0J-12198D01*
G75*
G01*
X1424950Y-771300D02*
G03*
X1426250Y-771300I650J-78738D01*
G75*
G01*
X1441300Y-125050D02*
G03*
X1441300Y-123750I78738J650D01*
G75*
G01*
X575050Y-2178700D02*
G03*
X573750Y-2178700I-650J78738D01*
G75*
G01*
X799950Y-1741300D02*
G03*
X801250Y-1741300I650J-78738D01*
G75*
G01*
X575050Y-1928700D02*
G03*
X573750Y-1928700I-650J78738D01*
G75*
G01*
X975000Y-2205000D02*
G03*
X925013Y-2205265I-25000J1075D01*
D15*
G75*
G01*
X1185000Y-118102D02*
G02*
X1115000Y-118118I-35000J-8D01*
D13*
G75*
G01*
X860000Y-100000D02*
G02*
X900000Y-140000I0J-40000D01*
G75*
G01*
X900000Y-860000D02*
G02*
X860000Y-900000I-40000J0D01*
G75*
G01*
X430000Y-900000D02*
G02*
X400000Y-870000I0J30000D01*
G75*
G01*
X83787Y-2005060D02*
G02*
X71589Y-1992862I0J12198D01*
G75*
G01*
X127481Y-1992862D02*
G02*
X115283Y-2005060I-12198J0D01*
G75*
G01*
X71818Y-1907198D02*
G02*
X84016Y-1895000I12198J0D01*
G75*
G01*
X115512Y-1895000D02*
G02*
X127710Y-1907198I0J-12198D01*
G75*
G01*
X183787Y-2005060D02*
G02*
X171589Y-1992862I0J12198D01*
G75*
G01*
X227481Y-1992862D02*
G02*
X215283Y-2005060I-12198J0D01*
G75*
G01*
X171818Y-1907198D02*
G02*
X184016Y-1895000I12198J0D01*
G75*
G01*
X215512Y-1895000D02*
G02*
X227710Y-1907198I0J-12198D01*
G75*
G01*
X1605060Y-1821213D02*
G02*
X1592862Y-1833411I-12198J0D01*
G75*
G01*
X1592862Y-1777519D02*
G02*
X1605060Y-1789717I0J-12198D01*
G75*
G01*
X1507198Y-1833182D02*
G02*
X1495000Y-1820984I0J12198D01*
G75*
G01*
X1495000Y-1789488D02*
G02*
X1507198Y-1777290I12198J0D01*
G75*
G01*
X1416213Y-1764940D02*
G02*
X1428411Y-1777138I0J-12198D01*
G75*
G01*
X1372519Y-1777138D02*
G02*
X1384717Y-1764940I12198J0D01*
G75*
G01*
X1428182Y-1862802D02*
G02*
X1415984Y-1875000I-12198J0D01*
G75*
G01*
X1384488Y-1875000D02*
G02*
X1372290Y-1862802I0J12198D01*
G75*
G01*
X1155060Y-1941213D02*
G02*
X1142862Y-1953411I-12198J0D01*
G75*
G01*
X1142862Y-1897519D02*
G02*
X1155060Y-1909717I0J-12198D01*
G75*
G01*
X1057198Y-1953182D02*
G02*
X1045000Y-1940984I0J12198D01*
G75*
G01*
X1045000Y-1909488D02*
G02*
X1057198Y-1897290I12198J0D01*
G75*
G01*
X805060Y-66213D02*
G02*
X792862Y-78411I-12198J0D01*
G75*
G01*
X792862Y-22519D02*
G02*
X805060Y-34717I0J-12198D01*
G75*
G01*
X707198Y-78182D02*
G02*
X695000Y-65984I0J12198D01*
G75*
G01*
X695000Y-34488D02*
G02*
X707198Y-22290I12198J0D01*
G75*
G01*
X861213Y-1314940D02*
G02*
X873411Y-1327138I0J-12198D01*
G75*
G01*
X817519Y-1327138D02*
G02*
X829717Y-1314940I12198J0D01*
G75*
G01*
X873182Y-1412802D02*
G02*
X860984Y-1425000I-12198J0D01*
G75*
G01*
X829488Y-1425000D02*
G02*
X817290Y-1412802I0J12198D01*
G75*
G01
X997070Y-140000D02*
G03X997070Y-140000I-7070J0D01*
G75*
G01
X444140Y-130000D02*
G03X444140Y-130000I-14140J0D01*
M02*
