G04 Layer: BottomLayer*
G04 EasyEDA v6.5.40, 2024-12-13 02:27:43*
G04 cafc711810e44acb902ef42d95588454,10*
G04 Gerber Generator version 0.2*
G04 Scale: 100 percent, Rotated: No, Reflected: No *
G04 Dimensions in inches *
G04 leading zeros omitted , absolute positions ,3 integer and 6 decimal *
%FSLAX36Y36*%
%MOIN*%

%ADD10C,0.0100*%
%ADD11C,0.0630*%
%ADD12C,0.0472*%
%ADD13O,0.07873999999999999X0.059054999999999996*%
%ADD14R,0.0787X0.0591*%
%ADD15C,0.0787*%
%ADD16R,0.0550X0.0550*%
%ADD17C,0.0550*%
%ADD18C,0.0620*%
%ADD19R,0.0620X0.0620*%
%ADD20C,0.0240*%
%ADD21C,0.0176*%

%LPD*%
G36*
X151660Y-2250000D02*
G01*
X150120Y-2249700D01*
X148820Y-2248820D01*
X68240Y-2168240D01*
X67440Y-2167100D01*
X67080Y-2165760D01*
X67200Y-2164380D01*
X67800Y-2163120D01*
X69220Y-2161100D01*
X70840Y-2157580D01*
X71840Y-2153860D01*
X72180Y-2150000D01*
X71840Y-2146140D01*
X70840Y-2142420D01*
X69220Y-2138900D01*
X67000Y-2135740D01*
X64260Y-2133000D01*
X61100Y-2130780D01*
X57580Y-2129160D01*
X52240Y-2127740D01*
X51060Y-2126860D01*
X50279Y-2125600D01*
X50000Y-2124160D01*
X50000Y-1831780D01*
X50300Y-1830240D01*
X51180Y-1828959D01*
X52460Y-1828080D01*
X54000Y-1827780D01*
X55540Y-1828080D01*
X56820Y-1828959D01*
X76720Y-1848839D01*
X77520Y-1849980D01*
X77880Y-1851320D01*
X78160Y-1854480D01*
X79160Y-1858220D01*
X80780Y-1861720D01*
X83000Y-1864900D01*
X85740Y-1867620D01*
X88900Y-1869840D01*
X92420Y-1871480D01*
X96140Y-1872480D01*
X100000Y-1872820D01*
X103859Y-1872480D01*
X107579Y-1871480D01*
X111100Y-1869840D01*
X114260Y-1867620D01*
X117000Y-1864900D01*
X119220Y-1861720D01*
X120840Y-1858220D01*
X121840Y-1854480D01*
X122180Y-1850640D01*
X121840Y-1846780D01*
X120840Y-1843040D01*
X119220Y-1839540D01*
X117000Y-1836360D01*
X114260Y-1833640D01*
X111100Y-1831420D01*
X107579Y-1829780D01*
X103859Y-1828779D01*
X100700Y-1828500D01*
X99360Y-1828140D01*
X98219Y-1827360D01*
X76380Y-1805500D01*
X75500Y-1804199D01*
X75200Y-1802680D01*
X75200Y-1675800D01*
X75560Y-1674160D01*
X76540Y-1672820D01*
X78000Y-1671980D01*
X79660Y-1671819D01*
X81260Y-1672360D01*
X82480Y-1673500D01*
X83000Y-1674259D01*
X85740Y-1677000D01*
X88900Y-1679220D01*
X92420Y-1680840D01*
X96140Y-1681840D01*
X100000Y-1682180D01*
X103859Y-1681840D01*
X107579Y-1680840D01*
X111100Y-1679220D01*
X114260Y-1677000D01*
X114880Y-1676380D01*
X116180Y-1675500D01*
X117720Y-1675200D01*
X380800Y-1675200D01*
X382340Y-1675500D01*
X383620Y-1676380D01*
X384500Y-1677660D01*
X384799Y-1679199D01*
X384799Y-2082280D01*
X384500Y-2083820D01*
X383620Y-2085120D01*
X383000Y-2085740D01*
X380780Y-2088899D01*
X379159Y-2092420D01*
X378160Y-2096140D01*
X377819Y-2100000D01*
X378160Y-2103860D01*
X379159Y-2107580D01*
X380780Y-2111100D01*
X383000Y-2114260D01*
X385740Y-2117000D01*
X388900Y-2119220D01*
X392420Y-2120840D01*
X396140Y-2121840D01*
X400000Y-2122180D01*
X403860Y-2121840D01*
X407580Y-2120840D01*
X411100Y-2119220D01*
X414260Y-2117000D01*
X417000Y-2114260D01*
X419219Y-2111100D01*
X420840Y-2107580D01*
X421840Y-2103860D01*
X422180Y-2100000D01*
X421840Y-2096140D01*
X420840Y-2092420D01*
X419219Y-2088899D01*
X417000Y-2085740D01*
X416380Y-2085120D01*
X415500Y-2083820D01*
X415200Y-2082280D01*
X415200Y-1677720D01*
X415500Y-1676180D01*
X416380Y-1674880D01*
X417000Y-1674259D01*
X419219Y-1671100D01*
X420840Y-1667580D01*
X421840Y-1663860D01*
X422180Y-1660000D01*
X421840Y-1656140D01*
X420840Y-1652420D01*
X419219Y-1648899D01*
X417000Y-1645740D01*
X414260Y-1643000D01*
X411100Y-1640780D01*
X407580Y-1639160D01*
X403860Y-1638160D01*
X400000Y-1637820D01*
X396140Y-1638160D01*
X392420Y-1639160D01*
X388900Y-1640780D01*
X385740Y-1643000D01*
X385120Y-1643620D01*
X383820Y-1644500D01*
X382280Y-1644800D01*
X117720Y-1644800D01*
X116180Y-1644500D01*
X114880Y-1643620D01*
X114260Y-1643000D01*
X111100Y-1640780D01*
X107579Y-1639160D01*
X103859Y-1638160D01*
X100000Y-1637820D01*
X98539Y-1637940D01*
X96940Y-1637760D01*
X95540Y-1636940D01*
X94560Y-1635640D01*
X94200Y-1634079D01*
X94480Y-1632480D01*
X95360Y-1631120D01*
X100120Y-1626380D01*
X101420Y-1625500D01*
X102960Y-1625200D01*
X182280Y-1625200D01*
X183820Y-1625500D01*
X185120Y-1626380D01*
X185740Y-1627000D01*
X188900Y-1629220D01*
X192420Y-1630840D01*
X196140Y-1631840D01*
X200000Y-1632180D01*
X203860Y-1631840D01*
X207580Y-1630840D01*
X211100Y-1629220D01*
X214259Y-1627000D01*
X217000Y-1624259D01*
X219220Y-1621100D01*
X220840Y-1617580D01*
X221840Y-1613860D01*
X222180Y-1610000D01*
X221840Y-1606140D01*
X220840Y-1602420D01*
X219220Y-1598899D01*
X217000Y-1595740D01*
X214259Y-1593000D01*
X211100Y-1590780D01*
X207580Y-1589160D01*
X203860Y-1588160D01*
X200000Y-1587820D01*
X196140Y-1588160D01*
X192420Y-1589160D01*
X188900Y-1590780D01*
X185740Y-1593000D01*
X185120Y-1593620D01*
X183820Y-1594500D01*
X182280Y-1594800D01*
X95200Y-1594800D01*
X92040Y-1595120D01*
X89200Y-1595980D01*
X86560Y-1597380D01*
X84120Y-1599400D01*
X56820Y-1626680D01*
X55540Y-1627540D01*
X54000Y-1627840D01*
X52460Y-1627540D01*
X51180Y-1626680D01*
X50300Y-1625380D01*
X50000Y-1623839D01*
X50000Y-1623160D01*
X50300Y-1621620D01*
X51180Y-1620320D01*
X115120Y-1556380D01*
X116420Y-1555500D01*
X117960Y-1555200D01*
X164800Y-1555200D01*
X167960Y-1554880D01*
X170799Y-1554019D01*
X173440Y-1552620D01*
X175880Y-1550600D01*
X231880Y-1494620D01*
X233100Y-1493779D01*
X234540Y-1493440D01*
X236000Y-1493660D01*
X239340Y-1494780D01*
X244620Y-1495840D01*
X250000Y-1496200D01*
X255380Y-1495840D01*
X260660Y-1494780D01*
X265760Y-1493060D01*
X270600Y-1490680D01*
X275080Y-1487680D01*
X279120Y-1484120D01*
X282680Y-1480080D01*
X285680Y-1475600D01*
X288060Y-1470760D01*
X289780Y-1465660D01*
X290840Y-1460380D01*
X291200Y-1455000D01*
X290840Y-1449620D01*
X289780Y-1444340D01*
X288060Y-1439240D01*
X285680Y-1434400D01*
X282680Y-1429920D01*
X279120Y-1425880D01*
X275080Y-1422320D01*
X270600Y-1419319D01*
X265760Y-1416940D01*
X260660Y-1415220D01*
X255380Y-1414160D01*
X250000Y-1413800D01*
X244620Y-1414160D01*
X239340Y-1415220D01*
X234240Y-1416940D01*
X229400Y-1419319D01*
X224920Y-1422320D01*
X220880Y-1425880D01*
X217320Y-1429920D01*
X214320Y-1434400D01*
X211940Y-1439240D01*
X210219Y-1444340D01*
X209160Y-1449620D01*
X208800Y-1455000D01*
X209160Y-1460380D01*
X210219Y-1465660D01*
X211340Y-1469000D01*
X211560Y-1470460D01*
X211220Y-1471900D01*
X210380Y-1473120D01*
X159880Y-1523620D01*
X158580Y-1524500D01*
X157040Y-1524800D01*
X110200Y-1524800D01*
X107040Y-1525120D01*
X104200Y-1525980D01*
X101560Y-1527380D01*
X99120Y-1529400D01*
X56820Y-1571680D01*
X55540Y-1572540D01*
X54000Y-1572840D01*
X52460Y-1572540D01*
X51180Y-1571680D01*
X50300Y-1570380D01*
X50000Y-1568839D01*
X50000Y-151660D01*
X50300Y-150120D01*
X51180Y-148820D01*
X148820Y-51180D01*
X150120Y-50300D01*
X151660Y-50000D01*
X1548340Y-50000D01*
X1549880Y-50300D01*
X1551180Y-51180D01*
X1648820Y-148820D01*
X1649700Y-150120D01*
X1650000Y-151660D01*
X1650000Y-2148340D01*
X1649700Y-2149880D01*
X1648820Y-2151180D01*
X1551180Y-2248820D01*
X1549880Y-2249700D01*
X1548340Y-2250000D01*
G37*

%LPC*%
G36*
X1005200Y-2185200D02*
G01*
X1189800Y-2185200D01*
X1192960Y-2184880D01*
X1195800Y-2184020D01*
X1198440Y-2182620D01*
X1200880Y-2180600D01*
X1255600Y-2125880D01*
X1257620Y-2123440D01*
X1259020Y-2120800D01*
X1259880Y-2117960D01*
X1260200Y-2114800D01*
X1260200Y-2080200D01*
X1259880Y-2077040D01*
X1259020Y-2074199D01*
X1257620Y-2071560D01*
X1255600Y-2069120D01*
X1213280Y-2026780D01*
X1212480Y-2025640D01*
X1212120Y-2024300D01*
X1211840Y-2021140D01*
X1210840Y-2017420D01*
X1209220Y-2013899D01*
X1207000Y-2010740D01*
X1204260Y-2008000D01*
X1201100Y-2005780D01*
X1197580Y-2004160D01*
X1193860Y-2003160D01*
X1190000Y-2002820D01*
X1186140Y-2003160D01*
X1182420Y-2004160D01*
X1178900Y-2005780D01*
X1175740Y-2008000D01*
X1173000Y-2010740D01*
X1172480Y-2011500D01*
X1171260Y-2012640D01*
X1169660Y-2013180D01*
X1168000Y-2013020D01*
X1166540Y-2012180D01*
X1165560Y-2010840D01*
X1165200Y-2009199D01*
X1165200Y-1627980D01*
X1165520Y-1626420D01*
X1166400Y-1625120D01*
X1167740Y-1624259D01*
X1169300Y-1623980D01*
X1170840Y-1624319D01*
X1172120Y-1625240D01*
X1174280Y-1627540D01*
X1178260Y-1630800D01*
X1182660Y-1633460D01*
X1187380Y-1635520D01*
X1192340Y-1636900D01*
X1197420Y-1637600D01*
X1202580Y-1637600D01*
X1207660Y-1636900D01*
X1212620Y-1635520D01*
X1217340Y-1633460D01*
X1221740Y-1630800D01*
X1225720Y-1627540D01*
X1229240Y-1623779D01*
X1232200Y-1619580D01*
X1234580Y-1615020D01*
X1236300Y-1610160D01*
X1237340Y-1605140D01*
X1237700Y-1600000D01*
X1237340Y-1594860D01*
X1236300Y-1589840D01*
X1234580Y-1584980D01*
X1232200Y-1580420D01*
X1229240Y-1576220D01*
X1225720Y-1572460D01*
X1221740Y-1569199D01*
X1217340Y-1566540D01*
X1212620Y-1564480D01*
X1207660Y-1563100D01*
X1202580Y-1562400D01*
X1197420Y-1562400D01*
X1192340Y-1563100D01*
X1187380Y-1564480D01*
X1182660Y-1566540D01*
X1178260Y-1569199D01*
X1174280Y-1572460D01*
X1172120Y-1574760D01*
X1170840Y-1575680D01*
X1169300Y-1576020D01*
X1167740Y-1575740D01*
X1166400Y-1574880D01*
X1165520Y-1573580D01*
X1165200Y-1572020D01*
X1165200Y-1527980D01*
X1165520Y-1526420D01*
X1166400Y-1525120D01*
X1167740Y-1524259D01*
X1169300Y-1523980D01*
X1170840Y-1524319D01*
X1172120Y-1525240D01*
X1174280Y-1527540D01*
X1178260Y-1530800D01*
X1182660Y-1533460D01*
X1187380Y-1535520D01*
X1192340Y-1536900D01*
X1197420Y-1537600D01*
X1202580Y-1537600D01*
X1207660Y-1536900D01*
X1212620Y-1535520D01*
X1217340Y-1533460D01*
X1221740Y-1530800D01*
X1225720Y-1527540D01*
X1229240Y-1523779D01*
X1232200Y-1519580D01*
X1234580Y-1515020D01*
X1236300Y-1510160D01*
X1237340Y-1505140D01*
X1237700Y-1500000D01*
X1237340Y-1494860D01*
X1236300Y-1489840D01*
X1234580Y-1484980D01*
X1232200Y-1480420D01*
X1229240Y-1476220D01*
X1225720Y-1472460D01*
X1221740Y-1469199D01*
X1217340Y-1466540D01*
X1212620Y-1464480D01*
X1207660Y-1463100D01*
X1202580Y-1462400D01*
X1197420Y-1462400D01*
X1192340Y-1463100D01*
X1187380Y-1464480D01*
X1182660Y-1466540D01*
X1178260Y-1469199D01*
X1174280Y-1472460D01*
X1172120Y-1474760D01*
X1170840Y-1475680D01*
X1169300Y-1476020D01*
X1167740Y-1475740D01*
X1166400Y-1474880D01*
X1165520Y-1473580D01*
X1165200Y-1472020D01*
X1165200Y-1450200D01*
X1164880Y-1447040D01*
X1164020Y-1444199D01*
X1162620Y-1441560D01*
X1160600Y-1439120D01*
X1136860Y-1415380D01*
X1136020Y-1414139D01*
X1135700Y-1412680D01*
X1135920Y-1411200D01*
X1136300Y-1410160D01*
X1137340Y-1405140D01*
X1137700Y-1400000D01*
X1137340Y-1394860D01*
X1136300Y-1389840D01*
X1134580Y-1384980D01*
X1132200Y-1380420D01*
X1129440Y-1376500D01*
X1128780Y-1374900D01*
X1128840Y-1373180D01*
X1129640Y-1371639D01*
X1131020Y-1370580D01*
X1132720Y-1370200D01*
X1367280Y-1370200D01*
X1368980Y-1370580D01*
X1370360Y-1371639D01*
X1371160Y-1373180D01*
X1371220Y-1374900D01*
X1370560Y-1376500D01*
X1367800Y-1380420D01*
X1365420Y-1384980D01*
X1363700Y-1389840D01*
X1362660Y-1394860D01*
X1362300Y-1400000D01*
X1362660Y-1405140D01*
X1363700Y-1410160D01*
X1365420Y-1415020D01*
X1367800Y-1419580D01*
X1370760Y-1423779D01*
X1374280Y-1427540D01*
X1378260Y-1430800D01*
X1382660Y-1433460D01*
X1387380Y-1435520D01*
X1392340Y-1436900D01*
X1397420Y-1437600D01*
X1402580Y-1437600D01*
X1407660Y-1436900D01*
X1412620Y-1435520D01*
X1417340Y-1433460D01*
X1421740Y-1430800D01*
X1425720Y-1427540D01*
X1429240Y-1423779D01*
X1432200Y-1419580D01*
X1434580Y-1415020D01*
X1436300Y-1410160D01*
X1437340Y-1405140D01*
X1437700Y-1400000D01*
X1437340Y-1394860D01*
X1436300Y-1389840D01*
X1434580Y-1384980D01*
X1432200Y-1380420D01*
X1429440Y-1376500D01*
X1428779Y-1374900D01*
X1428839Y-1373180D01*
X1429640Y-1371639D01*
X1431020Y-1370580D01*
X1432720Y-1370200D01*
X1447040Y-1370200D01*
X1448580Y-1370500D01*
X1449880Y-1371380D01*
X1463140Y-1384620D01*
X1463980Y-1385860D01*
X1464300Y-1387320D01*
X1464079Y-1388800D01*
X1463700Y-1389840D01*
X1462660Y-1394860D01*
X1462300Y-1400000D01*
X1462660Y-1405140D01*
X1463700Y-1410160D01*
X1465420Y-1415020D01*
X1467800Y-1419580D01*
X1470760Y-1423779D01*
X1474280Y-1427540D01*
X1478260Y-1430800D01*
X1482660Y-1433460D01*
X1487380Y-1435520D01*
X1492340Y-1436900D01*
X1497420Y-1437600D01*
X1502580Y-1437600D01*
X1507660Y-1436900D01*
X1512620Y-1435520D01*
X1517340Y-1433460D01*
X1521740Y-1430800D01*
X1525720Y-1427540D01*
X1529240Y-1423779D01*
X1532200Y-1419580D01*
X1534580Y-1415020D01*
X1536300Y-1410160D01*
X1537340Y-1405140D01*
X1537700Y-1400000D01*
X1537340Y-1394860D01*
X1536800Y-1392260D01*
X1536740Y-1390940D01*
X1537120Y-1389680D01*
X1537880Y-1388620D01*
X1570600Y-1355880D01*
X1572620Y-1353440D01*
X1574019Y-1350800D01*
X1574880Y-1347960D01*
X1575200Y-1344800D01*
X1575200Y-335200D01*
X1574880Y-332040D01*
X1574019Y-329200D01*
X1572620Y-326560D01*
X1570600Y-324120D01*
X1558280Y-311780D01*
X1557480Y-310640D01*
X1557120Y-309300D01*
X1556840Y-306140D01*
X1555840Y-302420D01*
X1554220Y-298900D01*
X1552000Y-295740D01*
X1549259Y-293000D01*
X1546100Y-290780D01*
X1542580Y-289160D01*
X1538860Y-288160D01*
X1535000Y-287820D01*
X1531140Y-288160D01*
X1527420Y-289160D01*
X1523899Y-290780D01*
X1520740Y-293000D01*
X1518000Y-295740D01*
X1515780Y-298900D01*
X1514160Y-302420D01*
X1513160Y-306140D01*
X1512820Y-310000D01*
X1513160Y-313860D01*
X1514160Y-317580D01*
X1515780Y-321100D01*
X1518000Y-324260D01*
X1520740Y-327000D01*
X1523899Y-329219D01*
X1527420Y-330840D01*
X1531140Y-331840D01*
X1534300Y-332120D01*
X1535640Y-332480D01*
X1536780Y-333280D01*
X1543620Y-340120D01*
X1544500Y-341420D01*
X1544800Y-342960D01*
X1544800Y-1191860D01*
X1544460Y-1193480D01*
X1543480Y-1194840D01*
X1542020Y-1195660D01*
X1540380Y-1195840D01*
X1538779Y-1195320D01*
X1537560Y-1194200D01*
X1536879Y-1192680D01*
X1536300Y-1189840D01*
X1534580Y-1184980D01*
X1532200Y-1180420D01*
X1529240Y-1176220D01*
X1525720Y-1172460D01*
X1521740Y-1169200D01*
X1517340Y-1166540D01*
X1512620Y-1164480D01*
X1507660Y-1163100D01*
X1502580Y-1162400D01*
X1497420Y-1162400D01*
X1492340Y-1163100D01*
X1487380Y-1164480D01*
X1482660Y-1166540D01*
X1478260Y-1169200D01*
X1474280Y-1172460D01*
X1470760Y-1176220D01*
X1467800Y-1180420D01*
X1465420Y-1184980D01*
X1463700Y-1189840D01*
X1462660Y-1194860D01*
X1462300Y-1200000D01*
X1462660Y-1205140D01*
X1463700Y-1210160D01*
X1465420Y-1215020D01*
X1467800Y-1219580D01*
X1470760Y-1223780D01*
X1474280Y-1227540D01*
X1478260Y-1230800D01*
X1482660Y-1233460D01*
X1487380Y-1235520D01*
X1492340Y-1236900D01*
X1497420Y-1237600D01*
X1502580Y-1237600D01*
X1507660Y-1236900D01*
X1512620Y-1235520D01*
X1517340Y-1233460D01*
X1521740Y-1230800D01*
X1525720Y-1227540D01*
X1529240Y-1223780D01*
X1532200Y-1219580D01*
X1534580Y-1215020D01*
X1536300Y-1210160D01*
X1536879Y-1207320D01*
X1537560Y-1205800D01*
X1538779Y-1204680D01*
X1540380Y-1204160D01*
X1542020Y-1204340D01*
X1543480Y-1205160D01*
X1544460Y-1206520D01*
X1544800Y-1208140D01*
X1544800Y-1291860D01*
X1544460Y-1293480D01*
X1543480Y-1294840D01*
X1542020Y-1295660D01*
X1540380Y-1295840D01*
X1538779Y-1295320D01*
X1537560Y-1294199D01*
X1536879Y-1292680D01*
X1536300Y-1289840D01*
X1534580Y-1284980D01*
X1532200Y-1280420D01*
X1529240Y-1276220D01*
X1525720Y-1272460D01*
X1521740Y-1269200D01*
X1517340Y-1266540D01*
X1512620Y-1264480D01*
X1507660Y-1263100D01*
X1502580Y-1262400D01*
X1497420Y-1262400D01*
X1492340Y-1263100D01*
X1487380Y-1264480D01*
X1482660Y-1266540D01*
X1478260Y-1269200D01*
X1474280Y-1272460D01*
X1470760Y-1276220D01*
X1467800Y-1280420D01*
X1465420Y-1284980D01*
X1463700Y-1289840D01*
X1462660Y-1294860D01*
X1462300Y-1300000D01*
X1462660Y-1305140D01*
X1463700Y-1310160D01*
X1465420Y-1315020D01*
X1467800Y-1319580D01*
X1470760Y-1323779D01*
X1474280Y-1327540D01*
X1478260Y-1330800D01*
X1482660Y-1333460D01*
X1487380Y-1335520D01*
X1492340Y-1336900D01*
X1497420Y-1337600D01*
X1502580Y-1337600D01*
X1507660Y-1336900D01*
X1512620Y-1335520D01*
X1517340Y-1333460D01*
X1521740Y-1330800D01*
X1525720Y-1327540D01*
X1529240Y-1323779D01*
X1532200Y-1319580D01*
X1534580Y-1315020D01*
X1536300Y-1310160D01*
X1536879Y-1307320D01*
X1537560Y-1305800D01*
X1538779Y-1304680D01*
X1540380Y-1304160D01*
X1542020Y-1304340D01*
X1543480Y-1305160D01*
X1544460Y-1306519D01*
X1544800Y-1308140D01*
X1544800Y-1337040D01*
X1544500Y-1338580D01*
X1543620Y-1339880D01*
X1519000Y-1364500D01*
X1517680Y-1365380D01*
X1516140Y-1365660D01*
X1514580Y-1365340D01*
X1512620Y-1364480D01*
X1507660Y-1363100D01*
X1502580Y-1362400D01*
X1497420Y-1362400D01*
X1492340Y-1363100D01*
X1488540Y-1364160D01*
X1487140Y-1364300D01*
X1485780Y-1363940D01*
X1484640Y-1363140D01*
X1465880Y-1344400D01*
X1463440Y-1342380D01*
X1460800Y-1340980D01*
X1457960Y-1340120D01*
X1454800Y-1339800D01*
X1421200Y-1339800D01*
X1419520Y-1339440D01*
X1418160Y-1338400D01*
X1417340Y-1336879D01*
X1417240Y-1335160D01*
X1417880Y-1333560D01*
X1419120Y-1332380D01*
X1421740Y-1330800D01*
X1425720Y-1327540D01*
X1429240Y-1323779D01*
X1432200Y-1319580D01*
X1434580Y-1315020D01*
X1436300Y-1310160D01*
X1437340Y-1305140D01*
X1437700Y-1300000D01*
X1437340Y-1294860D01*
X1436300Y-1289840D01*
X1434580Y-1284980D01*
X1432200Y-1280420D01*
X1429240Y-1276220D01*
X1425720Y-1272460D01*
X1421740Y-1269200D01*
X1417340Y-1266540D01*
X1412620Y-1264480D01*
X1407660Y-1263100D01*
X1402580Y-1262400D01*
X1397420Y-1262400D01*
X1392340Y-1263100D01*
X1387380Y-1264480D01*
X1382660Y-1266540D01*
X1378260Y-1269200D01*
X1374280Y-1272460D01*
X1370760Y-1276220D01*
X1367800Y-1280420D01*
X1365420Y-1284980D01*
X1363700Y-1289840D01*
X1362660Y-1294860D01*
X1362300Y-1300000D01*
X1362660Y-1305140D01*
X1363700Y-1310160D01*
X1365420Y-1315020D01*
X1367800Y-1319580D01*
X1370760Y-1323779D01*
X1374280Y-1327540D01*
X1378260Y-1330800D01*
X1380880Y-1332380D01*
X1382120Y-1333560D01*
X1382760Y-1335160D01*
X1382660Y-1336879D01*
X1381840Y-1338400D01*
X1380480Y-1339440D01*
X1378800Y-1339800D01*
X1121200Y-1339800D01*
X1119520Y-1339440D01*
X1118160Y-1338400D01*
X1117340Y-1336879D01*
X1117240Y-1335160D01*
X1117880Y-1333560D01*
X1119120Y-1332380D01*
X1121740Y-1330800D01*
X1125720Y-1327540D01*
X1129240Y-1323779D01*
X1132200Y-1319580D01*
X1134580Y-1315020D01*
X1136300Y-1310160D01*
X1137340Y-1305140D01*
X1137700Y-1300000D01*
X1137340Y-1294860D01*
X1136300Y-1289840D01*
X1134580Y-1284980D01*
X1132200Y-1280420D01*
X1129240Y-1276220D01*
X1125720Y-1272460D01*
X1121740Y-1269200D01*
X1117340Y-1266540D01*
X1112620Y-1264480D01*
X1107660Y-1263100D01*
X1102580Y-1262400D01*
X1097420Y-1262400D01*
X1092340Y-1263100D01*
X1087380Y-1264480D01*
X1082660Y-1266540D01*
X1078260Y-1269200D01*
X1074280Y-1272460D01*
X1070760Y-1276220D01*
X1067800Y-1280420D01*
X1065420Y-1284980D01*
X1063700Y-1289840D01*
X1062660Y-1294860D01*
X1062300Y-1300000D01*
X1062660Y-1305140D01*
X1063700Y-1310160D01*
X1065420Y-1315020D01*
X1067800Y-1319580D01*
X1070760Y-1323779D01*
X1074280Y-1327540D01*
X1078260Y-1330800D01*
X1080880Y-1332380D01*
X1082120Y-1333560D01*
X1082760Y-1335160D01*
X1082660Y-1336879D01*
X1081840Y-1338400D01*
X1080480Y-1339440D01*
X1078800Y-1339800D01*
X1050200Y-1339800D01*
X1047039Y-1340120D01*
X1044200Y-1340980D01*
X1041560Y-1342380D01*
X1039120Y-1344400D01*
X1019000Y-1364500D01*
X1017680Y-1365380D01*
X1016140Y-1365660D01*
X1014580Y-1365340D01*
X1012620Y-1364480D01*
X1007660Y-1363100D01*
X1002580Y-1362400D01*
X997420Y-1362400D01*
X992340Y-1363100D01*
X987380Y-1364480D01*
X982660Y-1366540D01*
X978259Y-1369199D01*
X974280Y-1372460D01*
X970759Y-1376220D01*
X967800Y-1380420D01*
X965420Y-1384980D01*
X963700Y-1389840D01*
X962660Y-1394860D01*
X962300Y-1400000D01*
X962660Y-1405140D01*
X963700Y-1410160D01*
X965420Y-1415020D01*
X967800Y-1419580D01*
X970759Y-1423779D01*
X974280Y-1427540D01*
X978259Y-1430800D01*
X982660Y-1433460D01*
X987380Y-1435520D01*
X992340Y-1436900D01*
X997420Y-1437600D01*
X1002580Y-1437600D01*
X1007660Y-1436900D01*
X1012620Y-1435520D01*
X1017340Y-1433460D01*
X1021740Y-1430800D01*
X1025720Y-1427540D01*
X1029240Y-1423779D01*
X1032200Y-1419580D01*
X1034580Y-1415020D01*
X1036300Y-1410160D01*
X1037340Y-1405140D01*
X1037700Y-1400000D01*
X1037340Y-1394860D01*
X1036800Y-1392260D01*
X1036740Y-1390940D01*
X1037120Y-1389680D01*
X1037880Y-1388620D01*
X1055120Y-1371380D01*
X1056420Y-1370500D01*
X1057960Y-1370200D01*
X1067280Y-1370200D01*
X1068980Y-1370580D01*
X1070360Y-1371639D01*
X1071160Y-1373180D01*
X1071220Y-1374900D01*
X1070560Y-1376500D01*
X1067800Y-1380420D01*
X1065420Y-1384980D01*
X1063700Y-1389840D01*
X1062660Y-1394860D01*
X1062300Y-1400000D01*
X1062660Y-1405140D01*
X1063700Y-1410160D01*
X1065420Y-1415020D01*
X1067800Y-1419580D01*
X1070760Y-1423779D01*
X1074280Y-1427540D01*
X1078260Y-1430800D01*
X1082660Y-1433460D01*
X1087380Y-1435520D01*
X1092340Y-1436900D01*
X1097420Y-1437600D01*
X1102580Y-1437600D01*
X1107660Y-1436900D01*
X1111460Y-1435840D01*
X1112860Y-1435700D01*
X1114220Y-1436060D01*
X1115360Y-1436860D01*
X1133620Y-1455120D01*
X1134500Y-1456420D01*
X1134800Y-1457960D01*
X1134800Y-1472020D01*
X1134480Y-1473580D01*
X1133600Y-1474880D01*
X1132260Y-1475740D01*
X1130700Y-1476020D01*
X1129160Y-1475680D01*
X1127880Y-1474760D01*
X1125720Y-1472460D01*
X1121740Y-1469199D01*
X1117340Y-1466540D01*
X1112620Y-1464480D01*
X1107660Y-1463100D01*
X1102580Y-1462400D01*
X1097420Y-1462400D01*
X1092340Y-1463100D01*
X1087380Y-1464480D01*
X1082660Y-1466540D01*
X1078260Y-1469199D01*
X1074280Y-1472460D01*
X1070760Y-1476220D01*
X1067800Y-1480420D01*
X1065420Y-1484980D01*
X1063700Y-1489840D01*
X1062660Y-1494860D01*
X1062300Y-1500000D01*
X1062660Y-1505140D01*
X1063700Y-1510160D01*
X1065420Y-1515020D01*
X1067800Y-1519580D01*
X1070760Y-1523779D01*
X1074280Y-1527540D01*
X1078260Y-1530800D01*
X1082660Y-1533460D01*
X1087380Y-1535520D01*
X1092340Y-1536900D01*
X1097420Y-1537600D01*
X1102580Y-1537600D01*
X1107660Y-1536900D01*
X1112620Y-1535520D01*
X1117340Y-1533460D01*
X1121740Y-1530800D01*
X1125720Y-1527540D01*
X1127880Y-1525240D01*
X1129160Y-1524319D01*
X1130700Y-1523980D01*
X1132260Y-1524259D01*
X1133600Y-1525120D01*
X1134480Y-1526420D01*
X1134800Y-1527980D01*
X1134800Y-1572020D01*
X1134480Y-1573580D01*
X1133600Y-1574880D01*
X1132260Y-1575740D01*
X1130700Y-1576020D01*
X1129160Y-1575680D01*
X1127880Y-1574760D01*
X1125720Y-1572460D01*
X1121740Y-1569199D01*
X1117340Y-1566540D01*
X1112620Y-1564480D01*
X1107660Y-1563100D01*
X1102580Y-1562400D01*
X1097420Y-1562400D01*
X1092340Y-1563100D01*
X1087380Y-1564480D01*
X1082660Y-1566540D01*
X1078260Y-1569199D01*
X1074280Y-1572460D01*
X1070760Y-1576220D01*
X1067800Y-1580420D01*
X1065420Y-1584980D01*
X1063700Y-1589840D01*
X1062660Y-1594860D01*
X1062300Y-1600000D01*
X1062660Y-1605140D01*
X1063700Y-1610160D01*
X1065420Y-1615020D01*
X1067800Y-1619580D01*
X1070760Y-1623779D01*
X1074280Y-1627540D01*
X1078260Y-1630800D01*
X1082660Y-1633460D01*
X1087380Y-1635520D01*
X1092340Y-1636900D01*
X1097420Y-1637600D01*
X1102580Y-1637600D01*
X1107660Y-1636900D01*
X1112620Y-1635520D01*
X1117340Y-1633460D01*
X1121740Y-1630800D01*
X1125720Y-1627540D01*
X1127880Y-1625240D01*
X1129160Y-1624319D01*
X1130700Y-1623980D01*
X1132260Y-1624259D01*
X1133600Y-1625120D01*
X1134480Y-1626420D01*
X1134800Y-1627980D01*
X1134800Y-2039800D01*
X1135120Y-2042960D01*
X1135980Y-2045800D01*
X1137380Y-2048440D01*
X1139400Y-2050880D01*
X1167680Y-2079180D01*
X1168320Y-2080020D01*
X1168720Y-2080980D01*
X1169160Y-2082580D01*
X1170780Y-2086100D01*
X1173000Y-2089259D01*
X1175740Y-2092000D01*
X1178900Y-2094220D01*
X1182420Y-2095840D01*
X1186140Y-2096840D01*
X1190000Y-2097180D01*
X1193860Y-2096840D01*
X1197580Y-2095840D01*
X1201100Y-2094220D01*
X1204260Y-2092000D01*
X1207000Y-2089259D01*
X1209220Y-2086100D01*
X1210840Y-2082580D01*
X1211840Y-2078860D01*
X1211940Y-2077740D01*
X1212360Y-2076279D01*
X1213280Y-2075100D01*
X1214560Y-2074319D01*
X1216040Y-2074079D01*
X1217520Y-2074420D01*
X1218760Y-2075260D01*
X1228620Y-2085120D01*
X1229500Y-2086420D01*
X1229800Y-2087960D01*
X1229800Y-2107040D01*
X1229500Y-2108580D01*
X1228620Y-2109880D01*
X1184880Y-2153620D01*
X1183580Y-2154500D01*
X1182040Y-2154800D01*
X1012960Y-2154800D01*
X1011420Y-2154500D01*
X1010120Y-2153620D01*
X916380Y-2059880D01*
X915500Y-2058580D01*
X915200Y-2057040D01*
X915200Y-1012960D01*
X915500Y-1011420D01*
X916380Y-1010120D01*
X1247780Y-678720D01*
X1249120Y-677840D01*
X1250680Y-677540D01*
X1252240Y-677900D01*
X1253540Y-678820D01*
X1254360Y-680180D01*
X1254600Y-681780D01*
X1254200Y-683319D01*
X1253460Y-684800D01*
X1251800Y-689720D01*
X1250780Y-694820D01*
X1250440Y-700000D01*
X1250780Y-705180D01*
X1251800Y-710280D01*
X1253460Y-715200D01*
X1255760Y-719860D01*
X1258640Y-724180D01*
X1262080Y-728080D01*
X1265980Y-731520D01*
X1270300Y-734400D01*
X1274960Y-736700D01*
X1279880Y-738360D01*
X1284980Y-739380D01*
X1290280Y-739720D01*
X1309720Y-739720D01*
X1315020Y-739380D01*
X1320120Y-738360D01*
X1325040Y-736700D01*
X1329700Y-734400D01*
X1334019Y-731520D01*
X1337920Y-728080D01*
X1341360Y-724180D01*
X1344240Y-719860D01*
X1346540Y-715200D01*
X1348200Y-710280D01*
X1349220Y-705180D01*
X1349560Y-700000D01*
X1349220Y-694820D01*
X1348200Y-689720D01*
X1346540Y-684800D01*
X1344240Y-680140D01*
X1341360Y-675819D01*
X1337920Y-671919D01*
X1334019Y-668480D01*
X1329700Y-665600D01*
X1325040Y-663300D01*
X1320120Y-661640D01*
X1315020Y-660620D01*
X1309720Y-660280D01*
X1290280Y-660280D01*
X1284980Y-660620D01*
X1279880Y-661640D01*
X1274960Y-663300D01*
X1273480Y-664040D01*
X1271920Y-664440D01*
X1270340Y-664220D01*
X1268980Y-663379D01*
X1268060Y-662080D01*
X1267700Y-660520D01*
X1268000Y-658960D01*
X1268880Y-657620D01*
X1285700Y-640800D01*
X1287120Y-639880D01*
X1288800Y-639620D01*
X1290280Y-639720D01*
X1309720Y-639720D01*
X1315020Y-639380D01*
X1320120Y-638360D01*
X1325040Y-636700D01*
X1329700Y-634400D01*
X1334019Y-631520D01*
X1337920Y-628080D01*
X1341360Y-624180D01*
X1344240Y-619860D01*
X1346540Y-615200D01*
X1348200Y-610280D01*
X1349220Y-605180D01*
X1349560Y-600000D01*
X1349220Y-594820D01*
X1348200Y-589720D01*
X1346540Y-584800D01*
X1344240Y-580140D01*
X1341360Y-575820D01*
X1337920Y-571920D01*
X1334019Y-568480D01*
X1329700Y-565600D01*
X1325040Y-563300D01*
X1320120Y-561640D01*
X1315020Y-560620D01*
X1309720Y-560280D01*
X1290280Y-560280D01*
X1284980Y-560620D01*
X1279880Y-561640D01*
X1274960Y-563300D01*
X1270300Y-565600D01*
X1265980Y-568480D01*
X1262080Y-571920D01*
X1258640Y-575820D01*
X1255760Y-580140D01*
X1253460Y-584800D01*
X1251800Y-589720D01*
X1250780Y-594820D01*
X1250440Y-600000D01*
X1250780Y-605180D01*
X1251800Y-610280D01*
X1253460Y-615200D01*
X1255760Y-619860D01*
X1257100Y-621860D01*
X1257640Y-623100D01*
X1257740Y-624480D01*
X1257380Y-625780D01*
X1256600Y-626900D01*
X889400Y-994120D01*
X887380Y-996560D01*
X885980Y-999200D01*
X885120Y-1002039D01*
X884800Y-1005200D01*
X884800Y-2064800D01*
X885120Y-2067960D01*
X885980Y-2070800D01*
X887380Y-2073440D01*
X889400Y-2075880D01*
X994120Y-2180600D01*
X996560Y-2182620D01*
X999200Y-2184020D01*
X1002039Y-2184880D01*
G37*
G36*
X545480Y-2133820D02*
G01*
X550280Y-2133460D01*
X555000Y-2132440D01*
X559520Y-2130760D01*
X563760Y-2128440D01*
X567620Y-2125560D01*
X571020Y-2122140D01*
X571800Y-2121100D01*
X572880Y-2120120D01*
X574260Y-2119580D01*
X575740Y-2119580D01*
X577120Y-2120120D01*
X578200Y-2121100D01*
X578980Y-2122140D01*
X582380Y-2125560D01*
X586240Y-2128440D01*
X590480Y-2130760D01*
X595000Y-2132440D01*
X599720Y-2133460D01*
X604520Y-2133820D01*
X609340Y-2133460D01*
X614060Y-2132440D01*
X618580Y-2130760D01*
X622800Y-2128440D01*
X626680Y-2125560D01*
X630080Y-2122140D01*
X632980Y-2118280D01*
X635280Y-2114040D01*
X636980Y-2109520D01*
X638000Y-2104820D01*
X638340Y-2100000D01*
X638000Y-2095180D01*
X636980Y-2090480D01*
X635280Y-2085960D01*
X632980Y-2081720D01*
X630080Y-2077860D01*
X626680Y-2074440D01*
X622800Y-2071560D01*
X618580Y-2069240D01*
X614060Y-2067560D01*
X609340Y-2066540D01*
X604520Y-2066180D01*
X599720Y-2066540D01*
X595000Y-2067560D01*
X590480Y-2069240D01*
X586240Y-2071560D01*
X582380Y-2074440D01*
X578980Y-2077860D01*
X578200Y-2078899D01*
X577120Y-2079880D01*
X575740Y-2080420D01*
X574260Y-2080420D01*
X572880Y-2079880D01*
X571800Y-2078899D01*
X571020Y-2077860D01*
X567620Y-2074440D01*
X563760Y-2071560D01*
X559520Y-2069240D01*
X555000Y-2067560D01*
X550280Y-2066540D01*
X545480Y-2066180D01*
X540660Y-2066540D01*
X535940Y-2067560D01*
X531420Y-2069240D01*
X527200Y-2071560D01*
X523340Y-2074440D01*
X519920Y-2077860D01*
X517020Y-2081720D01*
X514720Y-2085960D01*
X513020Y-2090480D01*
X512000Y-2095180D01*
X511659Y-2100000D01*
X512000Y-2104820D01*
X513020Y-2109520D01*
X514720Y-2114040D01*
X517020Y-2118280D01*
X519920Y-2122140D01*
X523340Y-2125560D01*
X527200Y-2128440D01*
X531420Y-2130760D01*
X535940Y-2132440D01*
X540660Y-2133460D01*
G37*
G36*
X545480Y-1883820D02*
G01*
X550280Y-1883460D01*
X555000Y-1882440D01*
X559520Y-1880760D01*
X563760Y-1878440D01*
X567620Y-1875560D01*
X571020Y-1872140D01*
X571800Y-1871100D01*
X572880Y-1870120D01*
X574260Y-1869580D01*
X575740Y-1869580D01*
X577120Y-1870120D01*
X578200Y-1871100D01*
X578980Y-1872140D01*
X582380Y-1875560D01*
X586240Y-1878440D01*
X590480Y-1880760D01*
X595000Y-1882440D01*
X599720Y-1883460D01*
X604520Y-1883820D01*
X609340Y-1883460D01*
X614060Y-1882440D01*
X618580Y-1880760D01*
X622800Y-1878440D01*
X626680Y-1875560D01*
X630080Y-1872140D01*
X632980Y-1868280D01*
X635280Y-1864040D01*
X636980Y-1859520D01*
X638000Y-1854820D01*
X638340Y-1850000D01*
X638000Y-1845180D01*
X636980Y-1840480D01*
X635280Y-1835960D01*
X632980Y-1831720D01*
X630080Y-1827860D01*
X626680Y-1824440D01*
X622800Y-1821560D01*
X618580Y-1819240D01*
X614060Y-1817560D01*
X609340Y-1816540D01*
X604520Y-1816180D01*
X599720Y-1816540D01*
X595000Y-1817560D01*
X590480Y-1819240D01*
X586240Y-1821560D01*
X582380Y-1824440D01*
X578980Y-1827860D01*
X578200Y-1828899D01*
X577120Y-1829880D01*
X575740Y-1830420D01*
X574260Y-1830420D01*
X572880Y-1829880D01*
X571800Y-1828899D01*
X571020Y-1827860D01*
X567620Y-1824440D01*
X563760Y-1821560D01*
X559520Y-1819240D01*
X555000Y-1817560D01*
X550280Y-1816540D01*
X545480Y-1816180D01*
X540660Y-1816540D01*
X535940Y-1817560D01*
X531420Y-1819240D01*
X527200Y-1821560D01*
X523340Y-1824440D01*
X519920Y-1827860D01*
X517020Y-1831720D01*
X514720Y-1835960D01*
X513020Y-1840480D01*
X512000Y-1845180D01*
X511659Y-1850000D01*
X512000Y-1854820D01*
X513020Y-1859520D01*
X514720Y-1864040D01*
X517020Y-1868280D01*
X519920Y-1872140D01*
X523340Y-1875560D01*
X527200Y-1878440D01*
X531420Y-1880760D01*
X535940Y-1882440D01*
X540660Y-1883460D01*
G37*
G36*
X770480Y-1853820D02*
G01*
X775280Y-1853460D01*
X780000Y-1852440D01*
X784520Y-1850760D01*
X788760Y-1848440D01*
X792620Y-1845560D01*
X796020Y-1842140D01*
X796800Y-1841100D01*
X797880Y-1840120D01*
X799260Y-1839580D01*
X800740Y-1839580D01*
X802120Y-1840120D01*
X803199Y-1841100D01*
X803980Y-1842140D01*
X807380Y-1845560D01*
X811240Y-1848440D01*
X815480Y-1850760D01*
X820000Y-1852440D01*
X824720Y-1853460D01*
X829520Y-1853820D01*
X834340Y-1853460D01*
X839060Y-1852440D01*
X843580Y-1850760D01*
X847800Y-1848440D01*
X851680Y-1845560D01*
X855080Y-1842140D01*
X857980Y-1838280D01*
X860280Y-1834040D01*
X861979Y-1829520D01*
X863000Y-1824820D01*
X863340Y-1820000D01*
X863000Y-1815180D01*
X861979Y-1810480D01*
X860280Y-1805960D01*
X857980Y-1801720D01*
X855080Y-1797860D01*
X851680Y-1794440D01*
X847800Y-1791560D01*
X843580Y-1789240D01*
X839060Y-1787560D01*
X834340Y-1786540D01*
X829520Y-1786180D01*
X824720Y-1786540D01*
X820000Y-1787560D01*
X815480Y-1789240D01*
X811240Y-1791560D01*
X807380Y-1794440D01*
X803980Y-1797860D01*
X803199Y-1798899D01*
X802120Y-1799880D01*
X800740Y-1800420D01*
X799260Y-1800420D01*
X797880Y-1799880D01*
X796800Y-1798899D01*
X796020Y-1797860D01*
X792620Y-1794440D01*
X788760Y-1791560D01*
X784520Y-1789240D01*
X780000Y-1787560D01*
X775280Y-1786540D01*
X770480Y-1786180D01*
X765660Y-1786540D01*
X760939Y-1787560D01*
X756420Y-1789240D01*
X752200Y-1791560D01*
X748340Y-1794440D01*
X744920Y-1797860D01*
X742020Y-1801720D01*
X739720Y-1805960D01*
X738020Y-1810480D01*
X737000Y-1815180D01*
X736660Y-1820000D01*
X737000Y-1824820D01*
X738020Y-1829520D01*
X739720Y-1834040D01*
X742020Y-1838280D01*
X744920Y-1842140D01*
X748340Y-1845560D01*
X752200Y-1848440D01*
X756420Y-1850760D01*
X760939Y-1852440D01*
X765660Y-1853460D01*
G37*
G36*
X1297420Y-1637600D02*
G01*
X1302580Y-1637600D01*
X1307660Y-1636900D01*
X1312620Y-1635520D01*
X1317340Y-1633460D01*
X1321740Y-1630800D01*
X1325720Y-1627540D01*
X1329240Y-1623779D01*
X1332200Y-1619580D01*
X1334580Y-1615020D01*
X1336300Y-1610160D01*
X1337340Y-1605140D01*
X1337700Y-1600000D01*
X1337340Y-1594860D01*
X1336300Y-1589840D01*
X1334580Y-1584980D01*
X1332200Y-1580420D01*
X1329240Y-1576220D01*
X1325720Y-1572460D01*
X1321740Y-1569199D01*
X1317340Y-1566540D01*
X1312620Y-1564480D01*
X1307660Y-1563100D01*
X1302580Y-1562400D01*
X1297420Y-1562400D01*
X1292340Y-1563100D01*
X1287380Y-1564480D01*
X1282660Y-1566540D01*
X1278260Y-1569199D01*
X1274280Y-1572460D01*
X1270760Y-1576220D01*
X1267800Y-1580420D01*
X1265420Y-1584980D01*
X1263700Y-1589840D01*
X1262660Y-1594860D01*
X1262300Y-1600000D01*
X1262660Y-1605140D01*
X1263700Y-1610160D01*
X1265420Y-1615020D01*
X1267800Y-1619580D01*
X1270760Y-1623779D01*
X1274280Y-1627540D01*
X1278260Y-1630800D01*
X1282660Y-1633460D01*
X1287380Y-1635520D01*
X1292340Y-1636900D01*
G37*
G36*
X1397420Y-1637600D02*
G01*
X1402580Y-1637600D01*
X1407660Y-1636900D01*
X1412620Y-1635520D01*
X1417340Y-1633460D01*
X1421740Y-1630800D01*
X1425720Y-1627540D01*
X1429240Y-1623779D01*
X1432200Y-1619580D01*
X1434580Y-1615020D01*
X1436300Y-1610160D01*
X1437340Y-1605140D01*
X1437700Y-1600000D01*
X1437340Y-1594860D01*
X1436300Y-1589840D01*
X1434580Y-1584980D01*
X1432200Y-1580420D01*
X1429240Y-1576220D01*
X1425720Y-1572460D01*
X1421740Y-1569199D01*
X1417340Y-1566540D01*
X1412620Y-1564480D01*
X1407660Y-1563100D01*
X1402580Y-1562400D01*
X1397420Y-1562400D01*
X1392340Y-1563100D01*
X1387380Y-1564480D01*
X1382660Y-1566540D01*
X1378260Y-1569199D01*
X1374280Y-1572460D01*
X1370760Y-1576220D01*
X1367800Y-1580420D01*
X1365420Y-1584980D01*
X1363700Y-1589840D01*
X1362660Y-1594860D01*
X1362300Y-1600000D01*
X1362660Y-1605140D01*
X1363700Y-1610160D01*
X1365420Y-1615020D01*
X1367800Y-1619580D01*
X1370760Y-1623779D01*
X1374280Y-1627540D01*
X1378260Y-1630800D01*
X1382660Y-1633460D01*
X1387380Y-1635520D01*
X1392340Y-1636900D01*
G37*
G36*
X997420Y-1537600D02*
G01*
X1002580Y-1537600D01*
X1007660Y-1536900D01*
X1012620Y-1535520D01*
X1017340Y-1533460D01*
X1021740Y-1530800D01*
X1025720Y-1527540D01*
X1029240Y-1523779D01*
X1032200Y-1519580D01*
X1034580Y-1515020D01*
X1036300Y-1510160D01*
X1037340Y-1505140D01*
X1037700Y-1500000D01*
X1037340Y-1494860D01*
X1036300Y-1489840D01*
X1034580Y-1484980D01*
X1032200Y-1480420D01*
X1029240Y-1476220D01*
X1025720Y-1472460D01*
X1021740Y-1469199D01*
X1017340Y-1466540D01*
X1012620Y-1464480D01*
X1007660Y-1463100D01*
X1002580Y-1462400D01*
X997420Y-1462400D01*
X992340Y-1463100D01*
X987380Y-1464480D01*
X982660Y-1466540D01*
X978259Y-1469199D01*
X974280Y-1472460D01*
X970759Y-1476220D01*
X967800Y-1480420D01*
X965420Y-1484980D01*
X963700Y-1489840D01*
X962660Y-1494860D01*
X962300Y-1500000D01*
X962660Y-1505140D01*
X963700Y-1510160D01*
X965420Y-1515020D01*
X967800Y-1519580D01*
X970759Y-1523779D01*
X974280Y-1527540D01*
X978259Y-1530800D01*
X982660Y-1533460D01*
X987380Y-1535520D01*
X992340Y-1536900D01*
G37*
G36*
X1297420Y-1537600D02*
G01*
X1302580Y-1537600D01*
X1307660Y-1536900D01*
X1312620Y-1535520D01*
X1317340Y-1533460D01*
X1321740Y-1530800D01*
X1325720Y-1527540D01*
X1329240Y-1523779D01*
X1332200Y-1519580D01*
X1334580Y-1515020D01*
X1336300Y-1510160D01*
X1337340Y-1505140D01*
X1337700Y-1500000D01*
X1337340Y-1494860D01*
X1336300Y-1489840D01*
X1334580Y-1484980D01*
X1332200Y-1480420D01*
X1329240Y-1476220D01*
X1325720Y-1472460D01*
X1321740Y-1469199D01*
X1317340Y-1466540D01*
X1312620Y-1464480D01*
X1307660Y-1463100D01*
X1302580Y-1462400D01*
X1297420Y-1462400D01*
X1292340Y-1463100D01*
X1287380Y-1464480D01*
X1282660Y-1466540D01*
X1278260Y-1469199D01*
X1274280Y-1472460D01*
X1270760Y-1476220D01*
X1267800Y-1480420D01*
X1265420Y-1484980D01*
X1263700Y-1489840D01*
X1262660Y-1494860D01*
X1262300Y-1500000D01*
X1262660Y-1505140D01*
X1263700Y-1510160D01*
X1265420Y-1515020D01*
X1267800Y-1519580D01*
X1270760Y-1523779D01*
X1274280Y-1527540D01*
X1278260Y-1530800D01*
X1282660Y-1533460D01*
X1287380Y-1535520D01*
X1292340Y-1536900D01*
G37*
G36*
X1397420Y-1537600D02*
G01*
X1402580Y-1537600D01*
X1407660Y-1536900D01*
X1412620Y-1535520D01*
X1417340Y-1533460D01*
X1421740Y-1530800D01*
X1425720Y-1527540D01*
X1429240Y-1523779D01*
X1432200Y-1519580D01*
X1434580Y-1515020D01*
X1436300Y-1510160D01*
X1437340Y-1505140D01*
X1437700Y-1500000D01*
X1437340Y-1494860D01*
X1436300Y-1489840D01*
X1434580Y-1484980D01*
X1432200Y-1480420D01*
X1429240Y-1476220D01*
X1425720Y-1472460D01*
X1421740Y-1469199D01*
X1417340Y-1466540D01*
X1412620Y-1464480D01*
X1407660Y-1463100D01*
X1402580Y-1462400D01*
X1397420Y-1462400D01*
X1392340Y-1463100D01*
X1387380Y-1464480D01*
X1382660Y-1466540D01*
X1378260Y-1469199D01*
X1374280Y-1472460D01*
X1370760Y-1476220D01*
X1367800Y-1480420D01*
X1365420Y-1484980D01*
X1363700Y-1489840D01*
X1362660Y-1494860D01*
X1362300Y-1500000D01*
X1362660Y-1505140D01*
X1363700Y-1510160D01*
X1365420Y-1515020D01*
X1367800Y-1519580D01*
X1370760Y-1523779D01*
X1374280Y-1527540D01*
X1378260Y-1530800D01*
X1382660Y-1533460D01*
X1387380Y-1535520D01*
X1392340Y-1536900D01*
G37*
G36*
X1497420Y-1537600D02*
G01*
X1502580Y-1537600D01*
X1507660Y-1536900D01*
X1512620Y-1535520D01*
X1517340Y-1533460D01*
X1521740Y-1530800D01*
X1525720Y-1527540D01*
X1529240Y-1523779D01*
X1532200Y-1519580D01*
X1534580Y-1515020D01*
X1536300Y-1510160D01*
X1537340Y-1505140D01*
X1537700Y-1500000D01*
X1537340Y-1494860D01*
X1536300Y-1489840D01*
X1534580Y-1484980D01*
X1532200Y-1480420D01*
X1529240Y-1476220D01*
X1525720Y-1472460D01*
X1521740Y-1469199D01*
X1517340Y-1466540D01*
X1512620Y-1464480D01*
X1507660Y-1463100D01*
X1502580Y-1462400D01*
X1497420Y-1462400D01*
X1492340Y-1463100D01*
X1487380Y-1464480D01*
X1482660Y-1466540D01*
X1478260Y-1469199D01*
X1474280Y-1472460D01*
X1470760Y-1476220D01*
X1467800Y-1480420D01*
X1465420Y-1484980D01*
X1463700Y-1489840D01*
X1462660Y-1494860D01*
X1462300Y-1500000D01*
X1462660Y-1505140D01*
X1463700Y-1510160D01*
X1465420Y-1515020D01*
X1467800Y-1519580D01*
X1470760Y-1523779D01*
X1474280Y-1527540D01*
X1478260Y-1530800D01*
X1482660Y-1533460D01*
X1487380Y-1535520D01*
X1492340Y-1536900D01*
G37*
G36*
X150000Y-1496200D02*
G01*
X155380Y-1495840D01*
X160660Y-1494780D01*
X165760Y-1493060D01*
X170600Y-1490680D01*
X175080Y-1487680D01*
X179120Y-1484120D01*
X182680Y-1480080D01*
X185680Y-1475600D01*
X188060Y-1470760D01*
X189780Y-1465660D01*
X190840Y-1460380D01*
X191200Y-1455000D01*
X190840Y-1449620D01*
X189780Y-1444340D01*
X188060Y-1439240D01*
X185680Y-1434400D01*
X182680Y-1429920D01*
X179120Y-1425880D01*
X175080Y-1422320D01*
X170600Y-1419319D01*
X165760Y-1416940D01*
X160660Y-1415220D01*
X155380Y-1414160D01*
X150000Y-1413800D01*
X144620Y-1414160D01*
X139340Y-1415220D01*
X134240Y-1416940D01*
X129400Y-1419319D01*
X124920Y-1422320D01*
X120879Y-1425880D01*
X117320Y-1429920D01*
X114320Y-1434400D01*
X111940Y-1439240D01*
X110220Y-1444340D01*
X109160Y-1449620D01*
X108800Y-1455000D01*
X109160Y-1460380D01*
X110220Y-1465660D01*
X111940Y-1470760D01*
X114320Y-1475600D01*
X117320Y-1480080D01*
X120879Y-1484120D01*
X124920Y-1487680D01*
X129400Y-1490680D01*
X134240Y-1493060D01*
X139340Y-1494780D01*
X144620Y-1495840D01*
G37*
G36*
X250000Y-1396200D02*
G01*
X255380Y-1395840D01*
X260660Y-1394780D01*
X265760Y-1393060D01*
X270600Y-1390680D01*
X275080Y-1387680D01*
X279120Y-1384120D01*
X282680Y-1380080D01*
X285680Y-1375600D01*
X288060Y-1370760D01*
X289780Y-1365660D01*
X290840Y-1360380D01*
X291200Y-1355000D01*
X290840Y-1349620D01*
X289780Y-1344340D01*
X288060Y-1339240D01*
X285680Y-1334400D01*
X282680Y-1329920D01*
X279120Y-1325880D01*
X275080Y-1322320D01*
X270600Y-1319319D01*
X265760Y-1316940D01*
X260660Y-1315220D01*
X255380Y-1314160D01*
X250000Y-1313800D01*
X244620Y-1314160D01*
X239340Y-1315220D01*
X234240Y-1316940D01*
X229400Y-1319319D01*
X224920Y-1322320D01*
X220880Y-1325880D01*
X217320Y-1329920D01*
X214320Y-1334400D01*
X211940Y-1339240D01*
X210219Y-1344340D01*
X209160Y-1349620D01*
X208800Y-1355000D01*
X209160Y-1360380D01*
X210219Y-1365660D01*
X211940Y-1370760D01*
X214320Y-1375600D01*
X217320Y-1380080D01*
X220880Y-1384120D01*
X224920Y-1387680D01*
X229400Y-1390680D01*
X234240Y-1393060D01*
X239340Y-1394780D01*
X244620Y-1395840D01*
G37*
G36*
X150000Y-1396200D02*
G01*
X155380Y-1395840D01*
X160660Y-1394780D01*
X165760Y-1393060D01*
X170600Y-1390680D01*
X175080Y-1387680D01*
X179120Y-1384120D01*
X182680Y-1380080D01*
X185680Y-1375600D01*
X188060Y-1370760D01*
X189780Y-1365660D01*
X190840Y-1360380D01*
X191200Y-1355000D01*
X190840Y-1349620D01*
X189780Y-1344340D01*
X188060Y-1339240D01*
X185680Y-1334400D01*
X182680Y-1329920D01*
X179120Y-1325880D01*
X175080Y-1322320D01*
X170600Y-1319319D01*
X165760Y-1316940D01*
X160660Y-1315220D01*
X155380Y-1314160D01*
X150000Y-1313800D01*
X144620Y-1314160D01*
X139340Y-1315220D01*
X134240Y-1316940D01*
X129400Y-1319319D01*
X124920Y-1322320D01*
X120879Y-1325880D01*
X117320Y-1329920D01*
X114320Y-1334400D01*
X111940Y-1339240D01*
X110220Y-1344340D01*
X109160Y-1349620D01*
X108800Y-1355000D01*
X109160Y-1360380D01*
X110220Y-1365660D01*
X111940Y-1370760D01*
X114320Y-1375600D01*
X117320Y-1380080D01*
X120879Y-1384120D01*
X124920Y-1387680D01*
X129400Y-1390680D01*
X134240Y-1393060D01*
X139340Y-1394780D01*
X144620Y-1395840D01*
G37*
G36*
X997420Y-1337600D02*
G01*
X1002580Y-1337600D01*
X1007660Y-1336900D01*
X1012620Y-1335520D01*
X1017340Y-1333460D01*
X1021740Y-1330800D01*
X1025720Y-1327540D01*
X1029240Y-1323779D01*
X1032200Y-1319580D01*
X1034580Y-1315020D01*
X1036300Y-1310160D01*
X1037340Y-1305140D01*
X1037700Y-1300000D01*
X1037340Y-1294860D01*
X1036300Y-1289840D01*
X1034580Y-1284980D01*
X1032200Y-1280420D01*
X1029240Y-1276220D01*
X1025720Y-1272460D01*
X1021740Y-1269200D01*
X1017340Y-1266540D01*
X1012620Y-1264480D01*
X1007660Y-1263100D01*
X1002580Y-1262400D01*
X997420Y-1262400D01*
X992340Y-1263100D01*
X987380Y-1264480D01*
X982660Y-1266540D01*
X978259Y-1269200D01*
X974280Y-1272460D01*
X970759Y-1276220D01*
X967800Y-1280420D01*
X965420Y-1284980D01*
X963700Y-1289840D01*
X962660Y-1294860D01*
X962300Y-1300000D01*
X962660Y-1305140D01*
X963700Y-1310160D01*
X965420Y-1315020D01*
X967800Y-1319580D01*
X970759Y-1323779D01*
X974280Y-1327540D01*
X978259Y-1330800D01*
X982660Y-1333460D01*
X987380Y-1335520D01*
X992340Y-1336900D01*
G37*
G36*
X250000Y-1296200D02*
G01*
X255380Y-1295840D01*
X260660Y-1294780D01*
X265760Y-1293060D01*
X270600Y-1290680D01*
X275080Y-1287680D01*
X279120Y-1284120D01*
X282680Y-1280080D01*
X285680Y-1275600D01*
X288060Y-1270760D01*
X289780Y-1265660D01*
X290840Y-1260380D01*
X291200Y-1255000D01*
X290840Y-1249620D01*
X289780Y-1244340D01*
X288060Y-1239240D01*
X285680Y-1234400D01*
X282680Y-1229920D01*
X279120Y-1225880D01*
X275080Y-1222320D01*
X270600Y-1219320D01*
X265760Y-1216940D01*
X260660Y-1215220D01*
X255380Y-1214160D01*
X250000Y-1213800D01*
X244620Y-1214160D01*
X239340Y-1215220D01*
X234240Y-1216940D01*
X229400Y-1219320D01*
X224920Y-1222320D01*
X220880Y-1225880D01*
X217320Y-1229920D01*
X214320Y-1234400D01*
X211940Y-1239240D01*
X210219Y-1244340D01*
X209160Y-1249620D01*
X208800Y-1255000D01*
X209160Y-1260380D01*
X210219Y-1265660D01*
X211940Y-1270760D01*
X214320Y-1275600D01*
X217320Y-1280080D01*
X220880Y-1284120D01*
X224920Y-1287680D01*
X229400Y-1290680D01*
X234240Y-1293060D01*
X239340Y-1294780D01*
X244620Y-1295840D01*
G37*
G36*
X150000Y-1296200D02*
G01*
X155380Y-1295840D01*
X160660Y-1294780D01*
X165760Y-1293060D01*
X170600Y-1290680D01*
X175080Y-1287680D01*
X179120Y-1284120D01*
X182680Y-1280080D01*
X185680Y-1275600D01*
X188060Y-1270760D01*
X189780Y-1265660D01*
X190840Y-1260380D01*
X191200Y-1255000D01*
X190840Y-1249620D01*
X189780Y-1244340D01*
X188060Y-1239240D01*
X185680Y-1234400D01*
X182680Y-1229920D01*
X179120Y-1225880D01*
X175080Y-1222320D01*
X170600Y-1219320D01*
X165760Y-1216940D01*
X160660Y-1215220D01*
X155380Y-1214160D01*
X150000Y-1213800D01*
X144620Y-1214160D01*
X139340Y-1215220D01*
X134240Y-1216940D01*
X129400Y-1219320D01*
X124920Y-1222320D01*
X120879Y-1225880D01*
X117320Y-1229920D01*
X114320Y-1234400D01*
X111940Y-1239240D01*
X110220Y-1244340D01*
X109160Y-1249620D01*
X108800Y-1255000D01*
X109160Y-1260380D01*
X110220Y-1265660D01*
X111940Y-1270760D01*
X114320Y-1275600D01*
X117320Y-1280080D01*
X120879Y-1284120D01*
X124920Y-1287680D01*
X129400Y-1290680D01*
X134240Y-1293060D01*
X139340Y-1294780D01*
X144620Y-1295840D01*
G37*
G36*
X1272720Y-1237700D02*
G01*
X1327280Y-1237700D01*
X1329760Y-1237420D01*
X1331920Y-1236660D01*
X1333839Y-1235460D01*
X1335460Y-1233840D01*
X1336660Y-1231920D01*
X1337420Y-1229760D01*
X1337700Y-1227280D01*
X1337700Y-1172720D01*
X1337420Y-1170240D01*
X1336660Y-1168080D01*
X1335460Y-1166160D01*
X1333839Y-1164540D01*
X1331920Y-1163340D01*
X1329760Y-1162580D01*
X1327280Y-1162300D01*
X1272720Y-1162300D01*
X1270240Y-1162580D01*
X1268080Y-1163340D01*
X1266160Y-1164540D01*
X1264540Y-1166160D01*
X1263340Y-1168080D01*
X1262580Y-1170240D01*
X1262300Y-1172720D01*
X1262300Y-1227280D01*
X1262580Y-1229760D01*
X1263340Y-1231920D01*
X1264540Y-1233840D01*
X1266160Y-1235460D01*
X1268080Y-1236660D01*
X1270240Y-1237420D01*
G37*
G36*
X1197420Y-1237600D02*
G01*
X1202580Y-1237600D01*
X1207660Y-1236900D01*
X1212620Y-1235520D01*
X1217340Y-1233460D01*
X1221740Y-1230800D01*
X1225720Y-1227540D01*
X1229240Y-1223780D01*
X1232200Y-1219580D01*
X1234580Y-1215020D01*
X1236300Y-1210160D01*
X1237340Y-1205140D01*
X1237700Y-1200000D01*
X1237340Y-1194860D01*
X1236300Y-1189840D01*
X1234580Y-1184980D01*
X1232200Y-1180420D01*
X1229240Y-1176220D01*
X1225720Y-1172460D01*
X1221740Y-1169200D01*
X1217340Y-1166540D01*
X1212620Y-1164480D01*
X1207660Y-1163100D01*
X1202580Y-1162400D01*
X1197420Y-1162400D01*
X1192340Y-1163100D01*
X1187380Y-1164480D01*
X1182660Y-1166540D01*
X1178260Y-1169200D01*
X1174280Y-1172460D01*
X1170760Y-1176220D01*
X1167800Y-1180420D01*
X1165420Y-1184980D01*
X1163700Y-1189840D01*
X1162660Y-1194860D01*
X1162300Y-1200000D01*
X1162660Y-1205140D01*
X1163700Y-1210160D01*
X1165420Y-1215020D01*
X1167800Y-1219580D01*
X1170760Y-1223780D01*
X1174280Y-1227540D01*
X1178260Y-1230800D01*
X1182660Y-1233460D01*
X1187380Y-1235520D01*
X1192340Y-1236900D01*
G37*
G36*
X997420Y-1237600D02*
G01*
X1002580Y-1237600D01*
X1007660Y-1236900D01*
X1012620Y-1235520D01*
X1017340Y-1233460D01*
X1021740Y-1230800D01*
X1025720Y-1227540D01*
X1029240Y-1223780D01*
X1032200Y-1219580D01*
X1034580Y-1215020D01*
X1036300Y-1210160D01*
X1037340Y-1205140D01*
X1037700Y-1200000D01*
X1037340Y-1194860D01*
X1036300Y-1189840D01*
X1034580Y-1184980D01*
X1032200Y-1180420D01*
X1029240Y-1176220D01*
X1025720Y-1172460D01*
X1021740Y-1169200D01*
X1017340Y-1166540D01*
X1012620Y-1164480D01*
X1007660Y-1163100D01*
X1002580Y-1162400D01*
X997420Y-1162400D01*
X992340Y-1163100D01*
X987380Y-1164480D01*
X982660Y-1166540D01*
X978259Y-1169200D01*
X974280Y-1172460D01*
X970759Y-1176220D01*
X967800Y-1180420D01*
X965420Y-1184980D01*
X963700Y-1189840D01*
X962660Y-1194860D01*
X962300Y-1200000D01*
X962660Y-1205140D01*
X963700Y-1210160D01*
X965420Y-1215020D01*
X967800Y-1219580D01*
X970759Y-1223780D01*
X974280Y-1227540D01*
X978259Y-1230800D01*
X982660Y-1233460D01*
X987380Y-1235520D01*
X992340Y-1236900D01*
G37*
G36*
X1397420Y-1237600D02*
G01*
X1402580Y-1237600D01*
X1407660Y-1236900D01*
X1412620Y-1235520D01*
X1417340Y-1233460D01*
X1421740Y-1230800D01*
X1425720Y-1227540D01*
X1429240Y-1223780D01*
X1432200Y-1219580D01*
X1434580Y-1215020D01*
X1436300Y-1210160D01*
X1437340Y-1205140D01*
X1437700Y-1200000D01*
X1437340Y-1194860D01*
X1436300Y-1189840D01*
X1434580Y-1184980D01*
X1432200Y-1180420D01*
X1429240Y-1176220D01*
X1425720Y-1172460D01*
X1421740Y-1169200D01*
X1417340Y-1166540D01*
X1412620Y-1164480D01*
X1407660Y-1163100D01*
X1402580Y-1162400D01*
X1397420Y-1162400D01*
X1392340Y-1163100D01*
X1387380Y-1164480D01*
X1382660Y-1166540D01*
X1378260Y-1169200D01*
X1374280Y-1172460D01*
X1370760Y-1176220D01*
X1367800Y-1180420D01*
X1365420Y-1184980D01*
X1363700Y-1189840D01*
X1362660Y-1194860D01*
X1362300Y-1200000D01*
X1362660Y-1205140D01*
X1363700Y-1210160D01*
X1365420Y-1215020D01*
X1367800Y-1219580D01*
X1370760Y-1223780D01*
X1374280Y-1227540D01*
X1378260Y-1230800D01*
X1382660Y-1233460D01*
X1387380Y-1235520D01*
X1392340Y-1236900D01*
G37*
G36*
X1097420Y-1237600D02*
G01*
X1102580Y-1237600D01*
X1107660Y-1236900D01*
X1112620Y-1235520D01*
X1117340Y-1233460D01*
X1121740Y-1230800D01*
X1125720Y-1227540D01*
X1129240Y-1223780D01*
X1132200Y-1219580D01*
X1134580Y-1215020D01*
X1136300Y-1210160D01*
X1137340Y-1205140D01*
X1137700Y-1200000D01*
X1137340Y-1194860D01*
X1136300Y-1189840D01*
X1134580Y-1184980D01*
X1132200Y-1180420D01*
X1129240Y-1176220D01*
X1125720Y-1172460D01*
X1121740Y-1169200D01*
X1117340Y-1166540D01*
X1112620Y-1164480D01*
X1107660Y-1163100D01*
X1102580Y-1162400D01*
X1097420Y-1162400D01*
X1092340Y-1163100D01*
X1087380Y-1164480D01*
X1082660Y-1166540D01*
X1078260Y-1169200D01*
X1074280Y-1172460D01*
X1070760Y-1176220D01*
X1067800Y-1180420D01*
X1065420Y-1184980D01*
X1063700Y-1189840D01*
X1062660Y-1194860D01*
X1062300Y-1200000D01*
X1062660Y-1205140D01*
X1063700Y-1210160D01*
X1065420Y-1215020D01*
X1067800Y-1219580D01*
X1070760Y-1223780D01*
X1074280Y-1227540D01*
X1078260Y-1230800D01*
X1082660Y-1233460D01*
X1087380Y-1235520D01*
X1092340Y-1236900D01*
G37*
G36*
X150000Y-1196200D02*
G01*
X155380Y-1195840D01*
X160660Y-1194780D01*
X165760Y-1193060D01*
X170600Y-1190680D01*
X175080Y-1187680D01*
X179120Y-1184120D01*
X182680Y-1180080D01*
X185680Y-1175600D01*
X188060Y-1170760D01*
X189780Y-1165660D01*
X190840Y-1160380D01*
X191200Y-1155000D01*
X190840Y-1149620D01*
X189780Y-1144340D01*
X188060Y-1139240D01*
X185680Y-1134400D01*
X182680Y-1129920D01*
X179120Y-1125880D01*
X175080Y-1122320D01*
X170600Y-1119320D01*
X165760Y-1116940D01*
X160660Y-1115220D01*
X155380Y-1114160D01*
X150000Y-1113800D01*
X144620Y-1114160D01*
X139340Y-1115220D01*
X134240Y-1116940D01*
X129400Y-1119320D01*
X124920Y-1122320D01*
X120879Y-1125880D01*
X117320Y-1129920D01*
X114320Y-1134400D01*
X111940Y-1139240D01*
X110220Y-1144340D01*
X109160Y-1149620D01*
X108800Y-1155000D01*
X109160Y-1160380D01*
X110220Y-1165660D01*
X111940Y-1170760D01*
X114320Y-1175600D01*
X117320Y-1180080D01*
X120879Y-1184120D01*
X124920Y-1187680D01*
X129400Y-1190680D01*
X134240Y-1193060D01*
X139340Y-1194780D01*
X144620Y-1195840D01*
G37*
G36*
X250000Y-1196200D02*
G01*
X255380Y-1195840D01*
X260660Y-1194780D01*
X265760Y-1193060D01*
X270600Y-1190680D01*
X275080Y-1187680D01*
X279120Y-1184120D01*
X282680Y-1180080D01*
X285680Y-1175600D01*
X288060Y-1170760D01*
X289780Y-1165660D01*
X290840Y-1160380D01*
X291200Y-1155000D01*
X290840Y-1149620D01*
X289780Y-1144340D01*
X288060Y-1139240D01*
X285680Y-1134400D01*
X282680Y-1129920D01*
X279120Y-1125880D01*
X275080Y-1122320D01*
X270600Y-1119320D01*
X265760Y-1116940D01*
X260660Y-1115220D01*
X255380Y-1114160D01*
X250000Y-1113800D01*
X244620Y-1114160D01*
X239340Y-1115220D01*
X234240Y-1116940D01*
X229400Y-1119320D01*
X224920Y-1122320D01*
X220880Y-1125880D01*
X217320Y-1129920D01*
X214320Y-1134400D01*
X211940Y-1139240D01*
X210219Y-1144340D01*
X209160Y-1149620D01*
X208800Y-1155000D01*
X209160Y-1160380D01*
X210219Y-1165660D01*
X211940Y-1170760D01*
X214320Y-1175600D01*
X217320Y-1180080D01*
X220880Y-1184120D01*
X224920Y-1187680D01*
X229400Y-1190680D01*
X234240Y-1193060D01*
X239340Y-1194780D01*
X244620Y-1195840D01*
G37*
G36*
X1097420Y-1137600D02*
G01*
X1102580Y-1137600D01*
X1107660Y-1136900D01*
X1112620Y-1135520D01*
X1117340Y-1133460D01*
X1121740Y-1130800D01*
X1125720Y-1127540D01*
X1129240Y-1123780D01*
X1132200Y-1119580D01*
X1134580Y-1115020D01*
X1136300Y-1110160D01*
X1137340Y-1105140D01*
X1137700Y-1100000D01*
X1137340Y-1094860D01*
X1136300Y-1089840D01*
X1134580Y-1084980D01*
X1132200Y-1080420D01*
X1129240Y-1076220D01*
X1125720Y-1072460D01*
X1121740Y-1069200D01*
X1117340Y-1066540D01*
X1112620Y-1064480D01*
X1107660Y-1063100D01*
X1102580Y-1062400D01*
X1097420Y-1062400D01*
X1092340Y-1063100D01*
X1087380Y-1064480D01*
X1082660Y-1066540D01*
X1078260Y-1069200D01*
X1074280Y-1072460D01*
X1070760Y-1076220D01*
X1067800Y-1080420D01*
X1065420Y-1084980D01*
X1063700Y-1089840D01*
X1062660Y-1094860D01*
X1062300Y-1100000D01*
X1062660Y-1105140D01*
X1063700Y-1110160D01*
X1065420Y-1115020D01*
X1067800Y-1119580D01*
X1070760Y-1123780D01*
X1074280Y-1127540D01*
X1078260Y-1130800D01*
X1082660Y-1133460D01*
X1087380Y-1135520D01*
X1092340Y-1136900D01*
G37*
G36*
X1197420Y-1137600D02*
G01*
X1202580Y-1137600D01*
X1207660Y-1136900D01*
X1212620Y-1135520D01*
X1217340Y-1133460D01*
X1221740Y-1130800D01*
X1225720Y-1127540D01*
X1229240Y-1123780D01*
X1232200Y-1119580D01*
X1234580Y-1115020D01*
X1236300Y-1110160D01*
X1237340Y-1105140D01*
X1237700Y-1100000D01*
X1237340Y-1094860D01*
X1236300Y-1089840D01*
X1234580Y-1084980D01*
X1232200Y-1080420D01*
X1229240Y-1076220D01*
X1225720Y-1072460D01*
X1221740Y-1069200D01*
X1217340Y-1066540D01*
X1212620Y-1064480D01*
X1207660Y-1063100D01*
X1202580Y-1062400D01*
X1197420Y-1062400D01*
X1192340Y-1063100D01*
X1187380Y-1064480D01*
X1182660Y-1066540D01*
X1178260Y-1069200D01*
X1174280Y-1072460D01*
X1170760Y-1076220D01*
X1167800Y-1080420D01*
X1165420Y-1084980D01*
X1163700Y-1089840D01*
X1162660Y-1094860D01*
X1162300Y-1100000D01*
X1162660Y-1105140D01*
X1163700Y-1110160D01*
X1165420Y-1115020D01*
X1167800Y-1119580D01*
X1170760Y-1123780D01*
X1174280Y-1127540D01*
X1178260Y-1130800D01*
X1182660Y-1133460D01*
X1187380Y-1135520D01*
X1192340Y-1136900D01*
G37*
G36*
X1397420Y-1137600D02*
G01*
X1402580Y-1137600D01*
X1407660Y-1136900D01*
X1412620Y-1135520D01*
X1417340Y-1133460D01*
X1421740Y-1130800D01*
X1425720Y-1127540D01*
X1429240Y-1123780D01*
X1432200Y-1119580D01*
X1434580Y-1115020D01*
X1436300Y-1110160D01*
X1437340Y-1105140D01*
X1437700Y-1100000D01*
X1437340Y-1094860D01*
X1436300Y-1089840D01*
X1434580Y-1084980D01*
X1432200Y-1080420D01*
X1429240Y-1076220D01*
X1425720Y-1072460D01*
X1421740Y-1069200D01*
X1417340Y-1066540D01*
X1412620Y-1064480D01*
X1407660Y-1063100D01*
X1402580Y-1062400D01*
X1397420Y-1062400D01*
X1392340Y-1063100D01*
X1387380Y-1064480D01*
X1382660Y-1066540D01*
X1378260Y-1069200D01*
X1374280Y-1072460D01*
X1370760Y-1076220D01*
X1367800Y-1080420D01*
X1365420Y-1084980D01*
X1363700Y-1089840D01*
X1362660Y-1094860D01*
X1362300Y-1100000D01*
X1362660Y-1105140D01*
X1363700Y-1110160D01*
X1365420Y-1115020D01*
X1367800Y-1119580D01*
X1370760Y-1123780D01*
X1374280Y-1127540D01*
X1378260Y-1130800D01*
X1382660Y-1133460D01*
X1387380Y-1135520D01*
X1392340Y-1136900D01*
G37*
G36*
X1297420Y-1137600D02*
G01*
X1302580Y-1137600D01*
X1307660Y-1136900D01*
X1312620Y-1135520D01*
X1317340Y-1133460D01*
X1321740Y-1130800D01*
X1325720Y-1127540D01*
X1329240Y-1123780D01*
X1332200Y-1119580D01*
X1334580Y-1115020D01*
X1336300Y-1110160D01*
X1337340Y-1105140D01*
X1337700Y-1100000D01*
X1337340Y-1094860D01*
X1336300Y-1089840D01*
X1334580Y-1084980D01*
X1332200Y-1080420D01*
X1329240Y-1076220D01*
X1325720Y-1072460D01*
X1321740Y-1069200D01*
X1317340Y-1066540D01*
X1312620Y-1064480D01*
X1307660Y-1063100D01*
X1302580Y-1062400D01*
X1297420Y-1062400D01*
X1292340Y-1063100D01*
X1287380Y-1064480D01*
X1282660Y-1066540D01*
X1278260Y-1069200D01*
X1274280Y-1072460D01*
X1270760Y-1076220D01*
X1267800Y-1080420D01*
X1265420Y-1084980D01*
X1263700Y-1089840D01*
X1262660Y-1094860D01*
X1262300Y-1100000D01*
X1262660Y-1105140D01*
X1263700Y-1110160D01*
X1265420Y-1115020D01*
X1267800Y-1119580D01*
X1270760Y-1123780D01*
X1274280Y-1127540D01*
X1278260Y-1130800D01*
X1282660Y-1133460D01*
X1287380Y-1135520D01*
X1292340Y-1136900D01*
G37*
G36*
X150000Y-1096200D02*
G01*
X155380Y-1095840D01*
X160660Y-1094780D01*
X165760Y-1093060D01*
X170600Y-1090680D01*
X175080Y-1087680D01*
X179120Y-1084120D01*
X182680Y-1080080D01*
X185680Y-1075600D01*
X188060Y-1070760D01*
X189780Y-1065660D01*
X190840Y-1060380D01*
X191200Y-1055000D01*
X190840Y-1049620D01*
X189780Y-1044340D01*
X188060Y-1039240D01*
X185680Y-1034400D01*
X182680Y-1029920D01*
X179120Y-1025879D01*
X175080Y-1022320D01*
X170600Y-1019320D01*
X165760Y-1016940D01*
X160660Y-1015220D01*
X155380Y-1014160D01*
X150000Y-1013800D01*
X144620Y-1014160D01*
X139340Y-1015220D01*
X134240Y-1016940D01*
X129400Y-1019320D01*
X124920Y-1022320D01*
X120879Y-1025879D01*
X117320Y-1029920D01*
X114320Y-1034400D01*
X111940Y-1039240D01*
X110220Y-1044340D01*
X109160Y-1049620D01*
X108800Y-1055000D01*
X109160Y-1060380D01*
X110220Y-1065660D01*
X111940Y-1070760D01*
X114320Y-1075600D01*
X117320Y-1080080D01*
X120879Y-1084120D01*
X124920Y-1087680D01*
X129400Y-1090680D01*
X134240Y-1093060D01*
X139340Y-1094780D01*
X144620Y-1095840D01*
G37*
G36*
X250000Y-1096200D02*
G01*
X255380Y-1095840D01*
X260660Y-1094780D01*
X265760Y-1093060D01*
X270600Y-1090680D01*
X275080Y-1087680D01*
X279120Y-1084120D01*
X282680Y-1080080D01*
X285680Y-1075600D01*
X288060Y-1070760D01*
X289780Y-1065660D01*
X290840Y-1060380D01*
X291200Y-1055000D01*
X290840Y-1049620D01*
X289780Y-1044340D01*
X288060Y-1039240D01*
X285680Y-1034400D01*
X282680Y-1029920D01*
X279120Y-1025879D01*
X275080Y-1022320D01*
X270600Y-1019320D01*
X265760Y-1016940D01*
X260660Y-1015220D01*
X255380Y-1014160D01*
X250000Y-1013800D01*
X244620Y-1014160D01*
X239340Y-1015220D01*
X234240Y-1016940D01*
X229400Y-1019320D01*
X224920Y-1022320D01*
X220880Y-1025879D01*
X217320Y-1029920D01*
X214320Y-1034400D01*
X211940Y-1039240D01*
X210219Y-1044340D01*
X209160Y-1049620D01*
X208800Y-1055000D01*
X209160Y-1060380D01*
X210219Y-1065660D01*
X211940Y-1070760D01*
X214320Y-1075600D01*
X217320Y-1080080D01*
X220880Y-1084120D01*
X224920Y-1087680D01*
X229400Y-1090680D01*
X234240Y-1093060D01*
X239340Y-1094780D01*
X244620Y-1095840D01*
G37*
G36*
X150000Y-996200D02*
G01*
X155380Y-995840D01*
X160660Y-994780D01*
X165760Y-993060D01*
X170600Y-990680D01*
X175080Y-987680D01*
X179120Y-984120D01*
X182680Y-980080D01*
X185680Y-975600D01*
X188060Y-970759D01*
X189780Y-965660D01*
X190840Y-960380D01*
X191200Y-955000D01*
X190840Y-949620D01*
X189780Y-944340D01*
X188060Y-939240D01*
X185680Y-934400D01*
X182680Y-929920D01*
X179120Y-925879D01*
X175080Y-922320D01*
X170600Y-919320D01*
X165760Y-916940D01*
X160660Y-915220D01*
X155380Y-914160D01*
X150000Y-913800D01*
X144620Y-914160D01*
X139340Y-915220D01*
X134240Y-916940D01*
X129400Y-919320D01*
X124920Y-922320D01*
X120879Y-925879D01*
X117320Y-929920D01*
X114320Y-934400D01*
X111940Y-939240D01*
X110220Y-944340D01*
X109160Y-949620D01*
X108800Y-955000D01*
X109160Y-960380D01*
X110220Y-965660D01*
X111940Y-970759D01*
X114320Y-975600D01*
X117320Y-980080D01*
X120879Y-984120D01*
X124920Y-987680D01*
X129400Y-990680D01*
X134240Y-993060D01*
X139340Y-994780D01*
X144620Y-995840D01*
G37*
G36*
X250000Y-996200D02*
G01*
X255380Y-995840D01*
X260660Y-994780D01*
X265760Y-993060D01*
X270600Y-990680D01*
X275080Y-987680D01*
X279120Y-984120D01*
X282680Y-980080D01*
X285680Y-975600D01*
X288060Y-970759D01*
X289780Y-965660D01*
X290840Y-960380D01*
X291200Y-955000D01*
X290840Y-949620D01*
X289780Y-944340D01*
X288060Y-939240D01*
X285680Y-934400D01*
X282680Y-929920D01*
X279120Y-925879D01*
X275080Y-922320D01*
X270600Y-919320D01*
X265760Y-916940D01*
X260660Y-915220D01*
X255380Y-914160D01*
X250000Y-913800D01*
X244620Y-914160D01*
X239340Y-915220D01*
X234240Y-916940D01*
X229400Y-919320D01*
X224920Y-922320D01*
X220880Y-925879D01*
X217320Y-929920D01*
X214320Y-934400D01*
X211940Y-939240D01*
X210219Y-944340D01*
X209160Y-949620D01*
X208800Y-955000D01*
X209160Y-960380D01*
X210219Y-965660D01*
X211940Y-970759D01*
X214320Y-975600D01*
X217320Y-980080D01*
X220880Y-984120D01*
X224920Y-987680D01*
X229400Y-990680D01*
X234240Y-993060D01*
X239340Y-994780D01*
X244620Y-995840D01*
G37*
G36*
X150000Y-896200D02*
G01*
X155380Y-895840D01*
X160660Y-894780D01*
X165760Y-893060D01*
X170600Y-890680D01*
X175080Y-887680D01*
X179120Y-884120D01*
X182680Y-880080D01*
X185680Y-875600D01*
X188060Y-870759D01*
X189780Y-865660D01*
X190840Y-860380D01*
X191200Y-855000D01*
X190840Y-849620D01*
X189780Y-844340D01*
X188060Y-839240D01*
X185680Y-834400D01*
X182680Y-829920D01*
X179120Y-825879D01*
X175080Y-822320D01*
X170600Y-819320D01*
X165760Y-816940D01*
X160660Y-815220D01*
X155380Y-814160D01*
X150000Y-813800D01*
X144620Y-814160D01*
X139340Y-815220D01*
X134240Y-816940D01*
X129400Y-819320D01*
X124920Y-822320D01*
X120879Y-825879D01*
X117320Y-829920D01*
X114320Y-834400D01*
X111940Y-839240D01*
X110220Y-844340D01*
X109160Y-849620D01*
X108800Y-855000D01*
X109160Y-860380D01*
X110220Y-865660D01*
X111940Y-870759D01*
X114320Y-875600D01*
X117320Y-880080D01*
X120879Y-884120D01*
X124920Y-887680D01*
X129400Y-890680D01*
X134240Y-893060D01*
X139340Y-894780D01*
X144620Y-895840D01*
G37*
G36*
X232000Y-891960D02*
G01*
X232000Y-873000D01*
X213039Y-873000D01*
X214320Y-875600D01*
X217320Y-880080D01*
X220880Y-884120D01*
X224920Y-887680D01*
X229400Y-890680D01*
G37*
G36*
X268000Y-891960D02*
G01*
X270600Y-890680D01*
X275080Y-887680D01*
X279120Y-884120D01*
X282680Y-880080D01*
X285680Y-875600D01*
X286960Y-873000D01*
X268000Y-873000D01*
G37*
G36*
X1395480Y-883820D02*
G01*
X1400280Y-883460D01*
X1405000Y-882440D01*
X1409520Y-880759D01*
X1413760Y-878439D01*
X1417620Y-875560D01*
X1421020Y-872140D01*
X1421800Y-871100D01*
X1422880Y-870120D01*
X1424259Y-869580D01*
X1425740Y-869580D01*
X1427120Y-870120D01*
X1428200Y-871100D01*
X1428980Y-872140D01*
X1432380Y-875560D01*
X1436240Y-878439D01*
X1440480Y-880759D01*
X1445000Y-882440D01*
X1449720Y-883460D01*
X1454520Y-883820D01*
X1459340Y-883460D01*
X1464060Y-882440D01*
X1468580Y-880759D01*
X1472800Y-878439D01*
X1476680Y-875560D01*
X1480080Y-872140D01*
X1482980Y-868280D01*
X1485280Y-864040D01*
X1486980Y-859520D01*
X1488000Y-854820D01*
X1488340Y-850000D01*
X1488000Y-845180D01*
X1486980Y-840480D01*
X1485280Y-835960D01*
X1482980Y-831720D01*
X1480080Y-827860D01*
X1476680Y-824440D01*
X1472800Y-821560D01*
X1468580Y-819240D01*
X1464060Y-817560D01*
X1459340Y-816540D01*
X1454520Y-816180D01*
X1449720Y-816540D01*
X1445000Y-817560D01*
X1440480Y-819240D01*
X1436240Y-821560D01*
X1432380Y-824440D01*
X1428980Y-827860D01*
X1428200Y-828900D01*
X1427120Y-829880D01*
X1425740Y-830420D01*
X1424259Y-830420D01*
X1422880Y-829880D01*
X1421800Y-828900D01*
X1421020Y-827860D01*
X1417620Y-824440D01*
X1413760Y-821560D01*
X1409520Y-819240D01*
X1405000Y-817560D01*
X1400280Y-816540D01*
X1395480Y-816180D01*
X1390660Y-816540D01*
X1385940Y-817560D01*
X1381420Y-819240D01*
X1377200Y-821560D01*
X1373320Y-824440D01*
X1369920Y-827860D01*
X1367020Y-831720D01*
X1364720Y-835960D01*
X1363020Y-840480D01*
X1362000Y-845180D01*
X1361660Y-850000D01*
X1362000Y-854820D01*
X1363020Y-859520D01*
X1364720Y-864040D01*
X1367020Y-868280D01*
X1369920Y-872140D01*
X1373320Y-875560D01*
X1377200Y-878439D01*
X1381420Y-880759D01*
X1385940Y-882440D01*
X1390660Y-883460D01*
G37*
G36*
X500000Y-849560D02*
G01*
X505980Y-849200D01*
X511860Y-848120D01*
X517580Y-846340D01*
X523040Y-843880D01*
X528160Y-840780D01*
X532860Y-837099D01*
X537100Y-832860D01*
X540780Y-828160D01*
X543880Y-823040D01*
X546340Y-817580D01*
X548120Y-811860D01*
X549200Y-805980D01*
X549560Y-800000D01*
X549200Y-794020D01*
X548120Y-788139D01*
X546340Y-782420D01*
X543880Y-776960D01*
X540780Y-771840D01*
X537100Y-767140D01*
X532860Y-762900D01*
X528160Y-759220D01*
X523040Y-756120D01*
X517580Y-753660D01*
X511860Y-751880D01*
X505980Y-750800D01*
X500000Y-750440D01*
X494020Y-750800D01*
X488140Y-751880D01*
X482420Y-753660D01*
X476960Y-756120D01*
X471840Y-759220D01*
X467140Y-762900D01*
X462900Y-767140D01*
X459219Y-771840D01*
X456120Y-776960D01*
X453660Y-782420D01*
X451880Y-788139D01*
X450800Y-794020D01*
X450439Y-800000D01*
X450800Y-805980D01*
X451880Y-811860D01*
X453660Y-817580D01*
X456120Y-823040D01*
X459219Y-828160D01*
X462900Y-832860D01*
X467140Y-837099D01*
X471840Y-840780D01*
X476960Y-843880D01*
X482420Y-846340D01*
X488140Y-848120D01*
X494020Y-849200D01*
G37*
G36*
X800000Y-849560D02*
G01*
X805980Y-849200D01*
X811860Y-848120D01*
X817580Y-846340D01*
X823040Y-843880D01*
X828160Y-840780D01*
X832860Y-837099D01*
X837099Y-832860D01*
X840780Y-828160D01*
X843880Y-823040D01*
X846340Y-817580D01*
X848120Y-811860D01*
X849200Y-805980D01*
X849560Y-800000D01*
X849200Y-794020D01*
X848120Y-788139D01*
X846340Y-782420D01*
X843880Y-776960D01*
X840780Y-771840D01*
X837099Y-767140D01*
X832860Y-762900D01*
X828160Y-759220D01*
X823040Y-756120D01*
X817580Y-753660D01*
X811860Y-751880D01*
X805980Y-750800D01*
X800000Y-750440D01*
X794020Y-750800D01*
X788139Y-751880D01*
X782420Y-753660D01*
X776960Y-756120D01*
X771840Y-759220D01*
X767140Y-762900D01*
X762900Y-767140D01*
X759220Y-771840D01*
X756120Y-776960D01*
X753660Y-782420D01*
X751880Y-788139D01*
X750800Y-794020D01*
X750440Y-800000D01*
X750800Y-805980D01*
X751880Y-811860D01*
X753660Y-817580D01*
X756120Y-823040D01*
X759220Y-828160D01*
X762900Y-832860D01*
X767140Y-837099D01*
X771840Y-840780D01*
X776960Y-843880D01*
X782420Y-846340D01*
X788139Y-848120D01*
X794020Y-849200D01*
G37*
G36*
X1290280Y-839720D02*
G01*
X1309720Y-839720D01*
X1315020Y-839380D01*
X1320120Y-838360D01*
X1325040Y-836700D01*
X1329700Y-834400D01*
X1334019Y-831520D01*
X1337920Y-828080D01*
X1341360Y-824180D01*
X1344240Y-819860D01*
X1346540Y-815200D01*
X1348200Y-810280D01*
X1349220Y-805180D01*
X1349560Y-800000D01*
X1349220Y-794820D01*
X1348200Y-789720D01*
X1346540Y-784800D01*
X1344240Y-780140D01*
X1341360Y-775819D01*
X1337920Y-771919D01*
X1334019Y-768480D01*
X1329700Y-765600D01*
X1325040Y-763300D01*
X1320120Y-761640D01*
X1315020Y-760620D01*
X1309720Y-760280D01*
X1290280Y-760280D01*
X1284980Y-760620D01*
X1279880Y-761640D01*
X1274960Y-763300D01*
X1270300Y-765600D01*
X1265980Y-768480D01*
X1262080Y-771919D01*
X1258640Y-775819D01*
X1255760Y-780140D01*
X1253460Y-784800D01*
X1251800Y-789720D01*
X1250780Y-794820D01*
X1250440Y-800000D01*
X1250780Y-805180D01*
X1251800Y-810280D01*
X1253460Y-815200D01*
X1255760Y-819860D01*
X1258640Y-824180D01*
X1262080Y-828080D01*
X1265980Y-831520D01*
X1270300Y-834400D01*
X1274960Y-836700D01*
X1279880Y-838360D01*
X1284980Y-839380D01*
G37*
G36*
X990280Y-839720D02*
G01*
X1009720Y-839720D01*
X1015020Y-839380D01*
X1020120Y-838360D01*
X1025040Y-836700D01*
X1029700Y-834400D01*
X1034020Y-831520D01*
X1037920Y-828080D01*
X1041360Y-824180D01*
X1044240Y-819860D01*
X1046540Y-815200D01*
X1048199Y-810280D01*
X1049220Y-805180D01*
X1049560Y-800000D01*
X1049220Y-794820D01*
X1048199Y-789720D01*
X1046540Y-784800D01*
X1044240Y-780140D01*
X1041360Y-775819D01*
X1037920Y-771919D01*
X1034020Y-768480D01*
X1029700Y-765600D01*
X1025040Y-763300D01*
X1020120Y-761640D01*
X1015020Y-760620D01*
X1009720Y-760280D01*
X990280Y-760280D01*
X984980Y-760620D01*
X979880Y-761640D01*
X974960Y-763300D01*
X970300Y-765600D01*
X965980Y-768480D01*
X962080Y-771919D01*
X958640Y-775819D01*
X955759Y-780140D01*
X953460Y-784800D01*
X951800Y-789720D01*
X950780Y-794820D01*
X950440Y-800000D01*
X950780Y-805180D01*
X951800Y-810280D01*
X953460Y-815200D01*
X955759Y-819860D01*
X958640Y-824180D01*
X962080Y-828080D01*
X965980Y-831520D01*
X970300Y-834400D01*
X974960Y-836700D01*
X979880Y-838360D01*
X984980Y-839380D01*
G37*
G36*
X213039Y-837000D02*
G01*
X232000Y-837000D01*
X232000Y-818040D01*
X229400Y-819320D01*
X224920Y-822320D01*
X220880Y-825879D01*
X217320Y-829920D01*
X214320Y-834400D01*
G37*
G36*
X268000Y-837000D02*
G01*
X286960Y-837000D01*
X285680Y-834400D01*
X282680Y-829920D01*
X279120Y-825879D01*
X275080Y-822320D01*
X270600Y-819320D01*
X268000Y-818040D01*
G37*
G36*
X250000Y-796200D02*
G01*
X255380Y-795840D01*
X260660Y-794780D01*
X265760Y-793060D01*
X270600Y-790680D01*
X275080Y-787680D01*
X279120Y-784120D01*
X282680Y-780080D01*
X285680Y-775600D01*
X288060Y-770759D01*
X289780Y-765660D01*
X290840Y-760380D01*
X291200Y-755000D01*
X290840Y-749620D01*
X289780Y-744340D01*
X288060Y-739240D01*
X285680Y-734400D01*
X282680Y-729920D01*
X279120Y-725879D01*
X275080Y-722320D01*
X270600Y-719320D01*
X265760Y-716940D01*
X260660Y-715220D01*
X255380Y-714160D01*
X250000Y-713800D01*
X244620Y-714160D01*
X239340Y-715220D01*
X234240Y-716940D01*
X229400Y-719320D01*
X224920Y-722320D01*
X220880Y-725879D01*
X217320Y-729920D01*
X214320Y-734400D01*
X211940Y-739240D01*
X210219Y-744340D01*
X209160Y-749620D01*
X208800Y-755000D01*
X209160Y-760380D01*
X210219Y-765660D01*
X211940Y-770759D01*
X214320Y-775600D01*
X217320Y-780080D01*
X220880Y-784120D01*
X224920Y-787680D01*
X229400Y-790680D01*
X234240Y-793060D01*
X239340Y-794780D01*
X244620Y-795840D01*
G37*
G36*
X150000Y-796200D02*
G01*
X155380Y-795840D01*
X160660Y-794780D01*
X165760Y-793060D01*
X170600Y-790680D01*
X175080Y-787680D01*
X179120Y-784120D01*
X182680Y-780080D01*
X185680Y-775600D01*
X188060Y-770759D01*
X189780Y-765660D01*
X190840Y-760380D01*
X191200Y-755000D01*
X190840Y-749620D01*
X189780Y-744340D01*
X188060Y-739240D01*
X185680Y-734400D01*
X182680Y-729920D01*
X179120Y-725879D01*
X175080Y-722320D01*
X170600Y-719320D01*
X165760Y-716940D01*
X160660Y-715220D01*
X155380Y-714160D01*
X150000Y-713800D01*
X144620Y-714160D01*
X139340Y-715220D01*
X134240Y-716940D01*
X129400Y-719320D01*
X124920Y-722320D01*
X120879Y-725879D01*
X117320Y-729920D01*
X114320Y-734400D01*
X111940Y-739240D01*
X110220Y-744340D01*
X109160Y-749620D01*
X108800Y-755000D01*
X109160Y-760380D01*
X110220Y-765660D01*
X111940Y-770759D01*
X114320Y-775600D01*
X117320Y-780080D01*
X120879Y-784120D01*
X124920Y-787680D01*
X129400Y-790680D01*
X134240Y-793060D01*
X139340Y-794780D01*
X144620Y-795840D01*
G37*
G36*
X990280Y-739720D02*
G01*
X1009720Y-739720D01*
X1015020Y-739380D01*
X1020120Y-738360D01*
X1025040Y-736700D01*
X1029700Y-734400D01*
X1034020Y-731520D01*
X1037920Y-728080D01*
X1041360Y-724180D01*
X1044240Y-719860D01*
X1046540Y-715200D01*
X1048199Y-710280D01*
X1049220Y-705180D01*
X1049560Y-700000D01*
X1049220Y-694820D01*
X1048199Y-689720D01*
X1046540Y-684800D01*
X1044240Y-680140D01*
X1041360Y-675819D01*
X1037920Y-671919D01*
X1034020Y-668480D01*
X1029700Y-665600D01*
X1025040Y-663300D01*
X1020120Y-661640D01*
X1015020Y-660620D01*
X1009720Y-660280D01*
X990280Y-660280D01*
X984980Y-660620D01*
X979880Y-661640D01*
X974960Y-663300D01*
X970300Y-665600D01*
X965980Y-668480D01*
X962080Y-671919D01*
X958640Y-675819D01*
X955759Y-680140D01*
X954560Y-682560D01*
X953680Y-683740D01*
X952420Y-684520D01*
X950980Y-684800D01*
X811500Y-684800D01*
X809960Y-684500D01*
X808660Y-683620D01*
X760000Y-634960D01*
X759180Y-633740D01*
X758840Y-632320D01*
X759040Y-630860D01*
X760260Y-627240D01*
X761340Y-621900D01*
X761680Y-616460D01*
X761340Y-611020D01*
X760260Y-605680D01*
X758520Y-600500D01*
X756100Y-595620D01*
X753080Y-591080D01*
X749479Y-586980D01*
X745380Y-583380D01*
X740840Y-580360D01*
X735960Y-577940D01*
X730780Y-576200D01*
X725440Y-575120D01*
X720000Y-574780D01*
X714560Y-575120D01*
X709220Y-576200D01*
X704040Y-577940D01*
X699160Y-580360D01*
X694620Y-583380D01*
X690520Y-586980D01*
X686919Y-591080D01*
X683900Y-595620D01*
X681480Y-600500D01*
X681140Y-601540D01*
X680300Y-602960D01*
X678960Y-603920D01*
X677340Y-604260D01*
X587720Y-604260D01*
X586180Y-603960D01*
X584880Y-603080D01*
X584260Y-602460D01*
X581100Y-600240D01*
X577580Y-598620D01*
X573860Y-597620D01*
X570000Y-597280D01*
X566140Y-597620D01*
X562420Y-598620D01*
X558900Y-600240D01*
X555740Y-602460D01*
X553000Y-605200D01*
X550780Y-608360D01*
X549160Y-611880D01*
X548160Y-615600D01*
X547820Y-619460D01*
X548160Y-623320D01*
X549160Y-627040D01*
X550780Y-630560D01*
X553000Y-633720D01*
X555740Y-636460D01*
X558900Y-638680D01*
X562420Y-640300D01*
X566140Y-641300D01*
X570000Y-641640D01*
X573860Y-641300D01*
X577580Y-640300D01*
X581100Y-638680D01*
X584260Y-636460D01*
X584880Y-635840D01*
X586180Y-634960D01*
X587720Y-634660D01*
X680100Y-634660D01*
X681560Y-634940D01*
X682800Y-635720D01*
X686919Y-641840D01*
X690520Y-645939D01*
X694620Y-649539D01*
X699160Y-652560D01*
X704040Y-654980D01*
X709220Y-656720D01*
X714560Y-657800D01*
X720000Y-658139D01*
X725440Y-657800D01*
X730780Y-656720D01*
X734400Y-655500D01*
X735860Y-655300D01*
X737280Y-655639D01*
X738500Y-656460D01*
X792660Y-710600D01*
X795100Y-712620D01*
X797740Y-714020D01*
X800580Y-714880D01*
X803740Y-715200D01*
X950980Y-715200D01*
X952420Y-715480D01*
X953680Y-716260D01*
X954560Y-717440D01*
X955759Y-719860D01*
X958640Y-724180D01*
X962080Y-728080D01*
X965980Y-731520D01*
X970300Y-734400D01*
X974960Y-736700D01*
X979880Y-738360D01*
X984980Y-739380D01*
G37*
G36*
X150000Y-696200D02*
G01*
X155380Y-695840D01*
X160660Y-694780D01*
X165760Y-693060D01*
X170600Y-690680D01*
X175080Y-687680D01*
X179120Y-684120D01*
X182680Y-680080D01*
X185680Y-675600D01*
X188060Y-670759D01*
X189780Y-665660D01*
X190840Y-660380D01*
X191200Y-655000D01*
X190840Y-649620D01*
X189780Y-644340D01*
X188060Y-639240D01*
X185680Y-634400D01*
X182680Y-629920D01*
X179120Y-625880D01*
X175080Y-622320D01*
X170600Y-619320D01*
X165760Y-616940D01*
X160660Y-615220D01*
X155380Y-614160D01*
X150000Y-613800D01*
X144620Y-614160D01*
X139340Y-615220D01*
X134240Y-616940D01*
X129400Y-619320D01*
X124920Y-622320D01*
X120879Y-625880D01*
X117320Y-629920D01*
X114320Y-634400D01*
X111940Y-639240D01*
X110220Y-644340D01*
X109160Y-649620D01*
X108800Y-655000D01*
X109160Y-660380D01*
X110220Y-665660D01*
X111940Y-670759D01*
X114320Y-675600D01*
X117320Y-680080D01*
X120879Y-684120D01*
X124920Y-687680D01*
X129400Y-690680D01*
X134240Y-693060D01*
X139340Y-694780D01*
X144620Y-695840D01*
G37*
G36*
X232000Y-691960D02*
G01*
X232000Y-673000D01*
X213039Y-673000D01*
X214320Y-675600D01*
X217320Y-680080D01*
X220880Y-684120D01*
X224920Y-687680D01*
X229400Y-690680D01*
G37*
G36*
X268000Y-691960D02*
G01*
X270600Y-690680D01*
X275080Y-687680D01*
X279120Y-684120D01*
X282680Y-680080D01*
X285680Y-675600D01*
X286960Y-673000D01*
X268000Y-673000D01*
G37*
G36*
X1150000Y-672180D02*
G01*
X1153860Y-671840D01*
X1157580Y-670840D01*
X1161100Y-669220D01*
X1164260Y-667000D01*
X1167000Y-664260D01*
X1169220Y-661100D01*
X1170840Y-657580D01*
X1171840Y-653860D01*
X1172180Y-650000D01*
X1171840Y-646140D01*
X1170840Y-642420D01*
X1169220Y-638900D01*
X1167000Y-635740D01*
X1166380Y-635120D01*
X1165500Y-633820D01*
X1165200Y-632280D01*
X1165200Y-557960D01*
X1165500Y-556420D01*
X1166380Y-555120D01*
X1281080Y-440420D01*
X1282140Y-439660D01*
X1283380Y-439280D01*
X1290280Y-439720D01*
X1309720Y-439720D01*
X1315020Y-439380D01*
X1320120Y-438360D01*
X1325040Y-436700D01*
X1329700Y-434400D01*
X1334019Y-431520D01*
X1337920Y-428080D01*
X1341360Y-424180D01*
X1344240Y-419860D01*
X1346540Y-415200D01*
X1348200Y-410280D01*
X1349220Y-405180D01*
X1349560Y-400000D01*
X1349220Y-394820D01*
X1348200Y-389720D01*
X1346540Y-384799D01*
X1344240Y-380140D01*
X1341360Y-375820D01*
X1337920Y-371920D01*
X1334019Y-368480D01*
X1329700Y-365600D01*
X1325040Y-363300D01*
X1320120Y-361640D01*
X1315020Y-360620D01*
X1309720Y-360280D01*
X1290280Y-360280D01*
X1284980Y-360620D01*
X1279880Y-361640D01*
X1274960Y-363300D01*
X1270300Y-365600D01*
X1265980Y-368480D01*
X1262080Y-371920D01*
X1258640Y-375820D01*
X1255760Y-380140D01*
X1253460Y-384799D01*
X1251800Y-389720D01*
X1250780Y-394820D01*
X1250440Y-400000D01*
X1250780Y-405180D01*
X1251800Y-410280D01*
X1253460Y-415200D01*
X1255440Y-419219D01*
X1255860Y-420820D01*
X1255580Y-422440D01*
X1254680Y-423820D01*
X1139400Y-539120D01*
X1137380Y-541560D01*
X1135980Y-544200D01*
X1135120Y-547040D01*
X1134800Y-550200D01*
X1134800Y-632280D01*
X1134500Y-633820D01*
X1133620Y-635120D01*
X1133000Y-635740D01*
X1130780Y-638900D01*
X1129160Y-642420D01*
X1128160Y-646140D01*
X1127820Y-650000D01*
X1128160Y-653860D01*
X1129160Y-657580D01*
X1130780Y-661100D01*
X1133000Y-664260D01*
X1135740Y-667000D01*
X1138900Y-669220D01*
X1142420Y-670840D01*
X1146140Y-671840D01*
G37*
G36*
X990280Y-639720D02*
G01*
X1009720Y-639720D01*
X1015020Y-639380D01*
X1020120Y-638360D01*
X1025040Y-636700D01*
X1029700Y-634400D01*
X1034020Y-631520D01*
X1037920Y-628080D01*
X1041360Y-624180D01*
X1044240Y-619860D01*
X1046540Y-615200D01*
X1048199Y-610280D01*
X1049220Y-605180D01*
X1049560Y-600000D01*
X1049220Y-594820D01*
X1048199Y-589720D01*
X1046540Y-584800D01*
X1044240Y-580140D01*
X1041360Y-575820D01*
X1037920Y-571920D01*
X1034020Y-568480D01*
X1029700Y-565600D01*
X1025040Y-563300D01*
X1020120Y-561640D01*
X1015020Y-560620D01*
X1009720Y-560280D01*
X990280Y-560280D01*
X984980Y-560620D01*
X979880Y-561640D01*
X974960Y-563300D01*
X970300Y-565600D01*
X965980Y-568480D01*
X962080Y-571920D01*
X958640Y-575820D01*
X955759Y-580140D01*
X954560Y-582560D01*
X953680Y-583740D01*
X952420Y-584520D01*
X950980Y-584800D01*
X904419Y-584800D01*
X902880Y-584500D01*
X901580Y-583620D01*
X760000Y-442040D01*
X759180Y-440820D01*
X758840Y-439400D01*
X759040Y-437939D01*
X760260Y-434320D01*
X761340Y-428980D01*
X761680Y-423540D01*
X761340Y-418100D01*
X760260Y-412760D01*
X758520Y-407580D01*
X756100Y-402700D01*
X753080Y-398160D01*
X749479Y-394060D01*
X745380Y-390460D01*
X740840Y-387440D01*
X735960Y-385020D01*
X730780Y-383280D01*
X725440Y-382200D01*
X720000Y-381860D01*
X714560Y-382200D01*
X709220Y-383280D01*
X704040Y-385020D01*
X699160Y-387440D01*
X694620Y-390460D01*
X690520Y-394060D01*
X686919Y-398160D01*
X683900Y-402700D01*
X681480Y-407580D01*
X679740Y-412760D01*
X678660Y-418100D01*
X678319Y-423540D01*
X678660Y-428980D01*
X678880Y-430020D01*
X678840Y-431780D01*
X678040Y-433340D01*
X676660Y-434420D01*
X674960Y-434799D01*
X587720Y-434799D01*
X586180Y-434500D01*
X584880Y-433620D01*
X584260Y-433000D01*
X581100Y-430780D01*
X577580Y-429159D01*
X573860Y-428160D01*
X570000Y-427819D01*
X566140Y-428160D01*
X562420Y-429159D01*
X558900Y-430780D01*
X555740Y-433000D01*
X553000Y-435740D01*
X550780Y-438900D01*
X549160Y-442420D01*
X548160Y-446140D01*
X547820Y-450000D01*
X548160Y-453860D01*
X549160Y-457580D01*
X550780Y-461100D01*
X553000Y-464260D01*
X555740Y-467000D01*
X558900Y-469219D01*
X562420Y-470840D01*
X566140Y-471840D01*
X570000Y-472180D01*
X573860Y-471840D01*
X577580Y-470840D01*
X581100Y-469219D01*
X584260Y-467000D01*
X584880Y-466380D01*
X586180Y-465500D01*
X587720Y-465200D01*
X693340Y-465200D01*
X696500Y-464880D01*
X699340Y-464020D01*
X701900Y-462660D01*
X703460Y-462200D01*
X705080Y-462400D01*
X709220Y-463800D01*
X714560Y-464880D01*
X720000Y-465220D01*
X725440Y-464880D01*
X730780Y-463800D01*
X734400Y-462580D01*
X735860Y-462380D01*
X737280Y-462720D01*
X738500Y-463540D01*
X885580Y-610600D01*
X888020Y-612620D01*
X890660Y-614020D01*
X893500Y-614880D01*
X896660Y-615200D01*
X950980Y-615200D01*
X952420Y-615480D01*
X953680Y-616260D01*
X954560Y-617440D01*
X955759Y-619860D01*
X958640Y-624180D01*
X962080Y-628080D01*
X965980Y-631520D01*
X970300Y-634400D01*
X974960Y-636700D01*
X979880Y-638360D01*
X984980Y-639380D01*
G37*
G36*
X213039Y-637000D02*
G01*
X232000Y-637000D01*
X232000Y-618040D01*
X229400Y-619320D01*
X224920Y-622320D01*
X220880Y-625880D01*
X217320Y-629920D01*
X214320Y-634400D01*
G37*
G36*
X268000Y-637000D02*
G01*
X286960Y-637000D01*
X285680Y-634400D01*
X282680Y-629920D01*
X279120Y-625880D01*
X275080Y-622320D01*
X270600Y-619320D01*
X268000Y-618040D01*
G37*
G36*
X150000Y-596200D02*
G01*
X155380Y-595840D01*
X160660Y-594780D01*
X165760Y-593060D01*
X170600Y-590680D01*
X175080Y-587680D01*
X179120Y-584120D01*
X182680Y-580080D01*
X185680Y-575600D01*
X188060Y-570760D01*
X189780Y-565660D01*
X190840Y-560380D01*
X191200Y-555000D01*
X190840Y-549620D01*
X189780Y-544340D01*
X188060Y-539240D01*
X185680Y-534400D01*
X182680Y-529920D01*
X179120Y-525880D01*
X175080Y-522320D01*
X170600Y-519320D01*
X165760Y-516940D01*
X160660Y-515220D01*
X155380Y-514159D01*
X150000Y-513800D01*
X144620Y-514159D01*
X139340Y-515220D01*
X134240Y-516940D01*
X129400Y-519320D01*
X124920Y-522320D01*
X120879Y-525880D01*
X117320Y-529920D01*
X114320Y-534400D01*
X111940Y-539240D01*
X110220Y-544340D01*
X109160Y-549620D01*
X108800Y-555000D01*
X109160Y-560380D01*
X110220Y-565660D01*
X111940Y-570760D01*
X114320Y-575600D01*
X117320Y-580080D01*
X120879Y-584120D01*
X124920Y-587680D01*
X129400Y-590680D01*
X134240Y-593060D01*
X139340Y-594780D01*
X144620Y-595840D01*
G37*
G36*
X250000Y-596200D02*
G01*
X255380Y-595840D01*
X260660Y-594780D01*
X265760Y-593060D01*
X270600Y-590680D01*
X275080Y-587680D01*
X279120Y-584120D01*
X282680Y-580080D01*
X285680Y-575600D01*
X288060Y-570760D01*
X289780Y-565660D01*
X290840Y-560380D01*
X291200Y-555000D01*
X290840Y-549620D01*
X289780Y-544340D01*
X288060Y-539240D01*
X285680Y-534400D01*
X282680Y-529920D01*
X279120Y-525880D01*
X275080Y-522320D01*
X270600Y-519320D01*
X265760Y-516940D01*
X260660Y-515220D01*
X255380Y-514159D01*
X250000Y-513800D01*
X244620Y-514159D01*
X239340Y-515220D01*
X234240Y-516940D01*
X229400Y-519320D01*
X224920Y-522320D01*
X220880Y-525880D01*
X217320Y-529920D01*
X214320Y-534400D01*
X211940Y-539240D01*
X210219Y-544340D01*
X209160Y-549620D01*
X208800Y-555000D01*
X209160Y-560380D01*
X210219Y-565660D01*
X211940Y-570760D01*
X214320Y-575600D01*
X217320Y-580080D01*
X220880Y-584120D01*
X224920Y-587680D01*
X229400Y-590680D01*
X234240Y-593060D01*
X239340Y-594780D01*
X244620Y-595840D01*
G37*
G36*
X1290280Y-539720D02*
G01*
X1309720Y-539720D01*
X1315020Y-539380D01*
X1320120Y-538360D01*
X1325040Y-536700D01*
X1329700Y-534400D01*
X1334019Y-531520D01*
X1337920Y-528080D01*
X1341360Y-524180D01*
X1344240Y-519860D01*
X1346540Y-515200D01*
X1348200Y-510280D01*
X1349220Y-505180D01*
X1349560Y-500000D01*
X1349220Y-494820D01*
X1348200Y-489720D01*
X1346540Y-484799D01*
X1344240Y-480140D01*
X1341360Y-475820D01*
X1337920Y-471920D01*
X1334019Y-468480D01*
X1329700Y-465600D01*
X1325040Y-463300D01*
X1320120Y-461640D01*
X1315020Y-460620D01*
X1309720Y-460280D01*
X1290280Y-460280D01*
X1284980Y-460620D01*
X1279880Y-461640D01*
X1274960Y-463300D01*
X1270300Y-465600D01*
X1265980Y-468480D01*
X1262080Y-471920D01*
X1258640Y-475820D01*
X1255760Y-480140D01*
X1253460Y-484799D01*
X1251800Y-489720D01*
X1250780Y-494820D01*
X1250440Y-500000D01*
X1250780Y-505180D01*
X1251800Y-510280D01*
X1253460Y-515200D01*
X1255760Y-519860D01*
X1258640Y-524180D01*
X1262080Y-528080D01*
X1265980Y-531520D01*
X1270300Y-534400D01*
X1274960Y-536700D01*
X1279880Y-538360D01*
X1284980Y-539380D01*
G37*
G36*
X990280Y-539720D02*
G01*
X1009720Y-539720D01*
X1015020Y-539380D01*
X1020120Y-538360D01*
X1025040Y-536700D01*
X1029700Y-534400D01*
X1034020Y-531520D01*
X1037920Y-528080D01*
X1041360Y-524180D01*
X1044240Y-519860D01*
X1046540Y-515200D01*
X1048199Y-510280D01*
X1049220Y-505180D01*
X1049560Y-500000D01*
X1049220Y-494820D01*
X1048199Y-489720D01*
X1046540Y-484799D01*
X1044240Y-480140D01*
X1041360Y-475820D01*
X1037920Y-471920D01*
X1034020Y-468480D01*
X1029700Y-465600D01*
X1025040Y-463300D01*
X1020120Y-461640D01*
X1015020Y-460620D01*
X1009720Y-460280D01*
X990280Y-460280D01*
X984980Y-460620D01*
X979880Y-461640D01*
X974960Y-463300D01*
X970300Y-465600D01*
X965980Y-468480D01*
X962080Y-471920D01*
X958640Y-475820D01*
X955759Y-480140D01*
X953460Y-484799D01*
X951800Y-489720D01*
X950780Y-494820D01*
X950440Y-500000D01*
X950780Y-505180D01*
X951800Y-510280D01*
X953460Y-515200D01*
X955759Y-519860D01*
X958640Y-524180D01*
X962080Y-528080D01*
X965980Y-531520D01*
X970300Y-534400D01*
X974960Y-536700D01*
X979880Y-538360D01*
X984980Y-539380D01*
G37*
G36*
X150000Y-496200D02*
G01*
X155380Y-495840D01*
X160660Y-494780D01*
X165760Y-493060D01*
X170600Y-490680D01*
X175080Y-487680D01*
X179120Y-484120D01*
X182680Y-480080D01*
X185680Y-475600D01*
X188060Y-470760D01*
X189780Y-465660D01*
X190840Y-460379D01*
X191200Y-455000D01*
X190840Y-449620D01*
X189780Y-444340D01*
X188060Y-439240D01*
X185680Y-434400D01*
X182680Y-429920D01*
X179120Y-425880D01*
X175080Y-422320D01*
X170600Y-419320D01*
X165760Y-416940D01*
X160660Y-415220D01*
X155380Y-414159D01*
X150000Y-413800D01*
X144620Y-414159D01*
X139340Y-415220D01*
X134240Y-416940D01*
X129400Y-419320D01*
X124920Y-422320D01*
X120879Y-425880D01*
X117320Y-429920D01*
X114320Y-434400D01*
X111940Y-439240D01*
X110220Y-444340D01*
X109160Y-449620D01*
X108800Y-455000D01*
X109160Y-460379D01*
X110220Y-465660D01*
X111940Y-470760D01*
X114320Y-475600D01*
X117320Y-480080D01*
X120879Y-484120D01*
X124920Y-487680D01*
X129400Y-490680D01*
X134240Y-493060D01*
X139340Y-494780D01*
X144620Y-495840D01*
G37*
G36*
X232000Y-491960D02*
G01*
X232000Y-473000D01*
X213039Y-473000D01*
X214320Y-475600D01*
X217320Y-480080D01*
X220880Y-484120D01*
X224920Y-487680D01*
X229400Y-490680D01*
G37*
G36*
X268000Y-491960D02*
G01*
X270600Y-490680D01*
X275080Y-487680D01*
X279120Y-484120D01*
X282680Y-480080D01*
X285680Y-475600D01*
X286960Y-473000D01*
X268000Y-473000D01*
G37*
G36*
X990280Y-439720D02*
G01*
X1009720Y-439720D01*
X1015020Y-439380D01*
X1020120Y-438360D01*
X1025040Y-436700D01*
X1029700Y-434400D01*
X1034020Y-431520D01*
X1037920Y-428080D01*
X1041360Y-424180D01*
X1044240Y-419860D01*
X1046540Y-415200D01*
X1048199Y-410280D01*
X1049220Y-405180D01*
X1049560Y-400000D01*
X1049220Y-394820D01*
X1048199Y-389720D01*
X1046540Y-384799D01*
X1044240Y-380140D01*
X1041360Y-375820D01*
X1037920Y-371920D01*
X1034020Y-368480D01*
X1029700Y-365600D01*
X1025040Y-363300D01*
X1020120Y-361640D01*
X1015020Y-360620D01*
X1009720Y-360280D01*
X990280Y-360280D01*
X984980Y-360620D01*
X979880Y-361640D01*
X974960Y-363300D01*
X970300Y-365600D01*
X965980Y-368480D01*
X962080Y-371920D01*
X958640Y-375820D01*
X955759Y-380140D01*
X953460Y-384799D01*
X951800Y-389720D01*
X950780Y-394820D01*
X950440Y-400000D01*
X950780Y-405180D01*
X951800Y-410280D01*
X953460Y-415200D01*
X955759Y-419860D01*
X958640Y-424180D01*
X962080Y-428080D01*
X965980Y-431520D01*
X970300Y-434400D01*
X974960Y-436700D01*
X979880Y-438360D01*
X984980Y-439380D01*
G37*
G36*
X213039Y-437000D02*
G01*
X232000Y-437000D01*
X232000Y-418040D01*
X229400Y-419320D01*
X224920Y-422320D01*
X220880Y-425880D01*
X217320Y-429920D01*
X214320Y-434400D01*
G37*
G36*
X268000Y-437000D02*
G01*
X286960Y-437000D01*
X285680Y-434400D01*
X282680Y-429920D01*
X279120Y-425880D01*
X275080Y-422320D01*
X270600Y-419320D01*
X268000Y-418040D01*
G37*
G36*
X150000Y-396200D02*
G01*
X155380Y-395840D01*
X160660Y-394780D01*
X165760Y-393060D01*
X170600Y-390680D01*
X175080Y-387680D01*
X179120Y-384120D01*
X182680Y-380080D01*
X185680Y-375600D01*
X188060Y-370760D01*
X189780Y-365660D01*
X190840Y-360379D01*
X191200Y-355000D01*
X190840Y-349620D01*
X189780Y-344340D01*
X188060Y-339240D01*
X185680Y-334400D01*
X182680Y-329920D01*
X179120Y-325880D01*
X175080Y-322320D01*
X170600Y-319320D01*
X165760Y-316940D01*
X160660Y-315220D01*
X155380Y-314160D01*
X150000Y-313800D01*
X144620Y-314160D01*
X139340Y-315220D01*
X134240Y-316940D01*
X129400Y-319320D01*
X124920Y-322320D01*
X120879Y-325880D01*
X117320Y-329920D01*
X114320Y-334400D01*
X111940Y-339240D01*
X110220Y-344340D01*
X109160Y-349620D01*
X108800Y-355000D01*
X109160Y-360379D01*
X110220Y-365660D01*
X111940Y-370760D01*
X114320Y-375600D01*
X117320Y-380080D01*
X120879Y-384120D01*
X124920Y-387680D01*
X129400Y-390680D01*
X134240Y-393060D01*
X139340Y-394780D01*
X144620Y-395840D01*
G37*
G36*
X250000Y-396200D02*
G01*
X255380Y-395840D01*
X260660Y-394780D01*
X265760Y-393060D01*
X270600Y-390680D01*
X275080Y-387680D01*
X279120Y-384120D01*
X282680Y-380080D01*
X285680Y-375600D01*
X288060Y-370760D01*
X289780Y-365660D01*
X290840Y-360379D01*
X291200Y-355000D01*
X290840Y-349620D01*
X289780Y-344340D01*
X288060Y-339240D01*
X285680Y-334400D01*
X282680Y-329920D01*
X279120Y-325880D01*
X275080Y-322320D01*
X270600Y-319320D01*
X265760Y-316940D01*
X260660Y-315220D01*
X255380Y-314160D01*
X250000Y-313800D01*
X244620Y-314160D01*
X239340Y-315220D01*
X234240Y-316940D01*
X229400Y-319320D01*
X224920Y-322320D01*
X220880Y-325880D01*
X217320Y-329920D01*
X214320Y-334400D01*
X211940Y-339240D01*
X210219Y-344340D01*
X209160Y-349620D01*
X208800Y-355000D01*
X209160Y-360379D01*
X210219Y-365660D01*
X211940Y-370760D01*
X214320Y-375600D01*
X217320Y-380080D01*
X220880Y-384120D01*
X224920Y-387680D01*
X229400Y-390680D01*
X234240Y-393060D01*
X239340Y-394780D01*
X244620Y-395840D01*
G37*
G36*
X1290280Y-339720D02*
G01*
X1309720Y-339720D01*
X1315020Y-339380D01*
X1320120Y-338360D01*
X1325040Y-336700D01*
X1329700Y-334400D01*
X1334019Y-331520D01*
X1337920Y-328080D01*
X1341360Y-324180D01*
X1344240Y-319860D01*
X1346540Y-315200D01*
X1348200Y-310280D01*
X1349220Y-305180D01*
X1349560Y-300000D01*
X1349220Y-294820D01*
X1348200Y-289720D01*
X1346540Y-284800D01*
X1344240Y-280140D01*
X1341360Y-275820D01*
X1337920Y-271920D01*
X1334019Y-268480D01*
X1329700Y-265600D01*
X1325040Y-263300D01*
X1320120Y-261640D01*
X1315020Y-260620D01*
X1309720Y-260280D01*
X1290280Y-260280D01*
X1284980Y-260620D01*
X1279880Y-261640D01*
X1274960Y-263300D01*
X1270300Y-265600D01*
X1265980Y-268480D01*
X1262080Y-271920D01*
X1258640Y-275820D01*
X1255760Y-280140D01*
X1253460Y-284800D01*
X1251800Y-289720D01*
X1250780Y-294820D01*
X1250440Y-300000D01*
X1250780Y-305180D01*
X1251800Y-310280D01*
X1253460Y-315200D01*
X1255760Y-319860D01*
X1258640Y-324180D01*
X1262080Y-328080D01*
X1265980Y-331520D01*
X1270300Y-334400D01*
X1274960Y-336700D01*
X1279880Y-338360D01*
X1284980Y-339380D01*
G37*
G36*
X990280Y-339720D02*
G01*
X1009720Y-339720D01*
X1015020Y-339380D01*
X1020120Y-338360D01*
X1025040Y-336700D01*
X1029700Y-334400D01*
X1034020Y-331520D01*
X1037920Y-328080D01*
X1041360Y-324180D01*
X1044240Y-319860D01*
X1046540Y-315200D01*
X1048199Y-310280D01*
X1049220Y-305180D01*
X1049560Y-300000D01*
X1049220Y-294820D01*
X1048199Y-289720D01*
X1046540Y-284800D01*
X1044240Y-280140D01*
X1041360Y-275820D01*
X1037920Y-271920D01*
X1034020Y-268480D01*
X1029700Y-265600D01*
X1025040Y-263300D01*
X1020120Y-261640D01*
X1015020Y-260620D01*
X1009720Y-260280D01*
X990280Y-260280D01*
X984980Y-260620D01*
X979880Y-261640D01*
X974960Y-263300D01*
X970300Y-265600D01*
X965980Y-268480D01*
X962080Y-271920D01*
X958640Y-275820D01*
X955759Y-280140D01*
X953460Y-284800D01*
X951800Y-289720D01*
X950780Y-294820D01*
X950440Y-300000D01*
X950780Y-305180D01*
X951800Y-310280D01*
X953460Y-315200D01*
X955759Y-319860D01*
X958640Y-324180D01*
X962080Y-328080D01*
X965980Y-331520D01*
X970300Y-334400D01*
X974960Y-336700D01*
X979880Y-338360D01*
X984980Y-339380D01*
G37*
G36*
X250000Y-296200D02*
G01*
X255380Y-295840D01*
X260660Y-294780D01*
X265760Y-293060D01*
X270600Y-290680D01*
X275080Y-287680D01*
X279120Y-284120D01*
X282680Y-280080D01*
X285680Y-275600D01*
X288060Y-270760D01*
X289780Y-265660D01*
X290840Y-260380D01*
X291200Y-255000D01*
X290840Y-249620D01*
X289780Y-244340D01*
X288060Y-239240D01*
X285680Y-234400D01*
X282680Y-229920D01*
X279120Y-225880D01*
X275080Y-222320D01*
X270600Y-219320D01*
X265760Y-216940D01*
X260660Y-215219D01*
X255380Y-214160D01*
X250000Y-213800D01*
X244620Y-214160D01*
X239340Y-215219D01*
X234240Y-216940D01*
X229400Y-219320D01*
X224920Y-222320D01*
X220880Y-225880D01*
X217320Y-229920D01*
X214320Y-234400D01*
X211940Y-239240D01*
X210219Y-244340D01*
X209160Y-249620D01*
X208800Y-255000D01*
X209160Y-260380D01*
X210219Y-265660D01*
X211940Y-270760D01*
X214320Y-275600D01*
X217320Y-280080D01*
X220880Y-284120D01*
X224920Y-287680D01*
X229400Y-290680D01*
X234240Y-293060D01*
X239340Y-294780D01*
X244620Y-295840D01*
G37*
G36*
X119220Y-296200D02*
G01*
X180780Y-296200D01*
X183260Y-295920D01*
X185420Y-295160D01*
X187340Y-293960D01*
X188960Y-292340D01*
X190159Y-290420D01*
X190920Y-288260D01*
X191200Y-285780D01*
X191200Y-224220D01*
X190920Y-221740D01*
X190159Y-219579D01*
X188960Y-217659D01*
X187340Y-216040D01*
X185420Y-214840D01*
X183260Y-214080D01*
X180780Y-213800D01*
X119220Y-213800D01*
X116740Y-214080D01*
X114580Y-214840D01*
X112660Y-216040D01*
X111039Y-217659D01*
X109840Y-219579D01*
X109080Y-221740D01*
X108800Y-224220D01*
X108800Y-285780D01*
X109080Y-288260D01*
X109840Y-290420D01*
X111039Y-292340D01*
X112660Y-293960D01*
X114580Y-295160D01*
X116740Y-295920D01*
G37*
G36*
X500000Y-249560D02*
G01*
X505980Y-249200D01*
X511860Y-248120D01*
X517580Y-246340D01*
X523040Y-243880D01*
X528160Y-240780D01*
X532860Y-237100D01*
X537100Y-232860D01*
X540780Y-228160D01*
X543880Y-223039D01*
X546340Y-217580D01*
X548120Y-211860D01*
X549200Y-205980D01*
X549560Y-200000D01*
X549200Y-194020D01*
X548120Y-188140D01*
X546340Y-182420D01*
X543880Y-176960D01*
X540780Y-171840D01*
X537100Y-167140D01*
X532860Y-162900D01*
X528160Y-159220D01*
X523040Y-156120D01*
X517580Y-153660D01*
X511860Y-151880D01*
X505980Y-150800D01*
X500000Y-150440D01*
X494020Y-150800D01*
X488140Y-151880D01*
X482420Y-153660D01*
X476960Y-156120D01*
X471840Y-159220D01*
X467140Y-162900D01*
X462900Y-167140D01*
X459219Y-171840D01*
X456120Y-176960D01*
X453660Y-182420D01*
X451880Y-188140D01*
X450800Y-194020D01*
X450439Y-200000D01*
X450800Y-205980D01*
X451880Y-211860D01*
X453660Y-217580D01*
X456120Y-223039D01*
X459219Y-228160D01*
X462900Y-232860D01*
X467140Y-237100D01*
X471840Y-240780D01*
X476960Y-243880D01*
X482420Y-246340D01*
X488140Y-248120D01*
X494020Y-249200D01*
G37*
G36*
X822180Y-244259D02*
G01*
X823040Y-243880D01*
X828160Y-240780D01*
X832860Y-237100D01*
X837099Y-232860D01*
X840780Y-228160D01*
X843880Y-223039D01*
X844260Y-222180D01*
X822180Y-222180D01*
G37*
G36*
X777820Y-244259D02*
G01*
X777820Y-222180D01*
X755740Y-222180D01*
X756120Y-223039D01*
X759220Y-228160D01*
X762900Y-232860D01*
X767140Y-237100D01*
X771840Y-240780D01*
X776960Y-243880D01*
G37*
G36*
X960860Y-239720D02*
G01*
X1039140Y-239720D01*
X1041640Y-239440D01*
X1043780Y-238700D01*
X1045720Y-237480D01*
X1047320Y-235880D01*
X1048540Y-233939D01*
X1049280Y-231800D01*
X1049580Y-229300D01*
X1049580Y-170700D01*
X1049280Y-168200D01*
X1048540Y-166060D01*
X1047320Y-164120D01*
X1045720Y-162520D01*
X1043780Y-161300D01*
X1041640Y-160560D01*
X1039140Y-160280D01*
X960860Y-160280D01*
X958360Y-160560D01*
X956220Y-161300D01*
X954280Y-162520D01*
X952680Y-164120D01*
X951460Y-166060D01*
X950720Y-168200D01*
X950420Y-170700D01*
X950420Y-229300D01*
X950720Y-231800D01*
X951460Y-233939D01*
X952680Y-235880D01*
X954280Y-237480D01*
X956220Y-238700D01*
X958360Y-239440D01*
G37*
G36*
X1277820Y-237659D02*
G01*
X1277820Y-217260D01*
X1254480Y-217260D01*
X1255760Y-219860D01*
X1258640Y-224180D01*
X1262080Y-228080D01*
X1265980Y-231520D01*
X1270300Y-234400D01*
X1274960Y-236700D01*
G37*
G36*
X1322180Y-237659D02*
G01*
X1325040Y-236700D01*
X1329700Y-234400D01*
X1334019Y-231520D01*
X1337920Y-228080D01*
X1341360Y-224180D01*
X1344240Y-219860D01*
X1345520Y-217260D01*
X1322180Y-217260D01*
G37*
G36*
X1534319Y-185140D02*
G01*
X1538280Y-182979D01*
X1542140Y-180080D01*
X1545560Y-176680D01*
X1548440Y-172800D01*
X1550620Y-168840D01*
X1534319Y-168840D01*
G37*
G36*
X1505680Y-185140D02*
G01*
X1505680Y-168840D01*
X1489379Y-168840D01*
X1491560Y-172800D01*
X1494440Y-176680D01*
X1497860Y-180080D01*
X1501720Y-182979D01*
G37*
G36*
X1322180Y-182740D02*
G01*
X1345520Y-182740D01*
X1344240Y-180140D01*
X1341360Y-175820D01*
X1337920Y-171920D01*
X1334019Y-168480D01*
X1329700Y-165600D01*
X1325040Y-163299D01*
X1322180Y-162340D01*
G37*
G36*
X1254480Y-182740D02*
G01*
X1277820Y-182740D01*
X1277820Y-162340D01*
X1274960Y-163299D01*
X1270300Y-165600D01*
X1265980Y-168480D01*
X1262080Y-171920D01*
X1258640Y-175820D01*
X1255760Y-180140D01*
G37*
G36*
X822180Y-177820D02*
G01*
X844260Y-177820D01*
X843880Y-176960D01*
X840780Y-171840D01*
X837099Y-167140D01*
X832860Y-162900D01*
X828160Y-159220D01*
X823040Y-156120D01*
X822180Y-155740D01*
G37*
G36*
X755740Y-177820D02*
G01*
X777820Y-177820D01*
X777820Y-155740D01*
X776960Y-156120D01*
X771840Y-159220D01*
X767140Y-162900D01*
X762900Y-167140D01*
X759220Y-171840D01*
X756120Y-176960D01*
G37*
G36*
X1489379Y-140220D02*
G01*
X1505680Y-140220D01*
X1505680Y-131840D01*
X1506080Y-130120D01*
X1507180Y-128720D01*
X1508760Y-127940D01*
X1510540Y-127920D01*
X1515180Y-128940D01*
X1520000Y-129280D01*
X1524820Y-128940D01*
X1529460Y-127920D01*
X1531240Y-127940D01*
X1532820Y-128720D01*
X1533920Y-130120D01*
X1534319Y-131840D01*
X1534319Y-140220D01*
X1550620Y-140220D01*
X1548440Y-136240D01*
X1545560Y-132380D01*
X1542140Y-128980D01*
X1541100Y-128200D01*
X1540120Y-127120D01*
X1539580Y-125740D01*
X1539580Y-124260D01*
X1540120Y-122880D01*
X1541100Y-121800D01*
X1542140Y-121020D01*
X1545560Y-117620D01*
X1548440Y-113760D01*
X1550760Y-109520D01*
X1552440Y-105000D01*
X1553460Y-100280D01*
X1553820Y-95480D01*
X1553460Y-90660D01*
X1552440Y-85940D01*
X1550760Y-81420D01*
X1548440Y-77200D01*
X1545560Y-73340D01*
X1542140Y-69920D01*
X1538280Y-67020D01*
X1534040Y-64720D01*
X1529520Y-63019D01*
X1524820Y-62000D01*
X1520000Y-61660D01*
X1515180Y-62000D01*
X1510480Y-63019D01*
X1505960Y-64720D01*
X1501720Y-67020D01*
X1497860Y-69920D01*
X1494440Y-73340D01*
X1491560Y-77200D01*
X1489240Y-81420D01*
X1487560Y-85940D01*
X1486540Y-90660D01*
X1486180Y-95480D01*
X1486540Y-100280D01*
X1487560Y-105000D01*
X1489240Y-109520D01*
X1491560Y-113760D01*
X1494440Y-117620D01*
X1497860Y-121020D01*
X1498899Y-121800D01*
X1499880Y-122880D01*
X1500420Y-124260D01*
X1500420Y-125740D01*
X1499880Y-127120D01*
X1498899Y-128200D01*
X1497860Y-128980D01*
X1494440Y-132380D01*
X1491560Y-136240D01*
G37*

%LPD*%
D10*
X1300000Y-400000D02*
G01*
X1150000Y-550000D01*
X1150000Y-650000D01*
X400000Y-2100000D02*
G01*
X400000Y-1660000D01*
X400000Y-1660000D02*
G01*
X100000Y-1660000D01*
X200000Y-1610000D02*
G01*
X95000Y-1610000D01*
X60000Y-1645000D01*
X60000Y-1810626D01*
X100000Y-1850626D01*
X1190000Y-2075000D02*
G01*
X1185000Y-2075000D01*
X1150000Y-2040000D01*
X1150000Y-1450000D01*
X1100000Y-1400000D01*
X1190000Y-2025000D02*
G01*
X1245000Y-2080000D01*
X1245000Y-2115000D01*
X1190000Y-2170000D01*
X1005000Y-2170000D01*
X900000Y-2065000D01*
X900000Y-1005000D01*
X1300000Y-605000D01*
X1300000Y-600000D01*
X1000000Y-1400000D02*
G01*
X1005000Y-1400000D01*
X1050000Y-1355000D01*
X1455000Y-1355000D01*
X1500000Y-1400000D01*
X250000Y-1455000D02*
G01*
X165000Y-1540000D01*
X110000Y-1540000D01*
X30000Y-1620000D01*
X30000Y-2130000D01*
X50000Y-2150000D01*
X1500000Y-1400000D02*
G01*
X1505000Y-1400000D01*
X1560000Y-1345000D01*
X1560000Y-335000D01*
X1535000Y-310000D01*
X570000Y-450000D02*
G01*
X693539Y-450000D01*
X720000Y-423539D01*
X570000Y-619461D02*
G01*
X716999Y-619461D01*
X720000Y-616460D01*
X720000Y-616460D02*
G01*
X803540Y-700000D01*
X1000000Y-700000D01*
X720000Y-423539D02*
G01*
X896459Y-600000D01*
X1000000Y-600000D01*
D11*
G01*
X720000Y-616460D03*
G01*
X720000Y-423539D03*
D12*
G01*
X1454530Y-850000D03*
G01*
X1395469Y-850000D03*
G01*
X1520000Y-95470D03*
G01*
X1520000Y-154529D03*
G01*
X545470Y-2100000D03*
G01*
X604529Y-2100000D03*
G01*
X829530Y-1820000D03*
G01*
X770469Y-1820000D03*
G01*
X545470Y-1850000D03*
G01*
X604529Y-1850000D03*
D13*
G01*
X1300000Y-800000D03*
G01*
X1300000Y-700000D03*
G01*
X1300000Y-600000D03*
G01*
X1300000Y-500000D03*
G01*
X1300000Y-400000D03*
G01*
X1300000Y-300000D03*
G01*
X1300000Y-200000D03*
G01*
X1000000Y-800000D03*
G01*
X1000000Y-700000D03*
G01*
X1000000Y-600000D03*
G01*
X1000000Y-500000D03*
G01*
X1000000Y-400000D03*
G01*
X1000000Y-300000D03*
D14*
G01*
X1000000Y-200000D03*
D15*
G01*
X500000Y-200000D03*
G01*
X500000Y-800000D03*
G01*
X800000Y-800000D03*
G01*
X800000Y-200000D03*
D16*
G01*
X1300000Y-1200000D03*
D17*
G01*
X1200000Y-1100000D03*
G01*
X1200000Y-1200000D03*
G01*
X1100000Y-1100000D03*
G01*
X1000000Y-1200000D03*
G01*
X1100000Y-1200000D03*
G01*
X1000000Y-1300000D03*
G01*
X1100000Y-1300000D03*
G01*
X1000000Y-1400000D03*
G01*
X1100000Y-1400000D03*
G01*
X1000000Y-1500000D03*
G01*
X1100000Y-1600000D03*
G01*
X1100000Y-1500000D03*
G01*
X1200000Y-1600000D03*
G01*
X1200000Y-1500000D03*
G01*
X1300000Y-1600000D03*
G01*
X1300000Y-1500000D03*
G01*
X1400000Y-1600000D03*
G01*
X1500000Y-1500000D03*
G01*
X1400000Y-1500000D03*
G01*
X1500000Y-1400000D03*
G01*
X1400000Y-1400000D03*
G01*
X1500000Y-1300000D03*
G01*
X1400000Y-1300000D03*
G01*
X1500000Y-1200000D03*
G01*
X1400000Y-1100000D03*
G01*
X1400000Y-1200000D03*
G01*
X1300000Y-1100000D03*
D18*
G01*
X250000Y-1455000D03*
G01*
X150000Y-1455000D03*
G01*
X150000Y-1355000D03*
G01*
X250000Y-1355000D03*
G01*
X150000Y-1255000D03*
G01*
X250000Y-1255000D03*
G01*
X150000Y-1055000D03*
G01*
X150000Y-1155000D03*
G01*
X250000Y-1155000D03*
G01*
X250000Y-1055000D03*
G01*
X150000Y-955000D03*
G01*
X250000Y-955000D03*
G01*
X150000Y-855000D03*
G01*
X250000Y-855000D03*
G01*
X150000Y-755000D03*
G01*
X250000Y-755000D03*
G01*
X150000Y-655000D03*
G01*
X250000Y-655000D03*
G01*
X150000Y-555000D03*
G01*
X250000Y-555000D03*
G01*
X150000Y-455000D03*
G01*
X250000Y-455000D03*
G01*
X150000Y-355000D03*
G01*
X250000Y-355000D03*
D19*
G01*
X150000Y-255000D03*
D18*
G01*
X250000Y-255000D03*
D20*
G01*
X100000Y-1660000D03*
G01*
X400000Y-1660000D03*
G01*
X400000Y-2100000D03*
G01*
X200000Y-1610000D03*
G01*
X100000Y-1850630D03*
G01*
X470000Y-1575000D03*
G01*
X1190000Y-2025000D03*
G01*
X1190000Y-2075000D03*
G01*
X1535000Y-310000D03*
G01*
X555000Y-50000D03*
G01*
X50000Y-2150000D03*
G01*
X1150000Y-650000D03*
G01*
X570000Y-619459D03*
G01*
X570000Y-450000D03*
M02*
