G04 Layer: TopLayer*
G04 EasyEDA v6.5.40, 2024-12-13 02:27:43*
G04 cafc711810e44acb902ef42d95588454,10*
G04 Gerber Generator version 0.2*
G04 Scale: 100 percent, Rotated: No, Reflected: No *
G04 Dimensions in inches *
G04 leading zeros omitted , absolute positions ,3 integer and 6 decimal *
%FSLAX36Y36*%
%MOIN*%

%AMMACRO1*21,1,$1,$2,0,0,$3*%
%ADD10C,0.0100*%
%ADD11C,0.0300*%
%ADD12R,0.0354X0.0315*%
%ADD13R,0.0433X0.0984*%
%ADD14MACRO1,0.1417X0.0921X0.0000*%
%ADD15R,0.0630X0.0197*%
%ADD16R,0.0315X0.0354*%
%ADD17C,0.0630*%
%ADD18C,0.0472*%
%ADD19O,0.07873999999999999X0.059054999999999996*%
%ADD20R,0.0787X0.0591*%
%ADD21C,0.0787*%
%ADD22R,0.0550X0.0550*%
%ADD23C,0.0550*%
%ADD24C,0.0620*%
%ADD25R,0.0620X0.0620*%
%ADD26C,0.0240*%
%ADD27C,0.0184*%

%LPD*%
G36*
X54000Y-194340D02*
G01*
X52460Y-194040D01*
X51180Y-193180D01*
X50300Y-191880D01*
X50000Y-190340D01*
X50000Y-151660D01*
X50300Y-150120D01*
X51180Y-148820D01*
X148820Y-51180D01*
X150120Y-50300D01*
X151660Y-50000D01*
X190340Y-50000D01*
X191880Y-50300D01*
X193180Y-51180D01*
X194040Y-52460D01*
X194340Y-54000D01*
X194040Y-55540D01*
X193180Y-56820D01*
X198820Y-51180D01*
X200120Y-50300D01*
X201660Y-50000D01*
X529160Y-50000D01*
X530600Y-50279D01*
X531860Y-51060D01*
X532740Y-52240D01*
X534160Y-57580D01*
X535780Y-61100D01*
X538000Y-64260D01*
X540740Y-67000D01*
X543900Y-69220D01*
X547420Y-70840D01*
X551140Y-71840D01*
X555000Y-72180D01*
X558860Y-71840D01*
X562580Y-70840D01*
X566100Y-69220D01*
X569260Y-67000D01*
X569880Y-66380D01*
X571180Y-65500D01*
X572720Y-65199D01*
X692660Y-65199D01*
X694080Y-65460D01*
X695320Y-66220D01*
X696220Y-67360D01*
X696640Y-68760D01*
X696780Y-69980D01*
X697520Y-72140D01*
X698740Y-74060D01*
X700360Y-75680D01*
X702280Y-76880D01*
X704419Y-77640D01*
X706919Y-77920D01*
X737960Y-77920D01*
X740460Y-77640D01*
X742600Y-76880D01*
X744539Y-75680D01*
X746140Y-74060D01*
X746620Y-73320D01*
X747720Y-72160D01*
X749200Y-71520D01*
X750800Y-71520D01*
X752280Y-72160D01*
X753379Y-73320D01*
X753860Y-74060D01*
X755460Y-75680D01*
X757400Y-76880D01*
X759539Y-77640D01*
X762039Y-77920D01*
X767180Y-77920D01*
X767180Y-61360D01*
X752400Y-61360D01*
X750860Y-61060D01*
X749560Y-60180D01*
X748700Y-58880D01*
X748400Y-57360D01*
X748400Y-54000D01*
X748700Y-52460D01*
X749560Y-51180D01*
X750860Y-50300D01*
X752400Y-50000D01*
X1548340Y-50000D01*
X1549880Y-50300D01*
X1551180Y-51180D01*
X1648820Y-148820D01*
X1649700Y-150120D01*
X1650000Y-151660D01*
X1650000Y-324660D01*
X1649700Y-326200D01*
X1648820Y-327480D01*
X1647540Y-328360D01*
X1646000Y-328660D01*
X1638880Y-328660D01*
X1638880Y-360959D01*
X1646000Y-360959D01*
X1647540Y-361280D01*
X1648820Y-362140D01*
X1649700Y-363440D01*
X1650000Y-364960D01*
X1650000Y-411180D01*
X1649700Y-412700D01*
X1648820Y-414000D01*
X1647540Y-414880D01*
X1646000Y-415180D01*
X1638880Y-415180D01*
X1638880Y-447480D01*
X1646000Y-447480D01*
X1647540Y-447780D01*
X1648820Y-448660D01*
X1649700Y-449960D01*
X1650000Y-451480D01*
X1650000Y-792500D01*
X1649700Y-794020D01*
X1648820Y-795320D01*
X1647540Y-796200D01*
X1646000Y-796500D01*
X1644640Y-796500D01*
X1643120Y-796200D01*
X1641819Y-795320D01*
X1625880Y-779400D01*
X1623440Y-777380D01*
X1620800Y-775980D01*
X1617960Y-775120D01*
X1614800Y-774800D01*
X1449199Y-774800D01*
X1447660Y-774500D01*
X1446380Y-773620D01*
X1445500Y-772340D01*
X1445200Y-770800D01*
X1445200Y-537960D01*
X1445500Y-536420D01*
X1446380Y-535120D01*
X1532840Y-448660D01*
X1534139Y-447780D01*
X1535660Y-447480D01*
X1556420Y-447480D01*
X1558920Y-447200D01*
X1561060Y-446460D01*
X1563000Y-445240D01*
X1564600Y-443620D01*
X1565820Y-441700D01*
X1566579Y-439540D01*
X1566860Y-437060D01*
X1566860Y-339080D01*
X1566579Y-336599D01*
X1565820Y-334440D01*
X1564600Y-332520D01*
X1563000Y-330900D01*
X1561060Y-329700D01*
X1558920Y-328940D01*
X1556200Y-328640D01*
X1554660Y-328120D01*
X1553440Y-327060D01*
X1552760Y-325580D01*
X1552720Y-323960D01*
X1553320Y-322440D01*
X1554199Y-321140D01*
X1555840Y-317580D01*
X1556840Y-313860D01*
X1557180Y-310000D01*
X1556840Y-306140D01*
X1555840Y-302420D01*
X1554220Y-298900D01*
X1552000Y-295740D01*
X1549259Y-293000D01*
X1546100Y-290780D01*
X1542580Y-289160D01*
X1538860Y-288160D01*
X1535000Y-287820D01*
X1531140Y-288160D01*
X1527420Y-289160D01*
X1523899Y-290780D01*
X1520740Y-293000D01*
X1518000Y-295740D01*
X1515780Y-298900D01*
X1514160Y-302420D01*
X1513160Y-306140D01*
X1512820Y-310000D01*
X1513160Y-313860D01*
X1514160Y-317580D01*
X1515780Y-321100D01*
X1516680Y-322360D01*
X1517320Y-323880D01*
X1517300Y-325520D01*
X1516620Y-327020D01*
X1515400Y-328120D01*
X1513839Y-328640D01*
X1511080Y-328940D01*
X1508940Y-329700D01*
X1507000Y-330900D01*
X1505400Y-332520D01*
X1504180Y-334440D01*
X1503420Y-336599D01*
X1503140Y-339080D01*
X1503140Y-433700D01*
X1502840Y-435240D01*
X1501980Y-436520D01*
X1419400Y-519120D01*
X1417380Y-521560D01*
X1415980Y-524200D01*
X1415120Y-527040D01*
X1414800Y-530200D01*
X1414800Y-782039D01*
X1414500Y-783580D01*
X1413620Y-784880D01*
X1380660Y-817860D01*
X1378440Y-820540D01*
X1377200Y-821560D01*
X1373320Y-824440D01*
X1369920Y-827860D01*
X1367020Y-831720D01*
X1364720Y-835960D01*
X1363020Y-840480D01*
X1362000Y-845180D01*
X1361660Y-850000D01*
X1362000Y-854820D01*
X1363020Y-859520D01*
X1364720Y-864040D01*
X1367020Y-868280D01*
X1369920Y-872140D01*
X1373320Y-875560D01*
X1377200Y-878439D01*
X1381420Y-880759D01*
X1385940Y-882440D01*
X1390660Y-883460D01*
X1395480Y-883820D01*
X1400280Y-883460D01*
X1405000Y-882440D01*
X1409520Y-880759D01*
X1413760Y-878439D01*
X1417620Y-875560D01*
X1421020Y-872140D01*
X1421800Y-871100D01*
X1422880Y-870120D01*
X1424259Y-869580D01*
X1425740Y-869580D01*
X1427120Y-870120D01*
X1428200Y-871100D01*
X1428980Y-872140D01*
X1432380Y-875560D01*
X1436240Y-878439D01*
X1440220Y-880620D01*
X1440220Y-864320D01*
X1431840Y-864320D01*
X1430120Y-863920D01*
X1428720Y-862820D01*
X1427940Y-861240D01*
X1427920Y-859460D01*
X1428940Y-854820D01*
X1429280Y-850000D01*
X1428940Y-845180D01*
X1427920Y-840540D01*
X1427940Y-838760D01*
X1428720Y-837180D01*
X1430120Y-836080D01*
X1431840Y-835680D01*
X1440220Y-835680D01*
X1440220Y-819380D01*
X1436240Y-821560D01*
X1432380Y-824440D01*
X1428980Y-827860D01*
X1428200Y-828900D01*
X1427120Y-829880D01*
X1425740Y-830420D01*
X1424259Y-830420D01*
X1422880Y-829880D01*
X1421800Y-828900D01*
X1421020Y-827860D01*
X1420160Y-827000D01*
X1419300Y-825699D01*
X1418980Y-824160D01*
X1419300Y-822640D01*
X1420160Y-821340D01*
X1435120Y-806380D01*
X1436420Y-805500D01*
X1437960Y-805200D01*
X1607040Y-805200D01*
X1608580Y-805500D01*
X1609880Y-806380D01*
X1620920Y-817400D01*
X1621780Y-818700D01*
X1622080Y-820240D01*
X1622080Y-837960D01*
X1622360Y-840460D01*
X1623120Y-842600D01*
X1624319Y-844539D01*
X1625940Y-846140D01*
X1626680Y-846620D01*
X1627840Y-847720D01*
X1628480Y-849200D01*
X1628480Y-850800D01*
X1627840Y-852280D01*
X1626680Y-853379D01*
X1625940Y-853860D01*
X1624319Y-855460D01*
X1623120Y-857400D01*
X1622360Y-859539D01*
X1622080Y-862039D01*
X1622080Y-893080D01*
X1622360Y-895580D01*
X1623120Y-897720D01*
X1624319Y-899659D01*
X1625940Y-901260D01*
X1627860Y-902480D01*
X1630020Y-903220D01*
X1631240Y-903360D01*
X1632640Y-903780D01*
X1633779Y-904680D01*
X1634540Y-905920D01*
X1634800Y-907340D01*
X1634800Y-1280800D01*
X1634500Y-1282340D01*
X1633620Y-1283620D01*
X1632340Y-1284500D01*
X1630800Y-1284800D01*
X1536900Y-1284800D01*
X1535480Y-1284540D01*
X1534240Y-1283779D01*
X1533360Y-1282640D01*
X1532200Y-1280420D01*
X1529240Y-1276220D01*
X1525720Y-1272460D01*
X1521740Y-1269200D01*
X1517340Y-1266540D01*
X1512620Y-1264480D01*
X1507660Y-1263100D01*
X1502580Y-1262400D01*
X1497420Y-1262400D01*
X1492340Y-1263100D01*
X1487380Y-1264480D01*
X1482660Y-1266540D01*
X1478260Y-1269200D01*
X1474280Y-1272460D01*
X1470760Y-1276220D01*
X1467800Y-1280420D01*
X1466639Y-1282640D01*
X1465760Y-1283779D01*
X1464520Y-1284540D01*
X1463100Y-1284800D01*
X1436900Y-1284800D01*
X1435480Y-1284540D01*
X1434240Y-1283779D01*
X1433360Y-1282640D01*
X1432200Y-1280420D01*
X1429240Y-1276220D01*
X1425720Y-1272460D01*
X1421740Y-1269200D01*
X1417340Y-1266540D01*
X1412620Y-1264480D01*
X1407660Y-1263100D01*
X1402580Y-1262400D01*
X1397420Y-1262400D01*
X1392340Y-1263100D01*
X1387380Y-1264480D01*
X1382660Y-1266540D01*
X1378260Y-1269200D01*
X1374280Y-1272460D01*
X1370760Y-1276220D01*
X1367800Y-1280420D01*
X1365420Y-1284980D01*
X1363700Y-1289840D01*
X1362660Y-1294860D01*
X1362300Y-1300000D01*
X1362660Y-1305140D01*
X1363700Y-1310160D01*
X1365420Y-1315020D01*
X1367800Y-1319580D01*
X1370760Y-1323779D01*
X1374280Y-1327540D01*
X1378260Y-1330800D01*
X1382660Y-1333460D01*
X1387380Y-1335520D01*
X1392340Y-1336900D01*
X1397420Y-1337600D01*
X1402580Y-1337600D01*
X1407660Y-1336900D01*
X1412620Y-1335520D01*
X1417340Y-1333460D01*
X1421740Y-1330800D01*
X1425720Y-1327540D01*
X1429240Y-1323779D01*
X1432200Y-1319580D01*
X1433360Y-1317360D01*
X1434240Y-1316220D01*
X1435480Y-1315460D01*
X1436900Y-1315200D01*
X1463100Y-1315200D01*
X1464520Y-1315460D01*
X1465760Y-1316220D01*
X1466639Y-1317360D01*
X1467800Y-1319580D01*
X1470760Y-1323779D01*
X1474280Y-1327540D01*
X1478260Y-1330800D01*
X1482660Y-1333460D01*
X1487380Y-1335520D01*
X1492340Y-1336900D01*
X1497420Y-1337600D01*
X1502580Y-1337600D01*
X1507660Y-1336900D01*
X1512620Y-1335520D01*
X1517340Y-1333460D01*
X1521740Y-1330800D01*
X1525720Y-1327540D01*
X1529240Y-1323779D01*
X1532200Y-1319580D01*
X1533360Y-1317360D01*
X1534240Y-1316220D01*
X1535480Y-1315460D01*
X1536900Y-1315200D01*
X1630800Y-1315200D01*
X1632340Y-1315500D01*
X1633620Y-1316380D01*
X1634500Y-1317660D01*
X1634800Y-1319199D01*
X1634800Y-1618540D01*
X1634500Y-1620080D01*
X1633620Y-1621380D01*
X1556180Y-1698820D01*
X1554880Y-1699700D01*
X1553340Y-1700000D01*
X1521160Y-1700000D01*
X1519620Y-1699700D01*
X1518320Y-1698820D01*
X1517460Y-1697540D01*
X1517160Y-1696000D01*
X1517460Y-1694460D01*
X1518320Y-1693180D01*
X1570600Y-1640880D01*
X1572620Y-1638440D01*
X1574019Y-1635800D01*
X1574880Y-1632960D01*
X1575200Y-1629800D01*
X1575200Y-1460200D01*
X1574880Y-1457040D01*
X1574019Y-1454199D01*
X1572620Y-1451560D01*
X1570600Y-1449120D01*
X1536860Y-1415380D01*
X1536020Y-1414139D01*
X1535700Y-1412680D01*
X1535920Y-1411200D01*
X1536300Y-1410160D01*
X1537340Y-1405140D01*
X1537700Y-1400000D01*
X1537340Y-1394860D01*
X1536300Y-1389840D01*
X1534580Y-1384980D01*
X1532200Y-1380420D01*
X1529240Y-1376220D01*
X1525720Y-1372460D01*
X1521740Y-1369199D01*
X1517340Y-1366540D01*
X1512620Y-1364480D01*
X1507660Y-1363100D01*
X1502580Y-1362400D01*
X1497420Y-1362400D01*
X1492340Y-1363100D01*
X1487380Y-1364480D01*
X1482660Y-1366540D01*
X1478260Y-1369199D01*
X1474280Y-1372460D01*
X1470760Y-1376220D01*
X1467800Y-1380420D01*
X1465420Y-1384980D01*
X1463700Y-1389840D01*
X1462660Y-1394860D01*
X1462300Y-1400000D01*
X1462660Y-1405140D01*
X1463700Y-1410160D01*
X1465420Y-1415020D01*
X1467800Y-1419580D01*
X1470760Y-1423779D01*
X1474280Y-1427540D01*
X1478260Y-1430800D01*
X1482660Y-1433460D01*
X1487380Y-1435520D01*
X1492340Y-1436900D01*
X1497420Y-1437600D01*
X1502580Y-1437600D01*
X1507660Y-1436900D01*
X1511459Y-1435840D01*
X1512860Y-1435700D01*
X1514220Y-1436060D01*
X1515360Y-1436860D01*
X1543620Y-1465120D01*
X1544500Y-1466420D01*
X1544800Y-1467960D01*
X1544800Y-1622040D01*
X1544500Y-1623580D01*
X1543620Y-1624880D01*
X1469680Y-1698820D01*
X1468380Y-1699700D01*
X1466840Y-1700000D01*
X1019200Y-1700000D01*
X1017660Y-1699700D01*
X1016380Y-1698820D01*
X1015500Y-1697540D01*
X1015200Y-1696000D01*
X1015200Y-1537020D01*
X1015440Y-1535680D01*
X1016100Y-1534500D01*
X1017120Y-1533600D01*
X1021740Y-1530800D01*
X1025720Y-1527540D01*
X1029240Y-1523779D01*
X1032200Y-1519580D01*
X1034580Y-1515020D01*
X1036300Y-1510160D01*
X1037340Y-1505140D01*
X1037700Y-1500000D01*
X1037340Y-1494860D01*
X1036300Y-1489840D01*
X1034580Y-1484980D01*
X1032200Y-1480420D01*
X1029240Y-1476220D01*
X1025720Y-1472460D01*
X1021740Y-1469199D01*
X1017340Y-1466540D01*
X1012620Y-1464480D01*
X1007660Y-1463100D01*
X1002580Y-1462400D01*
X997420Y-1462400D01*
X992340Y-1463100D01*
X987380Y-1464480D01*
X982660Y-1466540D01*
X978259Y-1469199D01*
X974280Y-1472460D01*
X970759Y-1476220D01*
X967800Y-1480420D01*
X965420Y-1484980D01*
X963700Y-1489840D01*
X962660Y-1494860D01*
X962300Y-1500000D01*
X962660Y-1505140D01*
X963700Y-1510160D01*
X965420Y-1515020D01*
X967800Y-1519580D01*
X970759Y-1523779D01*
X974280Y-1527540D01*
X978259Y-1530800D01*
X982880Y-1533600D01*
X983900Y-1534500D01*
X984560Y-1535680D01*
X984800Y-1537020D01*
X984800Y-1675140D01*
X984500Y-1676680D01*
X983620Y-1677980D01*
X982340Y-1678839D01*
X980800Y-1679139D01*
X979260Y-1678839D01*
X977980Y-1677980D01*
X750280Y-1450280D01*
X749599Y-1450000D01*
X319200Y-1450000D01*
X317660Y-1449700D01*
X316380Y-1448820D01*
X315500Y-1447540D01*
X315200Y-1446000D01*
X315200Y-1205200D01*
X314880Y-1202040D01*
X314020Y-1199200D01*
X312620Y-1196560D01*
X310600Y-1194120D01*
X289620Y-1173120D01*
X288780Y-1171900D01*
X288440Y-1170460D01*
X288660Y-1169000D01*
X289780Y-1165660D01*
X290840Y-1160380D01*
X291200Y-1155000D01*
X290840Y-1149620D01*
X289780Y-1144340D01*
X288060Y-1139240D01*
X285680Y-1134400D01*
X282680Y-1129920D01*
X279120Y-1125880D01*
X275080Y-1122320D01*
X270600Y-1119320D01*
X265760Y-1116940D01*
X260660Y-1115220D01*
X255380Y-1114160D01*
X250000Y-1113800D01*
X244620Y-1114160D01*
X239340Y-1115220D01*
X234240Y-1116940D01*
X229400Y-1119320D01*
X224920Y-1122320D01*
X220880Y-1125880D01*
X217320Y-1129920D01*
X214320Y-1134400D01*
X211940Y-1139240D01*
X210219Y-1144340D01*
X209160Y-1149620D01*
X208800Y-1155000D01*
X209160Y-1160380D01*
X210219Y-1165660D01*
X211940Y-1170760D01*
X214320Y-1175600D01*
X217320Y-1180080D01*
X220880Y-1184120D01*
X224920Y-1187680D01*
X229400Y-1190680D01*
X234240Y-1193060D01*
X239340Y-1194780D01*
X244620Y-1195840D01*
X250000Y-1196200D01*
X255380Y-1195840D01*
X260660Y-1194780D01*
X264000Y-1193660D01*
X265460Y-1193440D01*
X266900Y-1193780D01*
X268120Y-1194620D01*
X283620Y-1210120D01*
X284500Y-1211420D01*
X284800Y-1212960D01*
X284800Y-1222020D01*
X284520Y-1223520D01*
X283680Y-1224780D01*
X282460Y-1225660D01*
X280980Y-1226020D01*
X279480Y-1225800D01*
X278160Y-1225020D01*
X275080Y-1222320D01*
X270600Y-1219320D01*
X265760Y-1216940D01*
X260660Y-1215220D01*
X255380Y-1214160D01*
X250000Y-1213800D01*
X244620Y-1214160D01*
X239340Y-1215220D01*
X234240Y-1216940D01*
X229400Y-1219320D01*
X224920Y-1222320D01*
X220880Y-1225880D01*
X217320Y-1229920D01*
X214320Y-1234400D01*
X211940Y-1239240D01*
X210219Y-1244340D01*
X209160Y-1249620D01*
X208800Y-1255000D01*
X209160Y-1260380D01*
X210219Y-1265660D01*
X211940Y-1270760D01*
X214320Y-1275600D01*
X217320Y-1280080D01*
X220880Y-1284120D01*
X224920Y-1287680D01*
X229400Y-1290680D01*
X234240Y-1293060D01*
X239340Y-1294780D01*
X244620Y-1295840D01*
X250000Y-1296200D01*
X255380Y-1295840D01*
X260660Y-1294780D01*
X265760Y-1293060D01*
X270600Y-1290680D01*
X275080Y-1287680D01*
X278160Y-1284980D01*
X279480Y-1284199D01*
X280980Y-1283980D01*
X282460Y-1284340D01*
X283680Y-1285220D01*
X284520Y-1286480D01*
X284800Y-1287980D01*
X284800Y-1322020D01*
X284520Y-1323520D01*
X283680Y-1324780D01*
X282460Y-1325660D01*
X280980Y-1326020D01*
X279480Y-1325800D01*
X278160Y-1325020D01*
X275080Y-1322320D01*
X270600Y-1319319D01*
X265760Y-1316940D01*
X260660Y-1315220D01*
X255380Y-1314160D01*
X250000Y-1313800D01*
X244620Y-1314160D01*
X239340Y-1315220D01*
X234240Y-1316940D01*
X229400Y-1319319D01*
X224920Y-1322320D01*
X220880Y-1325880D01*
X217320Y-1329920D01*
X214320Y-1334400D01*
X211940Y-1339240D01*
X210219Y-1344340D01*
X209160Y-1349620D01*
X208800Y-1355000D01*
X209160Y-1360380D01*
X210219Y-1365660D01*
X211340Y-1369000D01*
X211560Y-1370460D01*
X211220Y-1371900D01*
X210380Y-1373120D01*
X189400Y-1394120D01*
X187380Y-1396560D01*
X185980Y-1399199D01*
X185120Y-1402040D01*
X184800Y-1405200D01*
X184800Y-1422020D01*
X184520Y-1423520D01*
X183680Y-1424780D01*
X182460Y-1425660D01*
X180980Y-1426020D01*
X179480Y-1425800D01*
X178160Y-1425020D01*
X176560Y-1423620D01*
X175560Y-1422260D01*
X175200Y-1420620D01*
X175200Y-1389379D01*
X175560Y-1387740D01*
X176560Y-1386380D01*
X179120Y-1384120D01*
X182680Y-1380080D01*
X185680Y-1375600D01*
X188060Y-1370760D01*
X189780Y-1365660D01*
X190840Y-1360380D01*
X191200Y-1355000D01*
X190840Y-1349620D01*
X189780Y-1344340D01*
X188060Y-1339240D01*
X185680Y-1334400D01*
X182680Y-1329920D01*
X179120Y-1325880D01*
X176560Y-1323620D01*
X175560Y-1322260D01*
X175200Y-1320620D01*
X175200Y-1289379D01*
X175560Y-1287740D01*
X176560Y-1286380D01*
X179120Y-1284120D01*
X182680Y-1280080D01*
X185680Y-1275600D01*
X188060Y-1270760D01*
X189780Y-1265660D01*
X190840Y-1260380D01*
X191200Y-1255000D01*
X190840Y-1249620D01*
X189780Y-1244340D01*
X188060Y-1239240D01*
X185680Y-1234400D01*
X182680Y-1229920D01*
X179120Y-1225880D01*
X176560Y-1223620D01*
X175560Y-1222260D01*
X175200Y-1220620D01*
X175200Y-1189380D01*
X175560Y-1187740D01*
X176560Y-1186380D01*
X179120Y-1184120D01*
X182680Y-1180080D01*
X185680Y-1175600D01*
X188060Y-1170760D01*
X189780Y-1165660D01*
X190840Y-1160380D01*
X191200Y-1155000D01*
X190840Y-1149620D01*
X189780Y-1144340D01*
X188060Y-1139240D01*
X185680Y-1134400D01*
X182680Y-1129920D01*
X179120Y-1125880D01*
X176560Y-1123620D01*
X175560Y-1122260D01*
X175200Y-1120620D01*
X175200Y-1089380D01*
X175560Y-1087740D01*
X176560Y-1086380D01*
X179120Y-1084120D01*
X182680Y-1080080D01*
X185680Y-1075600D01*
X188060Y-1070760D01*
X189780Y-1065660D01*
X190840Y-1060380D01*
X191200Y-1055000D01*
X190840Y-1049620D01*
X189780Y-1044340D01*
X188060Y-1039240D01*
X185680Y-1034400D01*
X182680Y-1029920D01*
X179120Y-1025879D01*
X176560Y-1023620D01*
X175560Y-1022260D01*
X175200Y-1020620D01*
X175200Y-989380D01*
X175560Y-987740D01*
X176560Y-986380D01*
X179120Y-984120D01*
X182680Y-980080D01*
X185680Y-975600D01*
X188060Y-970759D01*
X189780Y-965660D01*
X190840Y-960380D01*
X191200Y-955000D01*
X190840Y-949620D01*
X189780Y-944340D01*
X188060Y-939240D01*
X185680Y-934400D01*
X182680Y-929920D01*
X179120Y-925879D01*
X175080Y-922320D01*
X170600Y-919320D01*
X165760Y-916940D01*
X160660Y-915220D01*
X155380Y-914160D01*
X150000Y-913800D01*
X144620Y-914160D01*
X139340Y-915220D01*
X134240Y-916940D01*
X129400Y-919320D01*
X124920Y-922320D01*
X120879Y-925879D01*
X117320Y-929920D01*
X114320Y-934400D01*
X111940Y-939240D01*
X110220Y-944340D01*
X109160Y-949620D01*
X108800Y-955000D01*
X109160Y-960380D01*
X110220Y-965660D01*
X111940Y-970759D01*
X114320Y-975600D01*
X117320Y-980080D01*
X120879Y-984120D01*
X123440Y-986380D01*
X124440Y-987740D01*
X124800Y-989380D01*
X124800Y-1020620D01*
X124440Y-1022260D01*
X123440Y-1023620D01*
X120879Y-1025879D01*
X117320Y-1029920D01*
X114320Y-1034400D01*
X111940Y-1039240D01*
X110220Y-1044340D01*
X109160Y-1049620D01*
X108800Y-1055000D01*
X109160Y-1060380D01*
X110220Y-1065660D01*
X111940Y-1070760D01*
X114320Y-1075600D01*
X117320Y-1080080D01*
X120879Y-1084120D01*
X123440Y-1086380D01*
X124440Y-1087740D01*
X124800Y-1089380D01*
X124800Y-1120620D01*
X124440Y-1122260D01*
X123440Y-1123620D01*
X120879Y-1125880D01*
X117320Y-1129920D01*
X114320Y-1134400D01*
X111940Y-1139240D01*
X110220Y-1144340D01*
X109160Y-1149620D01*
X108800Y-1155000D01*
X109160Y-1160380D01*
X110220Y-1165660D01*
X111940Y-1170760D01*
X114320Y-1175600D01*
X117320Y-1180080D01*
X120879Y-1184120D01*
X123440Y-1186380D01*
X124440Y-1187740D01*
X124800Y-1189380D01*
X124800Y-1220620D01*
X124440Y-1222260D01*
X123440Y-1223620D01*
X120879Y-1225880D01*
X117320Y-1229920D01*
X114320Y-1234400D01*
X111940Y-1239240D01*
X110220Y-1244340D01*
X109160Y-1249620D01*
X108800Y-1255000D01*
X109160Y-1260380D01*
X110220Y-1265660D01*
X111940Y-1270760D01*
X114320Y-1275600D01*
X117320Y-1280080D01*
X120879Y-1284120D01*
X123440Y-1286380D01*
X124440Y-1287740D01*
X124800Y-1289379D01*
X124800Y-1320620D01*
X124440Y-1322260D01*
X123440Y-1323620D01*
X120879Y-1325880D01*
X117320Y-1329920D01*
X114320Y-1334400D01*
X111940Y-1339240D01*
X110220Y-1344340D01*
X109160Y-1349620D01*
X108800Y-1355000D01*
X109160Y-1360380D01*
X110220Y-1365660D01*
X111940Y-1370760D01*
X114320Y-1375600D01*
X117320Y-1380080D01*
X120879Y-1384120D01*
X123440Y-1386380D01*
X124440Y-1387740D01*
X124800Y-1389379D01*
X124800Y-1420620D01*
X124440Y-1422260D01*
X123440Y-1423620D01*
X120879Y-1425880D01*
X117320Y-1429920D01*
X114320Y-1434400D01*
X111940Y-1439240D01*
X110220Y-1444340D01*
X109720Y-1446780D01*
X109240Y-1448060D01*
X108340Y-1449100D01*
X107160Y-1449760D01*
X105800Y-1450000D01*
X101660Y-1450000D01*
X100120Y-1449700D01*
X98820Y-1448820D01*
X51180Y-1401180D01*
X50300Y-1399880D01*
X50000Y-1398340D01*
X50000Y-201660D01*
X50300Y-200120D01*
X51180Y-198820D01*
X56820Y-193180D01*
X55540Y-194040D01*
G37*

%LPC*%
G36*
X1297420Y-1637600D02*
G01*
X1302580Y-1637600D01*
X1307660Y-1636900D01*
X1312620Y-1635520D01*
X1317340Y-1633460D01*
X1321740Y-1630800D01*
X1325720Y-1627540D01*
X1329240Y-1623779D01*
X1332200Y-1619580D01*
X1334580Y-1615020D01*
X1336300Y-1610160D01*
X1337340Y-1605140D01*
X1337700Y-1600000D01*
X1337340Y-1594860D01*
X1336300Y-1589840D01*
X1334580Y-1584980D01*
X1332200Y-1580420D01*
X1329240Y-1576220D01*
X1325720Y-1572460D01*
X1321740Y-1569199D01*
X1317340Y-1566540D01*
X1312620Y-1564480D01*
X1307660Y-1563100D01*
X1302580Y-1562400D01*
X1297420Y-1562400D01*
X1292340Y-1563100D01*
X1287380Y-1564480D01*
X1282660Y-1566540D01*
X1278260Y-1569199D01*
X1274280Y-1572460D01*
X1270760Y-1576220D01*
X1267800Y-1580420D01*
X1265420Y-1584980D01*
X1263700Y-1589840D01*
X1262660Y-1594860D01*
X1262300Y-1600000D01*
X1262660Y-1605140D01*
X1263700Y-1610160D01*
X1265420Y-1615020D01*
X1267800Y-1619580D01*
X1270760Y-1623779D01*
X1274280Y-1627540D01*
X1278260Y-1630800D01*
X1282660Y-1633460D01*
X1287380Y-1635520D01*
X1292340Y-1636900D01*
G37*
G36*
X1397420Y-1637600D02*
G01*
X1402580Y-1637600D01*
X1407660Y-1636900D01*
X1412620Y-1635520D01*
X1417340Y-1633460D01*
X1421740Y-1630800D01*
X1425720Y-1627540D01*
X1429240Y-1623779D01*
X1432200Y-1619580D01*
X1434580Y-1615020D01*
X1436300Y-1610160D01*
X1437340Y-1605140D01*
X1437700Y-1600000D01*
X1437340Y-1594860D01*
X1436300Y-1589840D01*
X1434580Y-1584980D01*
X1432200Y-1580420D01*
X1429240Y-1576220D01*
X1425720Y-1572460D01*
X1421740Y-1569199D01*
X1417340Y-1566540D01*
X1412620Y-1564480D01*
X1407660Y-1563100D01*
X1402580Y-1562400D01*
X1397420Y-1562400D01*
X1392340Y-1563100D01*
X1387380Y-1564480D01*
X1382660Y-1566540D01*
X1378260Y-1569199D01*
X1374280Y-1572460D01*
X1370760Y-1576220D01*
X1367800Y-1580420D01*
X1365420Y-1584980D01*
X1363700Y-1589840D01*
X1362660Y-1594860D01*
X1362300Y-1600000D01*
X1362660Y-1605140D01*
X1363700Y-1610160D01*
X1365420Y-1615020D01*
X1367800Y-1619580D01*
X1370760Y-1623779D01*
X1374280Y-1627540D01*
X1378260Y-1630800D01*
X1382660Y-1633460D01*
X1387380Y-1635520D01*
X1392340Y-1636900D01*
G37*
G36*
X1197420Y-1637600D02*
G01*
X1202580Y-1637600D01*
X1207660Y-1636900D01*
X1212620Y-1635520D01*
X1217340Y-1633460D01*
X1221740Y-1630800D01*
X1225720Y-1627540D01*
X1229240Y-1623779D01*
X1232200Y-1619580D01*
X1234580Y-1615020D01*
X1236300Y-1610160D01*
X1237340Y-1605140D01*
X1237700Y-1600000D01*
X1237340Y-1594860D01*
X1236300Y-1589840D01*
X1234580Y-1584980D01*
X1232200Y-1580420D01*
X1229240Y-1576220D01*
X1225720Y-1572460D01*
X1221740Y-1569199D01*
X1217340Y-1566540D01*
X1212620Y-1564480D01*
X1207660Y-1563100D01*
X1202580Y-1562400D01*
X1197420Y-1562400D01*
X1192340Y-1563100D01*
X1187380Y-1564480D01*
X1182660Y-1566540D01*
X1178260Y-1569199D01*
X1174280Y-1572460D01*
X1170760Y-1576220D01*
X1167800Y-1580420D01*
X1165420Y-1584980D01*
X1163700Y-1589840D01*
X1162660Y-1594860D01*
X1162300Y-1600000D01*
X1162660Y-1605140D01*
X1163700Y-1610160D01*
X1165420Y-1615020D01*
X1167800Y-1619580D01*
X1170760Y-1623779D01*
X1174280Y-1627540D01*
X1178260Y-1630800D01*
X1182660Y-1633460D01*
X1187380Y-1635520D01*
X1192340Y-1636900D01*
G37*
G36*
X1097420Y-1637600D02*
G01*
X1102580Y-1637600D01*
X1107660Y-1636900D01*
X1112620Y-1635520D01*
X1117340Y-1633460D01*
X1121740Y-1630800D01*
X1125720Y-1627540D01*
X1129240Y-1623779D01*
X1132200Y-1619580D01*
X1134580Y-1615020D01*
X1136300Y-1610160D01*
X1137340Y-1605140D01*
X1137700Y-1600000D01*
X1137340Y-1594860D01*
X1136300Y-1589840D01*
X1134580Y-1584980D01*
X1132200Y-1580420D01*
X1129240Y-1576220D01*
X1125720Y-1572460D01*
X1121740Y-1569199D01*
X1117340Y-1566540D01*
X1112620Y-1564480D01*
X1107660Y-1563100D01*
X1102580Y-1562400D01*
X1097420Y-1562400D01*
X1092340Y-1563100D01*
X1087380Y-1564480D01*
X1082660Y-1566540D01*
X1078260Y-1569199D01*
X1074280Y-1572460D01*
X1070760Y-1576220D01*
X1067800Y-1580420D01*
X1065420Y-1584980D01*
X1063700Y-1589840D01*
X1062660Y-1594860D01*
X1062300Y-1600000D01*
X1062660Y-1605140D01*
X1063700Y-1610160D01*
X1065420Y-1615020D01*
X1067800Y-1619580D01*
X1070760Y-1623779D01*
X1074280Y-1627540D01*
X1078260Y-1630800D01*
X1082660Y-1633460D01*
X1087380Y-1635520D01*
X1092340Y-1636900D01*
G37*
G36*
X1197420Y-1537600D02*
G01*
X1202580Y-1537600D01*
X1207660Y-1536900D01*
X1212620Y-1535520D01*
X1217340Y-1533460D01*
X1221740Y-1530800D01*
X1225720Y-1527540D01*
X1229240Y-1523779D01*
X1232200Y-1519580D01*
X1234580Y-1515020D01*
X1236300Y-1510160D01*
X1237340Y-1505140D01*
X1237700Y-1500000D01*
X1237340Y-1494860D01*
X1236300Y-1489840D01*
X1234580Y-1484980D01*
X1232200Y-1480420D01*
X1229240Y-1476220D01*
X1225720Y-1472460D01*
X1221740Y-1469199D01*
X1217340Y-1466540D01*
X1212620Y-1464480D01*
X1207660Y-1463100D01*
X1202580Y-1462400D01*
X1197420Y-1462400D01*
X1192340Y-1463100D01*
X1187380Y-1464480D01*
X1182660Y-1466540D01*
X1178260Y-1469199D01*
X1174280Y-1472460D01*
X1170760Y-1476220D01*
X1167800Y-1480420D01*
X1165420Y-1484980D01*
X1163700Y-1489840D01*
X1162660Y-1494860D01*
X1162300Y-1500000D01*
X1162660Y-1505140D01*
X1163700Y-1510160D01*
X1165420Y-1515020D01*
X1167800Y-1519580D01*
X1170760Y-1523779D01*
X1174280Y-1527540D01*
X1178260Y-1530800D01*
X1182660Y-1533460D01*
X1187380Y-1535520D01*
X1192340Y-1536900D01*
G37*
G36*
X1097420Y-1537600D02*
G01*
X1102580Y-1537600D01*
X1107660Y-1536900D01*
X1112620Y-1535520D01*
X1117340Y-1533460D01*
X1121740Y-1530800D01*
X1125720Y-1527540D01*
X1129240Y-1523779D01*
X1132200Y-1519580D01*
X1134580Y-1515020D01*
X1136300Y-1510160D01*
X1137340Y-1505140D01*
X1137700Y-1500000D01*
X1137340Y-1494860D01*
X1136300Y-1489840D01*
X1134580Y-1484980D01*
X1132200Y-1480420D01*
X1129240Y-1476220D01*
X1125720Y-1472460D01*
X1121740Y-1469199D01*
X1117340Y-1466540D01*
X1112620Y-1464480D01*
X1107660Y-1463100D01*
X1102580Y-1462400D01*
X1097420Y-1462400D01*
X1092340Y-1463100D01*
X1087380Y-1464480D01*
X1082660Y-1466540D01*
X1078260Y-1469199D01*
X1074280Y-1472460D01*
X1070760Y-1476220D01*
X1067800Y-1480420D01*
X1065420Y-1484980D01*
X1063700Y-1489840D01*
X1062660Y-1494860D01*
X1062300Y-1500000D01*
X1062660Y-1505140D01*
X1063700Y-1510160D01*
X1065420Y-1515020D01*
X1067800Y-1519580D01*
X1070760Y-1523779D01*
X1074280Y-1527540D01*
X1078260Y-1530800D01*
X1082660Y-1533460D01*
X1087380Y-1535520D01*
X1092340Y-1536900D01*
G37*
G36*
X1297420Y-1537600D02*
G01*
X1302580Y-1537600D01*
X1307660Y-1536900D01*
X1312620Y-1535520D01*
X1317340Y-1533460D01*
X1321740Y-1530800D01*
X1325720Y-1527540D01*
X1329240Y-1523779D01*
X1332200Y-1519580D01*
X1334580Y-1515020D01*
X1336300Y-1510160D01*
X1337340Y-1505140D01*
X1337700Y-1500000D01*
X1337340Y-1494860D01*
X1336300Y-1489840D01*
X1334580Y-1484980D01*
X1332200Y-1480420D01*
X1329240Y-1476220D01*
X1325720Y-1472460D01*
X1321740Y-1469199D01*
X1317340Y-1466540D01*
X1312620Y-1464480D01*
X1307660Y-1463100D01*
X1302580Y-1462400D01*
X1297420Y-1462400D01*
X1292340Y-1463100D01*
X1287380Y-1464480D01*
X1282660Y-1466540D01*
X1278260Y-1469199D01*
X1274280Y-1472460D01*
X1270760Y-1476220D01*
X1267800Y-1480420D01*
X1265420Y-1484980D01*
X1263700Y-1489840D01*
X1262660Y-1494860D01*
X1262300Y-1500000D01*
X1262660Y-1505140D01*
X1263700Y-1510160D01*
X1265420Y-1515020D01*
X1267800Y-1519580D01*
X1270760Y-1523779D01*
X1274280Y-1527540D01*
X1278260Y-1530800D01*
X1282660Y-1533460D01*
X1287380Y-1535520D01*
X1292340Y-1536900D01*
G37*
G36*
X1397420Y-1537600D02*
G01*
X1402580Y-1537600D01*
X1407660Y-1536900D01*
X1412620Y-1535520D01*
X1417340Y-1533460D01*
X1421740Y-1530800D01*
X1425720Y-1527540D01*
X1429240Y-1523779D01*
X1432200Y-1519580D01*
X1434580Y-1515020D01*
X1436300Y-1510160D01*
X1437340Y-1505140D01*
X1437700Y-1500000D01*
X1437340Y-1494860D01*
X1436300Y-1489840D01*
X1434580Y-1484980D01*
X1432200Y-1480420D01*
X1429240Y-1476220D01*
X1425720Y-1472460D01*
X1421740Y-1469199D01*
X1417340Y-1466540D01*
X1412620Y-1464480D01*
X1407660Y-1463100D01*
X1402580Y-1462400D01*
X1397420Y-1462400D01*
X1392340Y-1463100D01*
X1388540Y-1464160D01*
X1387140Y-1464300D01*
X1385780Y-1463940D01*
X1384640Y-1463140D01*
X1155880Y-1234400D01*
X1153440Y-1232380D01*
X1150800Y-1230980D01*
X1147960Y-1230120D01*
X1144800Y-1229800D01*
X1132720Y-1229800D01*
X1131020Y-1229420D01*
X1129640Y-1228360D01*
X1128840Y-1226820D01*
X1128780Y-1225100D01*
X1129440Y-1223500D01*
X1132200Y-1219580D01*
X1133940Y-1216260D01*
X1116260Y-1216260D01*
X1116260Y-1225800D01*
X1115940Y-1227340D01*
X1115080Y-1228620D01*
X1113780Y-1229500D01*
X1112260Y-1229800D01*
X1087740Y-1229800D01*
X1086220Y-1229500D01*
X1084920Y-1228620D01*
X1084060Y-1227340D01*
X1083760Y-1225800D01*
X1083760Y-1216260D01*
X1066060Y-1216260D01*
X1067800Y-1219580D01*
X1070560Y-1223500D01*
X1071220Y-1225100D01*
X1071160Y-1226820D01*
X1070360Y-1228360D01*
X1068980Y-1229420D01*
X1067280Y-1229800D01*
X1032720Y-1229800D01*
X1031020Y-1229420D01*
X1029640Y-1228360D01*
X1028840Y-1226820D01*
X1028780Y-1225100D01*
X1029440Y-1223500D01*
X1032200Y-1219580D01*
X1034580Y-1215020D01*
X1036300Y-1210160D01*
X1037340Y-1205140D01*
X1037700Y-1200000D01*
X1037340Y-1194860D01*
X1036300Y-1189840D01*
X1034580Y-1184980D01*
X1032200Y-1180420D01*
X1029240Y-1176220D01*
X1025720Y-1172460D01*
X1021740Y-1169200D01*
X1017120Y-1166400D01*
X1016100Y-1165500D01*
X1015440Y-1164320D01*
X1015200Y-1162980D01*
X1015200Y-987960D01*
X1015500Y-986420D01*
X1016380Y-985120D01*
X1160600Y-840879D01*
X1162620Y-838439D01*
X1164020Y-835800D01*
X1164880Y-832960D01*
X1165200Y-829800D01*
X1165200Y-667720D01*
X1165500Y-666180D01*
X1166380Y-664880D01*
X1167000Y-664260D01*
X1169220Y-661100D01*
X1170840Y-657580D01*
X1171840Y-653860D01*
X1172180Y-650000D01*
X1171840Y-646140D01*
X1170840Y-642420D01*
X1169220Y-638900D01*
X1167000Y-635740D01*
X1164260Y-633000D01*
X1161100Y-630780D01*
X1157580Y-629160D01*
X1153860Y-628160D01*
X1150000Y-627820D01*
X1146140Y-628160D01*
X1142420Y-629160D01*
X1138900Y-630780D01*
X1135740Y-633000D01*
X1133000Y-635740D01*
X1130780Y-638900D01*
X1129160Y-642420D01*
X1128160Y-646140D01*
X1127820Y-650000D01*
X1128160Y-653860D01*
X1129160Y-657580D01*
X1130780Y-661100D01*
X1133000Y-664260D01*
X1133620Y-664880D01*
X1134500Y-666180D01*
X1134800Y-667720D01*
X1134800Y-822039D01*
X1134500Y-823580D01*
X1133620Y-824880D01*
X989400Y-969120D01*
X987380Y-971560D01*
X985980Y-974200D01*
X985120Y-977039D01*
X984800Y-980200D01*
X984800Y-1162980D01*
X984560Y-1164320D01*
X983900Y-1165500D01*
X982880Y-1166400D01*
X978259Y-1169200D01*
X974280Y-1172460D01*
X970759Y-1176220D01*
X967800Y-1180420D01*
X965420Y-1184980D01*
X963700Y-1189840D01*
X962660Y-1194860D01*
X962300Y-1200000D01*
X962660Y-1205140D01*
X963700Y-1210160D01*
X965420Y-1215020D01*
X967800Y-1219580D01*
X970560Y-1223500D01*
X971220Y-1225100D01*
X971160Y-1226820D01*
X970360Y-1228360D01*
X968980Y-1229420D01*
X967280Y-1229800D01*
X942960Y-1229800D01*
X941420Y-1229500D01*
X940120Y-1228620D01*
X661380Y-949880D01*
X660500Y-948580D01*
X660200Y-947039D01*
X660200Y-450200D01*
X659880Y-447040D01*
X659020Y-444200D01*
X657620Y-441560D01*
X655600Y-439120D01*
X560880Y-344400D01*
X558440Y-342380D01*
X555800Y-340980D01*
X552960Y-340120D01*
X549800Y-339799D01*
X290820Y-339799D01*
X289380Y-339520D01*
X288120Y-338740D01*
X287240Y-337560D01*
X285680Y-334400D01*
X282680Y-329920D01*
X279120Y-325880D01*
X275080Y-322320D01*
X270600Y-319320D01*
X265760Y-316940D01*
X260660Y-315220D01*
X255380Y-314160D01*
X250000Y-313800D01*
X244620Y-314160D01*
X239340Y-315220D01*
X234240Y-316940D01*
X229400Y-319320D01*
X224920Y-322320D01*
X220880Y-325880D01*
X217320Y-329920D01*
X214320Y-334400D01*
X211940Y-339240D01*
X210219Y-344340D01*
X209160Y-349620D01*
X208800Y-355000D01*
X209160Y-360379D01*
X210219Y-365660D01*
X211940Y-370760D01*
X214320Y-375600D01*
X217320Y-380080D01*
X220880Y-384120D01*
X224920Y-387680D01*
X229400Y-390680D01*
X234240Y-393060D01*
X239340Y-394780D01*
X244620Y-395840D01*
X250000Y-396200D01*
X255380Y-395840D01*
X260660Y-394780D01*
X265760Y-393060D01*
X270600Y-390680D01*
X275080Y-387680D01*
X279120Y-384120D01*
X282680Y-380080D01*
X285680Y-375600D01*
X287240Y-372440D01*
X288120Y-371260D01*
X289380Y-370480D01*
X290820Y-370200D01*
X542040Y-370200D01*
X543580Y-370500D01*
X544880Y-371380D01*
X628620Y-455120D01*
X629500Y-456420D01*
X629800Y-457960D01*
X629800Y-954800D01*
X630120Y-957960D01*
X630980Y-960800D01*
X632380Y-963439D01*
X634400Y-965879D01*
X924120Y-1255600D01*
X926560Y-1257620D01*
X929200Y-1259020D01*
X932039Y-1259880D01*
X935200Y-1260200D01*
X978800Y-1260200D01*
X980480Y-1260560D01*
X981840Y-1261600D01*
X982660Y-1263120D01*
X982760Y-1264840D01*
X982120Y-1266440D01*
X980879Y-1267620D01*
X978259Y-1269200D01*
X974280Y-1272460D01*
X970759Y-1276220D01*
X967800Y-1280420D01*
X965420Y-1284980D01*
X963700Y-1289840D01*
X962660Y-1294860D01*
X962300Y-1300000D01*
X962660Y-1305140D01*
X963700Y-1310160D01*
X965420Y-1315020D01*
X967800Y-1319580D01*
X970759Y-1323779D01*
X974280Y-1327540D01*
X978259Y-1330800D01*
X982660Y-1333460D01*
X987380Y-1335520D01*
X992340Y-1336900D01*
X997420Y-1337600D01*
X1002580Y-1337600D01*
X1007660Y-1336900D01*
X1012620Y-1335520D01*
X1017340Y-1333460D01*
X1021740Y-1330800D01*
X1025720Y-1327540D01*
X1029240Y-1323779D01*
X1032200Y-1319580D01*
X1034580Y-1315020D01*
X1036300Y-1310160D01*
X1037340Y-1305140D01*
X1037700Y-1300000D01*
X1037340Y-1294860D01*
X1036300Y-1289840D01*
X1034580Y-1284980D01*
X1032200Y-1280420D01*
X1029240Y-1276220D01*
X1025720Y-1272460D01*
X1021740Y-1269200D01*
X1019120Y-1267620D01*
X1017880Y-1266440D01*
X1017240Y-1264840D01*
X1017340Y-1263120D01*
X1018160Y-1261600D01*
X1019520Y-1260560D01*
X1021200Y-1260200D01*
X1078800Y-1260200D01*
X1080480Y-1260560D01*
X1081840Y-1261600D01*
X1082660Y-1263120D01*
X1082760Y-1264840D01*
X1082120Y-1266440D01*
X1080880Y-1267620D01*
X1078260Y-1269200D01*
X1074280Y-1272460D01*
X1070760Y-1276220D01*
X1067800Y-1280420D01*
X1066060Y-1283760D01*
X1083760Y-1283760D01*
X1083760Y-1264200D01*
X1084060Y-1262660D01*
X1084920Y-1261380D01*
X1086220Y-1260500D01*
X1087740Y-1260200D01*
X1112260Y-1260200D01*
X1113780Y-1260500D01*
X1115080Y-1261380D01*
X1115940Y-1262660D01*
X1116260Y-1264200D01*
X1116260Y-1283760D01*
X1133940Y-1283760D01*
X1132200Y-1280420D01*
X1129240Y-1276220D01*
X1125720Y-1272460D01*
X1121740Y-1269200D01*
X1119120Y-1267620D01*
X1117880Y-1266440D01*
X1117240Y-1264840D01*
X1117340Y-1263120D01*
X1118160Y-1261600D01*
X1119520Y-1260560D01*
X1121200Y-1260200D01*
X1137040Y-1260200D01*
X1138580Y-1260500D01*
X1139880Y-1261380D01*
X1363140Y-1484620D01*
X1363980Y-1485860D01*
X1364300Y-1487320D01*
X1364079Y-1488800D01*
X1363700Y-1489840D01*
X1362660Y-1494860D01*
X1362300Y-1500000D01*
X1362660Y-1505140D01*
X1363700Y-1510160D01*
X1365420Y-1515020D01*
X1367800Y-1519580D01*
X1370760Y-1523779D01*
X1374280Y-1527540D01*
X1378260Y-1530800D01*
X1382660Y-1533460D01*
X1387380Y-1535520D01*
X1392340Y-1536900D01*
G37*
G36*
X1483760Y-1533940D02*
G01*
X1483760Y-1516260D01*
X1466060Y-1516260D01*
X1467800Y-1519580D01*
X1470760Y-1523779D01*
X1474280Y-1527540D01*
X1478260Y-1530800D01*
X1482660Y-1533460D01*
G37*
G36*
X1516260Y-1533940D02*
G01*
X1517340Y-1533460D01*
X1521740Y-1530800D01*
X1525720Y-1527540D01*
X1529240Y-1523779D01*
X1532200Y-1519580D01*
X1533940Y-1516260D01*
X1516260Y-1516260D01*
G37*
G36*
X1466060Y-1483760D02*
G01*
X1483760Y-1483760D01*
X1483760Y-1466060D01*
X1482660Y-1466540D01*
X1478260Y-1469199D01*
X1474280Y-1472460D01*
X1470760Y-1476220D01*
X1467800Y-1480420D01*
G37*
G36*
X1516260Y-1483760D02*
G01*
X1533940Y-1483760D01*
X1532200Y-1480420D01*
X1529240Y-1476220D01*
X1525720Y-1472460D01*
X1521740Y-1469199D01*
X1517340Y-1466540D01*
X1516260Y-1466060D01*
G37*
G36*
X1097420Y-1437600D02*
G01*
X1102580Y-1437600D01*
X1107660Y-1436900D01*
X1112620Y-1435520D01*
X1117340Y-1433460D01*
X1121740Y-1430800D01*
X1125720Y-1427540D01*
X1129240Y-1423779D01*
X1132200Y-1419580D01*
X1134580Y-1415020D01*
X1136300Y-1410160D01*
X1137340Y-1405140D01*
X1137700Y-1400000D01*
X1137340Y-1394860D01*
X1136300Y-1389840D01*
X1134580Y-1384980D01*
X1132200Y-1380420D01*
X1129240Y-1376220D01*
X1125720Y-1372460D01*
X1121740Y-1369199D01*
X1117340Y-1366540D01*
X1112620Y-1364480D01*
X1107660Y-1363100D01*
X1102580Y-1362400D01*
X1097420Y-1362400D01*
X1092340Y-1363100D01*
X1087380Y-1364480D01*
X1082660Y-1366540D01*
X1078260Y-1369199D01*
X1074280Y-1372460D01*
X1070760Y-1376220D01*
X1067800Y-1380420D01*
X1065420Y-1384980D01*
X1063700Y-1389840D01*
X1062660Y-1394860D01*
X1062300Y-1400000D01*
X1062660Y-1405140D01*
X1063700Y-1410160D01*
X1065420Y-1415020D01*
X1067800Y-1419580D01*
X1070760Y-1423779D01*
X1074280Y-1427540D01*
X1078260Y-1430800D01*
X1082660Y-1433460D01*
X1087380Y-1435520D01*
X1092340Y-1436900D01*
G37*
G36*
X997420Y-1437600D02*
G01*
X1002580Y-1437600D01*
X1007660Y-1436900D01*
X1012620Y-1435520D01*
X1017340Y-1433460D01*
X1021740Y-1430800D01*
X1025720Y-1427540D01*
X1029240Y-1423779D01*
X1032200Y-1419580D01*
X1034580Y-1415020D01*
X1036300Y-1410160D01*
X1037340Y-1405140D01*
X1037700Y-1400000D01*
X1037340Y-1394860D01*
X1036300Y-1389840D01*
X1034580Y-1384980D01*
X1032200Y-1380420D01*
X1029240Y-1376220D01*
X1025720Y-1372460D01*
X1021740Y-1369199D01*
X1017340Y-1366540D01*
X1012620Y-1364480D01*
X1007660Y-1363100D01*
X1002580Y-1362400D01*
X997420Y-1362400D01*
X992340Y-1363100D01*
X987380Y-1364480D01*
X982660Y-1366540D01*
X978259Y-1369199D01*
X974280Y-1372460D01*
X970759Y-1376220D01*
X967620Y-1380660D01*
X966740Y-1381579D01*
X965620Y-1382160D01*
X964360Y-1382360D01*
X876460Y-1382360D01*
X874860Y-1382020D01*
X873520Y-1381080D01*
X872680Y-1379680D01*
X871880Y-1377400D01*
X870680Y-1375460D01*
X869060Y-1373860D01*
X868319Y-1373380D01*
X867159Y-1372280D01*
X866520Y-1370800D01*
X866520Y-1369199D01*
X867159Y-1367720D01*
X868319Y-1366620D01*
X869060Y-1366140D01*
X870680Y-1364540D01*
X871880Y-1362600D01*
X872640Y-1360460D01*
X872920Y-1357960D01*
X872920Y-1352820D01*
X856360Y-1352820D01*
X856360Y-1367620D01*
X856060Y-1369139D01*
X855180Y-1370440D01*
X853880Y-1371300D01*
X852360Y-1371620D01*
X837640Y-1371620D01*
X836120Y-1371300D01*
X834820Y-1370440D01*
X833940Y-1369139D01*
X833640Y-1367620D01*
X833640Y-1352820D01*
X817080Y-1352820D01*
X817080Y-1357960D01*
X817360Y-1360460D01*
X818120Y-1362600D01*
X819320Y-1364540D01*
X820939Y-1366140D01*
X821680Y-1366620D01*
X822840Y-1367720D01*
X823480Y-1369199D01*
X823480Y-1370800D01*
X822840Y-1372280D01*
X821680Y-1373380D01*
X820939Y-1373860D01*
X819320Y-1375460D01*
X818120Y-1377400D01*
X817360Y-1379540D01*
X817080Y-1382040D01*
X817080Y-1413080D01*
X817360Y-1415580D01*
X818120Y-1417720D01*
X819320Y-1419640D01*
X820939Y-1421260D01*
X822860Y-1422480D01*
X825020Y-1423220D01*
X827500Y-1423500D01*
X862500Y-1423500D01*
X864980Y-1423220D01*
X867140Y-1422480D01*
X869060Y-1421260D01*
X870680Y-1419640D01*
X871880Y-1417720D01*
X872680Y-1415440D01*
X873520Y-1414040D01*
X874860Y-1413100D01*
X876460Y-1412760D01*
X961820Y-1412760D01*
X963259Y-1413020D01*
X964500Y-1413779D01*
X965380Y-1414920D01*
X967800Y-1419580D01*
X970759Y-1423779D01*
X974280Y-1427540D01*
X978259Y-1430800D01*
X982660Y-1433460D01*
X987380Y-1435520D01*
X992340Y-1436900D01*
G37*
G36*
X1416260Y-1433940D02*
G01*
X1417340Y-1433460D01*
X1421740Y-1430800D01*
X1425720Y-1427540D01*
X1429240Y-1423779D01*
X1432200Y-1419580D01*
X1433940Y-1416260D01*
X1416260Y-1416260D01*
G37*
G36*
X1383760Y-1433940D02*
G01*
X1383760Y-1416260D01*
X1366060Y-1416260D01*
X1367800Y-1419580D01*
X1370760Y-1423779D01*
X1374280Y-1427540D01*
X1378260Y-1430800D01*
X1382660Y-1433460D01*
G37*
G36*
X1366060Y-1383760D02*
G01*
X1383760Y-1383760D01*
X1383760Y-1366060D01*
X1382660Y-1366540D01*
X1378260Y-1369199D01*
X1374280Y-1372460D01*
X1370760Y-1376220D01*
X1367800Y-1380420D01*
G37*
G36*
X1416260Y-1383760D02*
G01*
X1433940Y-1383760D01*
X1432200Y-1380420D01*
X1429240Y-1376220D01*
X1425720Y-1372460D01*
X1421740Y-1369199D01*
X1417340Y-1366540D01*
X1416260Y-1366060D01*
G37*
G36*
X1116260Y-1333940D02*
G01*
X1117340Y-1333460D01*
X1121740Y-1330800D01*
X1125720Y-1327540D01*
X1129240Y-1323779D01*
X1132200Y-1319580D01*
X1133940Y-1316260D01*
X1116260Y-1316260D01*
G37*
G36*
X1083760Y-1333940D02*
G01*
X1083760Y-1316260D01*
X1066060Y-1316260D01*
X1067800Y-1319580D01*
X1070760Y-1323779D01*
X1074280Y-1327540D01*
X1078260Y-1330800D01*
X1082660Y-1333460D01*
G37*
G36*
X856360Y-1332080D02*
G01*
X872920Y-1332080D01*
X872920Y-1326920D01*
X872640Y-1324440D01*
X871880Y-1322280D01*
X870680Y-1320360D01*
X869060Y-1318740D01*
X867140Y-1317520D01*
X864980Y-1316780D01*
X862500Y-1316500D01*
X856360Y-1316500D01*
G37*
G36*
X817080Y-1332080D02*
G01*
X833640Y-1332080D01*
X833640Y-1316500D01*
X827500Y-1316500D01*
X825020Y-1316780D01*
X822860Y-1317520D01*
X820939Y-1318740D01*
X819320Y-1320360D01*
X818120Y-1322280D01*
X817360Y-1324440D01*
X817080Y-1326920D01*
G37*
G36*
X1272720Y-1237700D02*
G01*
X1327280Y-1237700D01*
X1329760Y-1237420D01*
X1331920Y-1236660D01*
X1333839Y-1235460D01*
X1335460Y-1233840D01*
X1336660Y-1231920D01*
X1337420Y-1229760D01*
X1337700Y-1227280D01*
X1337700Y-1172720D01*
X1337420Y-1170240D01*
X1336660Y-1168080D01*
X1335460Y-1166160D01*
X1333839Y-1164540D01*
X1331920Y-1163340D01*
X1329760Y-1162580D01*
X1327280Y-1162300D01*
X1272720Y-1162300D01*
X1270240Y-1162580D01*
X1268080Y-1163340D01*
X1266160Y-1164540D01*
X1264540Y-1166160D01*
X1263340Y-1168080D01*
X1262580Y-1170240D01*
X1262300Y-1172720D01*
X1262300Y-1227280D01*
X1262580Y-1229760D01*
X1263340Y-1231920D01*
X1264540Y-1233840D01*
X1266160Y-1235460D01*
X1268080Y-1236660D01*
X1270240Y-1237420D01*
G37*
G36*
X1197420Y-1237600D02*
G01*
X1202580Y-1237600D01*
X1207660Y-1236900D01*
X1212620Y-1235520D01*
X1217340Y-1233460D01*
X1221740Y-1230800D01*
X1225720Y-1227540D01*
X1229240Y-1223780D01*
X1232200Y-1219580D01*
X1234580Y-1215020D01*
X1236300Y-1210160D01*
X1237340Y-1205140D01*
X1237700Y-1200000D01*
X1237340Y-1194860D01*
X1236300Y-1189840D01*
X1234580Y-1184980D01*
X1232200Y-1180420D01*
X1229240Y-1176220D01*
X1225720Y-1172460D01*
X1221740Y-1169200D01*
X1217340Y-1166540D01*
X1212620Y-1164480D01*
X1207660Y-1163100D01*
X1202580Y-1162400D01*
X1197420Y-1162400D01*
X1192340Y-1163100D01*
X1187380Y-1164480D01*
X1182660Y-1166540D01*
X1178260Y-1169200D01*
X1174280Y-1172460D01*
X1170760Y-1176220D01*
X1167800Y-1180420D01*
X1165420Y-1184980D01*
X1163700Y-1189840D01*
X1162660Y-1194860D01*
X1162300Y-1200000D01*
X1162660Y-1205140D01*
X1163700Y-1210160D01*
X1165420Y-1215020D01*
X1167800Y-1219580D01*
X1170760Y-1223780D01*
X1174280Y-1227540D01*
X1178260Y-1230800D01*
X1182660Y-1233460D01*
X1187380Y-1235520D01*
X1192340Y-1236900D01*
G37*
G36*
X1397420Y-1237600D02*
G01*
X1402580Y-1237600D01*
X1407660Y-1236900D01*
X1412620Y-1235520D01*
X1417340Y-1233460D01*
X1421740Y-1230800D01*
X1425720Y-1227540D01*
X1429240Y-1223780D01*
X1432200Y-1219580D01*
X1434580Y-1215020D01*
X1436300Y-1210160D01*
X1437340Y-1205140D01*
X1437700Y-1200000D01*
X1437340Y-1194860D01*
X1436300Y-1189840D01*
X1434580Y-1184980D01*
X1432200Y-1180420D01*
X1429240Y-1176220D01*
X1425720Y-1172460D01*
X1421740Y-1169200D01*
X1417340Y-1166540D01*
X1412620Y-1164480D01*
X1407660Y-1163100D01*
X1402580Y-1162400D01*
X1397420Y-1162400D01*
X1392340Y-1163100D01*
X1387380Y-1164480D01*
X1382660Y-1166540D01*
X1378260Y-1169200D01*
X1374280Y-1172460D01*
X1370760Y-1176220D01*
X1367800Y-1180420D01*
X1365420Y-1184980D01*
X1363700Y-1189840D01*
X1362660Y-1194860D01*
X1362300Y-1200000D01*
X1362660Y-1205140D01*
X1363700Y-1210160D01*
X1365420Y-1215020D01*
X1367800Y-1219580D01*
X1370760Y-1223780D01*
X1374280Y-1227540D01*
X1378260Y-1230800D01*
X1382660Y-1233460D01*
X1387380Y-1235520D01*
X1392340Y-1236900D01*
G37*
G36*
X1497420Y-1237600D02*
G01*
X1502580Y-1237600D01*
X1507660Y-1236900D01*
X1512620Y-1235520D01*
X1517340Y-1233460D01*
X1521740Y-1230800D01*
X1525720Y-1227540D01*
X1529240Y-1223780D01*
X1532200Y-1219580D01*
X1534580Y-1215020D01*
X1536300Y-1210160D01*
X1537340Y-1205140D01*
X1537700Y-1200000D01*
X1537340Y-1194860D01*
X1536300Y-1189840D01*
X1534580Y-1184980D01*
X1532200Y-1180420D01*
X1529240Y-1176220D01*
X1525720Y-1172460D01*
X1521740Y-1169200D01*
X1517340Y-1166540D01*
X1512620Y-1164480D01*
X1507660Y-1163100D01*
X1502580Y-1162400D01*
X1497420Y-1162400D01*
X1492340Y-1163100D01*
X1487380Y-1164480D01*
X1482660Y-1166540D01*
X1478260Y-1169200D01*
X1474280Y-1172460D01*
X1470760Y-1176220D01*
X1467800Y-1180420D01*
X1465420Y-1184980D01*
X1463700Y-1189840D01*
X1462660Y-1194860D01*
X1462300Y-1200000D01*
X1462660Y-1205140D01*
X1463700Y-1210160D01*
X1465420Y-1215020D01*
X1467800Y-1219580D01*
X1470760Y-1223780D01*
X1474280Y-1227540D01*
X1478260Y-1230800D01*
X1482660Y-1233460D01*
X1487380Y-1235520D01*
X1492340Y-1236900D01*
G37*
G36*
X1066060Y-1183760D02*
G01*
X1083760Y-1183760D01*
X1083760Y-1166060D01*
X1082660Y-1166540D01*
X1078260Y-1169200D01*
X1074280Y-1172460D01*
X1070760Y-1176220D01*
X1067800Y-1180420D01*
G37*
G36*
X1116260Y-1183760D02*
G01*
X1133940Y-1183760D01*
X1132200Y-1180420D01*
X1129240Y-1176220D01*
X1125720Y-1172460D01*
X1121740Y-1169200D01*
X1117340Y-1166540D01*
X1116260Y-1166060D01*
G37*
G36*
X1197420Y-1137600D02*
G01*
X1202580Y-1137600D01*
X1207660Y-1136900D01*
X1212620Y-1135520D01*
X1217340Y-1133460D01*
X1221740Y-1130800D01*
X1225720Y-1127540D01*
X1229240Y-1123780D01*
X1232200Y-1119580D01*
X1234580Y-1115020D01*
X1236300Y-1110160D01*
X1237340Y-1105140D01*
X1237700Y-1100000D01*
X1237340Y-1094860D01*
X1236300Y-1089840D01*
X1234580Y-1084980D01*
X1232200Y-1080420D01*
X1229240Y-1076220D01*
X1225720Y-1072460D01*
X1221740Y-1069200D01*
X1217340Y-1066540D01*
X1212620Y-1064480D01*
X1207660Y-1063100D01*
X1202580Y-1062400D01*
X1197420Y-1062400D01*
X1192340Y-1063100D01*
X1187380Y-1064480D01*
X1182660Y-1066540D01*
X1178260Y-1069200D01*
X1174280Y-1072460D01*
X1170760Y-1076220D01*
X1167800Y-1080420D01*
X1165420Y-1084980D01*
X1163700Y-1089840D01*
X1162660Y-1094860D01*
X1162300Y-1100000D01*
X1162660Y-1105140D01*
X1163700Y-1110160D01*
X1165420Y-1115020D01*
X1167800Y-1119580D01*
X1170760Y-1123780D01*
X1174280Y-1127540D01*
X1178260Y-1130800D01*
X1182660Y-1133460D01*
X1187380Y-1135520D01*
X1192340Y-1136900D01*
G37*
G36*
X1097420Y-1137600D02*
G01*
X1102580Y-1137600D01*
X1107660Y-1136900D01*
X1112620Y-1135520D01*
X1117340Y-1133460D01*
X1121740Y-1130800D01*
X1125720Y-1127540D01*
X1129240Y-1123780D01*
X1132200Y-1119580D01*
X1134580Y-1115020D01*
X1136300Y-1110160D01*
X1137340Y-1105140D01*
X1137700Y-1100000D01*
X1137340Y-1094860D01*
X1136300Y-1089840D01*
X1134580Y-1084980D01*
X1132200Y-1080420D01*
X1129240Y-1076220D01*
X1125720Y-1072460D01*
X1121740Y-1069200D01*
X1117340Y-1066540D01*
X1112620Y-1064480D01*
X1107660Y-1063100D01*
X1102580Y-1062400D01*
X1097420Y-1062400D01*
X1092340Y-1063100D01*
X1087380Y-1064480D01*
X1082660Y-1066540D01*
X1078260Y-1069200D01*
X1074280Y-1072460D01*
X1070760Y-1076220D01*
X1067800Y-1080420D01*
X1065420Y-1084980D01*
X1063700Y-1089840D01*
X1062660Y-1094860D01*
X1062300Y-1100000D01*
X1062660Y-1105140D01*
X1063700Y-1110160D01*
X1065420Y-1115020D01*
X1067800Y-1119580D01*
X1070760Y-1123780D01*
X1074280Y-1127540D01*
X1078260Y-1130800D01*
X1082660Y-1133460D01*
X1087380Y-1135520D01*
X1092340Y-1136900D01*
G37*
G36*
X1297420Y-1137600D02*
G01*
X1302580Y-1137600D01*
X1307660Y-1136900D01*
X1312620Y-1135520D01*
X1317340Y-1133460D01*
X1321740Y-1130800D01*
X1325720Y-1127540D01*
X1329240Y-1123780D01*
X1332200Y-1119580D01*
X1334580Y-1115020D01*
X1336300Y-1110160D01*
X1337340Y-1105140D01*
X1337700Y-1100000D01*
X1337340Y-1094860D01*
X1336300Y-1089840D01*
X1334580Y-1084980D01*
X1332200Y-1080420D01*
X1329240Y-1076220D01*
X1325720Y-1072460D01*
X1321740Y-1069200D01*
X1317340Y-1066540D01*
X1312620Y-1064480D01*
X1307660Y-1063100D01*
X1302580Y-1062400D01*
X1297420Y-1062400D01*
X1292340Y-1063100D01*
X1287380Y-1064480D01*
X1282660Y-1066540D01*
X1278260Y-1069200D01*
X1274280Y-1072460D01*
X1270760Y-1076220D01*
X1267800Y-1080420D01*
X1265420Y-1084980D01*
X1263700Y-1089840D01*
X1262660Y-1094860D01*
X1262300Y-1100000D01*
X1262660Y-1105140D01*
X1263700Y-1110160D01*
X1265420Y-1115020D01*
X1267800Y-1119580D01*
X1270760Y-1123780D01*
X1274280Y-1127540D01*
X1278260Y-1130800D01*
X1282660Y-1133460D01*
X1287380Y-1135520D01*
X1292340Y-1136900D01*
G37*
G36*
X1397420Y-1137600D02*
G01*
X1402580Y-1137600D01*
X1407660Y-1136900D01*
X1412620Y-1135520D01*
X1417340Y-1133460D01*
X1421740Y-1130800D01*
X1425720Y-1127540D01*
X1429240Y-1123780D01*
X1432200Y-1119580D01*
X1434580Y-1115020D01*
X1436300Y-1110160D01*
X1437340Y-1105140D01*
X1437700Y-1100000D01*
X1437340Y-1094860D01*
X1436300Y-1089840D01*
X1434580Y-1084980D01*
X1432200Y-1080420D01*
X1429240Y-1076220D01*
X1425720Y-1072460D01*
X1421740Y-1069200D01*
X1417340Y-1066540D01*
X1412620Y-1064480D01*
X1407660Y-1063100D01*
X1402580Y-1062400D01*
X1397420Y-1062400D01*
X1392340Y-1063100D01*
X1387380Y-1064480D01*
X1382660Y-1066540D01*
X1378260Y-1069200D01*
X1374280Y-1072460D01*
X1370760Y-1076220D01*
X1367800Y-1080420D01*
X1365420Y-1084980D01*
X1363700Y-1089840D01*
X1362660Y-1094860D01*
X1362300Y-1100000D01*
X1362660Y-1105140D01*
X1363700Y-1110160D01*
X1365420Y-1115020D01*
X1367800Y-1119580D01*
X1370760Y-1123780D01*
X1374280Y-1127540D01*
X1378260Y-1130800D01*
X1382660Y-1133460D01*
X1387380Y-1135520D01*
X1392340Y-1136900D01*
G37*
G36*
X250000Y-1096200D02*
G01*
X255380Y-1095840D01*
X260660Y-1094780D01*
X265760Y-1093060D01*
X270600Y-1090680D01*
X275080Y-1087680D01*
X279120Y-1084120D01*
X282680Y-1080080D01*
X285680Y-1075600D01*
X288060Y-1070760D01*
X289780Y-1065660D01*
X290840Y-1060380D01*
X291200Y-1055000D01*
X290840Y-1049620D01*
X289780Y-1044340D01*
X288060Y-1039240D01*
X285680Y-1034400D01*
X282680Y-1029920D01*
X279120Y-1025879D01*
X275080Y-1022320D01*
X270600Y-1019320D01*
X265760Y-1016940D01*
X260660Y-1015220D01*
X255380Y-1014160D01*
X250000Y-1013800D01*
X244620Y-1014160D01*
X239340Y-1015220D01*
X234240Y-1016940D01*
X229400Y-1019320D01*
X224920Y-1022320D01*
X220880Y-1025879D01*
X217320Y-1029920D01*
X214320Y-1034400D01*
X211940Y-1039240D01*
X210219Y-1044340D01*
X209160Y-1049620D01*
X208800Y-1055000D01*
X209160Y-1060380D01*
X210219Y-1065660D01*
X211940Y-1070760D01*
X214320Y-1075600D01*
X217320Y-1080080D01*
X220880Y-1084120D01*
X224920Y-1087680D01*
X229400Y-1090680D01*
X234240Y-1093060D01*
X239340Y-1094780D01*
X244620Y-1095840D01*
G37*
G36*
X250000Y-996200D02*
G01*
X255380Y-995840D01*
X260660Y-994780D01*
X265760Y-993060D01*
X270600Y-990680D01*
X275080Y-987680D01*
X279120Y-984120D01*
X282680Y-980080D01*
X285680Y-975600D01*
X288060Y-970759D01*
X289780Y-965660D01*
X290840Y-960380D01*
X291200Y-955000D01*
X290840Y-949620D01*
X289780Y-944340D01*
X288060Y-939240D01*
X285680Y-934400D01*
X282680Y-929920D01*
X279120Y-925879D01*
X275080Y-922320D01*
X270600Y-919320D01*
X265760Y-916940D01*
X260660Y-915220D01*
X255380Y-914160D01*
X250000Y-913800D01*
X244620Y-914160D01*
X239340Y-915220D01*
X234240Y-916940D01*
X229400Y-919320D01*
X224920Y-922320D01*
X220880Y-925879D01*
X217320Y-929920D01*
X214320Y-934400D01*
X211940Y-939240D01*
X210219Y-944340D01*
X209160Y-949620D01*
X208800Y-955000D01*
X209160Y-960380D01*
X210219Y-965660D01*
X211940Y-970759D01*
X214320Y-975600D01*
X217320Y-980080D01*
X220880Y-984120D01*
X224920Y-987680D01*
X229400Y-990680D01*
X234240Y-993060D01*
X239340Y-994780D01*
X244620Y-995840D01*
G37*
G36*
X150000Y-896200D02*
G01*
X155380Y-895840D01*
X160660Y-894780D01*
X165760Y-893060D01*
X170600Y-890680D01*
X175080Y-887680D01*
X179120Y-884120D01*
X182680Y-880080D01*
X185680Y-875600D01*
X188060Y-870759D01*
X189780Y-865660D01*
X190840Y-860380D01*
X191200Y-855000D01*
X190840Y-849620D01*
X189780Y-844340D01*
X188060Y-839240D01*
X185680Y-834400D01*
X182680Y-829920D01*
X179120Y-825879D01*
X175080Y-822320D01*
X170600Y-819320D01*
X165760Y-816940D01*
X160660Y-815220D01*
X155380Y-814160D01*
X150000Y-813800D01*
X144620Y-814160D01*
X139340Y-815220D01*
X134240Y-816940D01*
X129400Y-819320D01*
X124920Y-822320D01*
X120879Y-825879D01*
X117320Y-829920D01*
X114320Y-834400D01*
X111940Y-839240D01*
X110220Y-844340D01*
X109160Y-849620D01*
X108800Y-855000D01*
X109160Y-860380D01*
X110220Y-865660D01*
X111940Y-870759D01*
X114320Y-875600D01*
X117320Y-880080D01*
X120879Y-884120D01*
X124920Y-887680D01*
X129400Y-890680D01*
X134240Y-893060D01*
X139340Y-894780D01*
X144620Y-895840D01*
G37*
G36*
X250000Y-896200D02*
G01*
X255380Y-895840D01*
X260660Y-894780D01*
X265760Y-893060D01*
X270600Y-890680D01*
X275080Y-887680D01*
X279120Y-884120D01*
X282680Y-880080D01*
X285680Y-875600D01*
X288060Y-870759D01*
X289780Y-865660D01*
X290840Y-860380D01*
X291200Y-855000D01*
X290840Y-849620D01*
X289780Y-844340D01*
X288060Y-839240D01*
X285680Y-834400D01*
X282680Y-829920D01*
X279120Y-825879D01*
X275080Y-822320D01*
X270600Y-819320D01*
X265760Y-816940D01*
X260660Y-815220D01*
X255380Y-814160D01*
X250000Y-813800D01*
X244620Y-814160D01*
X239340Y-815220D01*
X234240Y-816940D01*
X229400Y-819320D01*
X224920Y-822320D01*
X220880Y-825879D01*
X217320Y-829920D01*
X214320Y-834400D01*
X211940Y-839240D01*
X210219Y-844340D01*
X209160Y-849620D01*
X208800Y-855000D01*
X209160Y-860380D01*
X210219Y-865660D01*
X211940Y-870759D01*
X214320Y-875600D01*
X217320Y-880080D01*
X220880Y-884120D01*
X224920Y-887680D01*
X229400Y-890680D01*
X234240Y-893060D01*
X239340Y-894780D01*
X244620Y-895840D01*
G37*
G36*
X1468839Y-880620D02*
G01*
X1472800Y-878439D01*
X1476680Y-875560D01*
X1480080Y-872140D01*
X1482980Y-868280D01*
X1485140Y-864320D01*
X1468839Y-864320D01*
G37*
G36*
X800000Y-849560D02*
G01*
X805980Y-849200D01*
X811860Y-848120D01*
X817580Y-846340D01*
X823040Y-843880D01*
X828160Y-840780D01*
X832860Y-837099D01*
X837099Y-832860D01*
X840780Y-828160D01*
X843880Y-823040D01*
X846340Y-817580D01*
X848120Y-811860D01*
X849200Y-805980D01*
X849560Y-800000D01*
X849200Y-794020D01*
X848120Y-788139D01*
X846340Y-782420D01*
X845220Y-779920D01*
X844860Y-778360D01*
X845160Y-776800D01*
X846040Y-775460D01*
X905120Y-716380D01*
X906420Y-715500D01*
X907960Y-715200D01*
X950980Y-715200D01*
X952420Y-715480D01*
X953680Y-716260D01*
X954560Y-717440D01*
X955759Y-719860D01*
X958640Y-724180D01*
X962080Y-728080D01*
X965980Y-731520D01*
X970300Y-734400D01*
X974960Y-736700D01*
X979880Y-738360D01*
X984980Y-739380D01*
X990280Y-739720D01*
X1009720Y-739720D01*
X1015020Y-739380D01*
X1020120Y-738360D01*
X1025040Y-736700D01*
X1029700Y-734400D01*
X1034020Y-731520D01*
X1037920Y-728080D01*
X1041360Y-724180D01*
X1044240Y-719860D01*
X1046540Y-715200D01*
X1048199Y-710280D01*
X1049220Y-705180D01*
X1049560Y-700000D01*
X1049220Y-694820D01*
X1048199Y-689720D01*
X1046540Y-684800D01*
X1044240Y-680140D01*
X1041360Y-675819D01*
X1037920Y-671919D01*
X1034020Y-668480D01*
X1029700Y-665600D01*
X1025040Y-663300D01*
X1020120Y-661640D01*
X1015020Y-660620D01*
X1009720Y-660280D01*
X990280Y-660280D01*
X984980Y-660620D01*
X979880Y-661640D01*
X974960Y-663300D01*
X970300Y-665600D01*
X965980Y-668480D01*
X962080Y-671919D01*
X958640Y-675819D01*
X955759Y-680140D01*
X954560Y-682560D01*
X953680Y-683740D01*
X952420Y-684520D01*
X950980Y-684800D01*
X900200Y-684800D01*
X897039Y-685120D01*
X894200Y-685980D01*
X891560Y-687380D01*
X889120Y-689400D01*
X824539Y-753960D01*
X823199Y-754840D01*
X821640Y-755140D01*
X820080Y-754780D01*
X817560Y-753660D01*
X816320Y-752780D01*
X815480Y-751500D01*
X815200Y-750000D01*
X815200Y-419200D01*
X815500Y-417660D01*
X816380Y-416380D01*
X817660Y-415500D01*
X819200Y-415200D01*
X950980Y-415200D01*
X952420Y-415480D01*
X953680Y-416260D01*
X954560Y-417440D01*
X955759Y-419860D01*
X958640Y-424180D01*
X962080Y-428080D01*
X965980Y-431520D01*
X970300Y-434400D01*
X974960Y-436700D01*
X979880Y-438360D01*
X984980Y-439380D01*
X990280Y-439720D01*
X1009720Y-439720D01*
X1015020Y-439380D01*
X1020120Y-438360D01*
X1025040Y-436700D01*
X1029700Y-434400D01*
X1034020Y-431520D01*
X1037920Y-428080D01*
X1041360Y-424180D01*
X1044240Y-419860D01*
X1046540Y-415200D01*
X1048199Y-410280D01*
X1049220Y-405180D01*
X1049560Y-400000D01*
X1049220Y-394820D01*
X1048199Y-389720D01*
X1046540Y-384799D01*
X1044240Y-380140D01*
X1041360Y-375820D01*
X1037920Y-371920D01*
X1034020Y-368480D01*
X1029700Y-365600D01*
X1025040Y-363300D01*
X1020120Y-361640D01*
X1015020Y-360620D01*
X1009720Y-360280D01*
X990280Y-360280D01*
X984980Y-360620D01*
X979880Y-361640D01*
X974960Y-363300D01*
X970300Y-365600D01*
X965980Y-368480D01*
X962080Y-371920D01*
X958640Y-375820D01*
X955759Y-380140D01*
X954560Y-382560D01*
X953680Y-383740D01*
X952420Y-384520D01*
X950980Y-384799D01*
X846360Y-384799D01*
X844820Y-384500D01*
X843520Y-383620D01*
X842660Y-382340D01*
X842360Y-380800D01*
X842660Y-379260D01*
X843520Y-377980D01*
X980600Y-240900D01*
X981900Y-240040D01*
X983420Y-239720D01*
X1039140Y-239720D01*
X1041640Y-239440D01*
X1043780Y-238700D01*
X1045720Y-237480D01*
X1047320Y-235880D01*
X1048540Y-233939D01*
X1049280Y-231800D01*
X1049580Y-229300D01*
X1049580Y-170700D01*
X1049280Y-168200D01*
X1048540Y-166060D01*
X1047320Y-164120D01*
X1045720Y-162520D01*
X1043780Y-161300D01*
X1041640Y-160560D01*
X1039140Y-160280D01*
X960860Y-160280D01*
X958360Y-160560D01*
X956220Y-161300D01*
X954280Y-162520D01*
X952680Y-164120D01*
X951460Y-166060D01*
X950720Y-168200D01*
X950420Y-170700D01*
X950420Y-226420D01*
X950120Y-227940D01*
X949260Y-229240D01*
X789400Y-389120D01*
X787380Y-391560D01*
X785980Y-394200D01*
X785120Y-397040D01*
X784800Y-400200D01*
X784800Y-750000D01*
X784520Y-751500D01*
X783680Y-752780D01*
X782440Y-753660D01*
X776960Y-756120D01*
X771840Y-759220D01*
X767140Y-762900D01*
X762900Y-767140D01*
X759220Y-771840D01*
X756120Y-776960D01*
X753660Y-782420D01*
X751880Y-788139D01*
X750800Y-794020D01*
X750440Y-800000D01*
X750800Y-805980D01*
X751880Y-811860D01*
X753660Y-817580D01*
X756120Y-823040D01*
X759220Y-828160D01*
X762900Y-832860D01*
X767140Y-837099D01*
X771840Y-840780D01*
X776960Y-843880D01*
X782420Y-846340D01*
X788139Y-848120D01*
X794020Y-849200D01*
G37*
G36*
X522180Y-844260D02*
G01*
X523040Y-843880D01*
X528160Y-840780D01*
X532860Y-837099D01*
X537100Y-832860D01*
X540780Y-828160D01*
X543880Y-823040D01*
X544260Y-822180D01*
X522180Y-822180D01*
G37*
G36*
X477819Y-844260D02*
G01*
X477819Y-822180D01*
X455740Y-822180D01*
X456120Y-823040D01*
X459219Y-828160D01*
X462900Y-832860D01*
X467140Y-837099D01*
X471840Y-840780D01*
X476960Y-843880D01*
G37*
G36*
X1290280Y-839720D02*
G01*
X1309720Y-839720D01*
X1315020Y-839380D01*
X1320120Y-838360D01*
X1325040Y-836700D01*
X1329700Y-834400D01*
X1334019Y-831520D01*
X1337920Y-828080D01*
X1341360Y-824180D01*
X1344240Y-819860D01*
X1346540Y-815200D01*
X1348200Y-810280D01*
X1349220Y-805180D01*
X1349560Y-800000D01*
X1349220Y-794820D01*
X1348200Y-789720D01*
X1346540Y-784800D01*
X1344240Y-780140D01*
X1341360Y-775819D01*
X1337920Y-771919D01*
X1334019Y-768480D01*
X1329700Y-765600D01*
X1325040Y-763300D01*
X1320120Y-761640D01*
X1315020Y-760620D01*
X1309720Y-760280D01*
X1290280Y-760280D01*
X1284980Y-760620D01*
X1279880Y-761640D01*
X1274960Y-763300D01*
X1270300Y-765600D01*
X1265980Y-768480D01*
X1262080Y-771919D01*
X1258640Y-775819D01*
X1255760Y-780140D01*
X1253460Y-784800D01*
X1251800Y-789720D01*
X1250780Y-794820D01*
X1250440Y-800000D01*
X1250780Y-805180D01*
X1251800Y-810280D01*
X1253460Y-815200D01*
X1255760Y-819860D01*
X1258640Y-824180D01*
X1262080Y-828080D01*
X1265980Y-831520D01*
X1270300Y-834400D01*
X1274960Y-836700D01*
X1279880Y-838360D01*
X1284980Y-839380D01*
G37*
G36*
X1022180Y-837660D02*
G01*
X1025040Y-836700D01*
X1029700Y-834400D01*
X1034020Y-831520D01*
X1037920Y-828080D01*
X1041360Y-824180D01*
X1044240Y-819860D01*
X1045520Y-817260D01*
X1022180Y-817260D01*
G37*
G36*
X977820Y-837660D02*
G01*
X977820Y-817260D01*
X954479Y-817260D01*
X955759Y-819860D01*
X958640Y-824180D01*
X962080Y-828080D01*
X965980Y-831520D01*
X970300Y-834400D01*
X974960Y-836700D01*
G37*
G36*
X1468839Y-835680D02*
G01*
X1485140Y-835680D01*
X1482980Y-831720D01*
X1480080Y-827860D01*
X1476680Y-824440D01*
X1472800Y-821560D01*
X1468839Y-819380D01*
G37*
G36*
X250000Y-796200D02*
G01*
X255380Y-795840D01*
X260660Y-794780D01*
X265760Y-793060D01*
X270600Y-790680D01*
X275080Y-787680D01*
X279120Y-784120D01*
X282680Y-780080D01*
X285680Y-775600D01*
X288060Y-770759D01*
X289780Y-765660D01*
X290840Y-760380D01*
X291200Y-755000D01*
X290840Y-749620D01*
X289780Y-744340D01*
X288060Y-739240D01*
X285680Y-734400D01*
X282680Y-729920D01*
X279120Y-725879D01*
X275080Y-722320D01*
X270600Y-719320D01*
X265760Y-716940D01*
X260660Y-715220D01*
X255380Y-714160D01*
X250000Y-713800D01*
X244620Y-714160D01*
X239340Y-715220D01*
X234240Y-716940D01*
X229400Y-719320D01*
X224920Y-722320D01*
X220880Y-725879D01*
X217320Y-729920D01*
X214320Y-734400D01*
X211940Y-739240D01*
X210219Y-744340D01*
X209160Y-749620D01*
X208800Y-755000D01*
X209160Y-760380D01*
X210219Y-765660D01*
X211940Y-770759D01*
X214320Y-775600D01*
X217320Y-780080D01*
X220880Y-784120D01*
X224920Y-787680D01*
X229400Y-790680D01*
X234240Y-793060D01*
X239340Y-794780D01*
X244620Y-795840D01*
G37*
G36*
X132000Y-791960D02*
G01*
X132000Y-773000D01*
X113040Y-773000D01*
X114320Y-775600D01*
X117320Y-780080D01*
X120879Y-784120D01*
X124920Y-787680D01*
X129400Y-790680D01*
G37*
G36*
X168000Y-791960D02*
G01*
X170600Y-790680D01*
X175080Y-787680D01*
X179120Y-784120D01*
X182680Y-780080D01*
X185680Y-775600D01*
X186960Y-773000D01*
X168000Y-773000D01*
G37*
G36*
X954479Y-782740D02*
G01*
X977820Y-782740D01*
X977820Y-762340D01*
X974960Y-763300D01*
X970300Y-765600D01*
X965980Y-768480D01*
X962080Y-771919D01*
X958640Y-775819D01*
X955759Y-780140D01*
G37*
G36*
X1022180Y-782740D02*
G01*
X1045520Y-782740D01*
X1044240Y-780140D01*
X1041360Y-775819D01*
X1037920Y-771919D01*
X1034020Y-768480D01*
X1029700Y-765600D01*
X1025040Y-763300D01*
X1022180Y-762340D01*
G37*
G36*
X455740Y-777820D02*
G01*
X477819Y-777820D01*
X477819Y-755740D01*
X476960Y-756120D01*
X471840Y-759220D01*
X467140Y-762900D01*
X462900Y-767140D01*
X459219Y-771840D01*
X456120Y-776960D01*
G37*
G36*
X522180Y-777820D02*
G01*
X544260Y-777820D01*
X543880Y-776960D01*
X540780Y-771840D01*
X537100Y-767140D01*
X532860Y-762900D01*
X528160Y-759220D01*
X523040Y-756120D01*
X522180Y-755740D01*
G37*
G36*
X552500Y-748500D02*
G01*
X558640Y-748500D01*
X558640Y-732920D01*
X542080Y-732920D01*
X542080Y-738080D01*
X542360Y-740560D01*
X543120Y-742720D01*
X544320Y-744640D01*
X545940Y-746260D01*
X547860Y-747480D01*
X550020Y-748220D01*
G37*
G36*
X581360Y-748500D02*
G01*
X587500Y-748500D01*
X589980Y-748220D01*
X592140Y-747480D01*
X594060Y-746260D01*
X595680Y-744640D01*
X596880Y-742720D01*
X597640Y-740560D01*
X597920Y-738080D01*
X597920Y-732920D01*
X581360Y-732920D01*
G37*
G36*
X1290280Y-739720D02*
G01*
X1309720Y-739720D01*
X1315020Y-739380D01*
X1320120Y-738360D01*
X1325040Y-736700D01*
X1329700Y-734400D01*
X1334019Y-731520D01*
X1337920Y-728080D01*
X1341360Y-724180D01*
X1344240Y-719860D01*
X1346540Y-715200D01*
X1348200Y-710280D01*
X1349220Y-705180D01*
X1349560Y-700000D01*
X1349220Y-694820D01*
X1348200Y-689720D01*
X1346540Y-684800D01*
X1344240Y-680140D01*
X1341360Y-675819D01*
X1337920Y-671919D01*
X1334019Y-668480D01*
X1329700Y-665600D01*
X1325040Y-663300D01*
X1320120Y-661640D01*
X1315020Y-660620D01*
X1309720Y-660280D01*
X1290280Y-660280D01*
X1284980Y-660620D01*
X1279880Y-661640D01*
X1274960Y-663300D01*
X1270300Y-665600D01*
X1265980Y-668480D01*
X1262080Y-671919D01*
X1258640Y-675819D01*
X1255760Y-680140D01*
X1253460Y-684800D01*
X1251800Y-689720D01*
X1250780Y-694820D01*
X1250440Y-700000D01*
X1250780Y-705180D01*
X1251800Y-710280D01*
X1253460Y-715200D01*
X1255760Y-719860D01*
X1258640Y-724180D01*
X1262080Y-728080D01*
X1265980Y-731520D01*
X1270300Y-734400D01*
X1274960Y-736700D01*
X1279880Y-738360D01*
X1284980Y-739380D01*
G37*
G36*
X168000Y-737000D02*
G01*
X186960Y-737000D01*
X185680Y-734400D01*
X182680Y-729920D01*
X179120Y-725879D01*
X175080Y-722320D01*
X170600Y-719320D01*
X168000Y-718040D01*
G37*
G36*
X113040Y-737000D02*
G01*
X132000Y-737000D01*
X132000Y-718040D01*
X129400Y-719320D01*
X124920Y-722320D01*
X120879Y-725879D01*
X117320Y-729920D01*
X114320Y-734400D01*
G37*
G36*
X542080Y-712180D02*
G01*
X558640Y-712180D01*
X558640Y-697400D01*
X558940Y-695860D01*
X559820Y-694560D01*
X561120Y-693700D01*
X562640Y-693400D01*
X577360Y-693400D01*
X578880Y-693700D01*
X580180Y-694560D01*
X581060Y-695860D01*
X581360Y-697400D01*
X581360Y-712180D01*
X597920Y-712180D01*
X597920Y-707039D01*
X597640Y-704539D01*
X596880Y-702400D01*
X595680Y-700460D01*
X594060Y-698860D01*
X593320Y-698379D01*
X592160Y-697280D01*
X591520Y-695800D01*
X591520Y-694200D01*
X592160Y-692720D01*
X593320Y-691620D01*
X594060Y-691140D01*
X595680Y-689539D01*
X596880Y-687600D01*
X597640Y-685460D01*
X597920Y-682960D01*
X597920Y-651919D01*
X597640Y-649419D01*
X596880Y-647280D01*
X595680Y-645360D01*
X594060Y-643740D01*
X592140Y-642520D01*
X589980Y-641780D01*
X588760Y-641640D01*
X587360Y-641220D01*
X586220Y-640320D01*
X585460Y-639080D01*
X585200Y-637180D01*
X585500Y-635640D01*
X586380Y-634340D01*
X587000Y-633720D01*
X589220Y-630560D01*
X590840Y-627040D01*
X591840Y-623320D01*
X592180Y-619460D01*
X591840Y-615600D01*
X590840Y-611880D01*
X589220Y-608360D01*
X586060Y-603880D01*
X585740Y-602440D01*
X585960Y-600960D01*
X586700Y-599680D01*
X587860Y-598740D01*
X589980Y-598220D01*
X592140Y-597480D01*
X594060Y-596260D01*
X595680Y-594660D01*
X596880Y-592720D01*
X597640Y-590580D01*
X597920Y-588080D01*
X597920Y-557040D01*
X597640Y-554540D01*
X596880Y-552400D01*
X595680Y-550460D01*
X594060Y-548860D01*
X593320Y-548380D01*
X592160Y-547280D01*
X591520Y-545800D01*
X591520Y-544200D01*
X592160Y-542720D01*
X593320Y-541620D01*
X594060Y-541140D01*
X595680Y-539540D01*
X596880Y-537600D01*
X597640Y-535460D01*
X597920Y-532960D01*
X597920Y-501920D01*
X597640Y-499440D01*
X596880Y-497280D01*
X595680Y-495360D01*
X594060Y-493740D01*
X592140Y-492520D01*
X589980Y-491780D01*
X588760Y-491640D01*
X587360Y-491220D01*
X586220Y-490319D01*
X585460Y-489080D01*
X585200Y-487660D01*
X585200Y-467720D01*
X585500Y-466180D01*
X586380Y-464880D01*
X587000Y-464260D01*
X589220Y-461100D01*
X590840Y-457580D01*
X591840Y-453860D01*
X592180Y-450000D01*
X591840Y-446140D01*
X590840Y-442420D01*
X589220Y-438900D01*
X587000Y-435740D01*
X584260Y-433000D01*
X581100Y-430780D01*
X577580Y-429159D01*
X573860Y-428160D01*
X570000Y-427819D01*
X566140Y-428160D01*
X562420Y-429159D01*
X558900Y-430780D01*
X555740Y-433000D01*
X553000Y-435740D01*
X550780Y-438900D01*
X549160Y-442420D01*
X548160Y-446140D01*
X547820Y-450000D01*
X548160Y-453860D01*
X549160Y-457580D01*
X550780Y-461100D01*
X553000Y-464260D01*
X553620Y-464880D01*
X554500Y-466180D01*
X554800Y-467720D01*
X554800Y-487660D01*
X554540Y-489080D01*
X553780Y-490319D01*
X552640Y-491220D01*
X551240Y-491640D01*
X550020Y-491780D01*
X547860Y-492520D01*
X545940Y-493740D01*
X544320Y-495360D01*
X543120Y-497280D01*
X542320Y-499560D01*
X541480Y-500959D01*
X540140Y-501900D01*
X538540Y-502239D01*
X491460Y-502239D01*
X489860Y-501900D01*
X488519Y-500959D01*
X487680Y-499560D01*
X486880Y-497280D01*
X485680Y-495360D01*
X484060Y-493740D01*
X482140Y-492520D01*
X479980Y-491780D01*
X477500Y-491500D01*
X442500Y-491500D01*
X440020Y-491780D01*
X437860Y-492520D01*
X435940Y-493740D01*
X434320Y-495360D01*
X433120Y-497280D01*
X432360Y-499420D01*
X432080Y-501920D01*
X432080Y-532960D01*
X432360Y-535460D01*
X433120Y-537600D01*
X434320Y-539540D01*
X435940Y-541140D01*
X436680Y-541620D01*
X437840Y-542720D01*
X438480Y-544200D01*
X438480Y-545800D01*
X437840Y-547280D01*
X436680Y-548380D01*
X435940Y-548860D01*
X434320Y-550460D01*
X433120Y-552400D01*
X432360Y-554540D01*
X432080Y-557040D01*
X432080Y-562180D01*
X448640Y-562180D01*
X448640Y-547400D01*
X448940Y-545860D01*
X449820Y-544560D01*
X451120Y-543700D01*
X452640Y-543400D01*
X467360Y-543400D01*
X468880Y-543700D01*
X470180Y-544560D01*
X471060Y-545860D01*
X471360Y-547400D01*
X471360Y-562180D01*
X487920Y-562180D01*
X487920Y-557040D01*
X487640Y-554540D01*
X486880Y-552400D01*
X485680Y-550460D01*
X484060Y-548860D01*
X483320Y-548380D01*
X482160Y-547280D01*
X481520Y-545800D01*
X481520Y-544200D01*
X482160Y-542720D01*
X483320Y-541620D01*
X484060Y-541140D01*
X485680Y-539540D01*
X486880Y-537600D01*
X487680Y-535320D01*
X488519Y-533920D01*
X489860Y-532980D01*
X491460Y-532640D01*
X538540Y-532640D01*
X540140Y-532980D01*
X541480Y-533920D01*
X542320Y-535320D01*
X543120Y-537600D01*
X544320Y-539540D01*
X545940Y-541140D01*
X546680Y-541620D01*
X547840Y-542720D01*
X548480Y-544200D01*
X548480Y-545800D01*
X547840Y-547280D01*
X546680Y-548380D01*
X545940Y-548860D01*
X544320Y-550460D01*
X543120Y-552400D01*
X542360Y-554540D01*
X542080Y-557040D01*
X542080Y-588080D01*
X542360Y-590580D01*
X543120Y-592720D01*
X544320Y-594660D01*
X545940Y-596260D01*
X547860Y-597480D01*
X550020Y-598220D01*
X552140Y-598740D01*
X553300Y-599680D01*
X554040Y-600960D01*
X554260Y-602440D01*
X553940Y-603880D01*
X550780Y-608360D01*
X549160Y-611880D01*
X548160Y-615600D01*
X547820Y-619460D01*
X548160Y-623320D01*
X549160Y-627040D01*
X550780Y-630560D01*
X553000Y-633720D01*
X553620Y-634340D01*
X554500Y-635640D01*
X554800Y-637660D01*
X554540Y-639080D01*
X553780Y-640320D01*
X552640Y-641220D01*
X551240Y-641640D01*
X550020Y-641780D01*
X547860Y-642520D01*
X545940Y-643740D01*
X544320Y-645360D01*
X543120Y-647280D01*
X542360Y-649419D01*
X542080Y-651919D01*
X542080Y-682960D01*
X542360Y-685460D01*
X543120Y-687600D01*
X544320Y-689539D01*
X545940Y-691140D01*
X546680Y-691620D01*
X547840Y-692720D01*
X548480Y-694200D01*
X548480Y-695800D01*
X547840Y-697280D01*
X546680Y-698379D01*
X545940Y-698860D01*
X544320Y-700460D01*
X543120Y-702400D01*
X542360Y-704539D01*
X542080Y-707039D01*
G37*
G36*
X250000Y-696200D02*
G01*
X255380Y-695840D01*
X260660Y-694780D01*
X265760Y-693060D01*
X270600Y-690680D01*
X275080Y-687680D01*
X279120Y-684120D01*
X282680Y-680080D01*
X285680Y-675600D01*
X288060Y-670759D01*
X289780Y-665660D01*
X290840Y-660380D01*
X291200Y-655000D01*
X290840Y-649620D01*
X289780Y-644340D01*
X288060Y-639240D01*
X285680Y-634400D01*
X282680Y-629920D01*
X279120Y-625880D01*
X275080Y-622320D01*
X270600Y-619320D01*
X265760Y-616940D01*
X260660Y-615220D01*
X255380Y-614160D01*
X250000Y-613800D01*
X244620Y-614160D01*
X239340Y-615220D01*
X234240Y-616940D01*
X229400Y-619320D01*
X224920Y-622320D01*
X220880Y-625880D01*
X217320Y-629920D01*
X214320Y-634400D01*
X211940Y-639240D01*
X210219Y-644340D01*
X209160Y-649620D01*
X208800Y-655000D01*
X209160Y-660380D01*
X210219Y-665660D01*
X211940Y-670759D01*
X214320Y-675600D01*
X217320Y-680080D01*
X220880Y-684120D01*
X224920Y-687680D01*
X229400Y-690680D01*
X234240Y-693060D01*
X239340Y-694780D01*
X244620Y-695840D01*
G37*
G36*
X132000Y-691960D02*
G01*
X132000Y-673000D01*
X113040Y-673000D01*
X114320Y-675600D01*
X117320Y-680080D01*
X120879Y-684120D01*
X124920Y-687680D01*
X129400Y-690680D01*
G37*
G36*
X168000Y-691960D02*
G01*
X170600Y-690680D01*
X175080Y-687680D01*
X179120Y-684120D01*
X182680Y-680080D01*
X185680Y-675600D01*
X186960Y-673000D01*
X168000Y-673000D01*
G37*
G36*
X1464360Y-678199D02*
G01*
X1497060Y-678199D01*
X1497060Y-647460D01*
X1453940Y-647460D01*
X1453940Y-667760D01*
X1454220Y-670260D01*
X1454960Y-672400D01*
X1456180Y-674340D01*
X1457800Y-675939D01*
X1459720Y-677159D01*
X1461860Y-677920D01*
G37*
G36*
X1572940Y-678199D02*
G01*
X1605640Y-678199D01*
X1608140Y-677920D01*
X1610280Y-677159D01*
X1612200Y-675939D01*
X1613820Y-674340D01*
X1615040Y-672400D01*
X1615780Y-670260D01*
X1616060Y-667760D01*
X1616060Y-647460D01*
X1572940Y-647460D01*
G37*
G36*
X720000Y-658139D02*
G01*
X725440Y-657800D01*
X730780Y-656720D01*
X735960Y-654980D01*
X740840Y-652560D01*
X745380Y-649539D01*
X749479Y-645939D01*
X753080Y-641840D01*
X756100Y-637300D01*
X758520Y-632420D01*
X760260Y-627240D01*
X761340Y-621900D01*
X761680Y-616460D01*
X761340Y-611020D01*
X760260Y-605680D01*
X758520Y-600500D01*
X756100Y-595620D01*
X753080Y-591080D01*
X749479Y-586980D01*
X745380Y-583380D01*
X740840Y-580360D01*
X735960Y-577940D01*
X730780Y-576200D01*
X725440Y-575120D01*
X720000Y-574780D01*
X714560Y-575120D01*
X709220Y-576200D01*
X704040Y-577940D01*
X699160Y-580360D01*
X694620Y-583380D01*
X690520Y-586980D01*
X686919Y-591080D01*
X683900Y-595620D01*
X681480Y-600500D01*
X679740Y-605680D01*
X678660Y-611020D01*
X678319Y-616460D01*
X678660Y-621900D01*
X679740Y-627240D01*
X681480Y-632420D01*
X683900Y-637300D01*
X686919Y-641840D01*
X690520Y-645939D01*
X694620Y-649539D01*
X699160Y-652560D01*
X704040Y-654980D01*
X709220Y-656720D01*
X714560Y-657800D01*
G37*
G36*
X1290280Y-639720D02*
G01*
X1309720Y-639720D01*
X1315020Y-639380D01*
X1320120Y-638360D01*
X1325040Y-636700D01*
X1329700Y-634400D01*
X1334019Y-631520D01*
X1337920Y-628080D01*
X1341360Y-624180D01*
X1344240Y-619860D01*
X1346540Y-615200D01*
X1348200Y-610280D01*
X1349220Y-605180D01*
X1349560Y-600000D01*
X1349220Y-594820D01*
X1348200Y-589720D01*
X1346540Y-584800D01*
X1344240Y-580140D01*
X1341360Y-575820D01*
X1337920Y-571920D01*
X1334019Y-568480D01*
X1329700Y-565600D01*
X1325040Y-563300D01*
X1320120Y-561640D01*
X1315020Y-560620D01*
X1309720Y-560280D01*
X1290280Y-560280D01*
X1284980Y-560620D01*
X1279880Y-561640D01*
X1274960Y-563300D01*
X1270300Y-565600D01*
X1265980Y-568480D01*
X1262080Y-571920D01*
X1258640Y-575820D01*
X1255760Y-580140D01*
X1253460Y-584800D01*
X1251800Y-589720D01*
X1250780Y-594820D01*
X1250440Y-600000D01*
X1250780Y-605180D01*
X1251800Y-610280D01*
X1253460Y-615200D01*
X1255760Y-619860D01*
X1258640Y-624180D01*
X1262080Y-628080D01*
X1265980Y-631520D01*
X1270300Y-634400D01*
X1274960Y-636700D01*
X1279880Y-638360D01*
X1284980Y-639380D01*
G37*
G36*
X990280Y-639720D02*
G01*
X1009720Y-639720D01*
X1015020Y-639380D01*
X1020120Y-638360D01*
X1025040Y-636700D01*
X1029700Y-634400D01*
X1034020Y-631520D01*
X1037920Y-628080D01*
X1041360Y-624180D01*
X1044240Y-619860D01*
X1046540Y-615200D01*
X1048199Y-610280D01*
X1049220Y-605180D01*
X1049560Y-600000D01*
X1049220Y-594820D01*
X1048199Y-589720D01*
X1046540Y-584800D01*
X1044240Y-580140D01*
X1041360Y-575820D01*
X1037920Y-571920D01*
X1034020Y-568480D01*
X1029700Y-565600D01*
X1025040Y-563300D01*
X1020120Y-561640D01*
X1015020Y-560620D01*
X1009720Y-560280D01*
X990280Y-560280D01*
X984980Y-560620D01*
X979880Y-561640D01*
X974960Y-563300D01*
X970300Y-565600D01*
X965980Y-568480D01*
X962080Y-571920D01*
X958640Y-575820D01*
X955759Y-580140D01*
X953460Y-584800D01*
X951800Y-589720D01*
X950780Y-594820D01*
X950440Y-600000D01*
X950780Y-605180D01*
X951800Y-610280D01*
X953460Y-615200D01*
X955759Y-619860D01*
X958640Y-624180D01*
X962080Y-628080D01*
X965980Y-631520D01*
X970300Y-634400D01*
X974960Y-636700D01*
X979880Y-638360D01*
X984980Y-639380D01*
G37*
G36*
X113040Y-637000D02*
G01*
X132000Y-637000D01*
X132000Y-618040D01*
X129400Y-619320D01*
X124920Y-622320D01*
X120879Y-625880D01*
X117320Y-629920D01*
X114320Y-634400D01*
G37*
G36*
X168000Y-637000D02*
G01*
X186960Y-637000D01*
X185680Y-634400D01*
X182680Y-629920D01*
X179120Y-625880D01*
X175080Y-622320D01*
X170600Y-619320D01*
X168000Y-618040D01*
G37*
G36*
X471360Y-598500D02*
G01*
X477500Y-598500D01*
X479980Y-598220D01*
X482140Y-597480D01*
X484060Y-596260D01*
X485680Y-594640D01*
X486880Y-592720D01*
X487640Y-590560D01*
X487920Y-588080D01*
X487920Y-582920D01*
X471360Y-582920D01*
G37*
G36*
X442500Y-598500D02*
G01*
X448640Y-598500D01*
X448640Y-582920D01*
X432080Y-582920D01*
X432080Y-588080D01*
X432360Y-590560D01*
X433120Y-592720D01*
X434320Y-594640D01*
X435940Y-596260D01*
X437860Y-597480D01*
X440020Y-598220D01*
G37*
G36*
X1572940Y-596400D02*
G01*
X1616060Y-596400D01*
X1616060Y-576100D01*
X1615780Y-573600D01*
X1615040Y-571460D01*
X1613820Y-569520D01*
X1612200Y-567920D01*
X1610280Y-566700D01*
X1608140Y-565940D01*
X1605640Y-565660D01*
X1572940Y-565660D01*
G37*
G36*
X1453940Y-596400D02*
G01*
X1497060Y-596400D01*
X1497060Y-565660D01*
X1464360Y-565660D01*
X1461860Y-565940D01*
X1459720Y-566700D01*
X1457800Y-567920D01*
X1456180Y-569520D01*
X1454960Y-571460D01*
X1454220Y-573600D01*
X1453940Y-576100D01*
G37*
G36*
X250000Y-596200D02*
G01*
X255380Y-595840D01*
X260660Y-594780D01*
X265760Y-593060D01*
X270600Y-590680D01*
X275080Y-587680D01*
X279120Y-584120D01*
X282680Y-580080D01*
X285680Y-575600D01*
X288060Y-570760D01*
X289780Y-565660D01*
X290840Y-560380D01*
X291200Y-555000D01*
X290840Y-549620D01*
X289780Y-544340D01*
X288060Y-539240D01*
X285680Y-534400D01*
X282680Y-529920D01*
X279120Y-525880D01*
X275080Y-522320D01*
X270600Y-519320D01*
X265760Y-516940D01*
X260660Y-515220D01*
X255380Y-514159D01*
X250000Y-513800D01*
X244620Y-514159D01*
X239340Y-515220D01*
X234240Y-516940D01*
X229400Y-519320D01*
X224920Y-522320D01*
X220880Y-525880D01*
X217320Y-529920D01*
X214320Y-534400D01*
X211940Y-539240D01*
X210219Y-544340D01*
X209160Y-549620D01*
X208800Y-555000D01*
X209160Y-560380D01*
X210219Y-565660D01*
X211940Y-570760D01*
X214320Y-575600D01*
X217320Y-580080D01*
X220880Y-584120D01*
X224920Y-587680D01*
X229400Y-590680D01*
X234240Y-593060D01*
X239340Y-594780D01*
X244620Y-595840D01*
G37*
G36*
X132000Y-591960D02*
G01*
X132000Y-573000D01*
X113040Y-573000D01*
X114320Y-575600D01*
X117320Y-580080D01*
X120879Y-584120D01*
X124920Y-587680D01*
X129400Y-590680D01*
G37*
G36*
X168000Y-591960D02*
G01*
X170600Y-590680D01*
X175080Y-587680D01*
X179120Y-584120D01*
X182680Y-580080D01*
X185680Y-575600D01*
X186960Y-573000D01*
X168000Y-573000D01*
G37*
G36*
X990280Y-539720D02*
G01*
X1009720Y-539720D01*
X1015020Y-539380D01*
X1020120Y-538360D01*
X1025040Y-536700D01*
X1029700Y-534400D01*
X1034020Y-531520D01*
X1037920Y-528080D01*
X1041360Y-524180D01*
X1044240Y-519860D01*
X1045440Y-517440D01*
X1046320Y-516260D01*
X1047580Y-515480D01*
X1049020Y-515200D01*
X1250980Y-515200D01*
X1252420Y-515480D01*
X1253680Y-516260D01*
X1254560Y-517440D01*
X1255760Y-519860D01*
X1258640Y-524180D01*
X1262080Y-528080D01*
X1265980Y-531520D01*
X1270300Y-534400D01*
X1274960Y-536700D01*
X1279880Y-538360D01*
X1284980Y-539380D01*
X1290280Y-539720D01*
X1309720Y-539720D01*
X1315020Y-539380D01*
X1320120Y-538360D01*
X1325040Y-536700D01*
X1329700Y-534400D01*
X1334019Y-531520D01*
X1337920Y-528080D01*
X1341360Y-524180D01*
X1344240Y-519860D01*
X1346540Y-515200D01*
X1348200Y-510280D01*
X1349220Y-505180D01*
X1349560Y-500000D01*
X1349220Y-494820D01*
X1348200Y-489720D01*
X1346540Y-484799D01*
X1344240Y-480140D01*
X1341360Y-475820D01*
X1337920Y-471920D01*
X1334019Y-468480D01*
X1329700Y-465600D01*
X1325040Y-463300D01*
X1320120Y-461640D01*
X1315020Y-460620D01*
X1309720Y-460280D01*
X1290280Y-460280D01*
X1284980Y-460620D01*
X1279880Y-461640D01*
X1274960Y-463300D01*
X1270300Y-465600D01*
X1265980Y-468480D01*
X1262080Y-471920D01*
X1258640Y-475820D01*
X1255760Y-480140D01*
X1254560Y-482560D01*
X1253680Y-483740D01*
X1252420Y-484520D01*
X1250980Y-484799D01*
X1049020Y-484799D01*
X1047580Y-484520D01*
X1046320Y-483740D01*
X1045440Y-482560D01*
X1044240Y-480140D01*
X1041360Y-475820D01*
X1037920Y-471920D01*
X1034020Y-468480D01*
X1029700Y-465600D01*
X1025040Y-463300D01*
X1020120Y-461640D01*
X1015020Y-460620D01*
X1009720Y-460280D01*
X990280Y-460280D01*
X984980Y-460620D01*
X979880Y-461640D01*
X974960Y-463300D01*
X970300Y-465600D01*
X965980Y-468480D01*
X962080Y-471920D01*
X958640Y-475820D01*
X955759Y-480140D01*
X953460Y-484799D01*
X951800Y-489720D01*
X950780Y-494820D01*
X950440Y-500000D01*
X950780Y-505180D01*
X951800Y-510280D01*
X953460Y-515200D01*
X955759Y-519860D01*
X958640Y-524180D01*
X962080Y-528080D01*
X965980Y-531520D01*
X970300Y-534400D01*
X974960Y-536700D01*
X979880Y-538360D01*
X984980Y-539380D01*
G37*
G36*
X113040Y-537000D02*
G01*
X132000Y-537000D01*
X132000Y-518040D01*
X129400Y-519320D01*
X124920Y-522320D01*
X120879Y-525880D01*
X117320Y-529920D01*
X114320Y-534400D01*
G37*
G36*
X168000Y-537000D02*
G01*
X186960Y-537000D01*
X185680Y-534400D01*
X182680Y-529920D01*
X179120Y-525880D01*
X175080Y-522320D01*
X170600Y-519320D01*
X168000Y-518040D01*
G37*
G36*
X250000Y-496200D02*
G01*
X255380Y-495840D01*
X260660Y-494780D01*
X265760Y-493060D01*
X270600Y-490680D01*
X275080Y-487680D01*
X279120Y-484120D01*
X282680Y-480080D01*
X285680Y-475600D01*
X288060Y-470760D01*
X289780Y-465660D01*
X290840Y-460379D01*
X291200Y-455000D01*
X290840Y-449620D01*
X289780Y-444340D01*
X288060Y-439240D01*
X285680Y-434400D01*
X282680Y-429920D01*
X279120Y-425880D01*
X275080Y-422320D01*
X270600Y-419320D01*
X265760Y-416940D01*
X260660Y-415220D01*
X255380Y-414159D01*
X250000Y-413800D01*
X244620Y-414159D01*
X239340Y-415220D01*
X234240Y-416940D01*
X229400Y-419320D01*
X224920Y-422320D01*
X220880Y-425880D01*
X217320Y-429920D01*
X214320Y-434400D01*
X211940Y-439240D01*
X210219Y-444340D01*
X209160Y-449620D01*
X208800Y-455000D01*
X209160Y-460379D01*
X210219Y-465660D01*
X211940Y-470760D01*
X214320Y-475600D01*
X217320Y-480080D01*
X220880Y-484120D01*
X224920Y-487680D01*
X229400Y-490680D01*
X234240Y-493060D01*
X239340Y-494780D01*
X244620Y-495840D01*
G37*
G36*
X132000Y-491960D02*
G01*
X132000Y-473000D01*
X113040Y-473000D01*
X114320Y-475600D01*
X117320Y-480080D01*
X120879Y-484120D01*
X124920Y-487680D01*
X129400Y-490680D01*
G37*
G36*
X168000Y-491960D02*
G01*
X170600Y-490680D01*
X175080Y-487680D01*
X179120Y-484120D01*
X182680Y-480080D01*
X185680Y-475600D01*
X186960Y-473000D01*
X168000Y-473000D01*
G37*
G36*
X720000Y-465220D02*
G01*
X725440Y-464880D01*
X730780Y-463800D01*
X735960Y-462060D01*
X740840Y-459640D01*
X745380Y-456620D01*
X749479Y-453020D01*
X753080Y-448920D01*
X756100Y-444380D01*
X758520Y-439500D01*
X760260Y-434320D01*
X761340Y-428980D01*
X761680Y-423540D01*
X761340Y-418100D01*
X760260Y-412760D01*
X758520Y-407580D01*
X756100Y-402700D01*
X753080Y-398160D01*
X749479Y-394060D01*
X745380Y-390460D01*
X740840Y-387440D01*
X735960Y-385020D01*
X730780Y-383280D01*
X725440Y-382200D01*
X720000Y-381860D01*
X714560Y-382200D01*
X709220Y-383280D01*
X704040Y-385020D01*
X699160Y-387440D01*
X694620Y-390460D01*
X690520Y-394060D01*
X686919Y-398160D01*
X683900Y-402700D01*
X681480Y-407580D01*
X679740Y-412760D01*
X678660Y-418100D01*
X678319Y-423540D01*
X678660Y-428980D01*
X679740Y-434320D01*
X681480Y-439500D01*
X683900Y-444380D01*
X686919Y-448920D01*
X690520Y-453020D01*
X694620Y-456620D01*
X699160Y-459640D01*
X704040Y-462060D01*
X709220Y-463800D01*
X714560Y-464880D01*
G37*
G36*
X1604120Y-447480D02*
G01*
X1612220Y-447480D01*
X1612220Y-415180D01*
X1593700Y-415180D01*
X1593700Y-437060D01*
X1593980Y-439540D01*
X1594740Y-441700D01*
X1595940Y-443620D01*
X1597560Y-445240D01*
X1599480Y-446460D01*
X1601639Y-447200D01*
G37*
G36*
X1423020Y-447480D02*
G01*
X1465880Y-447480D01*
X1468360Y-447200D01*
X1470520Y-446460D01*
X1472440Y-445240D01*
X1474060Y-443620D01*
X1475260Y-441700D01*
X1476020Y-439540D01*
X1476300Y-437060D01*
X1476300Y-339080D01*
X1476020Y-336599D01*
X1475260Y-334440D01*
X1474060Y-332520D01*
X1472440Y-330900D01*
X1470520Y-329700D01*
X1468360Y-328940D01*
X1465880Y-328660D01*
X1463660Y-328660D01*
X1462120Y-328360D01*
X1460820Y-327480D01*
X1459960Y-326200D01*
X1459660Y-324660D01*
X1459660Y-219200D01*
X1459960Y-217659D01*
X1460820Y-216380D01*
X1462120Y-215500D01*
X1463660Y-215200D01*
X1474340Y-215200D01*
X1477500Y-214880D01*
X1480340Y-214020D01*
X1482960Y-212620D01*
X1485420Y-210600D01*
X1507760Y-188260D01*
X1508839Y-187500D01*
X1510120Y-187120D01*
X1511440Y-187180D01*
X1515180Y-188000D01*
X1520000Y-188340D01*
X1524820Y-188000D01*
X1529520Y-186980D01*
X1534040Y-185280D01*
X1538280Y-182979D01*
X1542140Y-180080D01*
X1545560Y-176680D01*
X1548440Y-172800D01*
X1550760Y-168580D01*
X1552440Y-164060D01*
X1553460Y-159340D01*
X1553820Y-154520D01*
X1553460Y-149720D01*
X1552440Y-145000D01*
X1550760Y-140480D01*
X1548440Y-136240D01*
X1545560Y-132380D01*
X1542140Y-128980D01*
X1541100Y-128200D01*
X1540120Y-127120D01*
X1539580Y-125740D01*
X1539580Y-124260D01*
X1540120Y-122880D01*
X1541100Y-121800D01*
X1542140Y-121020D01*
X1545560Y-117620D01*
X1548440Y-113760D01*
X1550620Y-109780D01*
X1534319Y-109780D01*
X1534319Y-118160D01*
X1533920Y-119880D01*
X1532820Y-121280D01*
X1531240Y-122060D01*
X1529460Y-122080D01*
X1524820Y-121060D01*
X1520000Y-120719D01*
X1515180Y-121060D01*
X1510540Y-122080D01*
X1508760Y-122060D01*
X1507180Y-121280D01*
X1506080Y-119880D01*
X1505680Y-118160D01*
X1505680Y-109780D01*
X1489379Y-109780D01*
X1491560Y-113760D01*
X1494440Y-117620D01*
X1497860Y-121020D01*
X1498899Y-121800D01*
X1499880Y-122880D01*
X1500420Y-124260D01*
X1500420Y-125740D01*
X1499880Y-127120D01*
X1498899Y-128200D01*
X1497860Y-128980D01*
X1494440Y-132380D01*
X1491560Y-136240D01*
X1489240Y-140480D01*
X1487560Y-145000D01*
X1486540Y-149720D01*
X1486180Y-154520D01*
X1486540Y-159340D01*
X1487340Y-163080D01*
X1487420Y-164420D01*
X1487040Y-165680D01*
X1486260Y-166759D01*
X1469400Y-183619D01*
X1468100Y-184500D01*
X1466579Y-184800D01*
X1349019Y-184800D01*
X1347580Y-184520D01*
X1346320Y-183740D01*
X1345440Y-182560D01*
X1344240Y-180140D01*
X1341360Y-175820D01*
X1337920Y-171920D01*
X1334019Y-168480D01*
X1329700Y-165600D01*
X1325040Y-163299D01*
X1320120Y-161640D01*
X1315020Y-160620D01*
X1309720Y-160280D01*
X1290280Y-160280D01*
X1284980Y-160620D01*
X1279880Y-161640D01*
X1274960Y-163299D01*
X1270300Y-165600D01*
X1265980Y-168480D01*
X1262080Y-171920D01*
X1258640Y-175820D01*
X1255760Y-180140D01*
X1253460Y-184800D01*
X1251800Y-189720D01*
X1250780Y-194820D01*
X1250440Y-200000D01*
X1250780Y-205180D01*
X1251800Y-210280D01*
X1253460Y-215200D01*
X1255760Y-219860D01*
X1258640Y-224180D01*
X1262080Y-228080D01*
X1265980Y-231520D01*
X1270300Y-234400D01*
X1274960Y-236700D01*
X1279880Y-238359D01*
X1284980Y-239380D01*
X1290280Y-239720D01*
X1309720Y-239720D01*
X1315020Y-239380D01*
X1320120Y-238359D01*
X1325040Y-236700D01*
X1329700Y-234400D01*
X1334019Y-231520D01*
X1337920Y-228080D01*
X1341360Y-224180D01*
X1344240Y-219860D01*
X1345440Y-217440D01*
X1346320Y-216260D01*
X1347580Y-215479D01*
X1349019Y-215200D01*
X1425240Y-215200D01*
X1426780Y-215500D01*
X1428080Y-216380D01*
X1428940Y-217659D01*
X1429259Y-219200D01*
X1429259Y-324660D01*
X1428940Y-326200D01*
X1428080Y-327480D01*
X1426780Y-328360D01*
X1425240Y-328660D01*
X1423020Y-328660D01*
X1420540Y-328940D01*
X1418380Y-329700D01*
X1416459Y-330900D01*
X1414840Y-332520D01*
X1413620Y-334440D01*
X1412880Y-336599D01*
X1412600Y-339080D01*
X1412600Y-437060D01*
X1412880Y-439540D01*
X1413620Y-441700D01*
X1414840Y-443620D01*
X1416459Y-445240D01*
X1418380Y-446460D01*
X1420540Y-447200D01*
G37*
G36*
X1290280Y-439720D02*
G01*
X1309720Y-439720D01*
X1315020Y-439380D01*
X1320120Y-438360D01*
X1325040Y-436700D01*
X1329700Y-434400D01*
X1334019Y-431520D01*
X1337920Y-428080D01*
X1341360Y-424180D01*
X1344240Y-419860D01*
X1346540Y-415200D01*
X1348200Y-410280D01*
X1349220Y-405180D01*
X1349560Y-400000D01*
X1349220Y-394820D01*
X1348200Y-389720D01*
X1346540Y-384799D01*
X1344240Y-380140D01*
X1341360Y-375820D01*
X1337920Y-371920D01*
X1334019Y-368480D01*
X1329700Y-365600D01*
X1325040Y-363300D01*
X1320120Y-361640D01*
X1315020Y-360620D01*
X1309720Y-360280D01*
X1290280Y-360280D01*
X1284980Y-360620D01*
X1279880Y-361640D01*
X1274960Y-363300D01*
X1270300Y-365600D01*
X1265980Y-368480D01*
X1262080Y-371920D01*
X1258640Y-375820D01*
X1255760Y-380140D01*
X1253460Y-384799D01*
X1251800Y-389720D01*
X1250780Y-394820D01*
X1250440Y-400000D01*
X1250780Y-405180D01*
X1251800Y-410280D01*
X1253460Y-415200D01*
X1255760Y-419860D01*
X1258640Y-424180D01*
X1262080Y-428080D01*
X1265980Y-431520D01*
X1270300Y-434400D01*
X1274960Y-436700D01*
X1279880Y-438360D01*
X1284980Y-439380D01*
G37*
G36*
X113040Y-437000D02*
G01*
X132000Y-437000D01*
X132000Y-418040D01*
X129400Y-419320D01*
X124920Y-422320D01*
X120879Y-425880D01*
X117320Y-429920D01*
X114320Y-434400D01*
G37*
G36*
X168000Y-437000D02*
G01*
X186960Y-437000D01*
X185680Y-434400D01*
X182680Y-429920D01*
X179120Y-425880D01*
X175080Y-422320D01*
X170600Y-419320D01*
X168000Y-418040D01*
G37*
G36*
X132000Y-391960D02*
G01*
X132000Y-373000D01*
X113040Y-373000D01*
X114320Y-375600D01*
X117320Y-380080D01*
X120879Y-384120D01*
X124920Y-387680D01*
X129400Y-390680D01*
G37*
G36*
X168000Y-391960D02*
G01*
X170600Y-390680D01*
X175080Y-387680D01*
X179120Y-384120D01*
X182680Y-380080D01*
X185680Y-375600D01*
X186960Y-373000D01*
X168000Y-373000D01*
G37*
G36*
X1593700Y-360959D02*
G01*
X1612220Y-360959D01*
X1612220Y-328660D01*
X1604120Y-328660D01*
X1601639Y-328940D01*
X1599480Y-329700D01*
X1597560Y-330900D01*
X1595940Y-332520D01*
X1594740Y-334440D01*
X1593980Y-336599D01*
X1593700Y-339080D01*
G37*
G36*
X990280Y-339720D02*
G01*
X1009720Y-339720D01*
X1015020Y-339380D01*
X1020120Y-338360D01*
X1025040Y-336700D01*
X1029700Y-334400D01*
X1034020Y-331520D01*
X1037920Y-328080D01*
X1041360Y-324180D01*
X1044240Y-319860D01*
X1045440Y-317440D01*
X1046320Y-316260D01*
X1047580Y-315480D01*
X1049020Y-315200D01*
X1250980Y-315200D01*
X1252420Y-315480D01*
X1253680Y-316260D01*
X1254560Y-317440D01*
X1255760Y-319860D01*
X1258640Y-324180D01*
X1262080Y-328080D01*
X1265980Y-331520D01*
X1270300Y-334400D01*
X1274960Y-336700D01*
X1279880Y-338360D01*
X1284980Y-339380D01*
X1290280Y-339720D01*
X1309720Y-339720D01*
X1315020Y-339380D01*
X1320120Y-338360D01*
X1325040Y-336700D01*
X1329700Y-334400D01*
X1334019Y-331520D01*
X1337920Y-328080D01*
X1341360Y-324180D01*
X1344240Y-319860D01*
X1346540Y-315200D01*
X1348200Y-310280D01*
X1349220Y-305180D01*
X1349560Y-300000D01*
X1349220Y-294820D01*
X1348200Y-289720D01*
X1346540Y-284800D01*
X1344240Y-280140D01*
X1341360Y-275820D01*
X1337920Y-271920D01*
X1334019Y-268480D01*
X1329700Y-265600D01*
X1325040Y-263300D01*
X1320120Y-261640D01*
X1315020Y-260620D01*
X1309720Y-260280D01*
X1290280Y-260280D01*
X1284980Y-260620D01*
X1279880Y-261640D01*
X1274960Y-263300D01*
X1270300Y-265600D01*
X1265980Y-268480D01*
X1262080Y-271920D01*
X1258640Y-275820D01*
X1255760Y-280140D01*
X1254560Y-282560D01*
X1253680Y-283740D01*
X1252420Y-284520D01*
X1250980Y-284800D01*
X1049020Y-284800D01*
X1047580Y-284520D01*
X1046320Y-283740D01*
X1045440Y-282560D01*
X1044240Y-280140D01*
X1041360Y-275820D01*
X1037920Y-271920D01*
X1034020Y-268480D01*
X1029700Y-265600D01*
X1025040Y-263300D01*
X1020120Y-261640D01*
X1015020Y-260620D01*
X1009720Y-260280D01*
X990280Y-260280D01*
X984980Y-260620D01*
X979880Y-261640D01*
X974960Y-263300D01*
X970300Y-265600D01*
X965980Y-268480D01*
X962080Y-271920D01*
X958640Y-275820D01*
X955759Y-280140D01*
X953460Y-284800D01*
X951800Y-289720D01*
X950780Y-294820D01*
X950440Y-300000D01*
X950780Y-305180D01*
X951800Y-310280D01*
X953460Y-315200D01*
X955759Y-319860D01*
X958640Y-324180D01*
X962080Y-328080D01*
X965980Y-331520D01*
X970300Y-334400D01*
X974960Y-336700D01*
X979880Y-338360D01*
X984980Y-339380D01*
G37*
G36*
X113040Y-337000D02*
G01*
X132000Y-337000D01*
X132000Y-318040D01*
X129400Y-319320D01*
X124920Y-322320D01*
X120879Y-325880D01*
X117320Y-329920D01*
X114320Y-334400D01*
G37*
G36*
X168000Y-337000D02*
G01*
X186960Y-337000D01*
X185680Y-334400D01*
X182680Y-329920D01*
X179120Y-325880D01*
X175080Y-322320D01*
X170600Y-319320D01*
X168000Y-318040D01*
G37*
G36*
X168000Y-296200D02*
G01*
X180780Y-296200D01*
X183260Y-295920D01*
X185420Y-295160D01*
X187340Y-293960D01*
X188960Y-292340D01*
X190159Y-290420D01*
X190920Y-288260D01*
X191200Y-285780D01*
X191200Y-273000D01*
X168000Y-273000D01*
G37*
G36*
X119220Y-296200D02*
G01*
X132000Y-296200D01*
X132000Y-273000D01*
X108800Y-273000D01*
X108800Y-285780D01*
X109080Y-288260D01*
X109840Y-290420D01*
X111039Y-292340D01*
X112660Y-293960D01*
X114580Y-295160D01*
X116740Y-295920D01*
G37*
G36*
X250000Y-296200D02*
G01*
X255380Y-295840D01*
X260660Y-294780D01*
X265760Y-293060D01*
X270600Y-290680D01*
X275080Y-287680D01*
X279120Y-284120D01*
X282680Y-280080D01*
X285680Y-275600D01*
X288060Y-270760D01*
X289780Y-265660D01*
X290840Y-260380D01*
X291200Y-255000D01*
X290840Y-249620D01*
X289780Y-244340D01*
X288060Y-239240D01*
X285680Y-234400D01*
X282680Y-229920D01*
X279120Y-225880D01*
X275080Y-222320D01*
X270600Y-219320D01*
X265760Y-216940D01*
X260660Y-215219D01*
X255380Y-214160D01*
X250000Y-213800D01*
X244620Y-214160D01*
X239340Y-215219D01*
X234240Y-216940D01*
X229400Y-219320D01*
X224920Y-222320D01*
X220880Y-225880D01*
X217320Y-229920D01*
X214320Y-234400D01*
X211940Y-239240D01*
X210219Y-244340D01*
X209160Y-249620D01*
X208800Y-255000D01*
X209160Y-260380D01*
X210219Y-265660D01*
X211940Y-270760D01*
X214320Y-275600D01*
X217320Y-280080D01*
X220880Y-284120D01*
X224920Y-287680D01*
X229400Y-290680D01*
X234240Y-293060D01*
X239340Y-294780D01*
X244620Y-295840D01*
G37*
G36*
X800000Y-249560D02*
G01*
X805980Y-249200D01*
X811860Y-248120D01*
X817580Y-246340D01*
X823040Y-243880D01*
X828160Y-240780D01*
X832860Y-237100D01*
X837099Y-232860D01*
X840780Y-228160D01*
X843880Y-223039D01*
X846340Y-217580D01*
X848120Y-211860D01*
X849200Y-205980D01*
X849560Y-200000D01*
X849200Y-194020D01*
X848120Y-188140D01*
X846340Y-182420D01*
X843880Y-176960D01*
X840780Y-171840D01*
X837099Y-167140D01*
X832860Y-162900D01*
X828160Y-159220D01*
X823040Y-156120D01*
X817580Y-153660D01*
X811860Y-151880D01*
X805980Y-150800D01*
X800000Y-150440D01*
X794020Y-150800D01*
X788139Y-151880D01*
X782420Y-153660D01*
X776960Y-156120D01*
X771840Y-159220D01*
X767140Y-162900D01*
X762900Y-167140D01*
X759220Y-171840D01*
X756120Y-176960D01*
X753660Y-182420D01*
X751880Y-188140D01*
X750800Y-194020D01*
X750440Y-200000D01*
X750800Y-205980D01*
X751880Y-211860D01*
X753660Y-217580D01*
X756120Y-223039D01*
X759220Y-228160D01*
X762900Y-232860D01*
X767140Y-237100D01*
X771840Y-240780D01*
X776960Y-243880D01*
X782420Y-246340D01*
X788139Y-248120D01*
X794020Y-249200D01*
G37*
G36*
X500000Y-249560D02*
G01*
X505980Y-249200D01*
X511860Y-248120D01*
X517580Y-246340D01*
X523040Y-243880D01*
X528160Y-240780D01*
X532860Y-237100D01*
X537100Y-232860D01*
X540780Y-228160D01*
X543880Y-223039D01*
X546340Y-217580D01*
X548120Y-211860D01*
X549200Y-205980D01*
X549560Y-200000D01*
X549200Y-194020D01*
X548120Y-188140D01*
X546340Y-182420D01*
X543880Y-176960D01*
X540780Y-171840D01*
X537100Y-167140D01*
X532860Y-162900D01*
X528160Y-159220D01*
X523040Y-156120D01*
X517580Y-153660D01*
X511860Y-151880D01*
X505980Y-150800D01*
X500000Y-150440D01*
X494020Y-150800D01*
X488140Y-151880D01*
X482420Y-153660D01*
X476960Y-156120D01*
X471840Y-159220D01*
X467140Y-162900D01*
X462900Y-167140D01*
X459219Y-171840D01*
X456120Y-176960D01*
X453660Y-182420D01*
X451880Y-188140D01*
X450800Y-194020D01*
X450439Y-200000D01*
X450800Y-205980D01*
X451880Y-211860D01*
X453660Y-217580D01*
X456120Y-223039D01*
X459219Y-228160D01*
X462900Y-232860D01*
X467140Y-237100D01*
X471840Y-240780D01*
X476960Y-243880D01*
X482420Y-246340D01*
X488140Y-248120D01*
X494020Y-249200D01*
G37*
G36*
X168000Y-237000D02*
G01*
X191200Y-237000D01*
X191200Y-224220D01*
X190920Y-221740D01*
X190159Y-219579D01*
X188960Y-217659D01*
X187340Y-216040D01*
X185420Y-214840D01*
X183260Y-214080D01*
X180780Y-213800D01*
X168000Y-213800D01*
G37*
G36*
X108800Y-237000D02*
G01*
X132000Y-237000D01*
X132000Y-213800D01*
X119220Y-213800D01*
X116740Y-214080D01*
X114580Y-214840D01*
X112660Y-216040D01*
X111039Y-217659D01*
X109840Y-219579D01*
X109080Y-221740D01*
X108800Y-224220D01*
G37*
G36*
X1489379Y-81160D02*
G01*
X1505680Y-81160D01*
X1505680Y-64860D01*
X1501720Y-67020D01*
X1497860Y-69920D01*
X1494440Y-73340D01*
X1491560Y-77200D01*
G37*
G36*
X1534319Y-81160D02*
G01*
X1550620Y-81160D01*
X1548440Y-77200D01*
X1545560Y-73340D01*
X1542140Y-69920D01*
X1538280Y-67020D01*
X1534319Y-64860D01*
G37*
G36*
X787920Y-77920D02*
G01*
X793080Y-77920D01*
X795560Y-77640D01*
X797720Y-76880D01*
X799640Y-75680D01*
X801260Y-74060D01*
X802480Y-72140D01*
X803220Y-69980D01*
X803500Y-67500D01*
X803500Y-61360D01*
X787920Y-61360D01*
G37*

%LPD*%
G36*
X157960Y-2234800D02*
G01*
X156420Y-2234500D01*
X155120Y-2233620D01*
X73280Y-2151780D01*
X72480Y-2150640D01*
X72120Y-2149300D01*
X71840Y-2146140D01*
X70840Y-2142420D01*
X69220Y-2138900D01*
X67000Y-2135740D01*
X64260Y-2133000D01*
X61100Y-2130780D01*
X57580Y-2129160D01*
X52240Y-2127740D01*
X51060Y-2126860D01*
X50279Y-2125600D01*
X50000Y-2124160D01*
X50000Y-1601660D01*
X50300Y-1600120D01*
X51180Y-1598820D01*
X98820Y-1551180D01*
X100120Y-1550300D01*
X101660Y-1550000D01*
X180799Y-1550000D01*
X182340Y-1550300D01*
X183619Y-1551180D01*
X184500Y-1552460D01*
X184800Y-1554000D01*
X184800Y-1592280D01*
X184500Y-1593820D01*
X183619Y-1595120D01*
X183000Y-1595740D01*
X180780Y-1598899D01*
X179160Y-1602420D01*
X178160Y-1606140D01*
X177820Y-1610000D01*
X178160Y-1613860D01*
X179160Y-1617580D01*
X180780Y-1621100D01*
X183000Y-1624259D01*
X185740Y-1627000D01*
X188900Y-1629220D01*
X190820Y-1630100D01*
X192040Y-1631000D01*
X192860Y-1632300D01*
X193120Y-1633800D01*
X192800Y-1635280D01*
X191940Y-1636560D01*
X139400Y-1689120D01*
X137380Y-1691560D01*
X135980Y-1694199D01*
X135120Y-1697040D01*
X134800Y-1700200D01*
X134800Y-1701360D01*
X134480Y-1702920D01*
X133580Y-1704240D01*
X132240Y-1705100D01*
X130680Y-1705360D01*
X129120Y-1705000D01*
X127840Y-1704060D01*
X126880Y-1702280D01*
X125680Y-1700360D01*
X124060Y-1698740D01*
X122140Y-1697520D01*
X119980Y-1696780D01*
X118760Y-1696639D01*
X117360Y-1696220D01*
X116220Y-1695320D01*
X115460Y-1694079D01*
X115200Y-1692660D01*
X115200Y-1677720D01*
X115500Y-1676180D01*
X116380Y-1674880D01*
X117000Y-1674259D01*
X119220Y-1671100D01*
X120840Y-1667580D01*
X121840Y-1663860D01*
X122180Y-1660000D01*
X121840Y-1656140D01*
X120840Y-1652420D01*
X119220Y-1648899D01*
X117000Y-1645740D01*
X114260Y-1643000D01*
X111100Y-1640780D01*
X107579Y-1639160D01*
X103859Y-1638160D01*
X100000Y-1637820D01*
X96140Y-1638160D01*
X92420Y-1639160D01*
X88900Y-1640780D01*
X85740Y-1643000D01*
X83000Y-1645740D01*
X80780Y-1648899D01*
X79160Y-1652420D01*
X78160Y-1656140D01*
X77820Y-1660000D01*
X78160Y-1663860D01*
X79160Y-1667580D01*
X80780Y-1671100D01*
X83000Y-1674259D01*
X83620Y-1674880D01*
X84500Y-1676180D01*
X84800Y-1677720D01*
X84800Y-1692660D01*
X84540Y-1694079D01*
X83780Y-1695320D01*
X82640Y-1696220D01*
X81240Y-1696639D01*
X80020Y-1696780D01*
X77860Y-1697520D01*
X75940Y-1698740D01*
X74320Y-1700360D01*
X73120Y-1702280D01*
X72360Y-1704440D01*
X72080Y-1706920D01*
X72080Y-1737960D01*
X72360Y-1740460D01*
X73120Y-1742600D01*
X74320Y-1744540D01*
X75940Y-1746140D01*
X76680Y-1746620D01*
X77840Y-1747720D01*
X78480Y-1749199D01*
X78480Y-1750800D01*
X77840Y-1752280D01*
X76680Y-1753380D01*
X75940Y-1753860D01*
X74320Y-1755460D01*
X73120Y-1757400D01*
X72360Y-1759540D01*
X72080Y-1762040D01*
X72080Y-1793080D01*
X72360Y-1795580D01*
X73120Y-1797720D01*
X74320Y-1799660D01*
X75940Y-1801260D01*
X77860Y-1802480D01*
X80020Y-1803220D01*
X81240Y-1803360D01*
X82640Y-1803779D01*
X83780Y-1804680D01*
X84540Y-1805920D01*
X84800Y-1807340D01*
X84800Y-1832920D01*
X84500Y-1834440D01*
X83620Y-1835740D01*
X83000Y-1836360D01*
X80780Y-1839540D01*
X79160Y-1843040D01*
X78160Y-1846780D01*
X77820Y-1850640D01*
X78160Y-1854480D01*
X79160Y-1858220D01*
X80780Y-1861720D01*
X83000Y-1864900D01*
X83620Y-1865520D01*
X84500Y-1866819D01*
X84800Y-1868340D01*
X84800Y-1892660D01*
X84540Y-1894079D01*
X83780Y-1895320D01*
X82640Y-1896220D01*
X81240Y-1896639D01*
X80020Y-1896780D01*
X77860Y-1897520D01*
X75940Y-1898740D01*
X74320Y-1900360D01*
X73120Y-1902280D01*
X72360Y-1904420D01*
X72080Y-1906920D01*
X72080Y-1937960D01*
X72360Y-1940460D01*
X73120Y-1942600D01*
X74320Y-1944540D01*
X75940Y-1946140D01*
X76680Y-1946620D01*
X77840Y-1947720D01*
X78480Y-1949199D01*
X78480Y-1950800D01*
X77840Y-1952280D01*
X76680Y-1953380D01*
X75940Y-1953860D01*
X74320Y-1955460D01*
X73120Y-1957400D01*
X72360Y-1959540D01*
X72080Y-1962040D01*
X72080Y-1967180D01*
X88640Y-1967180D01*
X88640Y-1952400D01*
X88940Y-1950860D01*
X89820Y-1949560D01*
X91120Y-1948700D01*
X92640Y-1948400D01*
X107360Y-1948400D01*
X108880Y-1948700D01*
X110180Y-1949560D01*
X111060Y-1950860D01*
X111359Y-1952400D01*
X111359Y-1967180D01*
X127920Y-1967180D01*
X127920Y-1962040D01*
X127640Y-1959540D01*
X126880Y-1957400D01*
X125680Y-1955460D01*
X124060Y-1953860D01*
X123320Y-1953380D01*
X122160Y-1952280D01*
X121519Y-1950800D01*
X121519Y-1949199D01*
X122160Y-1947720D01*
X123320Y-1946620D01*
X124060Y-1946140D01*
X125680Y-1944540D01*
X126880Y-1942600D01*
X127640Y-1940460D01*
X127920Y-1937960D01*
X127920Y-1906920D01*
X127640Y-1904420D01*
X126880Y-1902280D01*
X125680Y-1900360D01*
X124060Y-1898740D01*
X122140Y-1897520D01*
X119980Y-1896780D01*
X118760Y-1896639D01*
X117360Y-1896220D01*
X116220Y-1895320D01*
X115460Y-1894079D01*
X115200Y-1892660D01*
X115200Y-1868340D01*
X115500Y-1866819D01*
X116380Y-1865520D01*
X117000Y-1864900D01*
X119220Y-1861720D01*
X120840Y-1858220D01*
X121840Y-1854480D01*
X122180Y-1850640D01*
X121840Y-1846780D01*
X120840Y-1843040D01*
X119220Y-1839540D01*
X117000Y-1836360D01*
X116380Y-1835740D01*
X115500Y-1834440D01*
X115200Y-1832920D01*
X115200Y-1807340D01*
X115460Y-1805920D01*
X116220Y-1804680D01*
X117360Y-1803779D01*
X118760Y-1803360D01*
X119980Y-1803220D01*
X122140Y-1802480D01*
X124060Y-1801260D01*
X125680Y-1799660D01*
X126880Y-1797720D01*
X127640Y-1795580D01*
X127920Y-1793080D01*
X127920Y-1762040D01*
X127640Y-1759540D01*
X126880Y-1757400D01*
X125680Y-1755460D01*
X124060Y-1753860D01*
X123320Y-1753380D01*
X122160Y-1752280D01*
X121519Y-1750800D01*
X121519Y-1749199D01*
X122160Y-1747720D01*
X123320Y-1746620D01*
X124060Y-1746140D01*
X125680Y-1744540D01*
X126880Y-1742600D01*
X127840Y-1740840D01*
X129120Y-1739900D01*
X130680Y-1739520D01*
X132240Y-1739800D01*
X133580Y-1740660D01*
X134480Y-1741960D01*
X134800Y-1743520D01*
X134800Y-1749800D01*
X135120Y-1752960D01*
X135980Y-1755800D01*
X137380Y-1758440D01*
X139400Y-1760880D01*
X166680Y-1788160D01*
X169120Y-1790180D01*
X170080Y-1790680D01*
X171100Y-1791459D01*
X171820Y-1792540D01*
X172160Y-1793760D01*
X172360Y-1795580D01*
X173120Y-1797720D01*
X174320Y-1799660D01*
X175940Y-1801260D01*
X177860Y-1802480D01*
X180020Y-1803220D01*
X181240Y-1803360D01*
X182640Y-1803779D01*
X183780Y-1804680D01*
X184540Y-1805920D01*
X184800Y-1807340D01*
X184800Y-1892660D01*
X184540Y-1894079D01*
X183780Y-1895320D01*
X182640Y-1896220D01*
X181240Y-1896639D01*
X180020Y-1896780D01*
X177860Y-1897520D01*
X175940Y-1898740D01*
X174320Y-1900360D01*
X173120Y-1902280D01*
X172360Y-1904420D01*
X172079Y-1906920D01*
X172079Y-1937960D01*
X172360Y-1940460D01*
X173120Y-1942600D01*
X174320Y-1944540D01*
X175940Y-1946140D01*
X176680Y-1946620D01*
X177840Y-1947720D01*
X178480Y-1949199D01*
X178480Y-1950800D01*
X177840Y-1952280D01*
X176680Y-1953380D01*
X175940Y-1953860D01*
X174320Y-1955460D01*
X173120Y-1957400D01*
X172360Y-1959540D01*
X172079Y-1962040D01*
X172079Y-1967180D01*
X188640Y-1967180D01*
X188640Y-1952400D01*
X188939Y-1950860D01*
X189820Y-1949560D01*
X191119Y-1948700D01*
X192640Y-1948400D01*
X207360Y-1948400D01*
X208880Y-1948700D01*
X210180Y-1949560D01*
X211060Y-1950860D01*
X211360Y-1952400D01*
X211360Y-1967180D01*
X227920Y-1967180D01*
X227920Y-1962040D01*
X227640Y-1959540D01*
X226880Y-1957400D01*
X225680Y-1955460D01*
X224060Y-1953860D01*
X223320Y-1953380D01*
X222160Y-1952280D01*
X221520Y-1950800D01*
X221520Y-1949199D01*
X222160Y-1947720D01*
X223320Y-1946620D01*
X224060Y-1946140D01*
X225680Y-1944540D01*
X226880Y-1942600D01*
X227640Y-1940460D01*
X227920Y-1937960D01*
X227920Y-1906920D01*
X227640Y-1904420D01*
X226880Y-1902280D01*
X225680Y-1900360D01*
X224060Y-1898740D01*
X222140Y-1897520D01*
X219980Y-1896780D01*
X218760Y-1896639D01*
X217360Y-1896220D01*
X216220Y-1895320D01*
X215460Y-1894079D01*
X215200Y-1892660D01*
X215200Y-1807340D01*
X215460Y-1805920D01*
X216220Y-1804680D01*
X217360Y-1803779D01*
X218760Y-1803360D01*
X219980Y-1803220D01*
X222140Y-1802480D01*
X224060Y-1801260D01*
X225680Y-1799660D01*
X226880Y-1797720D01*
X227640Y-1795580D01*
X227920Y-1793080D01*
X227920Y-1762040D01*
X227640Y-1759540D01*
X226880Y-1757400D01*
X225680Y-1755460D01*
X224060Y-1753860D01*
X223320Y-1753380D01*
X222160Y-1752280D01*
X221520Y-1750800D01*
X221520Y-1749199D01*
X222160Y-1747720D01*
X223320Y-1746620D01*
X224060Y-1746140D01*
X225680Y-1744540D01*
X226880Y-1742600D01*
X227680Y-1740320D01*
X228520Y-1738920D01*
X229860Y-1737980D01*
X231460Y-1737640D01*
X268540Y-1737640D01*
X270140Y-1737980D01*
X271480Y-1738920D01*
X272320Y-1740320D01*
X273120Y-1742600D01*
X274320Y-1744540D01*
X275940Y-1746140D01*
X276680Y-1746620D01*
X277840Y-1747720D01*
X278480Y-1749199D01*
X278480Y-1750800D01*
X277840Y-1752280D01*
X276680Y-1753380D01*
X275940Y-1753860D01*
X274320Y-1755460D01*
X273120Y-1757400D01*
X272360Y-1759540D01*
X272080Y-1762040D01*
X272080Y-1767180D01*
X288640Y-1767180D01*
X288640Y-1752400D01*
X288940Y-1750860D01*
X289820Y-1749560D01*
X291120Y-1748700D01*
X292640Y-1748400D01*
X307360Y-1748400D01*
X308880Y-1748700D01*
X310180Y-1749560D01*
X311060Y-1750860D01*
X311360Y-1752400D01*
X311360Y-1767180D01*
X330800Y-1767180D01*
X332340Y-1767500D01*
X333620Y-1768360D01*
X334500Y-1769660D01*
X334799Y-1771180D01*
X334799Y-1783940D01*
X334500Y-1785460D01*
X333620Y-1786759D01*
X332340Y-1787620D01*
X330800Y-1787940D01*
X311360Y-1787940D01*
X311360Y-1803500D01*
X317500Y-1803500D01*
X319980Y-1803220D01*
X322140Y-1802480D01*
X324060Y-1801260D01*
X325680Y-1799660D01*
X326880Y-1797720D01*
X327840Y-1795960D01*
X329120Y-1795000D01*
X330680Y-1794640D01*
X332239Y-1794900D01*
X333579Y-1795760D01*
X334480Y-1797080D01*
X334799Y-1798640D01*
X334799Y-1814800D01*
X335120Y-1817960D01*
X335980Y-1820800D01*
X337380Y-1823440D01*
X339400Y-1825880D01*
X374120Y-1860600D01*
X376560Y-1862620D01*
X379200Y-1864019D01*
X382040Y-1864880D01*
X385200Y-1865200D01*
X512980Y-1865200D01*
X514380Y-1865460D01*
X515600Y-1866180D01*
X516480Y-1867280D01*
X517020Y-1868280D01*
X519920Y-1872140D01*
X523340Y-1875560D01*
X527200Y-1878440D01*
X531420Y-1880760D01*
X535940Y-1882440D01*
X540660Y-1883460D01*
X545480Y-1883820D01*
X550280Y-1883460D01*
X555000Y-1882440D01*
X559520Y-1880760D01*
X563760Y-1878440D01*
X567620Y-1875560D01*
X571020Y-1872140D01*
X571800Y-1871100D01*
X572880Y-1870120D01*
X574260Y-1869580D01*
X575740Y-1869580D01*
X577120Y-1870120D01*
X578200Y-1871100D01*
X578980Y-1872140D01*
X582380Y-1875560D01*
X586240Y-1878440D01*
X590480Y-1880760D01*
X595000Y-1882440D01*
X599720Y-1883460D01*
X604520Y-1883820D01*
X609340Y-1883460D01*
X614060Y-1882440D01*
X618580Y-1880760D01*
X622800Y-1878440D01*
X626680Y-1875560D01*
X630080Y-1872140D01*
X631560Y-1870160D01*
X632440Y-1869300D01*
X633540Y-1868760D01*
X634760Y-1868560D01*
X649140Y-1868560D01*
X650680Y-1868860D01*
X651979Y-1869740D01*
X780380Y-1998120D01*
X781240Y-1999420D01*
X781540Y-2000960D01*
X781240Y-2002480D01*
X780380Y-2003779D01*
X779080Y-2004660D01*
X777540Y-2004960D01*
X771100Y-2004960D01*
X768600Y-2005240D01*
X766460Y-2006000D01*
X764520Y-2007200D01*
X762920Y-2008820D01*
X761700Y-2010740D01*
X760939Y-2012900D01*
X760660Y-2015380D01*
X760660Y-2034620D01*
X760939Y-2037100D01*
X761700Y-2039259D01*
X762920Y-2041180D01*
X764520Y-2042800D01*
X766460Y-2044000D01*
X768600Y-2044760D01*
X771100Y-2045040D01*
X833640Y-2045040D01*
X836120Y-2044760D01*
X838280Y-2044000D01*
X840200Y-2042800D01*
X841820Y-2041180D01*
X843020Y-2039259D01*
X843780Y-2037100D01*
X844060Y-2034620D01*
X844060Y-2015380D01*
X843780Y-2012900D01*
X843020Y-2010740D01*
X841820Y-2008820D01*
X840200Y-2007200D01*
X838280Y-2006000D01*
X836120Y-2005240D01*
X833640Y-2004960D01*
X821560Y-2004960D01*
X820020Y-2004660D01*
X818720Y-2003779D01*
X817860Y-2002480D01*
X817560Y-2000960D01*
X817560Y-1998820D01*
X817240Y-1995660D01*
X816380Y-1992800D01*
X814980Y-1990180D01*
X812960Y-1987740D01*
X667980Y-1842760D01*
X665540Y-1840740D01*
X662920Y-1839340D01*
X660060Y-1838480D01*
X656900Y-1838160D01*
X638860Y-1838160D01*
X637460Y-1837900D01*
X636240Y-1837180D01*
X635360Y-1836080D01*
X632980Y-1831720D01*
X630080Y-1827860D01*
X626680Y-1824440D01*
X622800Y-1821560D01*
X618580Y-1819240D01*
X614060Y-1817560D01*
X609340Y-1816540D01*
X604520Y-1816180D01*
X599720Y-1816540D01*
X595000Y-1817560D01*
X590480Y-1819240D01*
X586240Y-1821560D01*
X582380Y-1824440D01*
X578980Y-1827860D01*
X578200Y-1828899D01*
X577120Y-1829880D01*
X575740Y-1830420D01*
X574260Y-1830420D01*
X572880Y-1829880D01*
X571800Y-1828899D01*
X571020Y-1827860D01*
X567620Y-1824440D01*
X563760Y-1821560D01*
X559520Y-1819240D01*
X555000Y-1817560D01*
X550280Y-1816540D01*
X545480Y-1816180D01*
X540660Y-1816540D01*
X535940Y-1817560D01*
X531420Y-1819240D01*
X527200Y-1821560D01*
X523340Y-1824440D01*
X519920Y-1827860D01*
X517020Y-1831720D01*
X516480Y-1832720D01*
X515600Y-1833820D01*
X514380Y-1834540D01*
X512980Y-1834800D01*
X392960Y-1834800D01*
X391420Y-1834500D01*
X390120Y-1833620D01*
X366380Y-1809880D01*
X365500Y-1808580D01*
X365200Y-1807040D01*
X365200Y-1798640D01*
X365520Y-1797080D01*
X366420Y-1795760D01*
X367760Y-1794900D01*
X369320Y-1794640D01*
X370880Y-1795000D01*
X372160Y-1795960D01*
X373120Y-1797720D01*
X374320Y-1799660D01*
X375940Y-1801260D01*
X377860Y-1802480D01*
X380020Y-1803220D01*
X382500Y-1803500D01*
X388640Y-1803500D01*
X388640Y-1787940D01*
X369200Y-1787940D01*
X367660Y-1787620D01*
X366380Y-1786759D01*
X365500Y-1785460D01*
X365200Y-1783940D01*
X365200Y-1771180D01*
X365500Y-1769660D01*
X366380Y-1768360D01*
X367660Y-1767500D01*
X369200Y-1767180D01*
X388640Y-1767180D01*
X388640Y-1752400D01*
X388940Y-1750860D01*
X389820Y-1749560D01*
X391120Y-1748700D01*
X392640Y-1748400D01*
X407360Y-1748400D01*
X408880Y-1748700D01*
X410180Y-1749560D01*
X411060Y-1750860D01*
X411360Y-1752400D01*
X411360Y-1767180D01*
X427920Y-1767180D01*
X427920Y-1762040D01*
X427640Y-1759540D01*
X426880Y-1757400D01*
X425680Y-1755460D01*
X424060Y-1753860D01*
X423320Y-1753380D01*
X422160Y-1752280D01*
X421520Y-1750800D01*
X421520Y-1749199D01*
X422160Y-1747720D01*
X423320Y-1746620D01*
X424060Y-1746140D01*
X425680Y-1744540D01*
X426880Y-1742600D01*
X427640Y-1740460D01*
X427920Y-1737960D01*
X427920Y-1706920D01*
X427640Y-1704440D01*
X426880Y-1702280D01*
X425680Y-1700360D01*
X424060Y-1698740D01*
X422140Y-1697520D01*
X419980Y-1696780D01*
X418760Y-1696639D01*
X417360Y-1696220D01*
X416220Y-1695320D01*
X415460Y-1694079D01*
X415200Y-1692660D01*
X415200Y-1677720D01*
X415500Y-1676180D01*
X416380Y-1674880D01*
X417000Y-1674259D01*
X419219Y-1671100D01*
X420840Y-1667580D01*
X421840Y-1663860D01*
X422180Y-1660000D01*
X421840Y-1656140D01*
X420840Y-1652420D01*
X419219Y-1648899D01*
X417000Y-1645740D01*
X414260Y-1643000D01*
X411100Y-1640780D01*
X407580Y-1639160D01*
X403860Y-1638160D01*
X400000Y-1637820D01*
X396140Y-1638160D01*
X392420Y-1639160D01*
X388900Y-1640780D01*
X385740Y-1643000D01*
X383000Y-1645740D01*
X380780Y-1648899D01*
X379159Y-1652420D01*
X378160Y-1656140D01*
X377819Y-1660000D01*
X378160Y-1663860D01*
X379159Y-1667580D01*
X380780Y-1671100D01*
X383000Y-1674259D01*
X383620Y-1674880D01*
X384500Y-1676180D01*
X384799Y-1677720D01*
X384799Y-1692660D01*
X384540Y-1694079D01*
X383780Y-1695320D01*
X382640Y-1696220D01*
X381240Y-1696639D01*
X380020Y-1696780D01*
X377860Y-1697520D01*
X375940Y-1698740D01*
X374320Y-1700360D01*
X373120Y-1702280D01*
X372360Y-1704440D01*
X372080Y-1706920D01*
X372080Y-1733779D01*
X371760Y-1735380D01*
X370840Y-1736699D01*
X369460Y-1737540D01*
X367860Y-1737780D01*
X366300Y-1737360D01*
X365020Y-1736380D01*
X364260Y-1734960D01*
X364020Y-1734199D01*
X362620Y-1731560D01*
X360600Y-1729120D01*
X343320Y-1711840D01*
X340880Y-1709820D01*
X338240Y-1708420D01*
X335400Y-1707560D01*
X332239Y-1707240D01*
X331460Y-1707240D01*
X329860Y-1706900D01*
X328519Y-1705960D01*
X327680Y-1704560D01*
X326880Y-1702280D01*
X325680Y-1700360D01*
X324060Y-1698740D01*
X322140Y-1697520D01*
X319980Y-1696780D01*
X317500Y-1696500D01*
X282500Y-1696500D01*
X280020Y-1696780D01*
X277860Y-1697520D01*
X275940Y-1698740D01*
X274320Y-1700360D01*
X273120Y-1702280D01*
X272320Y-1704560D01*
X271480Y-1705960D01*
X270140Y-1706900D01*
X268540Y-1707240D01*
X231460Y-1707240D01*
X229860Y-1706900D01*
X228520Y-1705960D01*
X227680Y-1704560D01*
X226880Y-1702280D01*
X225680Y-1700360D01*
X224060Y-1698740D01*
X222140Y-1697520D01*
X219980Y-1696780D01*
X217500Y-1696500D01*
X184660Y-1696500D01*
X183120Y-1696200D01*
X181820Y-1695320D01*
X180960Y-1694019D01*
X180660Y-1692500D01*
X180960Y-1690960D01*
X181820Y-1689660D01*
X310600Y-1560880D01*
X312620Y-1558440D01*
X314020Y-1555800D01*
X314920Y-1552840D01*
X315740Y-1551360D01*
X317100Y-1550360D01*
X318760Y-1550000D01*
X443240Y-1550000D01*
X444780Y-1550300D01*
X446060Y-1551180D01*
X446940Y-1552460D01*
X447239Y-1554000D01*
X447239Y-1563520D01*
X446960Y-1564980D01*
X445860Y-1567820D01*
X445000Y-1571879D01*
X444840Y-1576040D01*
X445340Y-1580160D01*
X446540Y-1584160D01*
X448360Y-1587900D01*
X450780Y-1591279D01*
X453720Y-1594220D01*
X457100Y-1596639D01*
X460840Y-1598460D01*
X464840Y-1599660D01*
X468960Y-1600160D01*
X473120Y-1600000D01*
X477180Y-1599139D01*
X481060Y-1597620D01*
X484640Y-1595500D01*
X487939Y-1592700D01*
X490180Y-1590460D01*
X492380Y-1587980D01*
X494640Y-1584480D01*
X495040Y-1583700D01*
X496300Y-1580660D01*
X496560Y-1579820D01*
X497440Y-1575760D01*
X497640Y-1572440D01*
X497640Y-1554000D01*
X497939Y-1552460D01*
X498820Y-1551180D01*
X500100Y-1550300D01*
X501640Y-1550000D01*
X527700Y-1550000D01*
X529240Y-1550300D01*
X530540Y-1551180D01*
X744880Y-1765520D01*
X745759Y-1766819D01*
X746060Y-1768360D01*
X746060Y-1795060D01*
X745860Y-1796339D01*
X745240Y-1797480D01*
X742020Y-1801740D01*
X739720Y-1805960D01*
X738020Y-1810480D01*
X737000Y-1815180D01*
X736660Y-1820000D01*
X737000Y-1824820D01*
X738020Y-1829520D01*
X739720Y-1834040D01*
X742020Y-1838260D01*
X745240Y-1842520D01*
X745860Y-1843660D01*
X746060Y-1844940D01*
X746060Y-1861140D01*
X746260Y-1864460D01*
X747140Y-1868520D01*
X747400Y-1869360D01*
X748660Y-1872400D01*
X749060Y-1873180D01*
X751320Y-1876680D01*
X753520Y-1879160D01*
X817099Y-1942740D01*
X819580Y-1944940D01*
X823080Y-1947200D01*
X823860Y-1947600D01*
X826900Y-1948860D01*
X827740Y-1949120D01*
X831800Y-1950000D01*
X835120Y-1950200D01*
X920800Y-1950200D01*
X922340Y-1950500D01*
X923620Y-1951380D01*
X924500Y-1952660D01*
X924800Y-1954199D01*
X924800Y-2077900D01*
X924500Y-2079440D01*
X923620Y-2080740D01*
X905740Y-2098620D01*
X904440Y-2099500D01*
X902900Y-2099800D01*
X842860Y-2099800D01*
X841320Y-2099500D01*
X840020Y-2098620D01*
X839160Y-2097340D01*
X838860Y-2095800D01*
X839160Y-2094259D01*
X840020Y-2092980D01*
X841820Y-2091180D01*
X843020Y-2089259D01*
X843780Y-2087100D01*
X844060Y-2084620D01*
X844060Y-2082420D01*
X820600Y-2082420D01*
X820600Y-2095800D01*
X820300Y-2097340D01*
X819440Y-2098620D01*
X818139Y-2099500D01*
X816620Y-2099800D01*
X802520Y-2099800D01*
X798220Y-2100160D01*
X794180Y-2101180D01*
X790380Y-2102840D01*
X788139Y-2104300D01*
X787099Y-2104800D01*
X785960Y-2104960D01*
X771100Y-2104960D01*
X768600Y-2105240D01*
X766460Y-2106000D01*
X764520Y-2107200D01*
X762920Y-2108820D01*
X761700Y-2110740D01*
X760939Y-2112900D01*
X760660Y-2115380D01*
X760660Y-2134620D01*
X760939Y-2137100D01*
X761700Y-2139260D01*
X762920Y-2141180D01*
X764520Y-2142800D01*
X766460Y-2144000D01*
X768600Y-2144760D01*
X771100Y-2145040D01*
X785960Y-2145040D01*
X787099Y-2145200D01*
X788139Y-2145700D01*
X790699Y-2147300D01*
X791960Y-2148180D01*
X792800Y-2149480D01*
X793100Y-2151000D01*
X792780Y-2152520D01*
X791900Y-2153800D01*
X790620Y-2154660D01*
X789100Y-2154960D01*
X771100Y-2154960D01*
X768600Y-2155240D01*
X766460Y-2156000D01*
X764520Y-2157200D01*
X763100Y-2158620D01*
X761800Y-2159500D01*
X760260Y-2159800D01*
X736700Y-2159800D01*
X735160Y-2159500D01*
X733860Y-2158620D01*
X664620Y-2089400D01*
X662180Y-2087380D01*
X659539Y-2085980D01*
X656700Y-2085120D01*
X653540Y-2084800D01*
X637020Y-2084800D01*
X635620Y-2084540D01*
X634400Y-2083820D01*
X633520Y-2082720D01*
X632980Y-2081720D01*
X630080Y-2077860D01*
X626680Y-2074440D01*
X622800Y-2071560D01*
X618580Y-2069240D01*
X614060Y-2067560D01*
X609340Y-2066540D01*
X604520Y-2066180D01*
X599720Y-2066540D01*
X595000Y-2067560D01*
X590480Y-2069240D01*
X586240Y-2071560D01*
X582380Y-2074440D01*
X578980Y-2077860D01*
X578200Y-2078899D01*
X577120Y-2079880D01*
X575740Y-2080420D01*
X574260Y-2080420D01*
X572880Y-2079880D01*
X571800Y-2078899D01*
X571020Y-2077860D01*
X567620Y-2074440D01*
X563760Y-2071560D01*
X559520Y-2069240D01*
X555000Y-2067560D01*
X550280Y-2066540D01*
X545480Y-2066180D01*
X540660Y-2066540D01*
X535940Y-2067560D01*
X531420Y-2069240D01*
X527200Y-2071560D01*
X523340Y-2074440D01*
X519920Y-2077860D01*
X517020Y-2081720D01*
X516480Y-2082720D01*
X515600Y-2083820D01*
X514380Y-2084540D01*
X512980Y-2084800D01*
X417720Y-2084800D01*
X416180Y-2084500D01*
X414880Y-2083620D01*
X414260Y-2083000D01*
X411100Y-2080780D01*
X407580Y-2079160D01*
X403860Y-2078160D01*
X400000Y-2077820D01*
X396140Y-2078160D01*
X392420Y-2079160D01*
X388900Y-2080780D01*
X385740Y-2083000D01*
X383000Y-2085740D01*
X380780Y-2088899D01*
X379159Y-2092420D01*
X378160Y-2096140D01*
X377819Y-2100000D01*
X378160Y-2103860D01*
X379159Y-2107580D01*
X380780Y-2111100D01*
X383000Y-2114260D01*
X385740Y-2117000D01*
X388900Y-2119220D01*
X392420Y-2120840D01*
X396140Y-2121840D01*
X400000Y-2122180D01*
X403860Y-2121840D01*
X407580Y-2120840D01*
X411100Y-2119220D01*
X414260Y-2117000D01*
X414880Y-2116380D01*
X416180Y-2115500D01*
X417720Y-2115200D01*
X512980Y-2115200D01*
X514380Y-2115460D01*
X515600Y-2116180D01*
X516480Y-2117280D01*
X517020Y-2118280D01*
X519920Y-2122140D01*
X523340Y-2125560D01*
X527200Y-2128440D01*
X531420Y-2130760D01*
X535940Y-2132440D01*
X540660Y-2133460D01*
X545480Y-2133820D01*
X550280Y-2133460D01*
X555000Y-2132440D01*
X559520Y-2130760D01*
X563760Y-2128440D01*
X567620Y-2125560D01*
X571020Y-2122140D01*
X571800Y-2121100D01*
X572880Y-2120120D01*
X574260Y-2119580D01*
X575740Y-2119580D01*
X577120Y-2120120D01*
X578200Y-2121100D01*
X578980Y-2122140D01*
X582380Y-2125560D01*
X586240Y-2128440D01*
X590480Y-2130760D01*
X595000Y-2132440D01*
X599720Y-2133460D01*
X604520Y-2133820D01*
X609340Y-2133460D01*
X614060Y-2132440D01*
X618580Y-2130760D01*
X622800Y-2128440D01*
X626680Y-2125560D01*
X630080Y-2122140D01*
X632980Y-2118280D01*
X633520Y-2117280D01*
X634400Y-2116180D01*
X635620Y-2115460D01*
X637020Y-2115200D01*
X645780Y-2115200D01*
X647320Y-2115500D01*
X648620Y-2116380D01*
X717860Y-2185600D01*
X720300Y-2187620D01*
X722940Y-2189020D01*
X725780Y-2189880D01*
X728940Y-2190200D01*
X760260Y-2190200D01*
X761800Y-2190500D01*
X763100Y-2191380D01*
X764520Y-2192800D01*
X766460Y-2194000D01*
X768600Y-2194760D01*
X771100Y-2195040D01*
X833640Y-2195040D01*
X836120Y-2194760D01*
X838280Y-2194000D01*
X840200Y-2192800D01*
X841820Y-2191180D01*
X843020Y-2189260D01*
X843780Y-2187100D01*
X844060Y-2184620D01*
X844060Y-2165380D01*
X843780Y-2162900D01*
X843020Y-2160740D01*
X841820Y-2158820D01*
X840020Y-2157020D01*
X839160Y-2155740D01*
X838860Y-2154200D01*
X839160Y-2152660D01*
X840020Y-2151380D01*
X841320Y-2150500D01*
X842860Y-2150200D01*
X914880Y-2150200D01*
X918199Y-2150000D01*
X922260Y-2149120D01*
X923100Y-2148860D01*
X926140Y-2147600D01*
X926919Y-2147200D01*
X930420Y-2144940D01*
X932900Y-2142740D01*
X967740Y-2107900D01*
X969940Y-2105420D01*
X972200Y-2101920D01*
X972600Y-2101140D01*
X973860Y-2098100D01*
X974120Y-2097260D01*
X975000Y-2093200D01*
X975200Y-2089880D01*
X975200Y-1954199D01*
X975500Y-1952660D01*
X976380Y-1951380D01*
X977660Y-1950500D01*
X979200Y-1950200D01*
X1044120Y-1950200D01*
X1045819Y-1950580D01*
X1047200Y-1951660D01*
X1048000Y-1953200D01*
X1048620Y-1955660D01*
X1049840Y-1958580D01*
X1050240Y-1959360D01*
X1052500Y-1962860D01*
X1054700Y-1965340D01*
X1077100Y-1987740D01*
X1079580Y-1989940D01*
X1083080Y-1992200D01*
X1083860Y-1992600D01*
X1086900Y-1993860D01*
X1087740Y-1994120D01*
X1091800Y-1995000D01*
X1095120Y-1995200D01*
X1185440Y-1995200D01*
X1187040Y-1995540D01*
X1188380Y-1996480D01*
X1189220Y-1997880D01*
X1189440Y-1999500D01*
X1188980Y-2001060D01*
X1187940Y-2002320D01*
X1186480Y-2003060D01*
X1182420Y-2004160D01*
X1178900Y-2005780D01*
X1175740Y-2008000D01*
X1175120Y-2008620D01*
X1173820Y-2009500D01*
X1172280Y-2009800D01*
X1139740Y-2009800D01*
X1138200Y-2009500D01*
X1136900Y-2008620D01*
X1135480Y-2007200D01*
X1133540Y-2006000D01*
X1131400Y-2005240D01*
X1128900Y-2004960D01*
X1066360Y-2004960D01*
X1063880Y-2005240D01*
X1061720Y-2006000D01*
X1059800Y-2007200D01*
X1058180Y-2008820D01*
X1056980Y-2010740D01*
X1056220Y-2012900D01*
X1055940Y-2015380D01*
X1055940Y-2034620D01*
X1056220Y-2037100D01*
X1056980Y-2039259D01*
X1058180Y-2041180D01*
X1059800Y-2042800D01*
X1061720Y-2044000D01*
X1063880Y-2044760D01*
X1066360Y-2045040D01*
X1128900Y-2045040D01*
X1131400Y-2044760D01*
X1133540Y-2044000D01*
X1135480Y-2042800D01*
X1136900Y-2041380D01*
X1138200Y-2040500D01*
X1139740Y-2040200D01*
X1172280Y-2040200D01*
X1173820Y-2040500D01*
X1175120Y-2041380D01*
X1175740Y-2042000D01*
X1178900Y-2044220D01*
X1182420Y-2045840D01*
X1183500Y-2046140D01*
X1185020Y-2046940D01*
X1186080Y-2048300D01*
X1186460Y-2050000D01*
X1186080Y-2051699D01*
X1185020Y-2053060D01*
X1183500Y-2053860D01*
X1182420Y-2054160D01*
X1178900Y-2055780D01*
X1175740Y-2058000D01*
X1175120Y-2058620D01*
X1173820Y-2059500D01*
X1172280Y-2059800D01*
X1139740Y-2059800D01*
X1138200Y-2059500D01*
X1136900Y-2058620D01*
X1135480Y-2057200D01*
X1133540Y-2056000D01*
X1131400Y-2055240D01*
X1128900Y-2054960D01*
X1066360Y-2054960D01*
X1063880Y-2055240D01*
X1061720Y-2056000D01*
X1059800Y-2057200D01*
X1058180Y-2058820D01*
X1056980Y-2060740D01*
X1056220Y-2062900D01*
X1055940Y-2065380D01*
X1055940Y-2084620D01*
X1056220Y-2087100D01*
X1056980Y-2089259D01*
X1058180Y-2091180D01*
X1059800Y-2092800D01*
X1061720Y-2094000D01*
X1063880Y-2094760D01*
X1066360Y-2095040D01*
X1128900Y-2095040D01*
X1131400Y-2094760D01*
X1133540Y-2094000D01*
X1135480Y-2092800D01*
X1136900Y-2091380D01*
X1138200Y-2090500D01*
X1139740Y-2090200D01*
X1172280Y-2090200D01*
X1173820Y-2090500D01*
X1175120Y-2091380D01*
X1175740Y-2092000D01*
X1178900Y-2094220D01*
X1182420Y-2095840D01*
X1186140Y-2096840D01*
X1190000Y-2097180D01*
X1193860Y-2096840D01*
X1197580Y-2095840D01*
X1201100Y-2094220D01*
X1204260Y-2092000D01*
X1207000Y-2089259D01*
X1209220Y-2086100D01*
X1210840Y-2082580D01*
X1211840Y-2078860D01*
X1212180Y-2075000D01*
X1211840Y-2071140D01*
X1210840Y-2067420D01*
X1209220Y-2063899D01*
X1207000Y-2060740D01*
X1204260Y-2058000D01*
X1201100Y-2055780D01*
X1197580Y-2054160D01*
X1196500Y-2053860D01*
X1194980Y-2053060D01*
X1193920Y-2051699D01*
X1193540Y-2050000D01*
X1193920Y-2048300D01*
X1194980Y-2046940D01*
X1196500Y-2046140D01*
X1197580Y-2045840D01*
X1201100Y-2044220D01*
X1204260Y-2042000D01*
X1207000Y-2039259D01*
X1209220Y-2036100D01*
X1210840Y-2032580D01*
X1211840Y-2028860D01*
X1212180Y-2025000D01*
X1211840Y-2021140D01*
X1210840Y-2017420D01*
X1209220Y-2013899D01*
X1207000Y-2010740D01*
X1204260Y-2008000D01*
X1201100Y-2005780D01*
X1197580Y-2004160D01*
X1193520Y-2003060D01*
X1192060Y-2002320D01*
X1191020Y-2001060D01*
X1190560Y-1999500D01*
X1190780Y-1997880D01*
X1191620Y-1996480D01*
X1192960Y-1995540D01*
X1194560Y-1995200D01*
X1237900Y-1995200D01*
X1239440Y-1995500D01*
X1240740Y-1996380D01*
X1270920Y-2026560D01*
X1271780Y-2027840D01*
X1272080Y-2029379D01*
X1272080Y-2037960D01*
X1272360Y-2040460D01*
X1273120Y-2042600D01*
X1274320Y-2044540D01*
X1275940Y-2046140D01*
X1276680Y-2046620D01*
X1277840Y-2047720D01*
X1278480Y-2049199D01*
X1278480Y-2050800D01*
X1277840Y-2052280D01*
X1276680Y-2053380D01*
X1275940Y-2053860D01*
X1274320Y-2055460D01*
X1273120Y-2057400D01*
X1272360Y-2059540D01*
X1272080Y-2062040D01*
X1272080Y-2093080D01*
X1272160Y-2095360D01*
X1271760Y-2096480D01*
X1271060Y-2097440D01*
X1259880Y-2108620D01*
X1258580Y-2109500D01*
X1257040Y-2109800D01*
X1139740Y-2109800D01*
X1138200Y-2109500D01*
X1136900Y-2108620D01*
X1135480Y-2107200D01*
X1133540Y-2106000D01*
X1131400Y-2105240D01*
X1128900Y-2104960D01*
X1066360Y-2104960D01*
X1063880Y-2105240D01*
X1061720Y-2106000D01*
X1059800Y-2107200D01*
X1058180Y-2108820D01*
X1056980Y-2110740D01*
X1056220Y-2112900D01*
X1055940Y-2115380D01*
X1055940Y-2134620D01*
X1056220Y-2137100D01*
X1056980Y-2139260D01*
X1058180Y-2141180D01*
X1059800Y-2142800D01*
X1061720Y-2144000D01*
X1063880Y-2144760D01*
X1066360Y-2145040D01*
X1128900Y-2145040D01*
X1131400Y-2144760D01*
X1133540Y-2144000D01*
X1135480Y-2142800D01*
X1136900Y-2141380D01*
X1138200Y-2140500D01*
X1139740Y-2140200D01*
X1264800Y-2140200D01*
X1267960Y-2139880D01*
X1270800Y-2139020D01*
X1273440Y-2137620D01*
X1275880Y-2135600D01*
X1306819Y-2104680D01*
X1308120Y-2103820D01*
X1309640Y-2103500D01*
X1317500Y-2103500D01*
X1319980Y-2103220D01*
X1322140Y-2102480D01*
X1324060Y-2101260D01*
X1325680Y-2099660D01*
X1326879Y-2097720D01*
X1327640Y-2095580D01*
X1327920Y-2093080D01*
X1327920Y-2062040D01*
X1327640Y-2059540D01*
X1326879Y-2057400D01*
X1325680Y-2055460D01*
X1324060Y-2053860D01*
X1323320Y-2053380D01*
X1322160Y-2052280D01*
X1321519Y-2050800D01*
X1321519Y-2049199D01*
X1322160Y-2047720D01*
X1323320Y-2046620D01*
X1324060Y-2046140D01*
X1325680Y-2044540D01*
X1326879Y-2042600D01*
X1327640Y-2040460D01*
X1327920Y-2037960D01*
X1327920Y-2006920D01*
X1327640Y-2004440D01*
X1326879Y-2002280D01*
X1325680Y-2000360D01*
X1324060Y-1998740D01*
X1322140Y-1997520D01*
X1319980Y-1996780D01*
X1317500Y-1996500D01*
X1313800Y-1996500D01*
X1312260Y-1996200D01*
X1310960Y-1995320D01*
X1267900Y-1952260D01*
X1265420Y-1950060D01*
X1261920Y-1947800D01*
X1261140Y-1947400D01*
X1258100Y-1946140D01*
X1257260Y-1945880D01*
X1253200Y-1945000D01*
X1249880Y-1944800D01*
X1157500Y-1944800D01*
X1155980Y-1944500D01*
X1154680Y-1943620D01*
X1153800Y-1942340D01*
X1153500Y-1940800D01*
X1153500Y-1936360D01*
X1137920Y-1936360D01*
X1137920Y-1940800D01*
X1137620Y-1942340D01*
X1136760Y-1943620D01*
X1135460Y-1944500D01*
X1133920Y-1944800D01*
X1121180Y-1944800D01*
X1119660Y-1944500D01*
X1118360Y-1943620D01*
X1117480Y-1942340D01*
X1117180Y-1940800D01*
X1117180Y-1936360D01*
X1102380Y-1936360D01*
X1100860Y-1936060D01*
X1099560Y-1935180D01*
X1098700Y-1933880D01*
X1098400Y-1932360D01*
X1098400Y-1917640D01*
X1098700Y-1916120D01*
X1099560Y-1914820D01*
X1100860Y-1913940D01*
X1102380Y-1913640D01*
X1117180Y-1913640D01*
X1117180Y-1897080D01*
X1112040Y-1897080D01*
X1109540Y-1897360D01*
X1107400Y-1898120D01*
X1105460Y-1899319D01*
X1103860Y-1900940D01*
X1103380Y-1901680D01*
X1102280Y-1902840D01*
X1100800Y-1903480D01*
X1099200Y-1903480D01*
X1097720Y-1902840D01*
X1096620Y-1901680D01*
X1096140Y-1900940D01*
X1094540Y-1899319D01*
X1092600Y-1898120D01*
X1090460Y-1897360D01*
X1087960Y-1897080D01*
X1056920Y-1897080D01*
X1054420Y-1897360D01*
X1052280Y-1898120D01*
X1050580Y-1899180D01*
X1049560Y-1899640D01*
X1048439Y-1899800D01*
X847099Y-1899800D01*
X845560Y-1899500D01*
X844260Y-1898620D01*
X797640Y-1852000D01*
X796760Y-1850700D01*
X796460Y-1849160D01*
X796460Y-1844120D01*
X796800Y-1842500D01*
X797760Y-1841160D01*
X799200Y-1840320D01*
X800840Y-1840140D01*
X802420Y-1840640D01*
X807380Y-1845560D01*
X811240Y-1848440D01*
X815220Y-1850620D01*
X815220Y-1834319D01*
X806840Y-1834319D01*
X805120Y-1833920D01*
X803720Y-1832820D01*
X802940Y-1831240D01*
X802920Y-1829460D01*
X803940Y-1824820D01*
X804280Y-1820000D01*
X803940Y-1815180D01*
X802920Y-1810540D01*
X802940Y-1808760D01*
X803720Y-1807180D01*
X805120Y-1806080D01*
X806840Y-1805680D01*
X815220Y-1805680D01*
X815220Y-1789379D01*
X811240Y-1791560D01*
X807380Y-1794440D01*
X802420Y-1799360D01*
X800840Y-1799860D01*
X799200Y-1799680D01*
X797760Y-1798839D01*
X796800Y-1797500D01*
X796460Y-1795880D01*
X796460Y-1756380D01*
X796260Y-1753060D01*
X795380Y-1749000D01*
X795120Y-1748160D01*
X793860Y-1745120D01*
X793460Y-1744340D01*
X791200Y-1740840D01*
X789000Y-1738360D01*
X607460Y-1556819D01*
X606600Y-1555540D01*
X606300Y-1554000D01*
X606600Y-1552460D01*
X607460Y-1551180D01*
X608760Y-1550300D01*
X610300Y-1550000D01*
X748340Y-1550000D01*
X749880Y-1550300D01*
X751180Y-1551180D01*
X949720Y-1749720D01*
X950400Y-1750000D01*
X1021840Y-1750000D01*
X1023379Y-1750300D01*
X1024680Y-1751180D01*
X1044120Y-1770600D01*
X1046560Y-1772620D01*
X1049200Y-1774019D01*
X1052040Y-1774880D01*
X1055200Y-1775200D01*
X1202040Y-1775200D01*
X1203580Y-1775500D01*
X1204880Y-1776380D01*
X1353620Y-1925120D01*
X1354500Y-1926420D01*
X1354800Y-1927960D01*
X1354800Y-2097040D01*
X1354500Y-2098580D01*
X1353620Y-2099880D01*
X1294880Y-2158620D01*
X1293580Y-2159500D01*
X1292040Y-2159800D01*
X1139740Y-2159800D01*
X1138200Y-2159500D01*
X1136900Y-2158620D01*
X1135480Y-2157200D01*
X1133540Y-2156000D01*
X1131400Y-2155240D01*
X1128900Y-2154960D01*
X1066360Y-2154960D01*
X1063880Y-2155240D01*
X1061720Y-2156000D01*
X1059800Y-2157200D01*
X1058180Y-2158820D01*
X1056980Y-2160740D01*
X1056220Y-2162900D01*
X1055940Y-2165380D01*
X1055940Y-2184620D01*
X1056220Y-2187100D01*
X1056980Y-2189260D01*
X1058180Y-2191180D01*
X1059800Y-2192800D01*
X1061720Y-2194000D01*
X1063880Y-2194760D01*
X1066360Y-2195040D01*
X1128900Y-2195040D01*
X1131400Y-2194760D01*
X1133540Y-2194000D01*
X1135480Y-2192800D01*
X1136900Y-2191380D01*
X1138200Y-2190500D01*
X1139740Y-2190200D01*
X1299800Y-2190200D01*
X1302960Y-2189880D01*
X1305800Y-2189020D01*
X1308440Y-2187620D01*
X1310880Y-2185600D01*
X1380600Y-2115880D01*
X1382620Y-2113440D01*
X1384019Y-2110800D01*
X1384880Y-2107960D01*
X1385200Y-2104800D01*
X1385200Y-1920200D01*
X1384880Y-1917040D01*
X1384019Y-1914199D01*
X1382620Y-1911560D01*
X1380600Y-1909120D01*
X1228320Y-1756819D01*
X1227460Y-1755540D01*
X1227160Y-1754000D01*
X1227460Y-1752460D01*
X1228320Y-1751180D01*
X1229620Y-1750300D01*
X1231160Y-1750000D01*
X1295800Y-1750000D01*
X1297340Y-1750300D01*
X1298620Y-1751180D01*
X1299500Y-1752460D01*
X1299800Y-1754000D01*
X1299800Y-1799800D01*
X1300120Y-1802960D01*
X1300980Y-1805800D01*
X1302380Y-1808440D01*
X1304400Y-1810880D01*
X1351680Y-1858160D01*
X1354120Y-1860180D01*
X1356759Y-1861579D01*
X1359600Y-1862440D01*
X1362760Y-1862760D01*
X1368540Y-1862760D01*
X1370140Y-1863100D01*
X1371480Y-1864040D01*
X1372320Y-1865440D01*
X1373120Y-1867720D01*
X1374319Y-1869640D01*
X1375940Y-1871260D01*
X1377860Y-1872480D01*
X1380020Y-1873220D01*
X1382500Y-1873500D01*
X1417500Y-1873500D01*
X1419980Y-1873220D01*
X1422140Y-1872480D01*
X1424060Y-1871260D01*
X1425680Y-1869640D01*
X1426879Y-1867720D01*
X1427680Y-1865440D01*
X1428520Y-1864040D01*
X1429860Y-1863100D01*
X1431459Y-1862760D01*
X1479680Y-1862760D01*
X1482840Y-1862440D01*
X1485680Y-1861579D01*
X1488320Y-1860180D01*
X1490760Y-1858160D01*
X1514840Y-1834079D01*
X1516140Y-1833220D01*
X1517680Y-1832920D01*
X1537960Y-1832920D01*
X1540460Y-1832640D01*
X1542600Y-1831879D01*
X1544540Y-1830680D01*
X1546140Y-1829060D01*
X1546620Y-1828320D01*
X1547720Y-1827160D01*
X1549199Y-1826519D01*
X1550800Y-1826519D01*
X1552280Y-1827160D01*
X1553380Y-1828320D01*
X1553860Y-1829060D01*
X1555460Y-1830680D01*
X1557400Y-1831879D01*
X1559680Y-1832680D01*
X1561080Y-1833520D01*
X1562020Y-1834860D01*
X1562360Y-1836459D01*
X1562360Y-2164480D01*
X1562060Y-2166020D01*
X1561180Y-2167320D01*
X1494880Y-2233620D01*
X1493580Y-2234500D01*
X1492040Y-2234800D01*
G37*

%LPC*%
G36*
X771100Y-2095040D02*
G01*
X784120Y-2095040D01*
X784120Y-2082420D01*
X760660Y-2082420D01*
X760660Y-2084620D01*
X760939Y-2087100D01*
X761700Y-2089259D01*
X762920Y-2091180D01*
X764520Y-2092800D01*
X766460Y-2094000D01*
X768600Y-2094760D01*
G37*
G36*
X820600Y-2067580D02*
G01*
X844060Y-2067580D01*
X844060Y-2065380D01*
X843780Y-2062900D01*
X843020Y-2060740D01*
X841820Y-2058820D01*
X840200Y-2057200D01*
X838280Y-2056000D01*
X836120Y-2055240D01*
X833640Y-2054960D01*
X820600Y-2054960D01*
G37*
G36*
X760660Y-2067580D02*
G01*
X784120Y-2067580D01*
X784120Y-2054960D01*
X771100Y-2054960D01*
X768600Y-2055240D01*
X766460Y-2056000D01*
X764520Y-2057200D01*
X762920Y-2058820D01*
X761700Y-2060740D01*
X760939Y-2062900D01*
X760660Y-2065380D01*
G37*
G36*
X111359Y-2003500D02*
G01*
X117500Y-2003500D01*
X119980Y-2003220D01*
X122140Y-2002480D01*
X124060Y-2001260D01*
X125680Y-1999640D01*
X126880Y-1997720D01*
X127640Y-1995560D01*
X127920Y-1993080D01*
X127920Y-1987920D01*
X111359Y-1987920D01*
G37*
G36*
X182500Y-2003500D02*
G01*
X188640Y-2003500D01*
X188640Y-1987920D01*
X172079Y-1987920D01*
X172079Y-1993080D01*
X172360Y-1995560D01*
X173120Y-1997720D01*
X174320Y-1999640D01*
X175940Y-2001260D01*
X177860Y-2002480D01*
X180020Y-2003220D01*
G37*
G36*
X211360Y-2003500D02*
G01*
X217500Y-2003500D01*
X219980Y-2003220D01*
X222140Y-2002480D01*
X224060Y-2001260D01*
X225680Y-1999640D01*
X226880Y-1997720D01*
X227640Y-1995560D01*
X227920Y-1993080D01*
X227920Y-1987920D01*
X211360Y-1987920D01*
G37*
G36*
X82500Y-2003500D02*
G01*
X88640Y-2003500D01*
X88640Y-1987920D01*
X72080Y-1987920D01*
X72080Y-1993080D01*
X72360Y-1995560D01*
X73120Y-1997720D01*
X74320Y-1999640D01*
X75940Y-2001260D01*
X77860Y-2002480D01*
X80020Y-2003220D01*
G37*
G36*
X1137920Y-1913640D02*
G01*
X1153500Y-1913640D01*
X1153500Y-1907500D01*
X1153220Y-1905020D01*
X1152480Y-1902860D01*
X1151260Y-1900940D01*
X1149640Y-1899319D01*
X1147720Y-1898120D01*
X1145560Y-1897360D01*
X1143080Y-1897080D01*
X1137920Y-1897080D01*
G37*
G36*
X843840Y-1850620D02*
G01*
X847800Y-1848440D01*
X851680Y-1845560D01*
X855080Y-1842140D01*
X857980Y-1838280D01*
X860140Y-1834319D01*
X843840Y-1834319D01*
G37*
G36*
X843840Y-1805680D02*
G01*
X860140Y-1805680D01*
X857980Y-1801720D01*
X855080Y-1797860D01*
X851680Y-1794440D01*
X847800Y-1791560D01*
X843840Y-1789379D01*
G37*
G36*
X282500Y-1803500D02*
G01*
X288640Y-1803500D01*
X288640Y-1787940D01*
X272080Y-1787940D01*
X272080Y-1793080D01*
X272360Y-1795580D01*
X273120Y-1797720D01*
X274320Y-1799660D01*
X275940Y-1801260D01*
X277860Y-1802480D01*
X280020Y-1803220D01*
G37*
G36*
X411360Y-1803500D02*
G01*
X417500Y-1803500D01*
X419980Y-1803220D01*
X422140Y-1802480D01*
X424060Y-1801260D01*
X425680Y-1799660D01*
X426880Y-1797720D01*
X427640Y-1795580D01*
X427920Y-1793080D01*
X427920Y-1787940D01*
X411360Y-1787940D01*
G37*

%LPD*%
D10*
X1444449Y-200000D02*
G01*
X1474530Y-200000D01*
X1520000Y-154529D01*
X1444449Y-388069D02*
G01*
X1444449Y-200000D01*
X1300000Y-200000D01*
X1150000Y-650000D02*
G01*
X1150000Y-830000D01*
X1000000Y-980000D01*
X1000000Y-1200000D01*
X800000Y-400000D02*
G01*
X1000000Y-200000D01*
X1000000Y-400000D02*
G01*
X800000Y-400000D01*
X800000Y-800000D01*
D11*
X802358Y-2125000D02*
G01*
X915000Y-2125000D01*
X950000Y-2090000D01*
X950000Y-1925000D01*
D10*
X1097637Y-2125000D02*
G01*
X1265000Y-2125000D01*
X1300000Y-2090000D01*
X1300000Y-2077559D01*
D11*
X150000Y-1455000D02*
G01*
X150000Y-1355000D01*
X150000Y-1255000D02*
G01*
X150000Y-1355000D01*
X150000Y-955000D02*
G01*
X150000Y-1055000D01*
X150000Y-1055000D02*
G01*
X150000Y-1155000D01*
X150000Y-1155000D02*
G01*
X150000Y-1255000D01*
D10*
X400000Y-1660000D02*
G01*
X400000Y-1722440D01*
X100000Y-1660000D02*
G01*
X100000Y-1722440D01*
X300000Y-1722440D02*
G01*
X200000Y-1722440D01*
X200000Y-1777559D02*
G01*
X200000Y-1922440D01*
X100000Y-1850626D02*
G01*
X100000Y-1922440D01*
X100000Y-1777559D02*
G01*
X100000Y-1850626D01*
X200000Y-1777559D02*
G01*
X177559Y-1777559D01*
X150000Y-1750000D01*
X150000Y-1700000D01*
X300000Y-1550000D01*
X300000Y-1205000D01*
X250000Y-1155000D01*
D11*
X150000Y-1455000D02*
G01*
X150000Y-1600000D01*
X672440Y-1500000D02*
G01*
X672440Y-1587559D01*
X670000Y-1590000D01*
X727559Y-1500000D02*
G01*
X727559Y-1425000D01*
X527559Y-1500000D02*
G01*
X527559Y-1512559D01*
X771260Y-1756260D01*
X771260Y-1850000D01*
X771260Y-1850000D02*
G01*
X771260Y-1861260D01*
X835000Y-1925000D01*
X1072439Y-1925000D01*
X472440Y-1500000D02*
G01*
X472440Y-1572559D01*
X470000Y-1575000D01*
D10*
X1097637Y-2075000D02*
G01*
X1190000Y-2075000D01*
X1535000Y-310000D02*
G01*
X1535000Y-388078D01*
X845000Y-1397559D02*
G01*
X997560Y-1397559D01*
X1000000Y-1400000D01*
X1400000Y-1792440D02*
G01*
X1400000Y-1790000D01*
X1560000Y-1630000D01*
X1560000Y-1460000D01*
X1500000Y-1400000D01*
X1400000Y-1847559D02*
G01*
X1362560Y-1847559D01*
X1315000Y-1800000D01*
X1315000Y-1680000D01*
X1000000Y-300000D02*
G01*
X1300000Y-300000D01*
X1000000Y-500000D02*
G01*
X1300000Y-500000D01*
X722440Y-50000D02*
G01*
X555000Y-50000D01*
X1650000Y-822440D02*
G01*
X1647439Y-822440D01*
X1615000Y-790000D01*
X1430000Y-790000D01*
X1522439Y-1805000D02*
G01*
X1479880Y-1847559D01*
X1400000Y-1847559D01*
X1400000Y-1300000D02*
G01*
X1500000Y-1300000D01*
X1650000Y-877559D02*
G01*
X1650000Y-1740000D01*
X1585000Y-1805000D01*
X1577560Y-1805000D01*
X1500000Y-1300000D02*
G01*
X1650000Y-1300000D01*
X1577560Y-1805000D02*
G01*
X1577560Y-2172440D01*
X1500000Y-2250000D01*
X150000Y-2250000D01*
X50000Y-2150000D01*
X140000Y-100000D02*
G01*
X165000Y-125000D01*
X250000Y-355000D02*
G01*
X550000Y-355000D01*
X645000Y-450000D01*
X645000Y-955000D01*
X935000Y-1245000D01*
X1145000Y-1245000D01*
X1400000Y-1500000D01*
X1535000Y-388078D02*
G01*
X1535000Y-425000D01*
X1430000Y-530000D01*
X1430000Y-790000D01*
X1391260Y-828739D01*
X1391260Y-850000D01*
X545470Y-1850000D02*
G01*
X385000Y-1850000D01*
X350000Y-1815000D01*
X350000Y-1740000D01*
X332440Y-1722440D01*
X300000Y-1722440D01*
X802358Y-2025000D02*
G01*
X802358Y-1998618D01*
X657101Y-1853362D01*
X607892Y-1853362D01*
X604529Y-1850000D01*
X802358Y-2175000D02*
G01*
X728739Y-2175000D01*
X653739Y-2100000D01*
X604529Y-2100000D01*
X545470Y-2100000D02*
G01*
X400000Y-2100000D01*
X1097637Y-2175000D02*
G01*
X1300000Y-2175000D01*
X1370000Y-2105000D01*
X1370000Y-1920000D01*
X1210000Y-1760000D01*
X1055000Y-1760000D01*
X1000000Y-1705000D01*
X1000000Y-1500000D01*
X200000Y-1610000D02*
G01*
X200000Y-1405000D01*
X250000Y-1355000D01*
D11*
X1072439Y-1925000D02*
G01*
X1072439Y-1947440D01*
X1095000Y-1970000D01*
X1250000Y-1970000D01*
X1300000Y-2020000D01*
X1300000Y-2022440D01*
D10*
X1190000Y-2025000D02*
G01*
X1097637Y-2025000D01*
X460000Y-517440D02*
G01*
X570000Y-517440D01*
X570000Y-619461D02*
G01*
X570000Y-572559D01*
X570000Y-667440D02*
G01*
X570000Y-619461D01*
X570000Y-517440D02*
G01*
X570000Y-450000D01*
X800000Y-800000D02*
G01*
X900000Y-700000D01*
X1000000Y-700000D01*
D12*
G01*
X570000Y-572559D03*
G01*
X570000Y-517440D03*
G01*
X460000Y-572559D03*
G01*
X460000Y-517440D03*
G01*
X570000Y-722559D03*
G01*
X570000Y-667440D03*
D13*
G01*
X1625550Y-388069D03*
G01*
X1535000Y-388069D03*
G01*
X1444449Y-388069D03*
D14*
G01*
X1535000Y-621929D03*
D15*
G01*
X1097640Y-2175000D03*
G01*
X1097640Y-2125000D03*
G01*
X1097640Y-2075000D03*
G01*
X1097640Y-2025000D03*
G01*
X802359Y-2025000D03*
G01*
X802359Y-2075000D03*
G01*
X802359Y-2125000D03*
G01*
X802359Y-2175000D03*
D12*
G01*
X100000Y-1777559D03*
G01*
X100000Y-1722440D03*
G01*
X200000Y-1777559D03*
G01*
X200000Y-1722440D03*
G01*
X300000Y-1777559D03*
G01*
X300000Y-1722440D03*
G01*
X400000Y-1777559D03*
G01*
X400000Y-1722440D03*
G01*
X100000Y-1977559D03*
G01*
X100000Y-1922440D03*
G01*
X200000Y-1977559D03*
G01*
X200000Y-1922440D03*
D16*
G01*
X1577560Y-1805000D03*
G01*
X1522439Y-1805000D03*
D12*
G01*
X1400000Y-1792440D03*
G01*
X1400000Y-1847559D03*
G01*
X1650000Y-877559D03*
G01*
X1650000Y-822440D03*
G01*
X1300000Y-2077559D03*
G01*
X1300000Y-2022440D03*
D16*
G01*
X527559Y-1500000D03*
G01*
X472440Y-1500000D03*
G01*
X727559Y-1500000D03*
G01*
X672440Y-1500000D03*
G01*
X1127560Y-1925000D03*
G01*
X1072439Y-1925000D03*
G01*
X777560Y-50000D03*
G01*
X722440Y-50000D03*
D12*
G01*
X845000Y-1342440D03*
G01*
X845000Y-1397559D03*
D17*
G01*
X720000Y-616460D03*
G01*
X720000Y-423539D03*
D18*
G01*
X1454530Y-850000D03*
G01*
X1395469Y-850000D03*
G01*
X1520000Y-95470D03*
G01*
X1520000Y-154529D03*
G01*
X545470Y-2100000D03*
G01*
X604529Y-2100000D03*
G01*
X829530Y-1820000D03*
G01*
X770469Y-1820000D03*
G01*
X545470Y-1850000D03*
G01*
X604529Y-1850000D03*
D19*
G01*
X1300000Y-800000D03*
G01*
X1300000Y-700000D03*
G01*
X1300000Y-600000D03*
G01*
X1300000Y-500000D03*
G01*
X1300000Y-400000D03*
G01*
X1300000Y-300000D03*
G01*
X1300000Y-200000D03*
G01*
X1000000Y-800000D03*
G01*
X1000000Y-700000D03*
G01*
X1000000Y-600000D03*
G01*
X1000000Y-500000D03*
G01*
X1000000Y-400000D03*
G01*
X1000000Y-300000D03*
D20*
G01*
X1000000Y-200000D03*
D21*
G01*
X500000Y-200000D03*
G01*
X500000Y-800000D03*
G01*
X800000Y-800000D03*
G01*
X800000Y-200000D03*
D22*
G01*
X1300000Y-1200000D03*
D23*
G01*
X1200000Y-1100000D03*
G01*
X1200000Y-1200000D03*
G01*
X1100000Y-1100000D03*
G01*
X1000000Y-1200000D03*
G01*
X1100000Y-1200000D03*
G01*
X1000000Y-1300000D03*
G01*
X1100000Y-1300000D03*
G01*
X1000000Y-1400000D03*
G01*
X1100000Y-1400000D03*
G01*
X1000000Y-1500000D03*
G01*
X1100000Y-1600000D03*
G01*
X1100000Y-1500000D03*
G01*
X1200000Y-1600000D03*
G01*
X1200000Y-1500000D03*
G01*
X1300000Y-1600000D03*
G01*
X1300000Y-1500000D03*
G01*
X1400000Y-1600000D03*
G01*
X1500000Y-1500000D03*
G01*
X1400000Y-1500000D03*
G01*
X1500000Y-1400000D03*
G01*
X1400000Y-1400000D03*
G01*
X1500000Y-1300000D03*
G01*
X1400000Y-1300000D03*
G01*
X1500000Y-1200000D03*
G01*
X1400000Y-1100000D03*
G01*
X1400000Y-1200000D03*
G01*
X1300000Y-1100000D03*
D24*
G01*
X250000Y-1455000D03*
G01*
X150000Y-1455000D03*
G01*
X150000Y-1355000D03*
G01*
X250000Y-1355000D03*
G01*
X150000Y-1255000D03*
G01*
X250000Y-1255000D03*
G01*
X150000Y-1055000D03*
G01*
X150000Y-1155000D03*
G01*
X250000Y-1155000D03*
G01*
X250000Y-1055000D03*
G01*
X150000Y-955000D03*
G01*
X250000Y-955000D03*
G01*
X150000Y-855000D03*
G01*
X250000Y-855000D03*
G01*
X150000Y-755000D03*
G01*
X250000Y-755000D03*
G01*
X150000Y-655000D03*
G01*
X250000Y-655000D03*
G01*
X150000Y-555000D03*
G01*
X250000Y-555000D03*
G01*
X150000Y-455000D03*
G01*
X250000Y-455000D03*
G01*
X150000Y-355000D03*
G01*
X250000Y-355000D03*
D25*
G01*
X150000Y-255000D03*
D24*
G01*
X250000Y-255000D03*
D26*
G01*
X100000Y-1660000D03*
G01*
X400000Y-1660000D03*
G01*
X400000Y-2100000D03*
G01*
X200000Y-1610000D03*
G01*
X100000Y-1850630D03*
G01*
X470000Y-1575000D03*
G01*
X1190000Y-2025000D03*
G01*
X1190000Y-2075000D03*
G01*
X1535000Y-310000D03*
G01*
X555000Y-50000D03*
G01*
X50000Y-2150000D03*
G01*
X1150000Y-650000D03*
G01*
X570000Y-619459D03*
G01*
X570000Y-450000D03*
M02*
